<?xml version="1.0" encoding="UTF-8"?>
<!DOCTYPE svg PUBLIC "-//W3C//DTD SVG 1.1//EN" "http://www.w3.org/Graphics/SVG/1.1/DTD/svg11.dtd">
<svg version="1.1" xmlns="http://www.w3.org/2000/svg" xmlns:xlink="http://www.w3.org/1999/xlink" x="0" y="0" width="16" height="16" viewBox="0, 0, 16, 16">
  <g id="Background">
    <rect x="0" y="0" width="16" height="16" fill="#000000" fill-opacity="0"/>
  </g>
  <g id="Layer_1">
    <path d="M8,0 C3.582,0 0,3.582 0,8 C0,12.418 3.582,16 8,16 C12.418,16 16,12.418 16,8 C16,3.582 12.418,0 8,0 z M5,8 C5,6.343 6.343,5 8,5 C9.657,5 11,6.343 11,8 C11,9.657 9.657,11 8,11 C6.343,11 5,9.657 5,8 z M14.468,10.679 L14.468,10.679 L11.696,9.531 C11.892,9.059 12,8.542 12,8 C12,7.458 11.892,6.941 11.696,6.469 L14.468,5.321 C14.81,6.146 15,7.051 15,8 C15,8.949 14.811,9.854 14.468,10.679 L14.468,10.679 z M10.679,1.532 L10.679,1.532 L10.679,1.532 L9.531,4.304 C9.059,4.108 8.542,4 8,4 C7.458,4 6.941,4.108 6.469,4.304 L5.321,1.532 C6.146,1.19 7.051,1 8,1 C8.949,1 9.854,1.189 10.679,1.532 z M1.532,5.321 L4.304,6.469 C4.108,6.941 4,7.458 4,8 C4,8.542 4.108,9.059 4.304,9.531 L1.532,10.679 C1.19,9.854 1,8.949 1,8 C1,7.051 1.189,6.146 1.532,5.321 z M5.321,14.468 L6.469,11.696 C6.941,11.892 7.458,12 8,12 C8.542,12 9.059,11.892 9.531,11.696 L10.679,14.468 C9.854,14.81 8.949,15 8,15 C7.051,15 6.146,14.811 5.321,14.468 z" fill="#6C89A6"/>
  </g>
</svg>
