<?xml version="1.0" encoding="UTF-8"?>
<!DOCTYPE svg PUBLIC "-//W3C//DTD SVG 1.1//EN" "http://www.w3.org/Graphics/SVG/1.1/DTD/svg11.dtd">
<svg version="1.1" xmlns="http://www.w3.org/2000/svg" xmlns:xlink="http://www.w3.org/1999/xlink" x="0" y="0" width="22" height="22" viewBox="0, 0, 22, 22">
  <g id="Layer_1">
    <path d="M3.912,2.589 C-0.734,6.503 -1.326,13.443 2.589,18.088 C6.503,22.734 13.443,23.326 18.088,19.411 C22.734,15.497 23.326,8.557 19.411,3.912 C15.497,-0.734 8.557,-1.326 3.912,2.589 z M4.67,16.334 C2.015,13.184 2.115,8.632 4.718,5.607 L15.25,18.105 C11.827,20.158 7.325,19.485 4.67,16.334 z M17.281,16.393 L6.75,3.895 C10.173,1.842 14.675,2.515 17.33,5.665 C19.985,8.816 19.885,13.367 17.281,16.393 z" fill="#6CA67B"/>
  </g>
</svg>
