<?xml version="1.0" encoding="UTF-8"?>
<!DOCTYPE svg PUBLIC "-//W3C//DTD SVG 1.1//EN" "http://www.w3.org/Graphics/SVG/1.1/DTD/svg11.dtd">
<svg version="1.1" xmlns="http://www.w3.org/2000/svg" xmlns:xlink="http://www.w3.org/1999/xlink" x="0" y="0" width="96" height="96" viewBox="0, 0, 96, 96">
  <g id="Header">
    <path d="M48,0 C21.492,0 -0,21.492 -0,48 C-0,74.508 21.492,96 48,96 C74.508,96 96,74.508 96,48 C96,21.492 74.508,0 48,0 z M30,48 C30,38.058 38.058,30 48,30 C57.942,30 66,38.058 66,48 C66,57.942 57.942,66 48,66 C38.058,66 30,57.942 30,48 z M86.808,64.074 L86.808,64.074 L70.176,57.186 C71.352,54.354 72,51.252 72,48 C72,44.748 71.352,41.646 70.176,38.814 L86.808,31.926 C88.86,36.876 90,42.306 90,48 C90,53.694 88.866,59.124 86.808,64.074 L86.808,64.074 z M64.074,9.192 L64.074,9.192 L64.074,9.192 L57.186,25.824 C54.354,24.648 51.252,24 48,24 C44.748,24 41.646,24.648 38.814,25.824 L31.926,9.192 C36.876,7.14 42.306,6 48,6 C53.694,6 59.124,7.134 64.074,9.192 z M9.192,31.926 L25.824,38.814 C24.648,41.646 24,44.748 24,48 C24,51.252 24.648,54.354 25.824,57.186 L9.192,64.074 C7.14,59.124 6,53.694 6,48 C6,42.306 7.134,36.876 9.192,31.926 z M31.926,86.808 L38.814,70.176 C41.646,71.352 44.748,72 48,72 C51.252,72 54.354,71.352 57.186,70.176 L64.074,86.808 C59.124,88.86 53.694,90 48,90 C42.306,90 36.876,88.866 31.926,86.808 z" fill="#CCCCCC"/>
  </g>
</svg>
