<?xml version="1.0" encoding="UTF-8"?>
<!DOCTYPE svg PUBLIC "-//W3C//DTD SVG 1.1//EN" "http://www.w3.org/Graphics/SVG/1.1/DTD/svg11.dtd">
<svg version="1.1" xmlns="http://www.w3.org/2000/svg" xmlns:xlink="http://www.w3.org/1999/xlink" x="0" y="0" width="18" height="18" viewBox="0, 0, 18, 18">
  <g id="Navigation" transform="translate(-48.999, -66)">
    <path d="M66.441,81.318 L62.177,77.691 C61.737,77.295 61.265,77.113 60.884,77.13 C61.891,75.951 62.499,74.422 62.499,72.75 C62.499,69.022 59.477,66 55.749,66 C52.021,66 48.999,69.022 48.999,72.75 C48.999,76.479 52.021,79.5 55.749,79.5 C57.42,79.5 58.95,78.892 60.129,77.886 C60.111,78.266 60.294,78.738 60.691,79.179 L64.317,83.442 C64.938,84.132 65.951,84.19 66.57,83.571 C67.189,82.953 67.13,81.938 66.441,81.318 z M55.749,77.25 C53.264,77.25 51.249,75.236 51.249,72.75 C51.249,70.264 53.264,68.25 55.749,68.25 C58.234,68.25 60.249,70.264 60.249,72.75 C60.249,75.236 58.234,77.25 55.749,77.25 z" fill="#6C89A6"/>
  </g>
</svg>
