<?xml version="1.0" encoding="UTF-8"?>
<!DOCTYPE svg PUBLIC "-//W3C//DTD SVG 1.1//EN" "http://www.w3.org/Graphics/SVG/1.1/DTD/svg11.dtd">
<svg version="1.1" xmlns="http://www.w3.org/2000/svg" xmlns:xlink="http://www.w3.org/1999/xlink" x="0" y="0" width="96" height="96" viewBox="0, 0, 96, 96">
  <g id="Background">
    <rect x="0" y="0" width="96" height="96" fill="#000000" fill-opacity="0"/>
  </g>
  <g id="Header">
    <path d="M93.026,81.697 L70.284,62.352 C67.938,60.24 65.42,59.27 63.388,59.36 C68.759,53.072 72.002,44.918 72.002,36 C72.002,16.117 55.884,-0 36.001,-0 C16.118,-0 0,16.117 0,36 C0,55.888 16.118,72 36.001,72 C44.913,72 53.073,68.758 59.362,63.392 C59.266,65.419 60.242,67.936 62.359,70.288 L81.698,93.025 C85.01,96.705 90.413,97.014 93.714,93.713 C97.016,90.417 96.701,85.003 93.026,81.697 z M36.001,60 C22.747,60 12,49.259 12,36 C12,22.741 22.747,12 36.001,12 C49.255,12 60.002,22.741 60.002,36 C60.002,49.259 49.255,60 36.001,60 z" fill="#CCCCCC"/>
  </g>
</svg>
