<?xml version="1.0" encoding="UTF-8"?>
<!DOCTYPE svg PUBLIC "-//W3C//DTD SVG 1.1//EN" "http://www.w3.org/Graphics/SVG/1.1/DTD/svg11.dtd">
<svg version="1.1" xmlns="http://www.w3.org/2000/svg" xmlns:xlink="http://www.w3.org/1999/xlink" x="0" y="0" width="22" height="22" viewBox="0, 0, 22, 22">
  <g id="Background">
    <rect x="0" y="0" width="22" height="22" fill="#000000" fill-opacity="0"/>
  </g>
  <g id="Layer_1_Copy">
    <path d="M21.152,11.847 Q21.152,13.909 20.346,15.786 Q19.54,17.663 18.177,19.025 Q16.815,20.388 14.938,21.194 Q13.061,22 10.999,22 Q8.936,22 7.059,21.194 Q5.182,20.388 3.82,19.025 Q2.457,17.663 1.651,15.786 Q0.845,13.909 0.845,11.847 Q0.845,9.44 1.909,7.312 Q2.974,5.183 4.904,3.742 Q5.473,3.32 6.167,3.412 Q6.86,3.505 7.271,4.073 Q7.693,4.629 7.595,5.323 Q7.496,6.018 6.94,6.44 Q5.645,7.418 4.938,8.833 Q4.231,10.248 4.231,11.847 Q4.231,13.222 4.766,14.472 Q5.301,15.722 6.213,16.634 Q7.126,17.546 8.375,18.081 Q9.625,18.617 11,18.617 Q12.375,18.617 13.625,18.081 Q14.874,17.546 15.787,16.634 Q16.699,15.722 17.234,14.472 Q17.769,13.222 17.769,11.847 Q17.769,10.247 17.062,8.833 Q16.355,7.419 15.06,6.44 Q14.504,6.018 14.405,5.323 Q14.306,4.629 14.729,4.073 Q15.14,3.505 15.84,3.412 Q16.54,3.32 17.096,3.742 Q19.026,5.183 20.091,7.312 Q21.155,9.44 21.155,11.847 z M12.69,1.693 L12.69,10.155 Q12.69,10.843 12.188,11.345 Q11.685,11.847 10.998,11.847 Q10.311,11.848 9.808,11.345 Q9.305,10.841 9.305,10.155 L9.305,1.693 Q9.305,1.005 9.808,0.503 Q10.311,0.001 10.998,0 Q11.685,-0 12.188,0.503 Q12.69,1.007 12.69,1.693 z" fill="#FFFFFF"/>
  </g>
</svg>
