<?xml version="1.0" encoding="UTF-8"?>
<!DOCTYPE svg PUBLIC "-//W3C//DTD SVG 1.1//EN" "http://www.w3.org/Graphics/SVG/1.1/DTD/svg11.dtd">
<svg version="1.1" xmlns="http://www.w3.org/2000/svg" xmlns:xlink="http://www.w3.org/1999/xlink" x="0" y="0" width="22" height="22" viewBox="0, 0, 22, 22">
  <g id="Background">
    <rect x="0" y="0" width="22" height="22" fill="#000000" fill-opacity="0"/>
  </g>
  <g id="Layer_1">
    <path d="M10,-0 C15.522,-0 20,4.477 20,10 C19.995,11.171 19.814,12.349 19.357,13.431 L19.094,13.431 L19.094,10.54 C18.942,9.737 19.13,10.017 18.711,9.604 C18.522,7.707 18.708,8.696 18.085,6.651 L14.62,8.086 L14.883,8.949 C13.988,9.063 13.841,9.878 13.716,10.54 L13.716,13.431 L11.332,13.431 C12.903,12.934 13.595,11.541 13.75,10 C13.75,7.929 12.071,6.25 10,6.25 C7.929,6.25 6.25,7.929 6.25,10 C6.25,12.071 7.929,13.75 10,13.75 L10.389,13.711 C9.528,14.571 9.713,14.108 9.555,14.956 C8.69,14.87 9.185,14.955 8.086,14.62 L6.651,18.085 C7.682,18.514 8.814,18.75 10,18.75 L10.818,18.669 L11.222,18.744 L13.716,18.744 L13.716,19.237 C12.571,19.837 11.265,19.936 10,20 C4.477,20 -0,15.522 -0,10 C-0,4.477 4.477,-0 10,-0 z M1.915,6.651 C1.486,7.682 1.25,8.814 1.25,10 C1.25,11.186 1.487,12.317 1.915,13.349 L5.38,11.914 C5.135,11.324 5,10.677 5,10 C5,9.322 5.135,8.676 5.38,8.086 L1.915,6.651 z M10,1.25 C8.814,1.25 7.682,1.487 6.651,1.915 L8.086,5.38 C8.676,5.135 9.322,5 10,5 C10.677,5 11.324,5.135 11.914,5.38 L13.349,1.915 C12.317,1.486 11.186,1.25 10,1.25 z" fill="#FFFFFF"/>
    <g>
      <path d="M22,15.131 C22,15.017 21.957,14.924 21.871,14.848 C21.787,14.769 21.696,14.731 21.6,14.731 L17.794,14.731 L17.794,10.54 C17.794,10.272 17.662,10.143 17.406,10.151 L15.416,10.151 C15.15,10.151 15.016,10.28 15.016,10.54 L15.016,14.731 L11.222,14.731 C10.956,14.731 10.822,14.865 10.822,15.131 L10.822,17.044 C10.822,17.31 10.956,17.444 11.222,17.444 L15.016,17.444 L15.016,21.612 C15.016,21.878 15.15,22.01 15.416,21.999 L17.406,21.999 C17.672,21.999 17.801,21.87 17.794,21.612 L17.794,17.444 L21.6,17.444 C21.696,17.444 21.787,17.406 21.871,17.328 C21.957,17.254 22,17.158 22,17.044 z" fill="#FFFFFF"/>
    </g>
  </g>
  <g id="Layer_1_Copy" display="none">
    <g>
      <path d="M22,9.247 C22,9.036 21.915,8.862 21.746,8.721 C21.581,8.575 21.402,8.505 21.213,8.505 L13.721,8.505 L13.721,0.724 C13.721,0.226 13.462,-0.014 12.959,0.001 L9.041,0.001 C8.518,0.001 8.254,0.24 8.254,0.724 L8.254,8.505 L0.787,8.505 C0.264,8.505 -0,8.754 -0,9.247 L-0,12.799 C-0,13.293 0.264,13.542 0.787,13.542 L8.254,13.542 L8.254,21.28 C8.254,21.773 8.518,22.018 9.041,21.999 L12.959,21.999 C13.482,21.999 13.736,21.759 13.721,21.28 L13.721,13.542 L21.213,13.542 C21.402,13.542 21.581,13.471 21.746,13.326 C21.915,13.189 22,13.011 22,12.799 z" fill="#FFFFFF"/>
    </g>
  </g>
</svg>
