<?xml version="1.0" encoding="UTF-8"?>
<!DOCTYPE svg PUBLIC "-//W3C//DTD SVG 1.1//EN" "http://www.w3.org/Graphics/SVG/1.1/DTD/svg11.dtd">
<svg version="1.1" xmlns="http://www.w3.org/2000/svg" xmlns:xlink="http://www.w3.org/1999/xlink" x="0" y="0" width="22" height="22" viewBox="0, 0, 22, 22">
  <g id="Background">
    <rect x="0" y="0" width="22" height="22" fill="#000000" fill-opacity="0"/>
  </g>
  <g id="Layer_1">
    <path d="M19.25,9.625 L19.594,9.625 C20.161,9.625 20.625,9.161 20.625,8.594 L20.625,5.156 C20.625,4.589 20.161,4.125 19.594,4.125 L19.25,4.125 L19.25,0 L16.5,0 L16.5,4.125 L16.156,4.125 C15.589,4.125 15.125,4.589 15.125,5.156 L15.125,8.594 C15.125,9.161 15.589,9.625 16.156,9.625 L16.5,9.625 L16.5,22 L19.25,22 L19.25,9.625 z M16.5,5.5 L19.25,5.5 L19.25,8.25 L16.5,8.25 L16.5,5.5 z M12.719,17.875 C13.286,17.875 13.75,17.411 13.75,16.844 L13.75,13.406 C13.75,12.839 13.286,12.375 12.719,12.375 L12.375,12.375 L12.375,0 L9.625,0 L9.625,12.375 L9.281,12.375 C8.714,12.375 8.25,12.839 8.25,13.406 L8.25,16.844 C8.25,17.411 8.714,17.875 9.281,17.875 L9.625,17.875 L9.625,22 L12.375,22 L12.375,17.875 L12.719,17.875 z M9.625,13.75 L12.375,13.75 L12.375,16.5 L9.625,16.5 L9.625,13.75 z M5.844,9.625 C6.411,9.625 6.875,9.161 6.875,8.594 L6.875,5.156 C6.875,4.589 6.411,4.125 5.844,4.125 L5.5,4.125 L5.5,0 L2.75,0 L2.75,4.125 L2.406,4.125 C1.839,4.125 1.375,4.589 1.375,5.156 L1.375,8.594 C1.375,9.161 1.839,9.625 2.406,9.625 L2.75,9.625 L2.75,22 L5.5,22 L5.5,9.625 L5.844,9.625 z M2.75,5.5 L5.5,5.5 L5.5,8.25 L2.75,8.25 L2.75,5.5 z" fill="#6CA67B"/>
  </g>
</svg>
