<?xml version="1.0" encoding="UTF-8"?>
<!DOCTYPE svg PUBLIC "-//W3C//DTD SVG 1.1//EN" "http://www.w3.org/Graphics/SVG/1.1/DTD/svg11.dtd">
<svg version="1.1" xmlns="http://www.w3.org/2000/svg" xmlns:xlink="http://www.w3.org/1999/xlink" x="0" y="0" width="36.673" height="32" viewBox="0, 0, 36.673, 32">
  <g id="Header" transform="translate(-9, -9)">
    <g>
      <path d="M36.205,22.063 C41.434,22.063 45.673,26.302 45.673,31.531 C45.673,36.761 41.434,41 36.205,41 C30.975,41 26.736,36.761 26.736,31.531 C26.736,26.302 30.975,22.063 36.205,22.063 z" fill="#FFFFFF"/>
      <path d="M23.186,9.001 C29.92,9.124 35.423,13.798 36.802,20.362 C36.603,20.35 36.404,20.347 36.205,20.346 C30.027,20.346 25.019,25.354 25.019,31.531 C25.012,33.321 25.457,35.088 26.271,36.677 C25.21,36.935 24.119,37.048 23.028,37.055 C15.28,37.055 9,30.775 9,23.028 C9.021,15.251 15.269,9.049 23.028,9 L23.186,9.001 z" fill="#FFFFFF"/>
    </g>
  </g>
</svg>
