<?xml version="1.0" encoding="UTF-8"?>
<!DOCTYPE svg PUBLIC "-//W3C//DTD SVG 1.1//EN" "http://www.w3.org/Graphics/SVG/1.1/DTD/svg11.dtd">
<svg version="1.1" xmlns="http://www.w3.org/2000/svg" xmlns:xlink="http://www.w3.org/1999/xlink" x="0" y="0" width="28" height="28" viewBox="0, 0, 28, 28">
  <g id="Powerful_Search" transform="translate(-145.852, -1408)">
    <path d="M172.985,1431.828 L166.352,1426.186 C165.668,1425.57 164.933,1425.286 164.341,1425.313 C165.907,1423.479 166.852,1421.1 166.852,1418.5 C166.852,1412.701 162.152,1408 156.352,1408 C150.554,1408 145.852,1412.701 145.852,1418.5 C145.852,1424.3 150.554,1429 156.352,1429 C158.953,1429 161.333,1428.054 163.167,1426.489 C163.139,1427.081 163.422,1427.815 164.04,1428.5 L169.68,1435.132 C170.646,1436.205 172.223,1436.295 173.186,1435.333 C174.148,1434.371 174.057,1432.793 172.985,1431.828 z M156.352,1425.5 C152.487,1425.5 149.352,1422.366 149.352,1418.5 C149.352,1414.633 152.487,1411.5 156.352,1411.5 C160.219,1411.5 163.352,1414.633 163.352,1418.5 C163.352,1422.366 160.219,1425.5 156.352,1425.5 z" fill="#284A6C"/>
  </g>
</svg>
