<?xml version="1.0" encoding="UTF-8"?>
<!DOCTYPE svg PUBLIC "-//W3C//DTD SVG 1.1//EN" "http://www.w3.org/Graphics/SVG/1.1/DTD/svg11.dtd">
<svg version="1.1" xmlns="http://www.w3.org/2000/svg" xmlns:xlink="http://www.w3.org/1999/xlink" x="0" y="0" width="339" height="38.491" viewBox="0, 0, 339, 38.491">
  <g id="Background">
    <rect x="0" y="0" width="339" height="38.491" fill="#000000" fill-opacity="0"/>
  </g>
  <g id="Any_Device">
    <path d="M5.055,26.837 C5.546,26.837 5.946,27.221 5.946,27.692 L5.946,29.319 L5.984,29.319 L5.984,29.32 L6.003,29.342 L6.003,30.162 L5.984,30.184 L5.984,30.184 L5.946,30.184 L5.946,37.635 C5.946,38.106 5.546,38.49 5.055,38.49 L0.949,38.49 C0.457,38.49 0.058,38.106 0.058,37.635 L0.058,31.248 L0.019,31.248 L0.019,31.248 L0,31.225 L0,30.406 L0.019,30.383 L0.019,30.383 L0.058,30.383 L0.058,30.176 L0.019,30.176 L0.019,30.176 L0,30.153 L0,29.334 L0.019,29.311 L0.019,29.312 L0.058,29.312 L0.058,28.772 L0.036,28.772 L0.036,28.772 L0.025,28.759 L0.025,28.327 L0.036,28.314 L0.036,28.314 L0.058,28.314 L0.058,27.692 C0.058,27.221 0.457,26.837 0.949,26.837 L5.055,26.837 z M3.002,37.303 C2.747,37.303 2.54,37.501 2.54,37.747 C2.54,37.992 2.747,38.19 3.002,38.19 C3.257,38.19 3.464,37.992 3.464,37.747 C3.464,37.501 3.257,37.303 3.002,37.303 z M3.002,37.346 C3.232,37.346 3.419,37.525 3.419,37.747 C3.419,37.968 3.232,38.147 3.002,38.147 C2.771,38.147 2.584,37.968 2.584,37.747 C2.584,37.525 2.771,37.346 3.002,37.346 z M5.571,28.258 L0.398,28.258 L0.398,37.069 L5.571,37.069 L5.571,28.258 z M2.063,27.475 C2.008,27.475 1.963,27.517 1.963,27.57 C1.963,27.623 2.008,27.665 2.063,27.665 C2.118,27.665 2.163,27.623 2.163,27.57 C2.163,27.517 2.118,27.475 2.063,27.475 L2.063,27.475 z M3.432,27.517 L2.584,27.517 C2.554,27.517 2.529,27.541 2.529,27.57 C2.529,27.599 2.554,27.623 2.584,27.623 L3.432,27.623 C3.462,27.623 3.487,27.599 3.487,27.57 C3.487,27.541 3.462,27.517 3.432,27.517 L3.432,27.517 z" fill="#7F7F7F"/>
    <path d="M134.386,26.484 C134.481,26.484 134.57,26.503 134.648,26.533 C134.726,26.562 134.792,26.604 134.847,26.649 C134.874,26.672 134.899,26.696 134.921,26.72 C134.943,26.744 134.963,26.768 134.98,26.792 C135.014,26.841 135.039,26.889 135.057,26.933 C135.076,26.977 135.087,27.017 135.095,27.051 C135.096,27.056 135.097,27.06 135.098,27.064 C135.099,27.068 135.1,27.073 135.1,27.077 C135.102,27.084 135.103,27.092 135.104,27.1 C135.106,27.114 135.108,27.127 135.109,27.139 C135.11,27.151 135.111,27.162 135.112,27.17 C135.112,27.179 135.112,27.187 135.112,27.193 C135.113,27.205 135.113,27.21 135.113,27.21 L135.113,29.229 C135.144,29.236 135.157,29.254 135.16,29.284 L135.16,31.062 C135.157,31.097 135.144,31.108 135.113,31.118 L135.113,32.019 C135.144,32.026 135.157,32.044 135.16,32.075 L135.16,32.909 C135.16,32.931 135.149,32.949 135.13,32.959 C135.124,32.962 135.118,32.963 135.113,32.965 L135.113,37.764 C135.113,37.764 135.113,37.769 135.113,37.777 C135.112,37.785 135.113,37.797 135.111,37.813 C135.109,37.844 135.104,37.888 135.091,37.94 C135.078,37.992 135.056,38.051 135.025,38.11 C135.009,38.139 134.99,38.168 134.969,38.197 C134.948,38.225 134.925,38.252 134.9,38.277 C134.874,38.302 134.847,38.326 134.819,38.347 C134.791,38.368 134.762,38.386 134.733,38.402 C134.674,38.434 134.615,38.456 134.563,38.469 C134.511,38.481 134.466,38.487 134.435,38.488 C134.42,38.49 134.408,38.49 134.399,38.49 C134.391,38.49 134.386,38.49 134.386,38.49 L129.617,38.49 C129.617,38.49 129.613,38.49 129.604,38.49 C129.596,38.49 129.584,38.49 129.568,38.488 C129.537,38.487 129.493,38.481 129.441,38.469 C129.389,38.456 129.33,38.434 129.271,38.402 C129.242,38.386 129.213,38.368 129.184,38.347 C129.156,38.326 129.129,38.302 129.104,38.277 C129.079,38.252 129.056,38.225 129.034,38.197 C129.013,38.168 128.995,38.139 128.979,38.11 C128.947,38.051 128.925,37.992 128.913,37.94 C128.9,37.888 128.894,37.844 128.893,37.813 C128.891,37.797 128.892,37.785 128.891,37.777 C128.891,37.769 128.891,37.764 128.891,37.764 L128.891,27.21 C128.891,27.21 128.891,27.206 128.891,27.198 C128.892,27.189 128.891,27.177 128.893,27.162 C128.894,27.13 128.9,27.086 128.913,27.034 C128.925,26.982 128.947,26.923 128.979,26.864 C128.995,26.835 129.013,26.806 129.034,26.777 C129.056,26.75 129.079,26.723 129.104,26.697 C129.129,26.672 129.156,26.649 129.184,26.627 C129.213,26.607 129.242,26.588 129.271,26.572 C129.33,26.541 129.389,26.519 129.441,26.506 C129.493,26.493 129.537,26.488 129.568,26.486 C129.584,26.484 129.596,26.485 129.604,26.484 C129.613,26.484 129.617,26.484 129.617,26.484 L129.617,26.484 L134.386,26.484 z M134.674,27.634 L129.302,27.634 L129.302,37.285 L134.674,37.285 L134.674,27.634 z M132.209,26.833 L131.773,26.833 C131.748,26.833 131.728,26.853 131.728,26.877 C131.728,26.901 131.748,26.92 131.773,26.92 L132.209,26.92 C132.234,26.92 132.254,26.901 132.254,26.877 C132.254,26.853 132.234,26.833 132.209,26.833 z" fill="#7F7F7F"/>
    <path d="M165.588,37.024 L144.835,37.024 L144.835,25.294 L165.588,25.294 z M155.155,38.037 L155.155,37.757 L155.493,37.757 L155.493,38.125 z M154.873,37.757 L155.099,37.757 L155.099,38.02 L154.873,37.959 z M155.099,37.701 L154.873,37.701 L154.873,37.511 L155.099,37.444 z M155.493,37.701 L155.155,37.701 L155.155,37.426 L155.493,37.329 z M166.997,24.19 C166.997,23.896 166.76,23.659 166.467,23.659 L143.9,23.659 C143.607,23.659 143.369,23.896 143.369,24.19 L143.369,37.959 C143.369,38.253 143.607,38.49 143.9,38.49 L166.467,38.49 C166.76,38.49 166.997,38.253 166.997,37.959 z" fill="#7F7F7F"/>
    <path d="M26.728,18.009 C27.263,18.009 27.7,18.446 27.7,18.981 L27.7,37.519 C27.7,38.053 27.263,38.49 26.728,38.49 L14.9,38.49 C14.365,38.49 13.928,38.053 13.928,37.519 L13.928,18.981 C13.928,18.446 14.365,18.009 14.9,18.009 L26.728,18.009 z M20.814,36.917 C20.526,36.917 20.293,37.151 20.293,37.438 C20.293,37.727 20.526,37.959 20.814,37.959 C21.102,37.959 21.335,37.727 21.335,37.438 C21.335,37.151 21.102,36.917 20.814,36.917 z M26.95,20.014 L14.71,20.014 C14.669,20.014 14.635,20.048 14.635,20.089 L14.635,36.405 C14.635,36.446 14.669,36.479 14.71,36.479 L26.95,36.479 C26.991,36.479 27.025,36.446 27.025,36.405 L27.025,20.089 C27.025,20.048 26.991,20.014 26.95,20.014 z M20.81,18.955 C20.73,18.955 20.665,19.02 20.665,19.1 C20.665,19.18 20.73,19.245 20.81,19.245 C20.89,19.245 20.955,19.18 20.955,19.1 C20.955,19.02 20.89,18.955 20.81,18.955 z M20.394,19.042 C20.356,19.042 20.326,19.072 20.326,19.11 C20.326,19.148 20.356,19.178 20.394,19.178 C20.432,19.178 20.462,19.148 20.462,19.11 C20.462,19.072 20.432,19.042 20.394,19.042 z" fill="#7F7F7F"/>
    <path d="M299.157,18.362 C299.709,18.362 300.156,18.808 300.156,19.358 L300.156,37.495 C300.156,38.044 299.709,38.49 299.157,38.49 L286.678,38.49 C286.126,38.49 285.678,38.044 285.678,37.495 L285.678,19.358 C285.678,18.808 286.126,18.362 286.678,18.362 L299.157,18.362 z M293.266,37.342 L292.478,37.342 C292.328,37.342 292.206,37.463 292.206,37.613 C292.206,37.764 292.328,37.885 292.478,37.885 L293.266,37.885 C293.416,37.885 293.538,37.764 293.538,37.613 C293.538,37.463 293.416,37.342 293.266,37.342 z M299.276,20.099 L286.558,20.099 L286.558,36.753 L299.276,36.753 L299.276,20.099 z M294.649,19.166 C294.577,19.166 294.519,19.224 294.519,19.295 C294.519,19.368 294.577,19.426 294.649,19.426 C294.721,19.426 294.78,19.368 294.78,19.295 C294.78,19.224 294.721,19.166 294.649,19.166 z M294.098,19.194 C294.042,19.194 293.996,19.239 293.996,19.295 C293.996,19.352 294.042,19.397 294.098,19.397 C294.155,19.397 294.201,19.352 294.201,19.295 C294.201,19.239 294.155,19.194 294.098,19.194 z" fill="#7F7F7F"/>
    <path d="M277.086,25.425 C277.509,25.425 277.852,25.759 277.852,26.171 L277.852,29.046 L277.884,29.046 C277.898,29.046 277.91,29.058 277.91,29.071 L277.91,29.843 C277.91,29.857 277.898,29.868 277.884,29.868 L277.852,29.868 L277.852,37.744 C277.852,38.156 277.509,38.49 277.086,38.49 L272.017,38.49 C271.594,38.49 271.251,38.156 271.251,37.744 L271.251,29.47 L271.226,29.47 C271.212,29.47 271.2,29.458 271.2,29.445 L271.2,28.648 C271.2,28.635 271.212,28.624 271.226,28.624 L271.251,28.624 L271.251,28.225 L271.226,28.225 C271.212,28.225 271.2,28.214 271.2,28.2 L271.2,27.416 C271.2,27.402 271.212,27.391 271.226,27.391 L271.251,27.391 L271.251,26.171 C271.251,25.759 271.594,25.425 272.017,25.425 L277.086,25.425 z M274.97,37.634 L274.14,37.634 C273.986,37.634 273.86,37.757 273.86,37.908 C273.86,38.059 273.986,38.182 274.14,38.182 L274.97,38.182 C275.125,38.182 275.25,38.059 275.25,37.908 C275.25,37.757 275.125,37.634 274.97,37.634 L274.97,37.634 z M277.642,26.606 L271.468,26.606 L271.468,37.458 L277.642,37.458 L277.642,26.606 z M276.035,25.73 C275.947,25.73 275.875,25.799 275.875,25.885 C275.875,25.971 275.947,26.041 276.035,26.041 C276.123,26.041 276.194,25.971 276.194,25.885 C276.194,25.799 276.123,25.73 276.035,25.73 L276.035,25.73 z M273.362,25.786 C273.306,25.786 273.26,25.831 273.26,25.885 C273.26,25.94 273.306,25.985 273.362,25.985 C273.419,25.985 273.464,25.94 273.464,25.885 C273.464,25.831 273.419,25.786 273.362,25.786 z M273.649,25.786 C273.593,25.786 273.547,25.831 273.547,25.885 C273.547,25.94 273.593,25.985 273.649,25.985 C273.706,25.985 273.751,25.94 273.751,25.885 C273.751,25.831 273.706,25.786 273.649,25.786 L273.649,25.786 z M275.065,25.786 L274.045,25.786 C274.003,25.786 273.968,25.819 273.968,25.86 C273.968,25.902 274.003,25.935 274.045,25.935 L275.065,25.935 C275.108,25.935 275.142,25.902 275.142,25.86 C275.142,25.819 275.108,25.786 275.065,25.786 L275.065,25.786 z" fill="#7F7F7F"/>
    <g>
      <path d="M261.917,8.475 C262.559,8.475 263.078,8.993 263.078,9.633 L263.078,35.501 C263.078,36.141 262.559,36.659 261.917,36.659 L252.629,36.659 C251.987,36.659 251.468,36.141 251.468,35.501 L251.468,34.803 L254.164,34.803 C254.782,34.803 255.284,34.305 255.284,33.689 L255.284,14.845 L261.724,14.845 L261.724,13.301 L255.284,13.301 L255.284,12.239 L261.724,12.239 L261.724,10.695 L255.173,10.695 C254.978,10.307 254.595,10.077 254.164,10.065 L254.164,10.065 L251.468,10.065 L251.468,9.633 C251.468,8.993 251.987,8.475 252.629,8.475 L261.917,8.475 z M257.273,28.647 C256.845,28.647 256.499,28.993 256.499,29.42 C256.499,29.846 256.845,30.192 257.273,30.192 C257.7,30.192 258.047,29.846 258.047,29.42 C258.047,28.993 257.7,28.647 257.273,28.647 z" fill="#7F7F7F"/>
      <path d="M254.167,10.591 C254.498,10.591 254.766,10.858 254.766,11.187 L254.766,33.752 C254.766,34.082 254.498,34.348 254.167,34.348 L236.363,34.348 L236.577,36.235 C238.583,36.317 240.613,36.381 242.585,36.795 C242.827,36.846 243.658,36.972 243.736,37.342 C243.736,37.976 239.468,38.49 234.203,38.49 C228.939,38.49 224.671,37.976 224.671,37.342 C224.799,36.846 226.6,36.648 226.847,36.612 C228.494,36.372 230.167,36.275 231.829,36.235 L232.044,34.348 L214.24,34.348 C213.909,34.348 213.641,34.082 213.641,33.752 L213.641,11.187 C213.641,10.858 213.909,10.591 214.24,10.591 L254.167,10.591 z M253.568,11.54 L214.839,11.54 L214.839,31.503 L253.568,31.503 L253.568,11.54 z" fill="#7F7F7F"/>
    </g>
    <g>
      <path d="M121.122,27.774 L121.122,30.771 C121.122,31.447 120.573,31.995 119.897,31.995 L102.425,31.995 L102.767,35.812 C102.767,35.812 102.844,36.719 103.445,37.145 L104.737,38.009 C104.737,38.009 104.912,38.129 104.912,38.261 C104.912,38.392 104.846,38.49 103.85,38.49 L91.781,38.49 C90.786,38.49 90.72,38.392 90.72,38.261 C90.72,38.129 90.895,38.009 90.895,38.009 L92.186,37.145 C92.788,36.719 92.865,35.812 92.865,35.812 L93.207,31.995 L75.735,31.995 C75.058,31.995 74.51,31.447 74.51,30.771 L74.51,27.774 L121.122,27.774 z M98.266,29.166 Q98.17,29.166 98.047,29.208 Q97.924,29.25 97.869,29.25 Q97.825,29.25 97.691,29.212 Q97.565,29.175 97.47,29.175 Q97.249,29.175 97.108,29.357 Q96.967,29.54 96.967,29.823 Q96.967,30.139 97.153,30.464 Q97.34,30.789 97.529,30.789 Q97.595,30.789 97.698,30.747 Q97.798,30.706 97.88,30.706 Q97.96,30.706 98.069,30.745 Q98.184,30.787 98.246,30.787 Q98.387,30.787 98.526,30.604 Q98.665,30.421 98.727,30.223 Q98.613,30.189 98.527,30.064 Q98.44,29.939 98.44,29.786 Q98.44,29.672 98.489,29.577 Q98.538,29.481 98.666,29.373 Q98.498,29.166 98.266,29.166 L98.266,29.166 z M98.244,28.69 Q98.023,28.74 97.927,28.877 Q97.832,29.014 97.831,29.201 Q97.963,29.186 98.021,29.148 Q98.08,29.111 98.138,29.041 Q98.193,28.976 98.222,28.893 Q98.251,28.81 98.251,28.743 Q98.251,28.725 98.249,28.717 Q98.246,28.699 98.244,28.69 L98.244,28.69 z" fill="#7F7F7F"/>
      <path d="M119.897,0 C120.573,0 121.122,0.548 121.122,1.225 L121.122,27.665 L74.51,27.665 L74.51,1.225 C74.51,0.548 75.058,0 75.735,0 L119.897,0 z M119.218,1.836 L76.413,1.836 L76.413,25.98 L119.218,25.98 L119.218,1.836 z" fill="#7F7F7F"/>
    </g>
    <path d="M62.697,20.834 C63.173,20.834 63.558,21.219 63.558,21.695 L63.558,37.161 C63.558,37.299 63.526,37.438 63.459,37.56 L66.388,37.56 L66.388,38.098 L66.388,38.098 C66.388,38.098 66.042,38.321 65.834,38.367 C65.627,38.414 65.319,38.475 65.065,38.482 C64.835,38.489 64.604,38.49 64.373,38.49 L64.373,38.49 L37.688,38.49 L37.688,38.49 C37.455,38.489 37.221,38.489 36.988,38.482 C36.734,38.475 36.427,38.414 36.219,38.367 C36.012,38.321 35.666,38.098 35.666,38.098 L35.666,38.098 L35.666,37.56 L38.625,37.56 C38.556,37.438 38.529,37.299 38.526,37.161 L38.526,21.695 C38.526,21.219 38.911,20.834 39.387,20.834 L62.697,20.834 z M62.697,21.879 L39.356,21.879 L39.356,36.453 L62.697,36.453 L62.697,21.879 z" fill="#7F7F7F"/>
    <path d="M201.111,21.541 C201.562,21.541 201.974,21.936 201.974,22.384 L201.974,36.922 L205.519,36.922 L205.519,37.625 L204.649,38.49 L175.689,38.49 L174.797,37.603 L174.797,36.922 L178.44,36.922 L178.44,22.384 C178.44,21.936 178.769,21.541 179.221,21.541 L201.111,21.541 z M200.596,23.011 L179.622,23.011 L179.622,36.047 L200.596,36.047 L200.596,23.011 z" fill="#7F7F7F"/>
    <path d="M334.592,21.54 C335.043,21.54 335.455,21.936 335.455,22.384 L335.455,36.922 L339,36.922 L339,37.624 L338.13,38.49 L309.17,38.49 L308.278,37.603 L308.278,36.922 L311.922,36.922 L311.922,22.384 C311.922,21.936 312.251,21.54 312.702,21.54 L334.592,21.54 z M334.077,23.011 L313.103,23.011 L313.103,36.047 L334.077,36.047 L334.077,23.011 z" fill="#7F7F7F"/>
  </g>
</svg>
