<?xml version="1.0" encoding="UTF-8"?>
<!DOCTYPE svg PUBLIC "-//W3C//DTD SVG 1.1//EN" "http://www.w3.org/Graphics/SVG/1.1/DTD/svg11.dtd">
<svg version="1.1" xmlns="http://www.w3.org/2000/svg" xmlns:xlink="http://www.w3.org/1999/xlink" x="0" y="0" width="27" height="27" viewBox="0, 0, 27, 27">
  <g id="Header" transform="translate(-888.901, -11.5)">
    <path d="M905.599,20.829 L903.569,20.829 C903.329,20.829 903.061,21.144 903.061,21.567 L903.061,23.032 L905.599,23.032 L905.599,25.122 L903.061,25.122 L903.061,31.395 L900.665,31.395 L900.665,25.122 L898.493,25.122 L898.493,23.032 L900.665,23.032 L900.665,21.803 C900.665,20.04 901.889,18.605 903.569,18.605 L905.599,18.605 z M902.401,11.5 C894.945,11.5 888.901,17.544 888.901,25 C888.901,32.456 894.945,38.5 902.401,38.5 C909.857,38.5 915.901,32.456 915.901,25 C915.901,17.544 909.857,11.5 902.401,11.5" fill="#FFFFFF"/>
  </g>
</svg>
