<?xml version="1.0" encoding="UTF-8"?>
<!DOCTYPE svg PUBLIC "-//W3C//DTD SVG 1.1//EN" "http://www.w3.org/Graphics/SVG/1.1/DTD/svg11.dtd">
<svg version="1.1" xmlns="http://www.w3.org/2000/svg" xmlns:xlink="http://www.w3.org/1999/xlink" x="0" y="0" width="27" height="27" viewBox="0, 0, 27, 27">
  <g id="Header" transform="translate(-926.951, -11.5)">
    <path d="M945.941,22.559 C945.946,22.674 945.948,22.788 945.948,22.904 C945.948,26.417 943.274,30.469 938.383,30.469 C936.882,30.469 935.484,30.028 934.308,29.274 C934.516,29.299 934.727,29.311 934.942,29.311 C936.188,29.311 937.334,28.886 938.244,28.173 C937.081,28.152 936.099,27.383 935.76,26.327 C935.923,26.357 936.089,26.374 936.261,26.374 C936.503,26.374 936.738,26.342 936.961,26.281 C935.745,26.036 934.828,24.962 934.828,23.674 C934.828,23.662 934.828,23.651 934.829,23.64 C935.187,23.84 935.597,23.959 936.033,23.973 C935.319,23.496 934.85,22.683 934.85,21.759 C934.85,21.272 934.981,20.816 935.21,20.423 C936.521,22.032 938.481,23.09 940.69,23.201 C940.645,23.007 940.622,22.803 940.622,22.595 C940.622,21.127 941.812,19.936 943.28,19.936 C944.045,19.936 944.736,20.259 945.221,20.776 C945.827,20.657 946.396,20.436 946.91,20.131 C946.711,20.751 946.29,21.273 945.741,21.602 C946.279,21.538 946.791,21.395 947.268,21.183 C946.911,21.716 946.461,22.185 945.941,22.559 M940.451,11.5 C932.994,11.5 926.951,17.544 926.951,25 C926.951,32.456 932.994,38.5 940.451,38.5 C947.906,38.5 953.951,32.456 953.951,25 C953.951,17.544 947.906,11.5 940.451,11.5" fill="#FFFFFF"/>
  </g>
</svg>
