<?xml version="1.0" encoding="UTF-8"?>
<!DOCTYPE svg PUBLIC "-//W3C//DTD SVG 1.1//EN" "http://www.w3.org/Graphics/SVG/1.1/DTD/svg11.dtd">
<svg version="1.1" xmlns="http://www.w3.org/2000/svg" xmlns:xlink="http://www.w3.org/1999/xlink" x="0" y="0" width="44" height="28" viewBox="0, 0, 44, 28">
  <g id="Background">
    <rect x="0" y="0" width="44" height="28" fill="#000000" fill-opacity="0"/>
  </g>
  <g id="Layer_1">
    <path d="M33.228,7.84 C32.634,7.84 32.052,7.891 31.486,7.986 C30.073,3.367 25.695,0 20.511,0 C14.183,0 9.054,5.014 9.054,11.201 C9.054,11.752 9.097,12.295 9.176,12.826 C8.872,12.791 8.565,12.767 8.252,12.767 C3.95,12.767 0.462,16.177 0.462,20.383 C0.462,24.59 3.95,28 8.252,28 L18.985,28 L18.985,19.815 L14.462,19.815 L22,9.908 L29.538,19.815 L25.015,19.815 L25.015,28 L33.228,28 C38.923,28 43.538,23.487 43.538,17.919 C43.538,12.353 38.923,7.84 33.228,7.84" fill="#284A6C"/>
  </g>
</svg>
