<?xml version="1.0" encoding="UTF-8"?>
<!DOCTYPE svg PUBLIC "-//W3C//DTD SVG 1.1//EN" "http://www.w3.org/Graphics/SVG/1.1/DTD/svg11.dtd">
<svg version="1.1" xmlns="http://www.w3.org/2000/svg" xmlns:xlink="http://www.w3.org/1999/xlink" x="0" y="0" width="43" height="28" viewBox="0, 0, 43, 28">
  <g id="Background">
    <rect x="0" y="0" width="43" height="28" fill="#000000" fill-opacity="0"/>
  </g>
  <g id="Layer_1">
    <path d="M36.709,8.014 C36.121,9.593 35.5,11.204 34.952,12.597 C37.095,15.693 38.356,19.579 38.356,23.849 C38.356,24.516 38.326,25.186 38.266,25.84 C38.161,26.999 39.015,28.023 40.174,28.129 C40.239,28.135 40.303,28.138 40.367,28.138 C41.444,28.138 42.364,27.315 42.463,26.222 C42.534,25.441 42.57,24.643 42.57,23.849 C42.57,17.629 40.352,12.072 36.709,8.014 M21.5,5.382 C22.421,5.382 23.321,5.461 24.199,5.61 C25.122,4.455 26.155,3.181 27.161,1.971 C25.365,1.451 23.469,1.168 21.5,1.168 C9.685,1.168 0.43,11.131 0.43,23.849 C0.43,24.631 0.465,25.414 0.533,26.176 C0.636,27.336 1.671,28.188 2.818,28.087 C3.978,27.984 4.833,26.96 4.73,25.801 C4.673,25.163 4.644,24.507 4.644,23.849 C4.644,13.494 12.048,5.382 21.5,5.382 M17.555,21.395 C16.1,23.914 17.081,25.988 19.097,27.151 C21.112,28.316 23.399,28.128 24.853,25.609 C26.307,23.09 35.488,0.607 34.689,0.146 C33.89,-0.316 19.009,18.876 17.555,21.395" fill="#284A6C"/>
  </g>
</svg>
