<?xml version="1.0" encoding="UTF-8"?>
<!DOCTYPE svg PUBLIC "-//W3C//DTD SVG 1.1//EN" "http://www.w3.org/Graphics/SVG/1.1/DTD/svg11.dtd">
<svg version="1.1" xmlns="http://www.w3.org/2000/svg" xmlns:xlink="http://www.w3.org/1999/xlink" x="0" y="0" width="18" height="18" viewBox="0, 0, 18, 18">
  <g id="Background">
    <rect x="0" y="0" width="18" height="18" fill="#000000" fill-opacity="0"/>
  </g>
  <g id="Layer_1">
    <path d="M9,0 C4.03,0 0,4.03 0,9 C0,13.97 4.03,18 9,18 C13.97,18 18,13.97 18,9 C18,4.03 13.97,0 9,0 z M5.625,9 C5.625,7.136 7.136,5.625 9,5.625 C10.864,5.625 12.375,7.136 12.375,9 C12.375,10.864 10.864,12.375 9,12.375 C7.136,12.375 5.625,10.864 5.625,9 z M16.277,12.014 L16.277,12.014 L13.158,10.722 C13.378,10.191 13.5,9.61 13.5,9 C13.5,8.39 13.378,7.809 13.158,7.278 L16.277,5.986 C16.661,6.914 16.875,7.932 16.875,9 C16.875,10.068 16.662,11.086 16.277,12.014 L16.277,12.014 z M12.014,1.724 L12.014,1.724 L12.014,1.724 L10.722,4.842 C10.191,4.622 9.61,4.5 9,4.5 C8.39,4.5 7.809,4.622 7.278,4.842 L5.986,1.724 C6.914,1.339 7.932,1.125 9,1.125 C10.068,1.125 11.086,1.338 12.014,1.724 z M1.724,5.986 L4.842,7.278 C4.622,7.809 4.5,8.39 4.5,9 C4.5,9.61 4.622,10.191 4.842,10.722 L1.724,12.014 C1.339,11.086 1.125,10.068 1.125,9 C1.125,7.932 1.338,6.914 1.724,5.986 z M5.986,16.277 L7.278,13.158 C7.809,13.378 8.39,13.5 9,13.5 C9.61,13.5 10.191,13.378 10.722,13.158 L12.014,16.277 C11.086,16.661 10.068,16.875 9,16.875 C7.932,16.875 6.914,16.662 5.986,16.277 z" fill="#284A6C"/>
  </g>
</svg>
