<?xml version="1.0" encoding="UTF-8"?>
<!DOCTYPE svg PUBLIC "-//W3C//DTD SVG 1.1//EN" "http://www.w3.org/Graphics/SVG/1.1/DTD/svg11.dtd">
<svg version="1.1" xmlns="http://www.w3.org/2000/svg" xmlns:xlink="http://www.w3.org/1999/xlink" x="0" y="0" width="26.755" height="28" viewBox="0, 0, 26.755, 28">
  <g id="Standard_Tags" transform="translate(-146.617, -2109)">
    <path d="M152.251,2116.695 C152.815,2116.695 153.308,2116.486 153.725,2116.071 C154.146,2115.648 154.357,2115.159 154.357,2114.602 C154.357,2114.019 154.146,2113.518 153.725,2113.107 C153.308,2112.696 152.815,2112.49 152.251,2112.49 C151.661,2112.49 151.164,2112.696 150.747,2113.107 C150.333,2113.518 150.126,2114.019 150.126,2114.602 C150.126,2115.159 150.333,2115.648 150.747,2116.071 C151.164,2116.486 151.661,2116.695 152.251,2116.695 M172.758,2123.923 C173.153,2124.364 173.356,2124.876 173.371,2125.459 C173.383,2126.046 173.176,2126.546 172.758,2126.965 L163.285,2136.338 C162.868,2136.757 162.349,2136.977 161.728,2137 C161.111,2137.026 160.611,2136.805 160.228,2136.338 L148.167,2122.992 C147.742,2122.525 147.381,2121.942 147.076,2121.236 C146.771,2120.537 146.617,2119.883 146.617,2119.289 L146.617,2111.167 C146.617,2110.581 146.824,2110.072 147.245,2109.646 C147.667,2109.217 148.186,2109 148.795,2109 L156.967,2109 C157.268,2109 157.587,2109.037 157.93,2109.108 C158.272,2109.179 158.618,2109.291 158.968,2109.437 C159.314,2109.586 159.641,2109.755 159.945,2109.942 C160.25,2110.125 160.502,2110.326 160.698,2110.54 z" fill="#284A6C"/>
  </g>
</svg>
