<?xml version="1.0" encoding="UTF-8"?>
<!DOCTYPE svg PUBLIC "-//W3C//DTD SVG 1.1//EN" "http://www.w3.org/Graphics/SVG/1.1/DTD/svg11.dtd">
<svg version="1.1" xmlns="http://www.w3.org/2000/svg" xmlns:xlink="http://www.w3.org/1999/xlink" x="0" y="0" width="70" height="28" viewBox="0, 0, 70, 28">
  <g id="Background">
    <rect x="0" y="0" width="70" height="28" fill="#000000" fill-opacity="0"/>
  </g>
  <g id="Layer_1">
    <g>
      <path d="M0.778,0 L28.778,0 L28.778,28 L0.778,28 L0.778,0 z" fill="#264565"/>
      <path d="M35,0 C42.732,0 49,6.268 49,14 C49,21.732 42.732,28 35,28 C33.415,27.981 31.802,27.779 30.333,27.158 L30.333,25.477 C31.77,26.234 33.409,26.364 35,26.444 C41.873,26.444 47.444,20.873 47.444,14 C47.444,7.127 41.873,1.556 35,1.556 L35,1.556 C33.324,1.64 33.324,1.576 31.299,2.115 C30.962,2.205 30.655,2.387 30.333,2.523 L30.333,0.842 C31.778,0.136 33.428,0.079 35,0 z" fill="#264565"/>
      <path d="M55.222,0 L69.222,14 L55.222,28 L48.661,21.439 C48.985,20.96 48.674,21.424 49.319,19.897 L55.222,25.8 L67.022,14 L55.222,2.2 L49.319,8.103 C48.674,6.576 48.985,7.04 48.661,6.561 L55.222,0 z" fill="#264565"/>
    </g>
  </g>
</svg>
