<?xml version="1.0" encoding="UTF-8"?>
<!DOCTYPE svg PUBLIC "-//W3C//DTD SVG 1.1//EN" "http://www.w3.org/Graphics/SVG/1.1/DTD/svg11.dtd">
<svg version="1.1" xmlns="http://www.w3.org/2000/svg" xmlns:xlink="http://www.w3.org/1999/xlink" x="0" y="0" width="27" height="27" viewBox="0, 0, 27, 27">
  <g id="Header" transform="translate(-965, -11.5)">
    <path d="M985.179,30.595 L982.445,30.595 L982.445,25.72 C982.445,24.587 982.049,23.813 981.06,23.813 C980.304,23.813 979.855,24.335 979.657,24.839 C979.585,25.018 979.566,25.27 979.566,25.522 L979.566,30.595 L976.832,30.595 L976.832,24.605 C976.832,23.507 976.797,22.59 976.76,21.798 L979.135,21.798 L979.261,23.021 L979.315,23.021 C979.675,22.446 980.556,21.601 982.032,21.601 C983.83,21.601 985.179,22.806 985.179,25.396 z M973.811,20.719 C972.947,20.719 972.39,20.107 972.39,19.352 C972.39,18.578 972.965,17.985 973.846,17.985 C974.728,17.985 975.268,18.578 975.286,19.352 C975.286,20.107 974.728,20.719 973.811,20.719 M975.196,30.595 L972.461,30.595 L972.461,21.798 L975.196,21.798 z M978.5,11.5 C971.044,11.5 965,17.544 965,25 C965,32.456 971.044,38.5 978.5,38.5 C985.956,38.5 992,32.456 992,25 C992,17.544 985.956,11.5 978.5,11.5" fill="#FFFFFF"/>
  </g>
</svg>
