<?xml version="1.0" encoding="UTF-8"?>
<!DOCTYPE svg PUBLIC "-//W3C//DTD SVG 1.1//EN" "http://www.w3.org/Graphics/SVG/1.1/DTD/svg11.dtd">
<svg version="1.1" xmlns="http://www.w3.org/2000/svg" xmlns:xlink="http://www.w3.org/1999/xlink" x="0" y="0" width="26.568" height="28" viewBox="0, 0, 26.568, 28">
  <g id="Reminder_Tags" transform="translate(-146.716, -2768)">
    <g>
      <path d="M156.98,2768 C157.588,2768 158.264,2768.149 158.998,2768.444 C159.737,2768.735 160.296,2769.097 160.677,2769.541 L172.675,2782.897 C173.067,2783.359 173.272,2783.882 173.283,2784.463 C173.295,2785.049 173.093,2785.549 172.675,2785.966 L163.284,2795.354 C162.866,2795.776 162.355,2795.988 161.747,2796 C160.849,2795.837 161.14,2796.012 160.761,2795.743 C163.44,2793.779 164.492,2791.304 164.812,2788.125 C164.812,2783.051 160.699,2778.938 155.625,2778.938 C152.11,2779.039 150.923,2780.071 148.616,2782.379 L148.249,2781.968 C147.835,2781.524 147.473,2780.954 147.171,2780.252 C146.865,2779.551 146.716,2778.887 146.716,2778.268 L146.716,2770.163 C146.716,2769.582 146.925,2769.074 147.339,2768.645 C147.753,2768.216 148.268,2768 148.876,2768 L156.98,2768 z M152.303,2771.521 C151.721,2771.521 151.229,2771.719 150.826,2772.118 C150.431,2772.517 150.23,2773.009 150.23,2773.591 C150.23,2774.177 150.431,2774.669 150.826,2775.075 C151.229,2775.478 151.721,2775.68 152.303,2775.68 C152.885,2775.68 153.381,2775.478 153.784,2775.075 C154.191,2774.669 154.392,2774.177 154.392,2773.591 C154.392,2773.009 154.191,2772.517 153.784,2772.118 C153.381,2771.719 152.885,2771.521 152.303,2771.521 z" fill="#284A6C"/>
      <path d="M158.352,2788.126 C158.568,2788.126 158.753,2788.202 158.91,2788.357 C159.064,2788.513 159.141,2788.696 159.141,2788.915 L159.141,2789.703 C159.141,2789.919 159.064,2790.105 158.91,2790.259 C158.753,2790.414 158.568,2790.49 158.352,2790.49 L154.802,2790.49 C154.586,2790.49 154.398,2790.414 154.246,2790.259 C154.091,2790.105 154.013,2789.919 154.013,2789.703 L154.013,2785.118 C154.013,2784.902 154.091,2784.716 154.246,2784.564 C154.398,2784.405 154.586,2784.329 154.802,2784.329 L155.591,2784.329 C155.82,2784.329 156.007,2784.405 156.153,2784.564 C156.298,2784.716 156.37,2784.902 156.37,2785.118 L156.37,2788.126 z M155.63,2793.636 C156.401,2793.636 157.116,2793.49 157.781,2793.202 C158.444,2792.911 159.025,2792.518 159.526,2792.02 C160.027,2791.52 160.42,2790.937 160.711,2790.274 C160.999,2789.611 161.143,2788.894 161.143,2788.126 C161.143,2787.356 160.999,2786.639 160.711,2785.976 C160.42,2785.313 160.027,2784.733 159.526,2784.23 C159.025,2783.732 158.442,2783.339 157.777,2783.048 C157.107,2782.76 156.392,2782.614 155.63,2782.614 C154.862,2782.614 154.143,2782.76 153.475,2783.048 C152.808,2783.339 152.225,2783.732 151.73,2784.23 C151.234,2784.733 150.84,2785.313 150.552,2785.976 C150.261,2786.639 150.117,2787.356 150.117,2788.126 C150.117,2788.894 150.261,2789.611 150.552,2790.274 C150.84,2790.937 151.234,2791.52 151.73,2792.02 C152.225,2792.518 152.808,2792.911 153.475,2793.202 C154.143,2793.49 154.862,2793.636 155.63,2793.636 M155.63,2780.25 C156.722,2780.25 157.744,2780.454 158.698,2780.866 C159.652,2781.278 160.486,2781.838 161.203,2782.552 C161.918,2783.264 162.482,2784.098 162.888,2785.054 C163.296,2786.011 163.5,2787.035 163.5,2788.126 C163.5,2789.215 163.296,2790.239 162.888,2791.194 C162.482,2792.152 161.918,2792.986 161.203,2793.7 C160.486,2794.412 159.652,2794.975 158.698,2795.384 C157.744,2795.796 156.722,2796 155.63,2796 C154.538,2796 153.514,2795.796 152.556,2795.384 C151.603,2794.975 150.766,2794.412 150.053,2793.7 C149.34,2792.986 148.778,2792.152 148.366,2791.194 C147.956,2790.239 147.75,2789.215 147.75,2788.126 C147.75,2787.035 147.956,2786.011 148.366,2785.054 C148.778,2784.098 149.34,2783.264 150.053,2782.552 C150.766,2781.838 151.603,2781.278 152.556,2780.866 C153.514,2780.454 154.538,2780.25 155.63,2780.25" fill="#284A6C"/>
    </g>
  </g>
</svg>
