<?xml version="1.0" encoding="UTF-8"?>
<!DOCTYPE svg PUBLIC "-//W3C//DTD SVG 1.1//EN" "http://www.w3.org/Graphics/SVG/1.1/DTD/svg11.dtd">
<svg version="1.1" xmlns="http://www.w3.org/2000/svg" xmlns:xlink="http://www.w3.org/1999/xlink" x="0" y="0" width="92.993" height="28" viewBox="0, 0, 92.993, 28">
  <g id="Any_Device" transform="translate(-113.503, -4169)">
    <g>
      <path d="M132.544,4183.875 C132.584,4188.113 136.262,4189.523 136.302,4189.541 C136.271,4189.64 135.715,4191.55 134.365,4193.523 C133.198,4195.229 131.987,4196.928 130.078,4196.963 C128.204,4196.998 127.601,4195.852 125.457,4195.852 C123.315,4195.852 122.645,4196.928 120.87,4196.998 C119.028,4197.068 117.626,4195.154 116.449,4193.454 C114.045,4189.978 112.207,4183.631 114.674,4179.347 C115.9,4177.219 118.091,4175.872 120.468,4175.837 C122.277,4175.803 123.984,4177.054 125.089,4177.054 C126.194,4177.054 128.269,4175.549 130.449,4175.771 C131.362,4175.809 133.925,4176.139 135.57,4178.548 C135.438,4178.63 132.513,4180.333 132.544,4183.875 M129.021,4173.471 C129.999,4172.287 130.657,4170.639 130.477,4169 C129.068,4169.057 127.364,4169.939 126.353,4171.122 C125.447,4172.169 124.653,4173.846 124.867,4175.453 C126.438,4175.575 128.043,4174.655 129.021,4173.471" fill="#284A6C"/>
      <g>
        <path d="M169.249,4187.059 C169.249,4188.019 168.471,4188.797 167.511,4188.797 C166.551,4188.797 165.773,4188.019 165.773,4187.059 L165.773,4179.894 C165.773,4178.934 166.551,4178.156 167.511,4178.156 C168.471,4178.156 169.249,4178.934 169.249,4179.894 L169.249,4187.059 z" fill="#284A6C"/>
        <path d="M165.179,4178.419 L165.179,4189.602 C165.179,4190.632 164.344,4191.468 163.314,4191.468 L162.085,4191.468 L162.085,4195.262 C162.085,4196.222 161.306,4197 160.346,4197 C159.387,4197 158.608,4196.222 158.608,4195.262 L158.608,4191.468 L156.319,4191.468 L156.319,4195.262 C156.319,4196.222 155.541,4197 154.581,4197 C153.621,4197 152.843,4196.222 152.843,4195.262 L152.843,4191.468 L151.613,4191.468 C150.583,4191.468 149.748,4190.632 149.748,4189.602 L149.748,4178.419 L165.179,4178.419 z" fill="#284A6C"/>
        <path d="M149.112,4187.038 C149.112,4187.998 148.334,4188.775 147.374,4188.775 C146.414,4188.775 145.636,4187.998 145.636,4187.038 L145.636,4179.873 C145.636,4178.913 146.414,4178.135 147.374,4178.135 C148.334,4178.135 149.112,4178.913 149.112,4179.873 L149.112,4187.038 z" fill="#284A6C"/>
        <path d="M162.23,4169 C162.345,4169.011 162.298,4168.997 162.375,4169.03 C162.499,4169.097 162.545,4169.251 162.478,4169.375 L161.254,4171.632 C163.669,4172.813 165.039,4175.173 165.179,4177.808 L149.748,4177.808 C149.804,4175.212 151.318,4172.772 153.68,4171.645 L152.45,4169.375 C152.383,4169.251 152.428,4169.097 152.552,4169.03 C152.63,4168.997 152.582,4169.011 152.698,4169 C152.789,4169.013 152.847,4169.059 152.897,4169.132 L154.14,4171.425 C155.18,4170.941 156.326,4170.745 157.464,4170.695 C158.597,4170.727 159.765,4170.914 160.795,4171.411 L162.031,4169.132 C162.074,4169.049 162.146,4169.025 162.23,4169 z M161.025,4173.696 C160.669,4173.696 160.38,4173.984 160.38,4174.34 C160.38,4174.696 160.669,4174.985 161.025,4174.985 C161.381,4174.985 161.669,4174.696 161.669,4174.34 C161.669,4173.984 161.381,4173.696 161.025,4173.696 z M153.903,4173.696 C153.547,4173.696 153.258,4173.984 153.258,4174.34 C153.258,4174.696 153.547,4174.985 153.903,4174.985 C154.258,4174.985 154.547,4174.696 154.547,4174.34 C154.547,4173.984 154.258,4173.696 153.903,4173.696 z" fill="#284A6C"/>
      </g>
      <path d="M178.582,4172.964 L189.99,4171.411 L189.995,4182.414 L178.593,4182.479 z M189.985,4183.682 L189.994,4194.695 L178.592,4193.127 L178.591,4183.608 z M191.368,4171.208 L206.493,4169 L206.493,4182.274 L191.368,4182.395 z M206.497,4183.786 L206.493,4197 L191.368,4194.865 L191.346,4183.761 z" fill="#284A6C" id="path13"/>
    </g>
  </g>
</svg>
