<?xml version="1.0" encoding="UTF-8"?>
<!DOCTYPE svg PUBLIC "-//W3C//DTD SVG 1.1//EN" "http://www.w3.org/Graphics/SVG/1.1/DTD/svg11.dtd">
<svg version="1.1" xmlns="http://www.w3.org/2000/svg" xmlns:xlink="http://www.w3.org/1999/xlink" x="0" y="0" width="43.186" height="36" viewBox="0, 0, 43.186, 36">
  <g id="Packages" transform="translate(-490.412, -280.335)">
    <path d="M511.971,301.032 C511.487,301.032 510.963,300.895 510.4,300.621 C509.837,300.347 509.289,300.019 508.75,299.637 C508.207,299.255 507.683,298.854 507.169,298.428 C506.65,298.007 506.2,297.659 505.808,297.375 C503.914,295.936 502.048,294.516 500.193,293.111 C498.343,291.702 496.458,290.277 494.534,288.823 C494.177,288.539 493.756,288.162 493.281,287.682 C492.801,287.208 492.361,286.679 491.945,286.101 C491.533,285.524 491.181,284.941 490.892,284.344 C490.603,283.752 490.456,283.208 490.456,282.728 C490.456,282.087 490.74,281.529 491.298,281.049 C491.866,280.574 492.463,280.335 493.105,280.335 L530.931,280.335 C531.567,280.335 532.164,280.574 532.722,281.049 C533.276,281.529 533.555,282.087 533.555,282.728 C533.555,283.208 533.408,283.752 533.119,284.344 C532.83,284.941 532.478,285.524 532.066,286.101 C531.655,286.679 531.205,287.208 530.73,287.682 C530.255,288.162 529.834,288.539 529.477,288.823 C527.558,290.257 525.668,291.682 523.818,293.097 C521.967,294.511 520.092,295.936 518.203,297.375 C517.811,297.659 517.366,298.007 516.857,298.428 C516.348,298.854 515.824,299.255 515.276,299.637 C514.727,300.019 514.174,300.347 513.611,300.621 C513.048,300.895 512.534,301.032 512.064,301.032 L512.015,301.032 z M511.971,306.397 C512.828,306.397 513.65,306.275 514.429,306.03 C515.212,305.795 515.961,305.477 516.68,305.095 C517.4,304.713 518.095,304.273 518.766,303.788 C519.437,303.294 520.092,302.784 520.739,302.27 C522.687,300.714 524.655,299.182 526.642,297.688 C528.625,296.2 530.627,294.702 532.639,293.199 C532.796,293.077 532.957,292.96 533.119,292.837 C533.285,292.725 533.447,292.583 533.599,292.426 L533.599,313.637 C533.599,314.372 533.339,315.003 532.815,315.537 C532.292,316.065 531.665,316.335 530.931,316.335 L493.105,316.335 C492.37,316.335 491.739,316.065 491.205,315.537 C490.677,315.003 490.412,314.372 490.412,313.637 L490.412,292.426 C490.564,292.583 490.726,292.725 490.892,292.837 C491.054,292.96 491.215,293.077 491.372,293.199 C493.389,294.702 495.386,296.2 497.373,297.688 C499.356,299.182 501.324,300.714 503.277,302.27 C503.884,302.76 504.525,303.245 505.196,303.739 C505.867,304.229 506.567,304.674 507.281,305.071 C508.001,305.467 508.755,305.795 509.543,306.03 C510.336,306.275 511.144,306.397 511.971,306.397" fill="#284A6C"/>
  </g>
</svg>
