<?xml version="1.0" encoding="UTF-8"?>
<!DOCTYPE svg PUBLIC "-//W3C//DTD SVG 1.1//EN" "http://www.w3.org/Graphics/SVG/1.1/DTD/svg11.dtd">
<svg version="1.1" xmlns="http://www.w3.org/2000/svg" xmlns:xlink="http://www.w3.org/1999/xlink" x="0" y="0" width="18" height="18" viewBox="0, 0, 18, 18">
  <g id="Layer_1">
    <g>
      <path d="M13.353,7.558 C15.919,7.558 18,9.639 18,12.206 C18,14.773 15.919,16.853 13.353,16.853 C10.786,16.853 8.705,14.773 8.705,12.206 C8.705,9.639 10.786,7.558 13.353,7.558 z" fill="#284A6C"/>
      <path d="M6.963,1.147 C10.268,1.208 12.969,3.502 13.646,6.724 C13.548,6.718 13.451,6.716 13.353,6.716 C10.321,6.716 7.863,9.174 7.863,12.206 C7.859,13.084 8.077,13.951 8.477,14.731 C7.956,14.858 7.421,14.913 6.885,14.917 C3.082,14.917 -0,11.835 -0,8.032 C0.01,4.215 3.077,1.171 6.885,1.147 L6.963,1.147 z" fill="#284A6C"/>
    </g>
  </g>
</svg>
