<?xml version="1.0" encoding="UTF-8"?>
<!DOCTYPE svg PUBLIC "-//W3C//DTD SVG 1.1//EN" "http://www.w3.org/Graphics/SVG/1.1/DTD/svg11.dtd">
<svg version="1.1" xmlns="http://www.w3.org/2000/svg" xmlns:xlink="http://www.w3.org/1999/xlink" x="0" y="0" width="24" height="32" viewBox="0, 0, 24, 32">
  <g id="Background">
    <rect x="0" y="0" width="24" height="32" fill="#000000" fill-opacity="0"/>
  </g>
  <g id="Layer_1">
    <g>
      <path d="M9.272,3.353 C9.822,3.353 10.431,3.488 11.095,3.754 C11.762,4.017 12.268,4.344 12.611,4.745 L23.45,16.81 C23.804,17.228 23.989,17.7 24,18.225 C24.01,18.754 23.828,19.206 23.45,19.583 L14.966,28.064 C14.589,28.444 14.128,28.636 13.578,28.647 C12.767,28.5 13.029,28.658 12.688,28.415 C15.107,26.641 16.058,24.404 16.347,21.533 C16.347,16.949 12.632,13.233 8.048,13.233 C4.872,13.325 3.801,14.258 1.716,16.342 L1.385,15.971 C1.011,15.57 0.684,15.055 0.411,14.421 C0.135,13.788 0,13.188 0,12.629 L0,5.307 C0,4.782 0.189,4.323 0.563,3.936 C0.937,3.549 1.402,3.353 1.951,3.353 L9.272,3.353 z M5.047,6.534 C4.522,6.534 4.077,6.712 3.713,7.073 C3.356,7.433 3.174,7.878 3.174,8.404 C3.174,8.933 3.356,9.377 3.713,9.745 C4.077,10.109 4.522,10.291 5.047,10.291 C5.573,10.291 6.021,10.109 6.385,9.745 C6.752,9.377 6.934,8.933 6.934,8.404 C6.934,7.878 6.752,7.433 6.385,7.073 C6.021,6.712 5.573,6.534 5.047,6.534 z" fill="#7F7F7F"/>
      <path d="M10.511,21.534 C10.706,21.534 10.874,21.603 11.015,21.742 C11.155,21.884 11.224,22.049 11.224,22.246 L11.224,22.959 C11.224,23.154 11.155,23.321 11.015,23.461 C10.874,23.6 10.706,23.669 10.511,23.669 L7.304,23.669 C7.109,23.669 6.94,23.6 6.802,23.461 C6.662,23.321 6.592,23.154 6.592,22.959 L6.592,18.816 C6.592,18.621 6.662,18.454 6.802,18.316 C6.94,18.173 7.109,18.104 7.304,18.104 L8.017,18.104 C8.224,18.104 8.393,18.173 8.525,18.316 C8.655,18.454 8.721,18.621 8.721,18.816 L8.721,21.534 z M8.053,26.512 C8.749,26.512 9.394,26.379 9.995,26.119 C10.595,25.857 11.12,25.501 11.572,25.051 C12.024,24.599 12.379,24.073 12.642,23.474 C12.902,22.875 13.033,22.228 13.033,21.534 C13.033,20.838 12.902,20.191 12.642,19.592 C12.379,18.993 12.024,18.469 11.572,18.015 C11.12,17.565 10.593,17.209 9.992,16.947 C9.387,16.687 8.741,16.555 8.053,16.555 C7.358,16.555 6.709,16.687 6.106,16.947 C5.503,17.209 4.976,17.565 4.53,18.015 C4.081,18.469 3.726,18.993 3.465,19.592 C3.203,20.191 3.072,20.838 3.072,21.534 C3.072,22.228 3.203,22.875 3.465,23.474 C3.726,24.073 4.081,24.599 4.53,25.051 C4.976,25.501 5.503,25.857 6.106,26.119 C6.709,26.379 7.358,26.512 8.053,26.512 M8.053,14.419 C9.039,14.419 9.962,14.603 10.824,14.975 C11.685,15.347 12.439,15.853 13.087,16.499 C13.732,17.142 14.242,17.896 14.609,18.759 C14.977,19.624 15.162,20.548 15.162,21.534 C15.162,22.518 14.977,23.442 14.609,24.305 C14.242,25.17 13.732,25.924 13.087,26.569 C12.439,27.213 11.685,27.721 10.824,28.091 C9.962,28.463 9.039,28.647 8.053,28.647 C7.066,28.647 6.141,28.463 5.276,28.091 C4.414,27.721 3.659,27.213 3.015,26.569 C2.371,25.924 1.863,25.17 1.49,24.305 C1.12,23.442 0.934,22.518 0.934,21.534 C0.934,20.548 1.12,19.624 1.49,18.759 C1.863,17.896 2.371,17.142 3.015,16.499 C3.659,15.853 4.414,15.347 5.276,14.975 C6.141,14.603 7.066,14.419 8.053,14.419" fill="#7F7F7F"/>
    </g>
  </g>
</svg>
