<?xml version="1.0" encoding="UTF-8"?>
<!DOCTYPE svg PUBLIC "-//W3C//DTD SVG 1.1//EN" "http://www.w3.org/Graphics/SVG/1.1/DTD/svg11.dtd">
<svg version="1.1" xmlns="http://www.w3.org/2000/svg" xmlns:xlink="http://www.w3.org/1999/xlink" x="0" y="0" width="20" height="20" viewBox="0, 0, 20, 20">
  <g id="Background">
    <rect x="0" y="0" width="20" height="20" fill="#000000" fill-opacity="0"/>
  </g>
  <g id="Layer_1">
    <path d="M20,10 C20,12.485 17.985,14.5 15.5,14.5 C13.015,14.5 11,12.485 11,10 C11,7.515 13.015,5.5 15.5,5.5 C17.985,5.5 20,7.515 20,10 z M18,10 C18,8.619 16.881,7.5 15.5,7.5 C14.119,7.5 13,8.619 13,10 C13,11.381 14.119,12.5 15.5,12.5 C16.881,12.5 18,11.381 18,10 z" fill="#5C7999"/>
    <path d="M-0,10 C-0,7.515 2.015,5.5 4.5,5.5 C6.985,5.5 9,7.515 9,10 C9,12.485 6.985,14.5 4.5,14.5 C2.015,14.5 -0,12.485 -0,10 z" fill="#5C7999"/>
  </g>
  <g id="Layer_2" display="none">
    <g>
      <path d="M15.5,14.5 C13.015,14.5 11,12.485 11,10 C11,7.515 13.015,5.5 15.5,5.5 C17.985,5.5 20,7.515 20,10 C20,12.485 17.985,14.5 15.5,14.5 z" fill="#FFFFFF"/>
      <path d="M15.5,5.5 C17.985,5.5 20,7.515 20,10 C20,12.485 17.985,14.5 15.5,14.5 C13.015,14.5 11,12.485 11,10 C11,7.515 13.015,5.5 15.5,5.5 z M15.5,6.5 C13.567,6.5 12,8.067 12,10 C12,11.933 13.567,13.5 15.5,13.5 C17.433,13.5 19,11.933 19,10 C19,8.067 17.433,6.5 15.5,6.5 z" fill="#5C7999"/>
    </g>
    <g>
      <path d="M4.5,14.5 C2.015,14.5 0,12.485 0,10 C0,7.515 2.015,5.5 4.5,5.5 C6.985,5.5 9,7.515 9,10 C9,12.485 6.985,14.5 4.5,14.5 z" fill="#FFFFFF"/>
      <path d="M4.5,5.5 C6.985,5.5 9,7.515 9,10 C9,12.485 6.985,14.5 4.5,14.5 C2.015,14.5 0,12.485 0,10 C0,7.515 2.015,5.5 4.5,5.5 z M4.5,6.5 C2.567,6.5 1,8.067 1,10 C1,11.933 2.567,13.5 4.5,13.5 C6.433,13.5 8,11.933 8,10 C8,8.067 6.433,6.5 4.5,6.5 z" fill="#5C7999"/>
    </g>
    <path d="M4.5,12.5 C3.119,12.5 2,11.381 2,10 C2,8.619 3.119,7.5 4.5,7.5 C5.881,7.5 7,8.619 7,10 C7,11.381 5.881,12.5 4.5,12.5 z" fill="#5C7999"/>
  </g>
</svg>
