<?xml version="1.0" encoding="UTF-8"?>
<!DOCTYPE svg PUBLIC "-//W3C//DTD SVG 1.1//EN" "http://www.w3.org/Graphics/SVG/1.1/DTD/svg11.dtd">
<svg version="1.1" xmlns="http://www.w3.org/2000/svg" xmlns:xlink="http://www.w3.org/1999/xlink" x="0" y="0" width="47" height="50" viewBox="0, 0, 47, 50">
  <g id="Background">
    <rect x="0" y="0" width="47" height="50" fill="#000000" fill-opacity="0"/>
  </g>
  <g id="Layer_1">
    <g>
      <path d="M43.18,0.233 C44.255,0.233 45.166,0.616 45.898,1.375 C46.631,2.134 47,3.031 47,4.06 L47,18.398 C47,19.493 46.736,20.668 46.195,21.908 C45.661,23.149 45.021,24.158 44.288,24.943 L38.447,31.478 L27.588,20.628 L25.578,18.618 L23.135,16.175 C22.132,15.171 20.842,14.634 19.422,14.635 C18.005,14.634 16.711,15.172 15.709,16.175 L14.572,17.274 L13.374,18.514 L13.42,18.468 C12.406,19.473 11.867,20.771 11.867,22.199 C11.867,23.637 12.412,24.931 13.438,25.93 L15.85,28.343 L17.84,30.333 L17.864,30.357 L29.256,41.761 L23.121,48.624 C22.389,49.41 21.485,49.786 20.409,49.766 C19.334,49.746 18.43,49.37 17.691,48.624 L1.076,32.017 C0.337,31.278 -0.019,30.394 0.001,29.358 C0.021,28.328 0.384,27.405 1.076,26.586 L22.303,2.958 C22.976,2.173 23.966,1.533 25.272,1.018 C26.572,0.497 27.766,0.233 28.842,0.233 L43.18,0.233 z M37.116,6.462 C36.087,6.462 35.209,6.812 34.496,7.518 C33.777,8.224 33.421,9.095 33.421,10.124 C33.421,11.16 33.777,12.031 34.496,12.75 C35.209,13.463 36.087,13.819 37.116,13.819 C38.145,13.819 39.016,13.463 39.729,12.75 C40.428,12.031 40.784,11.16 40.784,10.124 C40.784,9.095 40.428,8.224 39.729,7.518 C39.016,6.812 38.145,6.462 37.116,6.462 z" fill="#6C89A6"/>
      <path d="M16.199,21.263 C15.719,21.739 15.479,22.318 15.479,22.995 C15.479,23.677 15.719,24.243 16.199,24.71 L18.638,27.149 L24.386,21.405 L21.942,18.961 C21.467,18.485 20.892,18.245 20.219,18.245 C19.551,18.245 18.972,18.485 18.496,18.961 L17.326,20.093 z M20.652,29.164 L38.423,46.955 L47,49.767 L44.184,41.189 L26.396,23.415 z" fill="#6C89A6"/>
    </g>
  </g>
</svg>
