<?xml version="1.0" encoding="UTF-8"?>
<!DOCTYPE svg PUBLIC "-//W3C//DTD SVG 1.1//EN" "http://www.w3.org/Graphics/SVG/1.1/DTD/svg11.dtd">
<svg version="1.1" xmlns="http://www.w3.org/2000/svg" xmlns:xlink="http://www.w3.org/1999/xlink" x="0" y="0" width="24" height="32" viewBox="0, 0, 24, 32">
  <g id="Layer_1">
    <path d="M13,6 C14.105,6 15,6.895 15,8 L15,14.796 L6.604,12.712 L9.901,26 L2,26 C0.895,26 0,25.105 0,24 L0,8 C0,6.895 0.895,6 2,6 L13,6 z" fill="#7F7F7F"/>
    <path d="M8,14.101 L17.683,16.504 L14.736,18.106 L20,23.268 L17.268,26 L12.005,20.838 L10.403,23.784 L8,14.101 z" fill="#7F7F7F"/>
    <path d="M12.225,22.461 L14.756,24.949 L14.758,24.955 C14.419,25.577 13.759,26 13,26 L10.301,26 L12.225,22.461 z" fill="#7F7F7F"/>
  </g>
</svg>
