<?xml version="1.0" encoding="UTF-8"?>
<!DOCTYPE svg PUBLIC "-//W3C//DTD SVG 1.1//EN" "http://www.w3.org/Graphics/SVG/1.1/DTD/svg11.dtd">
<svg version="1.1" xmlns="http://www.w3.org/2000/svg" xmlns:xlink="http://www.w3.org/1999/xlink" x="0" y="0" width="16" height="16" viewBox="0, 0, 16, 16">
  <g id="Background">
    <rect x="0" y="0" width="16" height="16" fill="#000000" fill-opacity="0"/>
  </g>
  <g id="Layer_1">
    <path d="M8,0 C12.418,-0 16,3.582 16,8 C16,12.418 12.418,16 8,16 C3.582,16 -0,12.418 -0,8 C-0,3.582 3.582,-0 8,-0 z M9.843,3.937 C8.71,3.937 7.791,4.855 7.791,5.988 C7.791,6.149 7.81,6.305 7.845,6.456 C6.14,6.37 4.627,5.553 3.616,4.312 C3.439,4.615 3.338,4.967 3.338,5.343 C3.338,6.055 3.7,6.683 4.251,7.051 C3.915,7.04 3.598,6.948 3.321,6.795 C3.321,6.803 3.321,6.812 3.321,6.82 C3.321,7.814 4.029,8.644 4.967,8.832 C4.795,8.879 4.614,8.904 4.426,8.904 C4.294,8.904 4.166,8.891 4.04,8.867 C4.302,9.682 5.06,10.276 5.957,10.292 C5.255,10.842 4.37,11.17 3.409,11.17 C3.244,11.17 3.08,11.161 2.92,11.141 C3.828,11.724 4.906,12.063 6.065,12.063 C9.838,12.063 11.902,8.937 11.902,6.226 C11.902,6.137 11.9,6.049 11.896,5.96 C12.297,5.671 12.645,5.31 12.92,4.898 C12.552,5.062 12.156,5.172 11.741,5.222 C12.165,4.968 12.49,4.566 12.644,4.087 C12.247,4.322 11.808,4.492 11.341,4.584 C10.966,4.186 10.433,3.937 9.843,3.937 z" fill="#6C89A6"/>
  </g>
</svg>
