<?xml version="1.0" encoding="UTF-8"?>
<!DOCTYPE svg PUBLIC "-//W3C//DTD SVG 1.1//EN" "http://www.w3.org/Graphics/SVG/1.1/DTD/svg11.dtd">
<svg version="1.1" xmlns="http://www.w3.org/2000/svg" xmlns:xlink="http://www.w3.org/1999/xlink" x="0" y="0" width="24" height="32" viewBox="0, 0, 24, 32">
  <g id="Background">
    <rect x="0" y="0" width="24" height="32" fill="#000000" fill-opacity="0"/>
  </g>
  <g id="Layer_1">
    <g>
      <path d="M23.692,14.803 C23.897,15.007 24,15.254 24,15.544 C24,15.836 23.897,16.078 23.692,16.278 L22.648,17.322 L20.189,14.864 L21.234,13.818 C21.438,13.615 21.684,13.512 21.972,13.512 C22.258,13.512 22.505,13.615 22.709,13.818 L23.21,14.303 z M21.786,18.184 L14.183,25.796 L10.513,26.999 L11.718,23.329 L19.329,15.724 z" fill="#7F7F7F"/>
      <path d="M10.34,5.005 L10.502,5.023 C10.568,5.036 10.722,5.099 10.846,5.157 C11.021,5.241 11.119,5.312 11.264,5.456 C11.45,5.638 11.46,5.646 11.661,5.69 C11.886,5.74 12.212,5.853 12.389,5.943 C12.452,5.974 12.627,6.095 12.781,6.214 C12.934,6.332 13.151,6.495 13.265,6.582 C13.487,6.75 13.858,7.123 14.045,7.373 C14.217,7.602 14.45,8.107 14.588,8.546 C14.765,9.111 14.797,9.292 14.8,9.7 C14.802,9.997 14.789,10.11 14.725,10.404 C14.643,10.786 14.643,10.796 14.778,11.106 L14.823,11.211 L14.755,11.148 L14.686,11.085 L14.686,11.267 C14.686,11.432 14.699,11.469 14.813,11.685 C14.9,11.848 14.956,11.921 14.985,11.919 C15.011,11.916 15.03,11.932 15.03,11.961 C15.03,11.987 15.067,12.04 15.109,12.074 C15.207,12.158 15.21,12.182 15.117,12.161 L15.043,12.145 L15.122,12.211 C15.218,12.289 15.173,12.297 15.03,12.224 C14.905,12.161 14.89,12.197 15.003,12.282 C15.091,12.345 15.104,12.381 15.043,12.381 C14.982,12.381 14.995,12.46 15.072,12.571 C15.165,12.702 15.144,12.721 15.027,12.608 C14.977,12.558 14.929,12.523 14.919,12.531 C14.905,12.537 14.897,12.665 14.897,12.815 C14.897,13.07 14.823,13.504 14.768,13.578 C14.757,13.591 14.696,13.754 14.633,13.935 L14.516,14.266 L14.575,14.495 C14.646,14.776 14.649,14.937 14.58,15.087 C14.511,15.234 14.49,15.216 14.54,15.05 C14.561,14.982 14.58,14.89 14.58,14.847 C14.58,14.727 14.498,14.398 14.474,14.424 C14.461,14.435 14.464,14.5 14.479,14.566 C14.538,14.819 14.453,14.974 14.194,15.092 C14.014,15.171 13.958,15.258 14.022,15.358 C14.048,15.4 14.043,15.41 13.985,15.431 C13.918,15.455 13.916,15.502 13.979,15.581 C13.995,15.605 13.99,15.62 13.963,15.631 C13.921,15.647 13.865,15.773 13.865,15.854 C13.865,15.889 13.884,15.904 13.924,15.904 C13.977,15.904 13.979,15.907 13.94,15.946 C13.918,15.97 13.868,15.991 13.831,15.991 C13.77,15.996 13.76,16.01 13.746,16.12 C13.736,16.191 13.717,16.251 13.704,16.262 C13.67,16.283 13.675,16.385 13.717,16.485 C13.738,16.535 13.762,16.662 13.773,16.767 C13.791,16.964 13.77,17.035 13.688,17.035 C13.656,17.035 13.651,17.009 13.667,16.896 C13.678,16.798 13.675,16.769 13.656,16.798 C13.604,16.874 13.596,17.056 13.627,17.498 C13.741,18.581 13.614,17.992 14.107,19.239 L11.208,22.136 L11.005,22.339 L10.915,22.612 L9.71,26.282 L9.475,26.999 C7.218,26.997 4.96,27 2.703,26.994 C2.662,26.994 0.402,27.017 0,26.96 C0,26.81 0.291,26.192 0.508,25.874 C0.709,25.582 1.074,25.232 1.463,24.961 C1.847,24.691 3.032,23.944 3.342,23.776 C3.628,23.621 4.223,23.342 4.546,23.216 C4.924,23.066 5.255,22.898 5.861,22.543 C6.591,22.117 6.663,22.064 6.795,21.846 C6.824,21.796 6.912,21.694 6.986,21.623 C7.062,21.549 7.163,21.428 7.213,21.354 C7.261,21.278 7.367,21.147 7.446,21.06 C7.674,20.813 7.695,20.634 7.613,19.467 C7.56,18.689 7.56,18.681 7.475,18.263 C7.406,17.926 7.361,17.826 7.248,17.76 C7.139,17.697 7.02,17.542 6.777,17.145 C6.501,16.698 6.348,16.317 6.218,15.755 C6.165,15.534 6.155,15.507 6.073,15.457 C5.827,15.305 5.538,14.795 5.424,14.311 C5.369,14.075 5.131,13.578 4.959,13.344 C4.893,13.249 4.869,13.196 4.882,13.152 C4.89,13.118 4.885,13.091 4.874,13.091 C4.861,13.091 4.874,12.994 4.903,12.873 C4.951,12.676 4.953,12.623 4.927,12.25 C4.911,12.026 4.885,11.777 4.869,11.698 C4.853,11.619 4.832,11.464 4.821,11.353 C4.811,11.24 4.784,11.133 4.763,11.106 C4.726,11.062 4.676,10.878 4.633,10.633 L4.615,10.528 L4.564,10.62 C4.498,10.743 4.488,10.688 4.541,10.499 C4.594,10.304 4.623,9.805 4.583,9.805 C4.567,9.805 4.535,9.836 4.512,9.876 C4.472,9.947 4.472,9.947 4.488,9.884 C4.498,9.847 4.546,9.739 4.594,9.645 C4.692,9.45 4.744,9.184 4.681,9.205 C4.636,9.221 4.58,9.368 4.578,9.489 C4.578,9.568 4.572,9.574 4.549,9.532 C4.509,9.468 4.541,9.203 4.607,9.032 C4.67,8.866 4.668,8.856 4.602,8.935 L4.549,8.998 L4.564,8.751 C4.575,8.614 4.594,8.438 4.604,8.359 C4.628,8.204 4.623,8.185 4.58,8.214 C4.514,8.254 4.467,8.398 4.464,8.582 C4.459,8.793 4.419,8.827 4.419,8.622 C4.419,8.438 4.467,8.249 4.533,8.157 C4.604,8.062 4.813,7.781 4.924,7.636 C4.967,7.578 5.043,7.462 5.094,7.378 C5.194,7.207 5.176,7.192 4.977,7.281 C4.914,7.31 4.856,7.331 4.85,7.323 C4.826,7.302 4.988,7.2 5.091,7.173 C5.149,7.16 5.308,7.094 5.438,7.031 C5.93,6.797 6.007,6.768 6.165,6.768 L6.316,6.771 L6.359,6.513 C6.382,6.371 6.427,6.206 6.459,6.145 C6.525,6.006 6.726,5.704 6.75,5.704 C6.761,5.704 6.75,5.772 6.732,5.853 C6.687,6.043 6.687,6.045 6.732,6.045 C6.753,6.045 6.782,6.011 6.795,5.966 C6.827,5.882 6.906,5.767 7.081,5.556 C7.237,5.372 7.462,5.27 7.674,5.291 C7.758,5.299 7.869,5.325 7.925,5.351 L8.026,5.399 L8.227,5.291 C8.338,5.23 8.515,5.151 8.621,5.115 C8.796,5.054 8.854,5.046 9.203,5.044 C9.417,5.044 9.64,5.033 9.698,5.023 C10.025,4.989 9.812,5.005 10.34,5.005 z" fill="#7F7F7F"/>
      <path d="M19.599,22.078 C20.244,22.295 20.871,22.557 21.499,22.816 C21.798,22.953 22.023,23.113 22.193,23.321 C22.505,23.702 22.95,24.336 23.077,24.583 C23.214,24.854 24,26.886 24,26.975 C20.56,27.002 17.12,26.998 13.681,26.998 L14.899,26.599 L15.173,26.509 L15.376,26.306 L19.599,22.078 z" fill="#7F7F7F"/>
    </g>
  </g>
</svg>
