<?xml version="1.0" encoding="UTF-8"?>
<!DOCTYPE svg PUBLIC "-//W3C//DTD SVG 1.1//EN" "http://www.w3.org/Graphics/SVG/1.1/DTD/svg11.dtd">
<svg version="1.1" xmlns="http://www.w3.org/2000/svg" xmlns:xlink="http://www.w3.org/1999/xlink" x="0" y="0" width="16" height="16" viewBox="0, 0, 16, 16">
  <g id="Background">
    <rect x="0" y="0" width="16" height="16" fill="#000000" fill-opacity="0"/>
  </g>
  <g id="Layer_1">
    <path d="M0.691,8.42 C0.504,8.621 0.409,8.856 0.409,9.125 C0.409,9.394 0.504,9.624 0.691,9.813 L4.933,14.053 C5.121,14.243 5.354,14.341 5.628,14.346 C5.904,14.351 6.137,14.253 6.325,14.053 L6.423,13.942 L2.262,9.781 C2.073,9.592 1.98,9.365 1.983,9.096 C1.986,8.829 2.078,8.598 2.262,8.405 L7.686,2.351 C7.851,2.163 8.078,2.009 8.363,1.894 C8.651,1.777 8.925,1.703 9.189,1.671 L7.78,1.671 C7.506,1.671 7.204,1.737 6.871,1.869 C6.539,2.001 6.287,2.168 6.115,2.368 z M13.058,5.135 C12.805,5.135 12.583,5.04 12.396,4.853 C12.206,4.662 12.112,4.44 12.112,4.188 C12.112,3.925 12.206,3.698 12.396,3.512 C12.583,3.326 12.805,3.233 13.058,3.233 C13.324,3.233 13.547,3.326 13.735,3.512 C13.921,3.698 14.014,3.925 14.014,4.188 C14.014,4.44 13.921,4.662 13.735,4.853 C13.547,5.04 13.324,5.135 13.058,5.135 M3.839,8.405 C3.662,8.604 3.571,8.836 3.564,9.1 C3.559,9.365 3.652,9.592 3.839,9.781 L8.098,14.021 C8.286,14.21 8.519,14.31 8.798,14.32 C9.075,14.332 9.3,14.232 9.473,14.021 L14.894,7.984 C15.085,7.773 15.248,7.509 15.385,7.189 C15.522,6.873 15.591,6.577 15.591,6.308 L15.591,2.635 C15.591,2.369 15.498,2.139 15.309,1.947 C15.119,1.752 14.886,1.654 14.612,1.654 L10.938,1.654 C10.803,1.654 10.659,1.671 10.506,1.703 C10.352,1.735 10.196,1.786 10.039,1.852 C9.883,1.919 9.736,1.996 9.599,2.08 C9.462,2.163 9.349,2.254 9.261,2.351 z" fill="#6C89A6"/>
  </g>
</svg>
