<?xml version="1.0" encoding="UTF-8"?>
<!DOCTYPE svg PUBLIC "-//W3C//DTD SVG 1.1//EN" "http://www.w3.org/Graphics/SVG/1.1/DTD/svg11.dtd">
<svg version="1.1" xmlns="http://www.w3.org/2000/svg" xmlns:xlink="http://www.w3.org/1999/xlink" x="0" y="0" width="72" height="72" viewBox="0, 0, 72, 72">
  <g id="Background">
    <rect x="0" y="0" width="72" height="72" fill="#000000" fill-opacity="0"/>
  </g>
  <g id="Layer_2" display="none">
    <path d="M51.833,41.328 L51.833,47.265 C51.833,49.998 44.745,52.213 36,52.213 C34.344,52.195 32.678,52.174 31.034,51.957 L31.584,51.565 L31.739,51.455 L31.818,51.281 C33.279,48.18 32.444,49.864 34.365,46.249 C34.92,46.285 34.376,46.25 36,46.276 C44.745,46.276 51.833,44.061 51.833,41.328 z" fill="#BFBFBF"/>
    <path d="M20.167,43.884 C21.221,45.527 21.994,47.326 22.743,49.122 L23.152,50.121 C21.908,49.576 20.292,48.809 20.167,47.265 L20.167,43.884 z" fill="#BFBFBF"/>
    <path d="M51.833,32.422 L51.833,38.359 C51.575,40.726 47.883,41.71 46.071,42.177 C42.793,43.022 39.417,43.253 36.046,43.306 C38.489,39.28 37.184,41.322 39.979,37.194 C43.352,36.901 46.901,36.426 49.922,34.78 C50.838,34.282 51.744,33.521 51.833,32.422 z" fill="#BFBFBF"/>
    <path d="M20.167,32.422 C20.319,34.156 22.402,35.046 23.782,35.569 C26.514,36.604 29.479,37.032 32.379,37.216 C30.998,38.951 29.835,40.844 28.697,42.742 C28.248,42.683 28.533,42.727 27.845,42.582 C26.83,40.474 25.394,36.534 22.601,36.323 C21.75,36.333 20.9,36.552 20.167,36.989 L20.167,32.422 z" fill="#BFBFBF"/>
    <path d="M36,20.547 C39.555,20.622 43.207,20.781 46.627,21.85 C44.055,23.883 41.778,26.252 39.511,28.612 C37.818,30.494 36.112,32.372 34.565,34.378 C30.942,34.228 27.205,33.898 23.782,32.6 C22.414,32.082 20.307,31.185 20.167,29.453 L20.167,25.495 C20.167,22.762 27.255,20.547 36,20.547 z" fill="#BFBFBF"/>
    <path d="M50.728,23.694 C51.349,24.108 51.773,24.751 51.833,25.495 L51.833,29.453 C51.491,32.641 44.565,33.669 42.245,33.976 L42.7,33.349 C45.214,30.005 47.806,26.696 50.728,23.694 z" fill="#BFBFBF"/>
  </g>
  <g id="Layer_1">
    <path d="M54.041,17 L55,18.443 Q49.137,23.088 41.959,32.754 Q34.781,42.42 31,50.816 L28.973,52.259 Q26.452,54.106 25.548,55 Q25.192,53.644 23.986,50.557 L23.219,48.681 Q21.575,44.642 20.164,42.708 Q18.753,40.775 17,40.14 Q19.959,36.851 22.425,36.851 Q24.534,36.851 27.11,42.882 L27.959,44.901 Q32.589,36.678 39.849,28.916 Q47.11,21.155 54.041,17 z" fill="#7F7F7F"/>
  </g>
</svg>
