<?xml version="1.0" encoding="UTF-8"?>
<!DOCTYPE svg PUBLIC "-//W3C//DTD SVG 1.1//EN" "http://www.w3.org/Graphics/SVG/1.1/DTD/svg11.dtd">
<svg version="1.1" xmlns="http://www.w3.org/2000/svg" xmlns:xlink="http://www.w3.org/1999/xlink" x="0" y="0" width="50" height="50" viewBox="0, 0, 50, 50">
  <g id="Background">
    <rect x="0" y="0" width="50" height="50" fill="#000000" fill-opacity="0"/>
  </g>
  <g id="Layer_1">
    <g>
      <path d="M35.497,16.106 C35.832,16.438 36,16.842 36,17.315 C36,17.791 35.832,18.186 35.497,18.512 L33.795,20.214 L29.784,16.205 L31.489,14.5 C31.821,14.168 32.222,14 32.691,14 C33.158,14 33.562,14.168 33.894,14.5 L34.711,15.29 z M28.751,20.603 C28.946,20.412 28.946,20.205 28.751,19.987 C28.659,19.891 28.551,19.843 28.431,19.843 C28.312,19.843 28.213,19.891 28.138,19.987 L18.254,29.843 C18.158,29.938 18.11,30.043 18.11,30.163 C18.11,30.282 18.158,30.39 18.254,30.486 C18.332,30.564 18.437,30.599 18.571,30.599 C18.685,30.599 18.784,30.564 18.87,30.486 z M32.389,21.621 L19.986,34.037 L14,36 L15.965,30.013 L28.38,17.608 z" fill="#FFFFFF"/>
      <path d="M27.556,0.129 C40.601,2.025 49.339,11.917 50,25 C50,38.807 38.807,50 25,50 C11.193,50 0,38.807 0,25 C0,11.193 11.193,0 25,0 L27.556,0.129 z M25,3 C12.85,3 3,12.85 3,25 C3,37.15 12.85,47 25,47 C37.15,47 47,37.15 47,25 C47,12.85 37.15,3 25,3 z" fill="#FFFFFF"/>
    </g>
  </g>
</svg>
