<?xml version="1.0" encoding="UTF-8"?>
<!DOCTYPE svg PUBLIC "-//W3C//DTD SVG 1.1//EN" "http://www.w3.org/Graphics/SVG/1.1/DTD/svg11.dtd">
<svg version="1.1" xmlns="http://www.w3.org/2000/svg" xmlns:xlink="http://www.w3.org/1999/xlink" x="0" y="0" width="22" height="22" viewBox="0, 0, 22, 22">
  <g id="Layer_1">
    <path d="M11,-0 C17.075,-0 22,4.925 22,11 C22,17.075 17.075,22 11,22 C4.925,22 -0,17.075 -0,11 C-0,4.925 4.925,-0 11,-0 z M11,1.32 C5.654,1.32 1.32,5.654 1.32,11 C1.32,16.346 5.654,20.68 11,20.68 C16.346,20.68 20.68,16.346 20.68,11 C20.68,5.654 16.346,1.32 11,1.32 z" fill="#FFFFFF"/>
    <path d="M14.098,8.631 C14.122,9.121 14.178,9.604 14.264,10.082 C14.351,10.56 14.479,11.02 14.648,11.457 C14.818,11.896 15.039,12.308 15.311,12.692 C15.584,13.078 15.922,13.425 16.327,13.732 C16.309,14.014 16.197,14.246 15.987,14.426 C15.778,14.605 15.535,14.694 15.261,14.694 L12.42,14.694 C12.347,15.025 12.181,15.3 11.92,15.515 C11.66,15.731 11.355,15.84 11.008,15.84 C10.662,15.84 10.355,15.731 10.091,15.515 C9.827,15.3 9.656,15.025 9.58,14.694 L6.738,14.694 C6.464,14.694 6.222,14.604 6.012,14.423 C5.802,14.241 5.688,14.009 5.673,13.732 C6.093,13.417 6.44,13.068 6.714,12.687 C6.989,12.305 7.209,11.899 7.375,11.47 C7.54,11.04 7.661,10.587 7.738,10.112 C7.815,9.638 7.872,9.153 7.907,8.656 C7.931,8.316 8.045,7.996 8.246,7.692 C8.449,7.39 8.703,7.125 9.009,6.899 C9.317,6.674 9.646,6.494 9.997,6.361 C10.349,6.227 10.686,6.16 11.008,6.16 C11.307,6.16 11.637,6.227 11.995,6.361 C12.354,6.494 12.69,6.672 12.998,6.893 C13.307,7.115 13.568,7.376 13.779,7.676 C13.992,7.973 14.098,8.293 14.098,8.631" fill="#FFFFFF"/>
  </g>
</svg>
