<?xml version="1.0" encoding="UTF-8"?>
<!DOCTYPE svg PUBLIC "-//W3C//DTD SVG 1.1//EN" "http://www.w3.org/Graphics/SVG/1.1/DTD/svg11.dtd">
<svg version="1.1" xmlns="http://www.w3.org/2000/svg" xmlns:xlink="http://www.w3.org/1999/xlink" x="0" y="0" width="24" height="32" viewBox="0, 0, 24, 32">
  <g id="Background">
    <rect x="0" y="0" width="24" height="32" fill="#000000" fill-opacity="0"/>
  </g>
  <g id="Layer_1" display="none">
    <g>
      <path d="M12.558,7.219 C12.512,7.227 12.334,7.236 12.162,7.236 C11.883,7.238 11.837,7.244 11.697,7.293 C11.612,7.322 11.47,7.385 11.382,7.434 L11.221,7.52 L11.14,7.482 C11.095,7.461 11.006,7.44 10.939,7.434 C10.77,7.417 10.59,7.498 10.465,7.646 C10.325,7.814 10.262,7.906 10.236,7.974 C10.226,8.01 10.202,8.037 10.186,8.037 C10.15,8.037 10.15,8.035 10.186,7.883 C10.2,7.818 10.209,7.764 10.2,7.764 C10.181,7.764 10.02,8.006 9.967,8.117 C9.942,8.166 9.906,8.298 9.887,8.411 L9.853,8.618 L9.732,8.615 C9.606,8.615 9.544,8.638 9.15,8.826 C9.046,8.876 8.919,8.929 8.873,8.939 C8.79,8.961 8.661,9.042 8.68,9.059 C8.685,9.066 8.731,9.049 8.782,9.026 C8.941,8.954 8.955,8.966 8.875,9.103 C8.834,9.17 8.774,9.263 8.739,9.31 C8.65,9.426 8.483,9.65 8.426,9.726 C8.374,9.8 8.335,9.951 8.335,10.098 C8.335,10.262 8.367,10.235 8.371,10.066 C8.374,9.919 8.411,9.804 8.464,9.772 C8.498,9.749 8.502,9.764 8.483,9.888 C8.475,9.951 8.46,10.092 8.451,10.202 L8.439,10.399 L8.482,10.349 C8.534,10.286 8.536,10.294 8.486,10.426 C8.433,10.563 8.407,10.775 8.439,10.826 C8.458,10.86 8.462,10.855 8.462,10.792 C8.464,10.695 8.509,10.578 8.545,10.565 C8.595,10.548 8.554,10.761 8.475,10.917 C8.437,10.992 8.398,11.078 8.39,11.108 C8.378,11.158 8.378,11.158 8.41,11.102 C8.428,11.07 8.454,11.045 8.466,11.045 C8.498,11.045 8.475,11.444 8.433,11.6 C8.39,11.751 8.398,11.795 8.451,11.697 L8.492,11.623 L8.506,11.707 C8.541,11.903 8.581,12.05 8.61,12.086 C8.627,12.107 8.649,12.193 8.657,12.283 C8.666,12.372 8.682,12.496 8.695,12.559 C8.708,12.622 8.729,12.822 8.742,13.001 C8.762,13.299 8.761,13.342 8.722,13.499 C8.699,13.596 8.689,13.674 8.699,13.674 C8.708,13.674 8.712,13.695 8.706,13.722 C8.695,13.758 8.714,13.8 8.767,13.876 C8.905,14.063 9.095,14.461 9.139,14.65 C9.23,15.037 9.462,15.445 9.658,15.566 C9.724,15.606 9.732,15.628 9.774,15.805 C9.878,16.254 10.001,16.559 10.222,16.917 C10.416,17.234 10.511,17.358 10.598,17.409 C10.689,17.462 10.725,17.542 10.78,17.811 C10.848,18.146 10.848,18.152 10.89,18.774 C10.956,19.708 10.939,19.851 10.757,20.049 C10.694,20.118 10.609,20.223 10.57,20.284 C10.53,20.343 10.45,20.44 10.389,20.499 C10.33,20.556 10.259,20.638 10.236,20.678 C10.13,20.852 10.073,20.894 9.489,21.235 C9.004,21.519 8.739,21.654 8.437,21.774 C8.178,21.874 7.702,22.098 7.474,22.222 C7.226,22.356 6.278,22.954 5.97,23.17 C5.659,23.386 5.367,23.666 5.206,23.9 C5.033,24.154 4.8,24.649 4.8,24.769 C4.8,24.796 5.892,24.8 14.4,24.8 C19.986,24.8 24,24.791 24,24.781 C24,24.71 23.371,23.084 23.262,22.867 C23.16,22.67 22.804,22.162 22.554,21.858 C22.418,21.691 22.238,21.563 21.999,21.454 C21.706,21.322 20.448,20.842 20.101,20.73 C19.9,20.665 19.517,20.526 19.248,20.421 C18.981,20.316 18.718,20.226 18.666,20.219 C18.61,20.215 18.558,20.194 18.538,20.173 C18.522,20.152 18.397,20.085 18.263,20.023 C18.13,19.962 17.961,19.868 17.886,19.809 C17.73,19.687 17.634,19.66 17.423,19.681 L17.27,19.694 L17.031,19.542 C16.73,19.348 16.608,19.246 16.424,19.029 C15.874,18.383 15.761,18.099 15.702,17.199 C15.677,16.846 15.683,16.7 15.725,16.639 C15.74,16.616 15.742,16.639 15.734,16.718 C15.721,16.808 15.725,16.829 15.75,16.829 C15.816,16.829 15.833,16.772 15.818,16.614 C15.81,16.53 15.79,16.429 15.774,16.389 C15.74,16.309 15.736,16.227 15.763,16.21 C15.774,16.202 15.789,16.154 15.797,16.097 C15.808,16.009 15.816,15.998 15.865,15.994 C15.894,15.994 15.934,15.977 15.952,15.958 C15.983,15.926 15.982,15.924 15.939,15.924 C15.907,15.924 15.892,15.912 15.892,15.884 C15.892,15.819 15.937,15.718 15.97,15.706 C15.992,15.697 15.996,15.685 15.983,15.666 C15.933,15.602 15.934,15.565 15.988,15.546 C16.034,15.529 16.038,15.521 16.018,15.487 C15.966,15.407 16.011,15.338 16.155,15.274 C16.362,15.18 16.43,15.056 16.383,14.854 C16.371,14.801 16.369,14.749 16.379,14.74 C16.398,14.719 16.464,14.982 16.464,15.078 C16.464,15.113 16.449,15.186 16.432,15.241 C16.392,15.374 16.409,15.388 16.464,15.27 C16.519,15.15 16.517,15.022 16.46,14.797 L16.413,14.614 L16.506,14.349 C16.557,14.204 16.606,14.074 16.614,14.063 C16.658,14.004 16.718,13.657 16.718,13.453 C16.718,13.333 16.724,13.23 16.735,13.226 C16.743,13.219 16.782,13.247 16.822,13.287 C16.915,13.378 16.932,13.362 16.858,13.258 C16.796,13.169 16.786,13.106 16.834,13.106 C16.883,13.106 16.873,13.077 16.802,13.026 C16.712,12.958 16.724,12.93 16.824,12.98 C16.938,13.038 16.974,13.032 16.898,12.97 L16.834,12.917 L16.894,12.93 C16.968,12.946 16.966,12.927 16.887,12.86 C16.854,12.833 16.824,12.79 16.824,12.77 C16.824,12.746 16.809,12.734 16.788,12.736 C16.765,12.738 16.72,12.679 16.65,12.549 C16.559,12.376 16.549,12.346 16.549,12.214 L16.549,12.069 L16.604,12.119 L16.658,12.17 L16.622,12.086 C16.514,11.838 16.514,11.83 16.58,11.524 C16.631,11.289 16.642,11.198 16.64,10.961 C16.638,10.634 16.612,10.49 16.47,10.038 C16.36,9.686 16.174,9.282 16.036,9.099 C15.886,8.899 15.59,8.601 15.412,8.466 C15.321,8.397 15.147,8.266 15.025,8.172 C14.902,8.077 14.762,7.98 14.711,7.955 C14.57,7.883 14.309,7.793 14.129,7.753 C13.968,7.718 13.96,7.711 13.811,7.566 C13.695,7.45 13.617,7.394 13.477,7.326 C13.378,7.28 13.254,7.23 13.202,7.219 C13.092,7.194 12.681,7.194 12.558,7.219 z" fill="#7F7F7F"/>
      <path d="M6.768,10.404 L6.839,10.412 L6.839,11.236 L6.87,11.293 C6.786,11.798 6.772,11.558 6.886,12.015 L6.899,12.641 L7.069,12.641 L7.094,12.68 L7.127,12.875 C7.122,12.851 7.138,13.002 7.146,13.114 L7.156,13.175 C7.125,13.317 7.141,13.238 7.112,13.411 C7.1,13.502 7.1,13.502 7.095,13.681 C7.097,13.812 7.097,13.812 7.158,14.11 C7.203,14.252 7.179,14.201 7.215,14.269 L7.237,14.343 L7.316,14.604 L7.478,14.824 C7.491,14.842 7.588,15.043 7.581,15.012 C7.864,15.899 7.657,15.412 8.296,16.43 C8.557,17.273 8.382,16.825 8.86,17.757 L8.991,17.967 C9.008,18.031 8.998,17.987 9.015,18.103 C9.027,18.232 9.013,18.278 8.959,18.278 C8.938,18.278 8.935,18.261 8.946,18.187 C8.953,18.123 8.951,18.104 8.938,18.123 C8.904,18.173 8.899,18.292 8.919,18.581 C8.985,19.208 8.911,18.905 9.142,19.49 C9.033,19.609 9.079,19.551 8.999,19.666 C8.881,19.74 8.985,19.675 8.682,19.853 C8.265,20.098 8.067,20.199 7.847,20.286 C7.542,20.405 7.006,20.655 6.711,20.815 C6.404,20.982 5.404,21.612 5.05,21.861 C4.597,22.176 4.168,22.587 3.889,22.992 C3.536,23.509 3.2,24.225 3.2,24.767 L3.2,24.799 C2.35,24.796 1.5,24.8 0.65,24.792 C0.074,24.787 0.246,24.81 -0,24.774 C-0,24.676 0.19,24.272 0.332,24.064 C0.464,23.873 0.703,23.643 0.958,23.466 C1.209,23.289 1.985,22.8 2.187,22.69 C2.375,22.589 2.764,22.406 2.976,22.324 C3.223,22.226 3.44,22.116 3.836,21.883 C4.314,21.605 4.361,21.57 4.448,21.427 C4.467,21.394 4.524,21.328 4.573,21.281 C4.622,21.233 4.689,21.154 4.721,21.105 C4.753,21.055 4.822,20.97 4.874,20.913 C5.023,20.751 5.037,20.634 4.983,19.87 C4.948,19.361 4.948,19.355 4.893,19.082 C4.848,18.861 4.818,18.796 4.744,18.753 C4.673,18.711 4.595,18.61 4.436,18.35 C4.255,18.058 4.155,17.808 4.07,17.44 C4.035,17.296 4.029,17.278 3.975,17.245 C3.814,17.146 3.625,16.812 3.55,16.495 C3.514,16.341 3.358,16.015 3.246,15.862 C3.203,15.8 3.187,15.765 3.195,15.736 C3.201,15.714 3.197,15.697 3.19,15.697 C3.182,15.697 3.19,15.633 3.209,15.554 C3.241,15.425 3.242,15.39 3.225,15.146 C3.214,14.999 3.197,14.837 3.187,14.785 C3.177,14.733 3.163,14.632 3.156,14.559 C3.149,14.485 3.131,14.415 3.118,14.397 C3.093,14.369 3.061,14.248 3.032,14.088 L3.021,14.019 L2.987,14.079 C2.944,14.16 2.938,14.124 2.972,14 C3.007,13.872 3.026,13.546 3,13.546 C2.989,13.546 2.968,13.566 2.953,13.592 C2.927,13.639 2.927,13.639 2.938,13.597 C2.944,13.573 2.976,13.503 3.007,13.441 C3.071,13.313 3.105,13.139 3.064,13.153 C3.034,13.163 2.998,13.26 2.996,13.339 C2.997,13.391 2.993,13.395 2.978,13.367 C2.951,13.325 2.972,13.152 3.015,13.04 C3.057,12.931 3.055,12.925 3.012,12.976 L2.978,13.018 L2.987,12.856 C2.995,12.766 3.007,12.651 3.014,12.599 C3.029,12.498 3.026,12.485 2.998,12.504 C2.955,12.531 2.924,12.625 2.922,12.745 C2.919,12.883 2.892,12.906 2.892,12.771 C2.892,12.651 2.924,12.527 2.967,12.467 C3.014,12.405 3.15,12.221 3.223,12.126 C3.251,12.088 3.301,12.012 3.334,11.957 C3.4,11.845 3.388,11.835 3.258,11.894 C3.216,11.913 3.178,11.926 3.174,11.921 C3.159,11.907 3.265,11.841 3.332,11.823 C3.37,11.814 3.474,11.771 3.559,11.73 C3.881,11.577 3.932,11.558 4.035,11.558 L4.134,11.56 L4.162,11.391 C4.177,11.298 4.207,11.19 4.228,11.15 C4.271,11.059 4.402,10.861 4.418,10.861 C4.425,10.861 4.418,10.906 4.406,10.959 C4.377,11.083 4.377,11.085 4.406,11.085 C4.42,11.085 4.439,11.062 4.448,11.033 C4.469,10.978 4.52,10.903 4.635,10.765 C4.737,10.644 4.884,10.577 5.023,10.591 C5.078,10.596 5.151,10.613 5.187,10.63 L5.253,10.662 L5.385,10.591 C5.458,10.551 5.573,10.499 5.643,10.476 C5.757,10.436 5.795,10.431 6.024,10.429 C6.164,10.429 6.31,10.422 6.348,10.416 C6.562,10.393 6.422,10.404 6.768,10.404 z" fill="#7F7F7F"/>
      <path d="M7.231,14.301 C7.262,14.36 7.293,14.419 7.324,14.478 C7.325,14.479 7.326,14.48 7.326,14.481 C7.245,14.389 7.282,14.446 7.231,14.301 L7.231,14.301 z" fill="#7F7F7F"/>
      <path d="M9.271,19.354 C9.26,19.364 9.241,19.388 9.271,19.354 z" fill="#7F7F7F"/>
      <path d="M7.231,14.301 C7.262,14.36 7.293,14.419 7.324,14.478 C7.325,14.479 7.326,14.48 7.326,14.481 C7.245,14.389 7.282,14.446 7.231,14.301 L7.231,14.301 z" fill="#7F7F7F"/>
    </g>
  </g>
  <g id="Layer_2">
    <g>
      <path d="M5.455,6 L5.455,11.455 L-0,11.455 L-0,6 L5.455,6 z" fill="#7F7F7F"/>
      <path d="M20,6 L20,11.455 L7.273,11.455 L7.273,6 L20,6 z" fill="#7F7F7F"/>
      <path d="M5.455,13.273 L5.455,18.727 L-0,18.727 L-0,13.273 L5.455,13.273 z" fill="#7F7F7F"/>
      <path d="M20,13.273 L20,18.727 L7.273,18.727 L7.273,13.273 L20,13.273 z" fill="#7F7F7F"/>
      <path d="M5.455,20.545 L5.455,26 L-0,26 L-0,20.545 L5.455,20.545 z" fill="#7F7F7F"/>
      <path d="M20,20.545 L20,26 L7.273,26 L7.273,20.545 L20,20.545 z" fill="#7F7F7F"/>
    </g>
  </g>
</svg>
