<?xml version="1.0" encoding="UTF-8"?>
<!DOCTYPE svg PUBLIC "-//W3C//DTD SVG 1.1//EN" "http://www.w3.org/Graphics/SVG/1.1/DTD/svg11.dtd">
<svg version="1.1" xmlns="http://www.w3.org/2000/svg" xmlns:xlink="http://www.w3.org/1999/xlink" x="0" y="0" width="22" height="22" viewBox="0, 0, 22, 22">
  <g id="Background">
    <rect x="0" y="0" width="22" height="22" fill="#000000" fill-opacity="0"/>
  </g>
  <g id="Layer_1">
    <path d="M20.999,17.989 C20.999,18.535 20.893,19.052 20.681,19.531 C20.469,20.015 20.183,20.436 19.827,20.801 C19.471,21.165 19.049,21.456 18.56,21.674 C18.068,21.891 17.548,22 17.002,22 L4.998,22 C4.454,22 3.94,21.891 3.456,21.674 C2.975,21.456 2.554,21.165 2.186,20.801 C1.822,20.436 1.536,20.015 1.322,19.539 C1.11,19.063 1.001,18.544 1.001,17.989 L1.001,12.001 L3.513,12.001 L3.513,17.989 C3.513,18.397 3.66,18.748 3.951,19.044 C4.242,19.338 4.593,19.487 4.998,19.487 L17.002,19.487 C17.412,19.487 17.76,19.34 18.051,19.052 C18.34,18.758 18.487,18.405 18.487,17.989 L18.487,12.001 L20.999,12.001 z M11.56,15.139 C11.405,15.278 11.212,15.348 10.986,15.354 C10.761,15.356 10.581,15.286 10.44,15.139 L3.244,7.941 C3.087,7.783 3.008,7.598 3.008,7.38 C3.008,7.31 3.027,7.206 3.059,7.065 C3.198,6.744 3.445,6.586 3.802,6.586 L7.59,6.586 L7.59,1.014 C7.59,0.726 7.688,0.484 7.884,0.291 C8.079,0.095 8.319,0 8.604,0 L13.396,0 C13.684,0 13.918,0.095 14.106,0.291 C14.293,0.484 14.386,0.726 14.386,1.014 L14.386,6.586 L18.201,6.586 C18.557,6.586 18.802,6.744 18.943,7.065 C19.063,7.405 19.003,7.696 18.761,7.941 z" fill="#FFFFFF"/>
  </g>
</svg>
