<?xml version="1.0" encoding="UTF-8"?>
<!DOCTYPE svg PUBLIC "-//W3C//DTD SVG 1.1//EN" "http://www.w3.org/Graphics/SVG/1.1/DTD/svg11.dtd">
<svg version="1.1" xmlns="http://www.w3.org/2000/svg" xmlns:xlink="http://www.w3.org/1999/xlink" x="0" y="0" width="24" height="32" viewBox="0, 0, 24, 32">
  <g id="Layer_1">
    <path d="M8.859,20.268 C9.104,20.116 9.307,19.908 9.464,19.652 C9.619,19.391 9.699,19.111 9.699,18.815 C9.699,18.346 9.533,17.943 9.203,17.602 C8.87,17.261 8.47,17.093 8.003,17.093 C7.534,17.093 7.137,17.261 6.804,17.602 C6.47,17.943 6.305,18.346 6.305,18.815 C6.305,19.111 6.38,19.391 6.534,19.652 C6.689,19.908 6.886,20.106 7.137,20.244 L6.305,23.907 L9.699,23.907 z M11.997,13.006 C11.997,12.446 11.893,11.921 11.685,11.436 C11.474,10.953 11.186,10.532 10.821,10.175 C10.459,9.818 10.029,9.535 9.541,9.327 C9.051,9.117 8.539,9.013 8.003,9.013 C7.441,9.013 6.921,9.117 6.446,9.327 C5.969,9.535 5.545,9.818 5.175,10.175 C4.804,10.532 4.516,10.956 4.308,11.444 C4.1,11.932 3.996,12.454 3.996,13.006 L3.996,14.998 L11.997,14.998 z M15.009,15.102 C15.305,15.203 15.545,15.381 15.721,15.637 C15.905,15.891 15.993,16.187 15.993,16.517 L15.993,24.507 C15.993,24.907 15.844,25.256 15.551,25.552 C15.257,25.851 14.911,26 14.511,26 L1.493,26 C1.093,26 0.744,25.851 0.448,25.552 C0.147,25.256 -0,24.907 -0,24.507 L-0,16.517 C-0,16.187 0.091,15.891 0.272,15.637 C0.459,15.381 0.696,15.203 0.997,15.102 L0.997,13.006 C0.997,12.046 1.178,11.14 1.544,10.29 C1.911,9.436 2.41,8.693 3.042,8.055 C3.679,7.418 4.423,6.917 5.276,6.549 C6.132,6.184 7.041,6 8.003,6 C8.963,6 9.869,6.184 10.72,6.549 C11.573,6.917 12.317,7.418 12.954,8.055 C13.591,8.693 14.095,9.439 14.463,10.298 C14.825,11.151 15.009,12.054 15.009,13.006 z" fill="#7F7F7F"/>
  </g>
</svg>
