<?xml version="1.0" encoding="UTF-8"?>
<!DOCTYPE svg PUBLIC "-//W3C//DTD SVG 1.1//EN" "http://www.w3.org/Graphics/SVG/1.1/DTD/svg11.dtd">
<svg version="1.1" xmlns="http://www.w3.org/2000/svg" xmlns:xlink="http://www.w3.org/1999/xlink" x="0" y="0" width="108" height="108" viewBox="0, 0, 108, 108">
  <g id="Background">
    <rect x="0" y="0" width="108" height="108" fill="#000000" fill-opacity="0"/>
  </g>
  <g id="Layer_1_Copy">
    <path d="M108,39.223 C107.62,39.616 107.217,39.971 106.8,40.252 C106.396,40.558 105.992,40.852 105.6,41.158 C100.569,44.916 95.562,48.662 90.603,52.383 C85.634,56.118 80.712,59.95 75.84,63.842 C74.224,65.128 72.584,66.401 70.906,67.637 C69.229,68.85 67.491,69.952 65.691,70.906 C63.892,71.861 62.019,72.657 60.059,73.245 C58.113,73.857 56.057,74.163 53.914,74.163 C51.845,74.163 49.825,73.857 47.842,73.245 C45.871,72.657 43.986,71.837 42.186,70.845 C40.399,69.854 38.648,68.74 36.971,67.515 C35.294,66.279 33.69,65.067 32.172,63.842 C27.288,59.95 22.366,56.118 17.407,52.383 C12.438,48.662 7.443,44.916 2.399,41.158 C2.008,40.852 1.604,40.558 1.199,40.252 C0.783,39.971 0.38,39.616 -0,39.223 L-0,92.269 C-0,94.105 0.661,95.684 1.983,97.019 C3.318,98.341 4.897,99.014 6.733,99.013 L101.328,99.013 C103.164,99.014 104.731,98.341 106.041,97.019 C107.351,95.684 108,94.105 108,92.269 L108,39.223 z M101.328,8.986 L6.733,8.986 C5.129,8.986 3.636,9.586 2.215,10.773 C0.82,11.973 0.11,13.368 0.11,14.972 C0.11,16.172 0.477,17.531 1.199,19.011 C1.922,20.506 2.803,21.962 3.831,23.407 C4.872,24.852 5.974,26.174 7.173,27.361 C8.361,28.561 9.414,29.504 10.308,30.213 C15.119,33.85 19.832,37.412 24.459,40.937 C29.1,44.451 33.764,48.001 38.501,51.6 C39.481,52.311 40.607,53.18 41.904,54.232 C43.19,55.298 44.5,56.302 45.859,57.256 C47.206,58.211 48.577,59.032 49.985,59.716 C51.392,60.403 52.702,60.745 53.914,60.745 L54.147,60.745 C55.322,60.745 56.608,60.403 58.014,59.716 C59.423,59.032 60.807,58.211 62.177,57.256 C63.549,56.302 64.859,55.298 66.132,54.232 C67.405,53.18 68.519,52.311 69.498,51.6 C74.224,48.001 78.913,44.439 83.54,40.901 C88.168,37.363 92.893,33.801 97.691,30.213 C98.586,29.504 99.639,28.561 100.826,27.361 C102.014,26.174 103.14,24.852 104.168,23.407 C105.197,21.962 106.078,20.506 106.8,19.011 C107.523,17.531 107.89,16.172 107.889,14.972 C107.89,13.368 107.192,11.973 105.808,10.773 C104.413,9.586 102.92,8.986 101.328,8.986 z" fill="#008000"/>
  </g>
</svg>
