<?xml version="1.0" encoding="UTF-8"?>
<!DOCTYPE svg PUBLIC "-//W3C//DTD SVG 1.1//EN" "http://www.w3.org/Graphics/SVG/1.1/DTD/svg11.dtd">
<svg version="1.1" xmlns="http://www.w3.org/2000/svg" xmlns:xlink="http://www.w3.org/1999/xlink" x="0" y="0" width="62" height="56" viewBox="0, 0, 62, 56">
  <g id="Background">
    <rect x="0" y="0" width="62" height="56" fill="#000000" fill-opacity="0"/>
  </g>
  <g id="Layer_1">
    <path d="M25.14,0.06 C24.992,0.086 24.426,0.114 23.881,0.114 C22.992,0.119 22.844,0.14 22.398,0.295 C22.13,0.387 21.679,0.589 21.397,0.744 L20.885,1.019 L20.626,0.896 C20.485,0.828 20.203,0.762 19.987,0.744 C19.449,0.69 18.876,0.948 18.479,1.418 C18.035,1.954 17.833,2.247 17.75,2.461 C17.718,2.576 17.645,2.661 17.591,2.661 C17.476,2.661 17.476,2.656 17.591,2.175 C17.635,1.968 17.663,1.794 17.635,1.794 C17.577,1.794 17.064,2.562 16.895,2.917 C16.815,3.072 16.7,3.493 16.641,3.852 L16.531,4.51 L16.148,4.503 C15.746,4.503 15.549,4.576 14.296,5.173 C13.965,5.332 13.561,5.499 13.413,5.532 C13.152,5.603 12.739,5.861 12.8,5.915 C12.816,5.936 12.964,5.882 13.124,5.809 C13.629,5.582 13.676,5.619 13.422,6.056 C13.291,6.27 13.098,6.564 12.988,6.712 C12.706,7.081 12.175,7.797 11.994,8.037 C11.825,8.272 11.702,8.754 11.702,9.221 C11.702,9.743 11.806,9.656 11.818,9.12 C11.825,8.653 11.944,8.286 12.114,8.183 C12.222,8.11 12.236,8.157 12.175,8.551 C12.149,8.754 12.1,9.202 12.071,9.55 L12.034,10.18 L12.17,10.018 C12.337,9.818 12.342,9.844 12.182,10.264 C12.013,10.701 11.933,11.376 12.034,11.538 C12.092,11.646 12.109,11.63 12.109,11.43 C12.114,11.12 12.255,10.746 12.37,10.706 C12.53,10.652 12.398,11.329 12.149,11.825 C12.027,12.064 11.905,12.339 11.879,12.433 C11.839,12.595 11.839,12.595 11.94,12.414 C11.999,12.311 12.081,12.233 12.121,12.233 C12.222,12.233 12.149,13.502 12.013,14 C11.879,14.48 11.905,14.621 12.071,14.308 L12.203,14.073 L12.248,14.341 C12.358,14.964 12.485,15.434 12.579,15.544 C12.633,15.614 12.701,15.885 12.727,16.174 C12.755,16.456 12.807,16.85 12.849,17.052 C12.889,17.252 12.955,17.887 12.997,18.458 C13.063,19.407 13.058,19.541 12.936,20.044 C12.861,20.351 12.828,20.598 12.861,20.598 C12.889,20.598 12.903,20.666 12.882,20.753 C12.849,20.864 12.91,21 13.077,21.242 C13.516,21.836 14.12,23.103 14.261,23.702 C14.553,24.935 15.288,26.232 15.913,26.62 C16.122,26.747 16.148,26.815 16.282,27.379 C16.613,28.808 17.003,29.778 17.706,30.918 C18.324,31.928 18.627,32.323 18.904,32.483 C19.191,32.649 19.306,32.905 19.482,33.763 C19.698,34.827 19.698,34.846 19.832,36.827 C20.041,39.797 19.987,40.253 19.407,40.882 C19.207,41.103 18.937,41.437 18.815,41.63 C18.688,41.818 18.429,42.128 18.237,42.316 C18.049,42.497 17.826,42.755 17.75,42.882 C17.414,43.437 17.231,43.573 15.373,44.656 C13.831,45.561 12.988,45.988 12.027,46.369 C11.204,46.691 9.689,47.4 8.963,47.795 C8.173,48.223 5.156,50.124 4.179,50.812 C3.187,51.5 2.259,52.393 1.747,53.136 C1.195,53.944 0.455,55.518 0.455,55.899 C0.455,55.986 3.93,56 31,56 C48.775,56 61.545,55.972 61.545,55.939 C61.545,55.711 59.546,50.539 59.196,49.849 C58.871,49.221 57.739,47.607 56.945,46.637 C56.512,46.108 55.941,45.702 55.18,45.351 C54.245,44.931 50.244,43.404 49.139,43.051 C48.5,42.842 47.281,42.4 46.425,42.064 C45.575,41.733 44.741,41.444 44.571,41.425 C44.398,41.411 44.228,41.343 44.167,41.277 C44.113,41.209 43.716,40.995 43.291,40.8 C42.868,40.608 42.33,40.307 42.093,40.119 C41.595,39.731 41.291,39.644 40.619,39.71 L40.133,39.752 L39.372,39.268 C38.415,38.653 38.025,38.326 37.44,37.635 C35.69,35.582 35.33,34.679 35.142,31.815 C35.063,30.69 35.084,30.227 35.215,30.034 C35.265,29.959 35.272,30.034 35.243,30.283 C35.203,30.57 35.215,30.636 35.297,30.636 C35.507,30.636 35.558,30.455 35.514,29.954 C35.485,29.686 35.424,29.365 35.37,29.238 C35.265,28.982 35.25,28.723 35.337,28.669 C35.37,28.641 35.42,28.488 35.446,28.307 C35.481,28.028 35.507,27.992 35.662,27.978 C35.756,27.978 35.883,27.927 35.939,27.865 C36.038,27.764 36.033,27.757 35.897,27.757 C35.796,27.757 35.746,27.72 35.746,27.631 C35.746,27.424 35.89,27.104 35.998,27.062 C36.066,27.034 36.078,26.996 36.038,26.935 C35.878,26.735 35.883,26.615 36.052,26.554 C36.2,26.5 36.214,26.475 36.148,26.369 C35.984,26.113 36.127,25.892 36.585,25.69 C37.243,25.391 37.461,24.997 37.311,24.353 C37.271,24.184 37.264,24.019 37.297,23.991 C37.358,23.925 37.567,24.762 37.567,25.067 C37.567,25.178 37.518,25.41 37.466,25.584 C37.339,26.007 37.391,26.052 37.567,25.678 C37.743,25.297 37.736,24.886 37.555,24.172 L37.405,23.589 L37.701,22.746 C37.863,22.285 38.018,21.869 38.047,21.836 C38.185,21.648 38.373,20.544 38.373,19.896 C38.373,19.513 38.394,19.188 38.43,19.172 C38.455,19.151 38.578,19.24 38.704,19.367 C39.003,19.656 39.057,19.607 38.82,19.273 C38.625,18.991 38.592,18.789 38.747,18.789 C38.902,18.789 38.869,18.7 38.643,18.537 C38.357,18.321 38.394,18.23 38.714,18.389 C39.076,18.577 39.191,18.556 38.946,18.357 L38.747,18.19 L38.935,18.23 C39.172,18.284 39.163,18.223 38.914,18.009 C38.808,17.922 38.714,17.788 38.714,17.72 C38.714,17.647 38.665,17.607 38.599,17.614 C38.524,17.619 38.383,17.433 38.159,17.017 C37.87,16.47 37.837,16.373 37.837,15.955 L37.837,15.492 L38.014,15.652 L38.185,15.812 L38.072,15.544 C37.727,14.755 37.727,14.731 37.936,13.758 C38.098,13.009 38.133,12.722 38.126,11.966 C38.119,10.927 38.037,10.466 37.588,9.028 C37.236,7.91 36.644,6.625 36.204,6.042 C35.73,5.405 34.785,4.456 34.219,4.028 C33.93,3.808 33.378,3.392 32.988,3.093 C32.595,2.79 32.151,2.482 31.989,2.403 C31.54,2.175 30.711,1.886 30.138,1.759 C29.625,1.646 29.6,1.627 29.127,1.162 C28.758,0.795 28.507,0.614 28.063,0.401 C27.746,0.255 27.356,0.093 27.187,0.06 C26.839,-0.02 25.53,-0.02 25.14,0.06 z" fill="#6C89A6"/>
  </g>
</svg>
