<?xml version="1.0" encoding="UTF-8"?>
<!DOCTYPE svg PUBLIC "-//W3C//DTD SVG 1.1//EN" "http://www.w3.org/Graphics/SVG/1.1/DTD/svg11.dtd">
<svg version="1.1" xmlns="http://www.w3.org/2000/svg" xmlns:xlink="http://www.w3.org/1999/xlink" x="0" y="0" width="25" height="25" viewBox="0, 0, 25, 25">
  <g id="Background">
    <rect x="0" y="0" width="25" height="25" fill="#000000" fill-opacity="0"/>
  </g>
  <g id="Background">
    <path d="M12.5,-0 C19.404,-0 25,5.596 25,12.5 C25,19.404 19.404,25 12.5,25 C5.596,25 0,19.404 0,12.5 C0,5.596 5.596,-0 12.5,-0 z M10.625,5 C7.519,5 5,7.519 5,10.625 C5,13.732 7.519,16.25 10.625,16.25 C12.018,16.25 13.293,15.744 14.276,14.905 C14.261,15.222 14.413,15.615 14.743,15.982 L17.765,19.535 C18.283,20.11 19.127,20.158 19.643,19.643 C20.158,19.127 20.11,18.282 19.535,17.765 L15.982,14.743 C15.615,14.413 15.222,14.261 14.905,14.275 C15.744,13.292 16.25,12.018 16.25,10.625 C16.25,7.519 13.732,5 10.625,5 z M10.625,6.875 C12.696,6.875 14.375,8.554 14.375,10.625 C14.375,12.696 12.696,14.375 10.625,14.375 C8.554,14.375 6.875,12.696 6.875,10.625 C6.875,8.554 8.554,6.875 10.625,6.875 z" fill="#5C7A99"/>
    <path d="M-19.125,0 C-12.221,0 -6.625,5.596 -6.625,12.5 C-6.625,19.404 -12.221,25 -19.125,25 C-26.029,25 -31.625,19.404 -31.625,12.5 C-31.625,5.596 -26.029,0 -19.125,0 z M-21,6.25 L-21,17.5 L-16.313,19.062 L-16.313,7.812 L-21,6.25 z M-21.938,5.937 L-26.625,7.812 L-26.625,19.062 L-21.938,17.187 L-21.938,5.937 z M-11.625,5.937 L-15.375,7.437 L-15.375,18.687 L-11.625,17.187 L-11.625,5.937 z" fill="#5C7A99"/>
  </g>
</svg>
