<?xml version="1.0" encoding="UTF-8"?>
<!DOCTYPE svg PUBLIC "-//W3C//DTD SVG 1.1//EN" "http://www.w3.org/Graphics/SVG/1.1/DTD/svg11.dtd">
<svg version="1.1" xmlns="http://www.w3.org/2000/svg" xmlns:xlink="http://www.w3.org/1999/xlink" x="0" y="0" width="20" height="20" viewBox="0, 0, 20, 20">
  <g id="Background">
    <rect x="0" y="0" width="20" height="20" fill="#000000" fill-opacity="0"/>
  </g>
  <g id="Layer_1">
    <path d="M9.984,11.249 C9.76,11.249 9.517,11.186 9.256,11.059 C8.996,10.932 8.742,10.78 8.492,10.603 C8.241,10.426 7.998,10.24 7.76,10.043 C7.52,9.848 7.311,9.687 7.13,9.556 C6.253,8.889 5.389,8.232 4.53,7.581 C3.673,6.928 2.8,6.268 1.909,5.595 C1.743,5.464 1.548,5.289 1.328,5.067 C1.106,4.847 0.902,4.602 0.71,4.335 C0.519,4.067 0.356,3.797 0.222,3.521 C0.088,3.246 0.02,2.995 0.02,2.773 C0.02,2.476 0.152,2.217 0.41,1.995 C0.673,1.775 0.95,1.664 1.247,1.664 L18.764,1.664 C19.059,1.664 19.336,1.775 19.594,1.995 C19.85,2.217 19.98,2.476 19.98,2.773 C19.98,2.995 19.912,3.246 19.778,3.521 C19.644,3.797 19.481,4.067 19.29,4.335 C19.1,4.602 18.891,4.847 18.672,5.067 C18.452,5.289 18.257,5.464 18.091,5.595 C17.202,6.259 16.327,6.919 15.47,7.574 C14.613,8.229 13.745,8.889 12.87,9.556 C12.689,9.687 12.482,9.848 12.247,10.043 C12.011,10.24 11.768,10.426 11.514,10.603 C11.26,10.78 11.004,10.932 10.744,11.059 C10.483,11.186 10.245,11.249 10.027,11.249 L10.005,11.249 z M9.984,13.734 C10.381,13.734 10.762,13.677 11.122,13.564 C11.485,13.455 11.832,13.308 12.165,13.131 C12.498,12.954 12.82,12.75 13.131,12.526 C13.441,12.297 13.745,12.061 14.044,11.823 C14.947,11.102 15.858,10.392 16.779,9.701 C17.697,9.012 18.624,8.318 19.556,7.622 C19.628,7.565 19.703,7.511 19.778,7.454 C19.855,7.402 19.93,7.336 20,7.264 L20,17.087 C20,17.427 19.88,17.719 19.637,17.966 C19.395,18.211 19.105,18.336 18.764,18.336 L1.247,18.336 C0.907,18.336 0.614,18.211 0.367,17.966 C0.122,17.719 0,17.427 0,17.087 L0,7.264 C0.07,7.336 0.145,7.402 0.222,7.454 C0.297,7.511 0.372,7.565 0.444,7.622 C1.378,8.318 2.303,9.012 3.224,9.701 C4.142,10.392 5.053,11.102 5.958,11.823 C6.239,12.049 6.536,12.274 6.847,12.503 C7.157,12.73 7.481,12.936 7.812,13.119 C8.146,13.303 8.495,13.455 8.86,13.564 C9.227,13.677 9.601,13.734 9.984,13.734" fill="#5C7A99"/>
  </g>
</svg>
