<?xml version="1.0" encoding="UTF-8"?>
<!DOCTYPE svg PUBLIC "-//W3C//DTD SVG 1.1//EN" "http://www.w3.org/Graphics/SVG/1.1/DTD/svg11.dtd">
<svg version="1.1" xmlns="http://www.w3.org/2000/svg" xmlns:xlink="http://www.w3.org/1999/xlink" x="0" y="0" width="100" height="50" viewBox="0, 0, 100, 50">
  <g id="Background">
    <rect x="0" y="0" width="100" height="50" fill="#000000" fill-opacity="0"/>
  </g>
  <g id="Layer_1">
    <path d="M21.207,26.645 C20.468,27.438 20.095,28.363 20.095,29.422 C20.095,30.481 20.468,31.387 21.207,32.133 L37.918,48.837 C38.657,49.583 39.577,49.97 40.656,49.99 C41.741,50.01 42.66,49.623 43.4,48.837 L43.786,48.398 L27.395,32.007 C26.649,31.261 26.282,30.368 26.296,29.309 C26.309,28.257 26.669,27.344 27.395,26.585 L48.761,2.734 C49.414,1.995 50.306,1.389 51.432,0.936 C52.564,0.477 53.643,0.184 54.682,0.057 L49.134,0.057 C48.055,0.057 46.863,0.317 45.551,0.836 C44.245,1.356 43.253,2.015 42.574,2.801 z M69.928,13.704 C68.929,13.704 68.056,13.331 67.317,12.592 C66.571,11.839 66.198,10.967 66.198,9.974 C66.198,8.935 66.571,8.043 67.317,7.31 C68.056,6.577 68.929,6.211 69.928,6.211 C70.973,6.211 71.853,6.577 72.592,7.31 C73.325,8.043 73.691,8.935 73.691,9.974 C73.691,10.967 73.325,11.839 72.592,12.592 C71.853,13.331 70.973,13.704 69.928,13.704 M33.609,26.585 C32.91,27.371 32.55,28.284 32.523,29.323 C32.503,30.368 32.87,31.261 33.609,32.007 L50.386,48.711 C51.126,49.457 52.045,49.85 53.144,49.89 C54.236,49.936 55.122,49.543 55.801,48.711 L77.161,24.927 C77.914,24.094 78.553,23.055 79.092,21.796 C79.632,20.551 79.905,19.385 79.905,18.326 L79.905,3.853 C79.905,2.808 79.539,1.902 78.793,1.143 C78.047,0.377 77.128,-0.01 76.049,-0.01 L61.576,-0.01 C61.043,-0.01 60.477,0.057 59.871,0.184 C59.265,0.31 58.652,0.51 58.032,0.77 C57.42,1.036 56.84,1.336 56.301,1.669 C55.761,1.995 55.315,2.355 54.969,2.734 z" fill="#DCDCDC"/>
  </g>
</svg>
