<?xml version="1.0" encoding="UTF-8"?>
<!DOCTYPE svg PUBLIC "-//W3C//DTD SVG 1.1//EN" "http://www.w3.org/Graphics/SVG/1.1/DTD/svg11.dtd">
<svg version="1.1" xmlns="http://www.w3.org/2000/svg" xmlns:xlink="http://www.w3.org/1999/xlink" x="0" y="0" width="22" height="22" viewBox="0, 0, 22, 22">
  <g id="Background">
    <rect x="0" y="0" width="22" height="22" fill="#000000" fill-opacity="0"/>
  </g>
  <g id="Layer_1">
    <g>
      <path d="M20.654,8.625 C21.025,8.625 21.342,8.756 21.605,9.017 C21.868,9.28 22,9.597 22,9.968 L22,12.032 C22,12.406 21.868,12.72 21.605,12.983 C21.342,13.247 21.025,13.378 20.654,13.378 L13.377,13.378 L13.377,20.627 C13.377,21.019 13.245,21.345 12.985,21.605 C12.722,21.868 12.402,22 12.031,22 L9.969,22 C9.598,22 9.278,21.868 9.015,21.605 C8.752,21.345 8.623,21.028 8.623,20.654 L8.623,13.378 L1.376,13.378 C0.984,13.378 0.655,13.253 0.395,12.998 C0.132,12.747 0,12.424 0,12.032 L0,9.968 C0,9.597 0.132,9.28 0.395,9.017 C0.655,8.756 0.972,8.625 1.346,8.625 L8.623,8.625 L8.623,1.376 C8.623,0.984 8.749,0.658 9,0.395 C9.254,0.135 9.577,-0 9.969,-0 L12.031,-0 C12.402,-0 12.722,0.135 12.985,0.395 C13.245,0.658 13.377,0.975 13.377,1.346 L13.377,8.625 z" fill="#7F7F7F"/>
    </g>
  </g>
</svg>
