<?xml version="1.0" encoding="UTF-8"?>
<!DOCTYPE svg PUBLIC "-//W3C//DTD SVG 1.1//EN" "http://www.w3.org/Graphics/SVG/1.1/DTD/svg11.dtd">
<svg version="1.1" xmlns="http://www.w3.org/2000/svg" xmlns:xlink="http://www.w3.org/1999/xlink" x="0" y="0" width="30" height="22" viewBox="0, 0, 30, 22">
  <g id="Background">
    <rect x="0" y="0" width="30" height="22" fill="#000000" fill-opacity="0"/>
  </g>
  <g id="Background"/>
  <g id="Layer_1">
    <path d="M12.698,0.024 C12.64,0.034 12.417,0.045 12.203,0.045 C11.854,0.047 11.796,0.055 11.621,0.116 C11.515,0.152 11.338,0.231 11.227,0.292 L11.026,0.4 L10.925,0.352 C10.869,0.326 10.758,0.3 10.674,0.292 C10.462,0.271 10.237,0.373 10.081,0.557 C9.906,0.768 9.827,0.883 9.795,0.967 C9.782,1.012 9.753,1.046 9.732,1.046 C9.687,1.046 9.687,1.044 9.732,0.854 C9.75,0.773 9.761,0.705 9.75,0.705 C9.726,0.705 9.525,1.007 9.459,1.146 C9.427,1.207 9.382,1.372 9.359,1.514 L9.316,1.772 L9.165,1.769 C9.007,1.769 8.93,1.798 8.438,2.032 C8.308,2.095 8.149,2.161 8.091,2.174 C7.988,2.201 7.826,2.303 7.85,2.324 C7.856,2.332 7.914,2.311 7.977,2.282 C8.176,2.193 8.194,2.208 8.094,2.379 C8.043,2.463 7.967,2.579 7.924,2.637 C7.813,2.782 7.604,3.063 7.533,3.158 C7.467,3.25 7.419,3.439 7.419,3.623 C7.419,3.828 7.459,3.794 7.464,3.583 C7.467,3.399 7.514,3.255 7.58,3.215 C7.623,3.186 7.628,3.205 7.604,3.36 C7.594,3.439 7.575,3.615 7.564,3.752 L7.549,3.999 L7.602,3.936 C7.668,3.857 7.67,3.867 7.607,4.033 C7.541,4.204 7.509,4.469 7.549,4.533 C7.572,4.575 7.578,4.569 7.578,4.49 C7.58,4.369 7.636,4.222 7.681,4.206 C7.744,4.185 7.692,4.451 7.594,4.646 C7.546,4.74 7.498,4.848 7.488,4.885 C7.472,4.948 7.472,4.948 7.512,4.877 C7.535,4.837 7.567,4.806 7.583,4.806 C7.623,4.806 7.594,5.305 7.541,5.5 C7.488,5.689 7.498,5.744 7.564,5.621 L7.615,5.529 L7.633,5.634 C7.676,5.879 7.726,6.063 7.763,6.107 C7.784,6.134 7.811,6.241 7.821,6.354 C7.832,6.465 7.853,6.62 7.869,6.699 C7.885,6.778 7.911,7.027 7.927,7.251 C7.953,7.624 7.951,7.677 7.903,7.874 C7.874,7.995 7.861,8.092 7.874,8.092 C7.885,8.092 7.89,8.119 7.882,8.153 C7.869,8.197 7.893,8.25 7.959,8.345 C8.131,8.579 8.369,9.076 8.424,9.312 C8.538,9.796 8.827,10.306 9.073,10.458 C9.155,10.508 9.165,10.535 9.218,10.756 C9.348,11.318 9.501,11.699 9.777,12.146 C10.02,12.543 10.139,12.698 10.248,12.761 C10.361,12.827 10.406,12.927 10.475,13.264 C10.56,13.682 10.56,13.69 10.613,14.468 C10.695,15.635 10.674,15.814 10.446,16.061 C10.367,16.148 10.261,16.279 10.213,16.355 C10.163,16.429 10.062,16.55 9.986,16.624 C9.912,16.695 9.824,16.797 9.795,16.847 C9.663,17.065 9.591,17.118 8.861,17.544 C8.255,17.899 7.924,18.067 7.546,18.217 C7.223,18.343 6.628,18.622 6.342,18.777 C6.032,18.945 4.847,19.692 4.463,19.962 C4.074,20.233 3.709,20.583 3.508,20.875 C3.291,21.193 3,21.811 3,21.961 C3,21.995 4.365,22 15,22 C21.983,22 27,21.989 27,21.976 C27,21.887 26.214,19.855 26.077,19.584 C25.95,19.337 25.505,18.703 25.193,18.322 C25.023,18.114 24.798,17.954 24.499,17.817 C24.132,17.652 22.56,17.052 22.126,16.913 C21.875,16.831 21.396,16.658 21.06,16.526 C20.726,16.395 20.398,16.282 20.332,16.274 C20.263,16.269 20.197,16.242 20.173,16.216 C20.152,16.19 19.996,16.106 19.829,16.029 C19.662,15.953 19.451,15.835 19.358,15.761 C19.162,15.609 19.043,15.575 18.779,15.601 L18.588,15.617 L18.289,15.427 C17.913,15.185 17.76,15.057 17.53,14.786 C16.842,13.979 16.701,13.624 16.627,12.499 C16.596,12.057 16.604,11.875 16.656,11.799 C16.675,11.77 16.678,11.799 16.667,11.897 C16.651,12.01 16.656,12.036 16.688,12.036 C16.77,12.036 16.791,11.965 16.773,11.768 C16.762,11.663 16.738,11.536 16.717,11.486 C16.675,11.386 16.67,11.284 16.704,11.263 C16.717,11.252 16.736,11.192 16.746,11.121 C16.76,11.011 16.77,10.997 16.831,10.992 C16.868,10.992 16.918,10.971 16.94,10.947 C16.979,10.908 16.977,10.905 16.924,10.905 C16.884,10.905 16.865,10.89 16.865,10.855 C16.865,10.774 16.921,10.648 16.963,10.632 C16.99,10.621 16.995,10.606 16.979,10.582 C16.916,10.503 16.918,10.456 16.985,10.432 C17.043,10.411 17.048,10.401 17.022,10.359 C16.958,10.259 17.014,10.172 17.194,10.093 C17.453,9.975 17.538,9.82 17.479,9.567 C17.464,9.501 17.461,9.436 17.474,9.425 C17.498,9.399 17.58,9.728 17.58,9.848 C17.58,9.891 17.561,9.983 17.54,10.051 C17.49,10.217 17.511,10.235 17.58,10.088 C17.649,9.938 17.646,9.777 17.575,9.496 L17.516,9.267 L17.633,8.936 C17.696,8.755 17.757,8.592 17.768,8.579 C17.823,8.505 17.897,8.071 17.897,7.816 C17.897,7.666 17.905,7.538 17.919,7.532 C17.929,7.524 17.977,7.559 18.027,7.609 C18.144,7.722 18.165,7.703 18.072,7.572 C17.995,7.461 17.982,7.382 18.043,7.382 C18.104,7.382 18.091,7.346 18.003,7.283 C17.89,7.198 17.905,7.162 18.03,7.225 C18.173,7.298 18.218,7.29 18.122,7.212 L18.043,7.146 L18.117,7.162 C18.21,7.183 18.207,7.159 18.109,7.075 C18.067,7.041 18.03,6.988 18.03,6.962 C18.03,6.933 18.011,6.917 17.985,6.92 C17.956,6.922 17.9,6.849 17.813,6.686 C17.699,6.47 17.686,6.433 17.686,6.268 L17.686,6.086 L17.755,6.149 L17.823,6.212 L17.778,6.107 C17.643,5.797 17.643,5.787 17.725,5.405 C17.789,5.111 17.802,4.998 17.8,4.701 C17.797,4.293 17.765,4.112 17.588,3.547 C17.45,3.108 17.217,2.603 17.045,2.374 C16.858,2.124 16.487,1.751 16.265,1.583 C16.151,1.496 15.934,1.333 15.781,1.215 C15.627,1.096 15.452,0.975 15.389,0.944 C15.212,0.854 14.886,0.741 14.661,0.691 C14.46,0.647 14.45,0.639 14.264,0.457 C14.119,0.313 14.021,0.242 13.846,0.158 C13.722,0.1 13.568,0.037 13.502,0.024 C13.365,-0.008 12.851,-0.008 12.698,0.024 z" fill="#FFFFFF"/>
  </g>
</svg>
