<?xml version="1.0" encoding="UTF-8"?>
<!DOCTYPE svg PUBLIC "-//W3C//DTD SVG 1.1//EN" "http://www.w3.org/Graphics/SVG/1.1/DTD/svg11.dtd">
<svg version="1.1" xmlns="http://www.w3.org/2000/svg" xmlns:xlink="http://www.w3.org/1999/xlink" x="0" y="0" width="108" height="108" viewBox="0, 0, 108, 108">
  <g id="Background">
    <rect x="0" y="0" width="108" height="108" fill="#000000" fill-opacity="0"/>
  </g>
  <g id="Layer_1">
    <path d="M99,41.687 L99,85.891 C99,87.421 98.459,88.737 97.367,89.849 C96.276,90.951 94.97,91.512 93.44,91.511 L65.907,91.511 C64.014,85.229 58.839,82.114 52.549,81.541 L52.548,81.541 C46.39,81.671 39.968,85.091 38.487,91.511 L14.611,91.511 C13.081,91.512 11.765,90.951 10.652,89.849 C9.551,88.737 9,87.421 9,85.891 L9,41.687 C9.316,42.013 9.653,42.309 9.999,42.543 C10.336,42.799 10.673,43.044 10.999,43.298 C15.203,46.431 19.365,49.552 23.506,52.653 C27.639,55.765 31.74,58.959 35.81,62.202 C37.075,63.223 38.412,64.233 39.809,65.263 L40.048,65.426 C39.861,68.931 39.929,67.381 39.826,70.075 C39.764,72.015 41.113,73.651 43.716,73.651 L59.145,73.651 C61.598,73.651 62.937,71.952 63.013,70.098 C63.11,68.576 63.028,69.148 63.154,68.368 L63.742,68.089 C65.242,67.293 66.691,66.375 68.089,65.365 C69.486,64.335 70.853,63.274 72.2,62.202 C76.26,58.959 80.361,55.765 84.503,52.653 C88.635,49.552 92.808,46.431 97,43.298 C97.327,43.044 97.664,42.799 98,42.543 C98.347,42.309 98.684,42.013 99,41.687 z" fill="#C6C6C6"/>
    <path d="M53.665,18.655 C58.464,18.655 61.563,19.847 63.161,22.095 C64.953,24.614 65.838,27.374 65.838,30.428 C65.838,32.592 64.861,34.819 62.882,37.546 C61.869,38.888 60.745,40.153 59.367,41.137 C58.986,41.384 59.219,41.232 58.669,41.594 C58.055,42.001 57.372,42.463 56.636,42.971 C54.534,44.425 52.431,45.962 50.463,47.519 C48.98,48.692 47.63,49.832 46.442,50.927 C44.394,52.91 45.357,51.917 43.543,53.895 C41.972,52.649 42.791,53.282 41.084,52.001 C37.136,49.002 33.25,46.043 29.382,43.115 C21.877,37.416 25.493,40.155 18.537,34.894 L41.08,34.894 L41.08,32.894 C41.08,29.491 42.075,26.204 44.093,22.994 C45.91,20.107 49.012,18.655 53.665,18.655 z" fill="#C6C6C6"/>
    <path d="M93.44,16.488 C94.766,16.489 96.011,16.988 97.173,17.978 C98.327,18.978 98.908,20.141 98.907,21.477 C98.908,22.477 98.602,23.609 98,24.843 C97.398,26.088 96.664,27.302 95.807,28.506 C94.95,29.71 94.011,30.812 93.021,31.801 C92.032,32.801 91.155,33.587 90.41,34.178 L90.304,34.257 C90.873,30.815 90.716,32.459 90.843,29.331 C90.779,24.974 90.259,20.477 88.384,16.488 L93.44,16.488 z" fill="#C6C6C6"/>
    <path d="M20.768,16.488 C18.329,21.568 17.594,27.252 17.245,32.81 L17.201,33.857 C16.411,33.226 15.697,32.509 14.978,31.801 C13.978,30.812 13.06,29.71 12.192,28.506 C11.336,27.302 10.602,26.088 9.999,24.843 C9.398,23.609 9.092,22.477 9.092,21.477 C9.092,20.141 9.684,18.978 10.846,17.978 C12.03,16.988 13.275,16.489 14.611,16.488 L20.768,16.488 z" fill="#C6C6C6"/>
  </g>
  <g id="Layer_2">
    <path d="M52.446,83.54 C45.61,83.336 39.968,88.066 39.752,95.482 C39.539,102.895 44.904,107.791 51.74,107.993 C58.879,108.205 64.369,103.629 64.582,96.216 C64.795,88.8 59.585,83.752 52.446,83.54 M78.539,7.403 C71.698,2.467 63.106,0 52.765,0 C44.894,0 38.257,1.739 32.86,5.208 C24.3,10.645 19.748,19.874 19.2,32.894 L39.037,32.894 C39.037,29.105 40.144,25.451 42.356,21.93 C44.57,18.413 48.325,16.655 53.622,16.655 C59.009,16.655 62.719,18.083 64.748,20.936 C66.78,23.794 67.795,26.958 67.795,30.428 C67.795,33.444 66.281,36.209 64.458,38.72 C63.455,40.184 62.132,41.531 60.49,42.764 C60.49,42.764 49.732,49.664 45.01,55.206 C42.27,58.422 42.023,63.236 41.782,70.145 C41.766,70.636 41.953,71.651 43.673,71.651 L59.102,71.651 C60.632,71.651 60.952,70.51 60.972,70.015 C61.08,67.499 61.364,66.215 61.822,64.764 C62.688,62.02 65.046,59.623 67.692,57.566 L73.153,53.798 C78.082,49.96 82.015,46.807 83.749,44.339 C86.717,40.274 88.8,35.27 88.8,29.332 C88.8,19.648 85.378,12.337 78.539,7.403" fill="#7F7F7F"/>
  </g>
</svg>
