<?xml version="1.0" encoding="UTF-8"?>
<!DOCTYPE svg PUBLIC "-//W3C//DTD SVG 1.1//EN" "http://www.w3.org/Graphics/SVG/1.1/DTD/svg11.dtd">
<svg version="1.1" xmlns="http://www.w3.org/2000/svg" xmlns:xlink="http://www.w3.org/1999/xlink" x="0" y="0" width="30" height="22" viewBox="0, 0, 30, 22">
  <g id="Background">
    <rect x="0" y="0" width="30" height="22" fill="#000000" fill-opacity="0"/>
  </g>
  <g id="Layer_1">
    <g>
      <path d="M16.18,0 C16.415,0 16.665,0.03 16.932,0.085 C17.2,0.141 17.47,0.229 17.743,0.344 C18.014,0.461 18.269,0.593 18.507,0.74 C18.746,0.884 18.942,1.043 19.095,1.21 L28.521,11.724 C28.829,12.071 28.988,12.473 29,12.931 C29.009,13.392 28.847,13.786 28.521,14.114 L21.117,21.479 C20.791,21.808 20.386,21.981 19.901,21.998 C19.419,22.019 19.028,21.846 18.728,21.479 L13.716,15.903 L15.987,12.263 L16.861,10.861 L15.381,10.124 L8.092,6.491 L8.092,1.703 C8.092,1.242 8.253,0.843 8.582,0.508 C8.912,0.17 9.317,0 9.793,0 L16.18,0 z M12.494,2.742 C12.033,2.743 11.645,2.904 11.319,3.227 C10.995,3.55 10.834,3.944 10.834,4.402 C10.834,4.839 10.995,5.224 11.319,5.556 C11.645,5.881 12.033,6.046 12.494,6.046 C12.935,6.046 13.32,5.881 13.646,5.556 C13.976,5.224 14.14,4.839 14.14,4.402 C14.14,3.944 13.976,3.55 13.646,3.227 C13.32,2.904 12.935,2.743 12.494,2.743 L12.494,2.742 z" fill="#6C89A6"/>
      <path d="M9.086,15.155 L10.102,18.875 L14.71,11.479 L7.038,7.653 L7.939,10.954 C0.448,12.999 1.01,21.774 1.01,21.774 C2.106,17.448 5.02,16.265 9.086,15.155" fill="#6C89A6"/>
    </g>
  </g>
</svg>
