<?xml version="1.0" encoding="UTF-8"?>
<!DOCTYPE svg PUBLIC "-//W3C//DTD SVG 1.1//EN" "http://www.w3.org/Graphics/SVG/1.1/DTD/svg11.dtd">
<svg version="1.1" xmlns="http://www.w3.org/2000/svg" xmlns:xlink="http://www.w3.org/1999/xlink" x="0" y="0" width="24" height="32" viewBox="0, 0, 24, 32">
  <g id="Background">
    <rect x="0" y="0" width="24" height="32" fill="#000000" fill-opacity="0"/>
  </g>
  <g id="Layer_1">
    <path d="M24,16 C24,18.982 21.582,21.4 18.6,21.4 C15.618,21.4 13.2,18.982 13.2,16 C13.2,13.018 15.618,10.6 18.6,10.6 C21.582,10.6 24,13.018 24,16 z M21.6,16 C21.6,14.343 20.257,13 18.6,13 C16.943,13 15.6,14.343 15.6,16 C15.6,17.657 16.943,19 18.6,19 C20.257,19 21.6,17.657 21.6,16 z" fill="#7F7F7F"/>
    <path d="M-0,16 C-0,13.018 2.418,10.6 5.4,10.6 C8.382,10.6 10.8,13.018 10.8,16 C10.8,18.982 8.382,21.4 5.4,21.4 C2.418,21.4 -0,18.982 -0,16 z" fill="#7F7F7F"/>
  </g>
  <g id="Layer_2" display="none">
    <g>
      <path d="M18.6,21.4 C15.618,21.4 13.2,18.982 13.2,16 C13.2,13.018 15.618,10.6 18.6,10.6 C21.582,10.6 24,13.018 24,16 C24,18.982 21.582,21.4 18.6,21.4 z" fill="#FFFFFF"/>
      <path d="M18.6,10.6 C21.582,10.6 24,13.018 24,16 C24,18.982 21.582,21.4 18.6,21.4 C15.618,21.4 13.2,18.982 13.2,16 C13.2,13.018 15.618,10.6 18.6,10.6 z M18.6,11.6 C16.17,11.6 14.2,13.57 14.2,16 C14.2,18.43 16.17,20.4 18.6,20.4 C21.03,20.4 23,18.43 23,16 C23,13.57 21.03,11.6 18.6,11.6 z" fill="#999999"/>
    </g>
    <g>
      <path d="M5.4,21.4 C2.418,21.4 -0,18.982 -0,16 C-0,13.018 2.418,10.6 5.4,10.6 C8.382,10.6 10.8,13.018 10.8,16 C10.8,18.982 8.382,21.4 5.4,21.4 z" fill="#FFFFFF"/>
      <path d="M5.4,10.6 C8.382,10.6 10.8,13.018 10.8,16 C10.8,18.982 8.382,21.4 5.4,21.4 C2.418,21.4 -0,18.982 -0,16 C-0,13.018 2.418,10.6 5.4,10.6 z M5.4,11.6 C2.97,11.6 1,13.57 1,16 C1,18.43 2.97,20.4 5.4,20.4 C7.83,20.4 9.8,18.43 9.8,16 C9.8,13.57 7.83,11.6 5.4,11.6 z" fill="#999999"/>
    </g>
    <path d="M5.4,19 C3.743,19 2.4,17.657 2.4,16 C2.4,14.343 3.743,13 5.4,13 C7.057,13 8.4,14.343 8.4,16 C8.4,17.657 7.057,19 5.4,19 z" fill="#999999"/>
  </g>
</svg>
