<?xml version="1.0" encoding="UTF-8"?>
<!DOCTYPE svg PUBLIC "-//W3C//DTD SVG 1.1//EN" "http://www.w3.org/Graphics/SVG/1.1/DTD/svg11.dtd">
<svg version="1.1" xmlns="http://www.w3.org/2000/svg" xmlns:xlink="http://www.w3.org/1999/xlink" x="0" y="0" width="24" height="32" viewBox="0, 0, 24, 32">
  <g id="Background">
    <rect x="0" y="0" width="24" height="32" fill="#000000" fill-opacity="0"/>
  </g>
  <g id="Layer_1">
    <g>
      <path d="M9.272,3.353 C9.822,3.353 10.431,3.488 11.095,3.754 C11.762,4.017 12.268,4.344 12.611,4.745 L23.45,16.81 C23.804,17.228 23.989,17.7 24,18.225 C24.01,18.754 23.828,19.206 23.45,19.583 L14.966,28.064 C14.589,28.444 14.128,28.636 13.578,28.647 C13.029,28.657 12.568,28.465 12.194,28.064 L10.277,25.92 C10.384,25.52 10.409,25.106 10.419,24.695 C10.41,24.338 10.416,24.278 10.355,23.852 C10.338,23.73 10.306,23.611 10.282,23.491 L12.066,21.706 C12.459,21.811 12.866,21.834 13.27,21.844 C16.326,21.844 18.803,19.367 18.803,16.311 C18.803,13.255 16.326,10.778 13.27,10.778 C10.214,10.778 7.737,13.255 7.737,16.311 C7.746,16.667 7.74,16.728 7.801,17.154 C7.818,17.275 7.85,17.394 7.874,17.514 L6.089,19.299 C5.697,19.195 5.29,19.172 4.886,19.162 C4.491,19.172 4.696,19.159 4.273,19.202 L1.385,15.971 C1.011,15.57 0.684,15.055 0.411,14.421 C0.135,13.788 0,13.188 0,12.629 L0,5.307 C0,4.782 0.189,4.323 0.563,3.936 C0.937,3.549 1.402,3.353 1.951,3.353 L9.272,3.353 z M5.047,6.534 C4.522,6.534 4.077,6.712 3.713,7.073 C3.356,7.433 3.174,7.878 3.174,8.404 C3.174,8.933 3.356,9.377 3.713,9.745 C4.077,10.109 4.522,10.291 5.047,10.291 C5.573,10.291 6.021,10.109 6.385,9.745 C6.752,9.377 6.934,8.933 6.934,8.404 C6.934,7.878 6.752,7.433 6.385,7.073 C6.021,6.712 5.573,6.534 5.047,6.534 L5.047,6.534 z" fill="#7F7F7F"/>
      <path d="M10.475,13.516 C12.019,11.973 14.521,11.973 16.065,13.516 C17.608,15.06 17.608,17.562 16.065,19.106 C14.994,20.165 13.388,20.541 11.962,20.042 C11.637,19.927 11.567,19.877 11.262,19.716 L8.291,22.687 C9.188,24.304 8.956,26.148 7.681,27.489 C6.137,29.033 3.635,29.033 2.092,27.489 C0.548,25.946 0.548,23.444 2.092,21.9 C3.162,20.841 4.768,20.465 6.194,20.964 C6.519,21.078 6.589,21.129 6.894,21.29 L9.865,18.319 C8.968,16.701 9.2,14.858 10.475,13.516 z" fill="#7F7F7F"/>
    </g>
  </g>
</svg>
