<?xml version="1.0" encoding="UTF-8"?>
<!DOCTYPE svg PUBLIC "-//W3C//DTD SVG 1.1//EN" "http://www.w3.org/Graphics/SVG/1.1/DTD/svg11.dtd">
<svg version="1.1" xmlns="http://www.w3.org/2000/svg" xmlns:xlink="http://www.w3.org/1999/xlink" x="0" y="0" width="68" height="56" viewBox="0, 0, 68, 56">
  <g id="Background">
    <rect x="0" y="0" width="68" height="56" fill="#000000" fill-opacity="0"/>
  </g>
  <g id="Layer_1">
    <g>
      <path d="M65.823,35.159 C66.402,35.159 66.896,35.364 67.306,35.769 C67.716,36.18 67.921,36.674 67.921,37.252 L67.921,40.468 C67.921,41.051 67.716,41.54 67.306,41.95 C66.896,42.361 66.402,42.566 65.823,42.566 L54.485,42.566 L54.485,53.86 C54.485,54.471 54.28,54.979 53.874,55.385 C53.464,55.795 52.965,56 52.387,56 L49.175,56 C48.597,56 48.098,55.795 47.688,55.385 C47.278,54.979 47.077,54.485 47.077,53.902 L47.077,42.566 L35.786,42.566 C35.175,42.566 34.662,42.37 34.256,41.974 C33.846,41.582 33.641,41.079 33.641,40.468 L33.641,37.252 C33.641,36.674 33.846,36.18 34.256,35.769 C34.662,35.364 35.156,35.159 35.739,35.159 L47.077,35.159 L47.077,23.864 C47.077,23.253 47.273,22.745 47.665,22.335 C48.061,21.929 48.564,21.72 49.175,21.72 L52.387,21.72 C52.965,21.72 53.464,21.929 53.874,22.335 C54.28,22.745 54.485,23.239 54.485,23.817 L54.485,35.159 z" fill="#6C89A6"/>
      <path d="M26.399,0.01 L26.812,0.055 C26.98,0.088 27.371,0.249 27.687,0.396 C28.132,0.611 28.381,0.791 28.751,1.159 C29.223,1.621 29.25,1.641 29.762,1.755 C30.334,1.882 31.163,2.17 31.614,2.397 C31.776,2.478 32.22,2.786 32.611,3.087 C33.002,3.388 33.554,3.803 33.844,4.024 C34.409,4.452 35.352,5.403 35.831,6.038 C36.268,6.621 36.861,7.906 37.211,9.023 C37.663,10.462 37.744,10.924 37.75,11.961 C37.757,12.718 37.723,13.006 37.561,13.755 C37.353,14.726 37.353,14.752 37.696,15.542 L37.811,15.81 L37.46,15.488 L37.46,15.95 C37.461,16.372 37.494,16.466 37.784,17.014 C38.006,17.429 38.148,17.617 38.222,17.61 C38.289,17.603 38.336,17.644 38.336,17.717 C38.336,17.784 38.431,17.918 38.538,18.005 C38.788,18.219 38.794,18.279 38.558,18.226 L38.37,18.186 L38.572,18.353 C38.814,18.554 38.7,18.574 38.336,18.386 C38.02,18.226 37.979,18.32 38.269,18.534 C38.491,18.694 38.525,18.788 38.37,18.788 C38.215,18.788 38.249,18.989 38.444,19.27 C38.68,19.605 38.626,19.651 38.329,19.363 C38.202,19.237 38.08,19.15 38.053,19.169 C38.02,19.183 37.999,19.511 37.999,19.892 C37.999,20.542 37.811,21.646 37.669,21.833 C37.643,21.867 37.488,22.282 37.326,22.743 L37.029,23.587 L37.178,24.169 C37.36,24.885 37.366,25.294 37.191,25.675 C37.016,26.05 36.962,26.003 37.09,25.581 C37.144,25.407 37.191,25.173 37.191,25.066 C37.191,24.758 36.982,23.921 36.922,23.988 C36.888,24.015 36.895,24.183 36.935,24.35 C37.083,24.992 36.868,25.387 36.208,25.688 C35.75,25.889 35.608,26.11 35.77,26.364 C35.837,26.471 35.824,26.498 35.676,26.552 C35.507,26.612 35.501,26.732 35.662,26.933 C35.703,26.993 35.689,27.034 35.622,27.06 C35.514,27.101 35.373,27.422 35.372,27.629 C35.373,27.716 35.42,27.756 35.521,27.756 C35.656,27.756 35.662,27.763 35.561,27.864 C35.507,27.924 35.379,27.977 35.285,27.977 C35.13,27.991 35.103,28.024 35.069,28.305 C35.043,28.486 34.995,28.64 34.962,28.666 C34.874,28.72 34.888,28.981 34.995,29.235 C35.049,29.363 35.11,29.684 35.137,29.951 C35.184,30.454 35.13,30.634 34.921,30.634 C34.841,30.634 34.827,30.567 34.867,30.279 C34.894,30.032 34.888,29.958 34.84,30.032 C34.661,30.854 34.716,30.389 34.753,31.434 C33.416,31.485 32.492,32.296 31.553,33.069 C30.428,34.195 29.82,35.66 29.819,37.251 L29.819,40.468 C29.82,42.101 30.435,43.608 31.617,44.736 C32.721,45.815 34.196,46.384 35.782,46.384 L43.254,46.384 L43.254,53.902 C43.398,55.404 43.216,54.711 43.748,55.993 C34.901,56.001 39.276,55.998 30.624,56 C3.554,56 0.079,55.987 0.079,55.899 C0.079,55.518 0.82,53.945 1.372,53.135 C1.884,52.393 2.813,51.502 3.803,50.813 C4.78,50.124 7.798,48.223 8.586,47.795 C9.313,47.4 10.829,46.69 11.65,46.369 C12.613,45.988 13.455,45.559 14.998,44.656 C16.857,43.572 17.039,43.438 17.375,42.882 C17.45,42.755 17.672,42.494 17.86,42.313 C18.056,42.126 18.312,41.818 18.44,41.63 C18.561,41.437 18.83,41.102 19.032,40.881 C19.612,40.252 19.665,39.797 19.456,36.825 C19.322,34.844 19.322,34.824 19.106,33.76 C18.931,32.903 18.817,32.649 18.527,32.481 C18.251,32.321 17.948,31.926 17.328,30.915 C16.628,29.778 16.237,28.807 15.907,27.375 C15.772,26.813 15.745,26.746 15.536,26.619 C14.91,26.23 14.176,24.932 13.886,23.701 C13.745,23.098 13.139,21.833 12.701,21.238 C12.533,20.997 12.472,20.863 12.506,20.749 C12.526,20.662 12.512,20.595 12.485,20.595 C12.452,20.595 12.485,20.348 12.56,20.04 C12.681,19.538 12.688,19.404 12.62,18.453 C12.58,17.885 12.512,17.249 12.472,17.048 C12.432,16.847 12.378,16.452 12.351,16.171 C12.324,15.883 12.256,15.609 12.202,15.542 C12.108,15.428 11.98,14.96 11.873,14.337 L11.825,14.07 L11.697,14.304 C11.529,14.619 11.502,14.478 11.637,13.996 C11.771,13.501 11.846,12.229 11.744,12.229 C11.704,12.229 11.623,12.309 11.562,12.41 C11.462,12.591 11.462,12.591 11.502,12.43 C11.529,12.336 11.65,12.062 11.771,11.821 C12.021,11.326 12.155,10.65 11.994,10.703 C11.879,10.743 11.738,11.118 11.731,11.426 C11.731,11.627 11.718,11.64 11.657,11.533 C11.556,11.373 11.637,10.697 11.805,10.261 C11.967,9.84 11.96,9.813 11.792,10.014 L11.657,10.174 L11.697,9.545 C11.724,9.197 11.771,8.749 11.798,8.548 C11.859,8.153 11.846,8.106 11.738,8.18 C11.569,8.28 11.448,8.649 11.441,9.117 C11.428,9.652 11.327,9.739 11.327,9.217 C11.327,8.749 11.448,8.267 11.616,8.033 C11.798,7.792 12.331,7.076 12.613,6.708 C12.721,6.56 12.917,6.266 13.044,6.052 C13.3,5.617 13.253,5.577 12.748,5.804 C12.586,5.878 12.438,5.931 12.425,5.911 C12.364,5.858 12.775,5.597 13.038,5.53 C13.186,5.496 13.59,5.329 13.92,5.168 C15.173,4.573 15.368,4.499 15.772,4.499 L16.156,4.506 L16.264,3.85 C16.325,3.488 16.439,3.067 16.52,2.913 C16.688,2.558 17.2,1.788 17.261,1.788 C17.288,1.788 17.261,1.962 17.214,2.17 C17.099,2.652 17.099,2.659 17.214,2.658 C17.268,2.659 17.342,2.571 17.375,2.458 C17.456,2.244 17.658,1.949 18.103,1.414 C18.5,0.945 19.073,0.684 19.611,0.738 C19.827,0.758 20.11,0.825 20.251,0.891 L20.507,1.012 L21.019,0.738 C21.302,0.584 21.753,0.383 22.023,0.289 C22.467,0.135 22.616,0.115 23.504,0.108 C24.05,0.109 24.616,0.082 24.764,0.055 C25.597,-0.031 25.054,0.01 26.399,0.01 z" fill="#6C89A6"/>
      <path d="M58.298,49.012 C58.583,49.419 58.4,49.146 58.819,49.849 C59.169,50.539 61.17,55.712 61.17,55.94 C59.661,55.971 60.78,55.951 57.81,55.965 C58.336,54.673 58.156,55.371 58.298,53.86 L58.298,49.012 z" fill="#6C89A6"/>
    </g>
  </g>
</svg>
