<?xml version="1.0" encoding="UTF-8"?>
<!DOCTYPE svg PUBLIC "-//W3C//DTD SVG 1.1//EN" "http://www.w3.org/Graphics/SVG/1.1/DTD/svg11.dtd">
<svg version="1.1" xmlns="http://www.w3.org/2000/svg" xmlns:xlink="http://www.w3.org/1999/xlink" x="0" y="0" width="50" height="50" viewBox="0, 0, 50, 50">
  <g id="Background">
    <rect x="0" y="0" width="50" height="50" fill="#000000" fill-opacity="0"/>
  </g>
  <g id="Layer_1">
    <g>
      <path d="M28.292,33.208 C28.292,33.357 28.345,33.481 28.448,33.58 C28.55,33.677 28.682,33.727 28.841,33.727 L29.389,33.727 C29.539,33.727 29.668,33.677 29.773,33.586 C29.882,33.492 29.938,33.366 29.938,33.208 L29.938,24.588 C29.938,24.438 29.882,24.306 29.773,24.201 C29.668,24.092 29.539,24.037 29.389,24.037 L28.841,24.037 C28.691,24.037 28.562,24.092 28.456,24.201 C28.348,24.306 28.292,24.438 28.292,24.588 z M25.82,24.588 C25.82,24.438 25.77,24.306 25.661,24.201 C25.55,24.092 25.421,24.037 25.274,24.037 L24.726,24.037 C24.576,24.037 24.45,24.092 24.353,24.201 C24.256,24.306 24.207,24.438 24.207,24.588 L24.207,33.208 C24.207,33.357 24.254,33.481 24.347,33.58 C24.441,33.677 24.564,33.727 24.726,33.727 L25.274,33.727 C25.421,33.727 25.55,33.677 25.661,33.586 C25.77,33.492 25.82,33.366 25.82,33.208 z M22.972,17.2 C24.321,17.179 25.679,17.179 27.057,17.2 C27.057,17.088 27.066,16.98 27.087,16.871 C27.104,16.763 27.104,16.66 27.087,16.566 L27.087,16.358 C26.758,16.264 26.409,16.211 26.046,16.203 C25.679,16.194 25.333,16.188 25.007,16.188 C24.661,16.188 24.309,16.194 23.949,16.203 C23.588,16.211 23.242,16.264 22.916,16.358 L22.916,16.566 C22.916,16.66 22.919,16.766 22.931,16.877 C22.94,16.992 22.954,17.097 22.972,17.2 M21.708,24.588 C21.708,24.438 21.652,24.306 21.546,24.201 C21.438,24.092 21.309,24.037 21.159,24.037 L20.614,24.037 C20.461,24.037 20.338,24.092 20.241,24.201 C20.142,24.306 20.092,24.438 20.092,24.588 L20.092,33.208 C20.092,33.357 20.142,33.481 20.241,33.58 C20.338,33.677 20.461,33.727 20.614,33.727 L21.159,33.727 C21.309,33.727 21.438,33.677 21.546,33.586 C21.652,33.492 21.708,33.366 21.708,33.208 z M25.007,22.45 C26.216,22.432 27.421,22.403 28.629,22.368 C29.835,22.33 31.043,22.239 32.255,22.086 L32.255,33.838 C32.255,34.428 32.046,34.938 31.636,35.361 C31.222,35.789 30.721,36 30.131,36 L19.869,36 C19.279,36 18.772,35.792 18.344,35.366 C17.918,34.95 17.707,34.44 17.707,33.838 L17.707,22.086 C18.857,22.239 20.001,22.335 21.133,22.382 C22.265,22.426 23.406,22.45 24.559,22.45 z M34.161,19.012 L34.161,19.98 C33.815,20.168 33.24,20.318 32.434,20.438 C31.63,20.555 30.762,20.643 29.829,20.702 C28.899,20.766 27.993,20.802 27.113,20.807 C26.233,20.816 25.532,20.822 25.007,20.822 C24.491,20.822 23.79,20.816 22.901,20.807 C22.01,20.802 21.101,20.766 20.168,20.702 C19.238,20.643 18.376,20.555 17.581,20.444 C16.783,20.329 16.214,20.177 15.868,19.98 C15.848,19.831 15.839,19.669 15.839,19.493 L15.839,19.012 L15.839,18.505 C15.839,18.338 15.848,18.168 15.868,17.998 C16.1,17.871 16.434,17.757 16.865,17.669 C17.294,17.581 17.751,17.508 18.238,17.452 C18.725,17.396 19.206,17.355 19.678,17.326 C20.153,17.3 20.52,17.273 20.781,17.256 C20.705,16.49 20.76,15.892 20.942,15.458 C21.127,15.029 21.403,14.707 21.778,14.499 C22.151,14.287 22.611,14.15 23.16,14.088 C23.708,14.029 24.321,14 25.007,14 C25.524,14 26.034,14.012 26.544,14.041 C27.055,14.07 27.509,14.167 27.914,14.326 C28.316,14.493 28.635,14.748 28.876,15.094 C29.113,15.44 29.234,15.93 29.234,16.566 L29.234,16.904 C29.234,17.018 29.222,17.135 29.207,17.256 C29.477,17.273 29.847,17.3 30.313,17.326 C30.782,17.355 31.263,17.396 31.756,17.452 C32.246,17.508 32.712,17.581 33.149,17.669 C33.592,17.757 33.929,17.871 34.161,17.998 z" fill="#FFFFFF"/>
      <path d="M25,-0 C38.807,-0 50,11.193 50,25 C50,38.807 38.807,50 25,50 C11.193,50 0,38.807 0,25 C0,11.193 11.193,-0 25,-0 L25,-0 z M25,3 C12.85,3 3,12.85 3,25 C3,37.15 12.85,47 25,47 C37.15,47 47,37.15 47,25 C47,12.85 37.15,3 25,3 z" fill="#FFFFFF"/>
    </g>
  </g>
</svg>
