<?xml version="1.0" encoding="UTF-8"?>
<!DOCTYPE svg PUBLIC "-//W3C//DTD SVG 1.1//EN" "http://www.w3.org/Graphics/SVG/1.1/DTD/svg11.dtd">
<svg version="1.1" xmlns="http://www.w3.org/2000/svg" xmlns:xlink="http://www.w3.org/1999/xlink" x="0" y="0" width="24" height="32" viewBox="0, 0, 24, 32">
  <g id="Background">
    <rect x="0" y="0" width="24" height="32" fill="#000000" fill-opacity="0"/>
  </g>
  <g id="Layer_1">
    <g>
      <path d="M20.343,5.5 C20.799,5.5 21.185,5.662 21.496,5.984 C21.806,6.306 21.963,6.686 21.963,7.122 L21.963,13.201 C21.963,13.665 21.851,14.163 21.622,14.689 C21.395,15.215 21.124,15.643 20.813,15.976 L18.337,18.746 L13.733,14.146 L12.881,13.295 L11.845,12.259 C11.42,11.833 10.873,11.605 10.271,11.606 C9.671,11.605 9.122,11.833 8.697,12.259 L8.215,12.724 L7.707,13.25 L7.727,13.231 C7.297,13.657 7.068,14.207 7.068,14.812 C7.068,15.422 7.299,15.971 7.734,16.394 L8.757,17.417 L9.6,18.261 L9.61,18.271 L14.44,23.106 L11.839,26.016 C11.529,26.349 11.146,26.508 10.69,26.5 C10.234,26.491 9.85,26.332 9.537,26.016 L2.493,18.975 C2.18,18.662 2.029,18.287 2.037,17.847 C2.046,17.411 2.2,17.019 2.493,16.673 L11.492,6.655 C11.778,6.322 12.197,6.051 12.751,5.833 C13.302,5.612 13.809,5.5 14.265,5.5 L20.343,5.5 z M17.772,8.141 C17.336,8.141 16.964,8.289 16.662,8.588 C16.357,8.888 16.206,9.257 16.206,9.693 C16.206,10.132 16.357,10.502 16.662,10.807 C16.964,11.109 17.336,11.26 17.772,11.26 C18.209,11.26 18.578,11.109 18.88,10.807 C19.177,10.502 19.328,10.132 19.328,9.693 C19.328,9.257 19.177,8.888 18.88,8.588 C18.578,8.289 18.209,8.141 17.772,8.141 z" fill="#7F7F7F"/>
      <path d="M8.905,14.416 C8.701,14.618 8.599,14.863 8.599,15.15 C8.599,15.439 8.701,15.679 8.905,15.877 L9.939,16.911 L12.375,14.476 L11.34,13.44 C11.138,13.238 10.894,13.136 10.609,13.136 C10.326,13.136 10.08,13.238 9.879,13.44 L9.383,13.92 z M10.793,17.765 L18.327,25.308 L21.963,26.5 L20.769,22.863 L13.228,15.328 z" fill="#7F7F7F"/>
    </g>
  </g>
</svg>
