<?xml version="1.0" encoding="UTF-8"?>
<!DOCTYPE svg PUBLIC "-//W3C//DTD SVG 1.1//EN" "http://www.w3.org/Graphics/SVG/1.1/DTD/svg11.dtd">
<svg version="1.1" xmlns="http://www.w3.org/2000/svg" xmlns:xlink="http://www.w3.org/1999/xlink" x="0" y="0" width="24" height="32" viewBox="0, 0, 24, 32">
  <g id="Background"/>
  <g id="Layer_1">
    <path d="M18.103,10.466 C18.103,10.858 18.233,11.185 18.498,11.449 C18.759,11.714 19.081,11.844 19.455,11.844 C19.847,11.844 20.177,11.714 20.443,11.449 C20.71,11.185 20.843,10.866 20.843,10.492 C20.843,10.1 20.713,9.771 20.449,9.504 C20.187,9.234 19.863,9.104 19.478,9.104 C19.086,9.104 18.759,9.234 18.498,9.504 C18.233,9.771 18.103,10.092 18.103,10.466 M17.488,20.972 C17.488,21.382 17.632,21.735 17.922,22.036 C18.21,22.337 18.56,22.486 18.979,22.486 C19.387,22.486 19.74,22.342 20.038,22.057 C20.333,21.764 20.483,21.408 20.483,20.972 C20.483,20.561 20.336,20.216 20.048,19.925 C19.761,19.638 19.405,19.494 18.979,19.494 C18.571,19.494 18.218,19.638 17.927,19.925 C17.635,20.216 17.488,20.561 17.488,20.972 M22.797,11.619 C22.687,11.92 22.559,12.182 22.407,12.407 C22.426,12.443 22.46,12.509 22.509,12.613 C22.559,12.718 22.617,12.83 22.679,12.953 C22.739,13.074 22.792,13.183 22.836,13.285 C22.875,13.382 22.896,13.445 22.896,13.461 C22.896,13.51 22.802,13.607 22.617,13.754 C22.428,13.9 22.219,14.052 21.989,14.206 C21.759,14.358 21.544,14.496 21.346,14.619 C21.144,14.739 21.037,14.797 21.019,14.797 C20.987,14.797 20.927,14.76 20.843,14.679 C20.762,14.601 20.671,14.512 20.574,14.41 C20.48,14.313 20.394,14.214 20.318,14.117 C20.242,14.02 20.19,13.955 20.156,13.924 C20.038,13.955 19.92,13.981 19.797,13.999 C19.677,14.015 19.554,14.015 19.429,13.999 L19.253,13.999 C19.222,14.031 19.17,14.101 19.104,14.206 C19.036,14.308 18.966,14.418 18.885,14.53 C18.806,14.643 18.728,14.742 18.652,14.823 C18.579,14.907 18.524,14.951 18.49,14.951 C18.458,14.951 18.33,14.904 18.116,14.813 C17.899,14.721 17.671,14.614 17.433,14.491 C17.195,14.371 16.978,14.25 16.782,14.127 C16.586,14.007 16.486,13.924 16.486,13.874 C16.486,13.858 16.5,13.795 16.523,13.691 C16.549,13.586 16.583,13.474 16.625,13.359 C16.667,13.244 16.703,13.128 16.737,13.016 C16.771,12.904 16.795,12.83 16.813,12.796 C16.622,12.603 16.463,12.357 16.337,12.056 C15.895,12.041 15.582,12.02 15.398,11.993 C15.215,11.967 15.093,11.891 15.035,11.763 C14.977,11.633 14.957,11.415 14.972,11.104 C14.991,10.798 14.972,10.343 14.923,9.742 C14.923,9.689 14.975,9.642 15.079,9.59 C15.184,9.54 15.307,9.501 15.448,9.465 C15.589,9.431 15.731,9.41 15.869,9.391 C16.005,9.373 16.099,9.357 16.149,9.339 C16.233,9.067 16.361,8.798 16.536,8.541 C16.52,8.505 16.486,8.434 16.437,8.322 C16.387,8.209 16.335,8.094 16.28,7.976 C16.228,7.859 16.178,7.754 16.139,7.657 C16.094,7.561 16.076,7.495 16.076,7.464 C16.076,7.412 16.165,7.32 16.343,7.181 C16.523,7.043 16.727,6.896 16.957,6.742 C17.185,6.59 17.402,6.452 17.603,6.337 C17.802,6.219 17.92,6.161 17.951,6.161 C17.985,6.161 18.04,6.198 18.116,6.271 C18.189,6.35 18.275,6.439 18.372,6.543 C18.469,6.645 18.552,6.745 18.628,6.836 C18.702,6.928 18.756,6.991 18.79,7.025 C18.908,6.991 19.028,6.967 19.146,6.949 C19.269,6.93 19.392,6.93 19.517,6.949 L19.693,6.949 C19.708,6.917 19.755,6.847 19.831,6.742 C19.905,6.637 19.983,6.533 20.061,6.423 C20.14,6.313 20.213,6.216 20.281,6.13 C20.347,6.044 20.396,5.997 20.43,5.997 C20.464,5.997 20.59,6.046 20.807,6.143 C21.024,6.237 21.257,6.347 21.502,6.467 C21.748,6.59 21.971,6.705 22.164,6.823 C22.36,6.941 22.46,7.025 22.46,7.074 C22.46,7.108 22.444,7.171 22.407,7.268 C22.376,7.364 22.342,7.472 22.308,7.595 C22.277,7.715 22.24,7.83 22.203,7.937 C22.164,8.047 22.138,8.118 22.122,8.152 C22.29,8.361 22.452,8.612 22.609,8.902 C23.035,8.936 23.344,8.965 23.537,8.991 C23.728,9.015 23.848,9.093 23.898,9.219 C23.948,9.352 23.971,9.567 23.961,9.873 C23.953,10.178 23.966,10.623 24,11.206 C24,11.256 23.948,11.308 23.843,11.363 C23.738,11.415 23.618,11.463 23.487,11.494 C23.351,11.528 23.218,11.554 23.079,11.57 C22.941,11.585 22.847,11.604 22.797,11.619 M22.773,21.699 C22.698,22.015 22.601,22.311 22.483,22.588 C22.501,22.635 22.549,22.716 22.627,22.818 C22.708,22.923 22.787,23.038 22.86,23.158 C22.936,23.276 23.001,23.391 23.061,23.5 C23.119,23.608 23.147,23.686 23.147,23.725 C23.147,23.759 23.069,23.856 22.917,24.021 C22.763,24.183 22.583,24.356 22.379,24.534 C22.175,24.711 21.976,24.881 21.79,25.038 C21.602,25.198 21.482,25.308 21.432,25.365 L21.332,25.417 C21.298,25.417 21.23,25.381 21.126,25.31 C21.021,25.237 20.914,25.156 20.807,25.064 C20.7,24.973 20.592,24.884 20.488,24.795 C20.383,24.706 20.315,24.649 20.281,24.615 C19.973,24.714 19.646,24.795 19.303,24.853 C19.287,24.902 19.248,24.994 19.193,25.122 C19.133,25.25 19.068,25.378 18.997,25.504 C18.926,25.629 18.858,25.744 18.79,25.846 C18.725,25.954 18.665,26.003 18.615,26.003 C18.566,26.003 18.419,25.975 18.178,25.909 C17.935,25.846 17.674,25.771 17.394,25.676 C17.117,25.585 16.866,25.488 16.643,25.383 C16.421,25.279 16.311,25.187 16.311,25.104 C16.311,24.91 16.332,24.711 16.374,24.507 C16.416,24.303 16.455,24.11 16.486,23.924 C16.353,23.825 16.235,23.715 16.131,23.595 C16.026,23.474 15.932,23.346 15.848,23.213 C15.657,23.231 15.466,23.242 15.278,23.252 C15.093,23.26 14.904,23.263 14.724,23.263 L14.541,23.263 C14.486,23.263 14.452,23.215 14.433,23.124 C14.418,23.056 14.384,22.909 14.334,22.679 C14.284,22.449 14.227,22.209 14.164,21.955 C14.101,21.699 14.049,21.468 14.01,21.259 C13.965,21.05 13.947,20.93 13.947,20.896 C13.947,20.846 14.002,20.791 14.114,20.734 C14.227,20.676 14.358,20.616 14.504,20.551 C14.648,20.488 14.789,20.438 14.923,20.396 C15.056,20.354 15.147,20.326 15.197,20.31 C15.231,20.114 15.27,19.954 15.317,19.818 C15.362,19.685 15.427,19.533 15.511,19.355 C15.477,19.324 15.425,19.251 15.349,19.144 C15.273,19.034 15.197,18.919 15.116,18.801 C15.038,18.681 14.967,18.563 14.909,18.45 C14.852,18.338 14.823,18.262 14.823,18.231 C14.823,18.197 14.899,18.097 15.053,17.933 C15.208,17.773 15.388,17.603 15.592,17.423 C15.796,17.245 15.992,17.075 16.18,16.923 C16.369,16.766 16.486,16.664 16.536,16.617 L16.638,16.565 C16.672,16.565 16.74,16.602 16.845,16.672 C16.949,16.74 17.054,16.824 17.164,16.915 C17.271,17.007 17.378,17.096 17.483,17.182 C17.587,17.274 17.655,17.331 17.689,17.368 C17.982,17.266 18.299,17.187 18.641,17.127 C18.657,17.077 18.696,16.989 18.754,16.858 C18.811,16.73 18.879,16.602 18.96,16.479 C19.039,16.35 19.112,16.238 19.18,16.131 C19.246,16.029 19.303,15.976 19.355,15.976 C19.387,15.976 19.528,16.005 19.782,16.065 C20.03,16.12 20.294,16.199 20.574,16.296 C20.854,16.392 21.108,16.489 21.332,16.591 C21.557,16.69 21.67,16.785 21.67,16.876 C21.67,17.07 21.646,17.266 21.602,17.467 C21.555,17.666 21.516,17.862 21.482,18.053 C21.615,18.152 21.735,18.265 21.84,18.385 C21.944,18.505 22.039,18.634 22.122,18.767 C22.329,18.751 22.535,18.738 22.739,18.73 C22.946,18.72 23.145,18.717 23.336,18.717 C23.401,18.717 23.477,18.827 23.561,19.049 C23.644,19.272 23.718,19.523 23.78,19.808 C23.843,20.09 23.895,20.36 23.937,20.616 C23.979,20.87 24,21.034 24,21.108 C24,21.16 23.942,21.212 23.83,21.272 C23.718,21.33 23.595,21.385 23.461,21.432 C23.328,21.484 23.192,21.536 23.053,21.591 C22.917,21.644 22.823,21.68 22.773,21.699 M7.534,16.69 C7.846,16.69 8.136,16.63 8.411,16.515 C8.688,16.398 8.928,16.238 9.132,16.034 C9.336,15.83 9.496,15.589 9.614,15.315 C9.731,15.038 9.789,14.747 9.789,14.436 C9.789,14.127 9.731,13.832 9.614,13.555 C9.496,13.275 9.336,13.029 9.132,12.825 C8.928,12.621 8.688,12.462 8.411,12.339 C8.136,12.218 7.846,12.156 7.534,12.156 C6.902,12.156 6.363,12.378 5.921,12.82 C5.479,13.262 5.257,13.801 5.257,14.436 C5.257,14.747 5.317,15.038 5.44,15.315 C5.56,15.589 5.722,15.83 5.926,16.034 C6.13,16.238 6.373,16.398 6.653,16.515 C6.933,16.63 7.226,16.69 7.534,16.69 M12.483,11.695 C12.673,12.02 12.836,12.404 12.969,12.846 C13.053,12.862 13.207,12.883 13.432,12.909 C13.657,12.932 13.89,12.969 14.127,13.016 C14.365,13.06 14.577,13.11 14.766,13.157 C14.954,13.21 15.048,13.267 15.048,13.335 L15.048,15.563 C15.048,15.644 14.954,15.718 14.766,15.767 C14.577,15.825 14.365,15.869 14.127,15.914 C13.89,15.956 13.654,15.984 13.419,16 C13.186,16.018 13.034,16.034 12.969,16.052 C12.851,16.411 12.7,16.777 12.506,17.153 C12.7,17.412 12.883,17.663 13.063,17.912 C13.244,18.155 13.445,18.401 13.67,18.644 L13.696,18.767 C13.696,18.817 13.61,18.942 13.44,19.144 C13.267,19.345 13.068,19.554 12.843,19.776 C12.619,19.999 12.407,20.192 12.213,20.365 C12.014,20.535 11.891,20.621 11.842,20.621 C11.826,20.621 11.74,20.564 11.585,20.451 C11.431,20.339 11.261,20.211 11.073,20.064 C10.885,19.918 10.709,19.784 10.547,19.656 C10.382,19.533 10.278,19.449 10.228,19.405 C9.852,19.599 9.485,19.753 9.125,19.871 C9.125,19.954 9.111,20.109 9.088,20.331 C9.062,20.558 9.03,20.794 8.989,21.04 C8.947,21.288 8.894,21.505 8.832,21.691 C8.769,21.879 8.703,21.973 8.638,21.973 L6.41,21.973 C6.342,21.973 6.279,21.879 6.216,21.691 C6.154,21.505 6.104,21.288 6.07,21.04 C6.039,20.794 6.007,20.558 5.984,20.339 C5.958,20.116 5.947,19.962 5.947,19.871 C5.57,19.771 5.202,19.614 4.843,19.405 C4.585,19.599 4.328,19.792 4.075,19.988 C3.821,20.187 3.57,20.386 3.329,20.595 L3.204,20.621 C3.172,20.621 3.057,20.535 2.858,20.365 C2.662,20.192 2.458,19.999 2.246,19.776 C2.032,19.554 1.841,19.345 1.671,19.144 C1.499,18.942 1.415,18.817 1.415,18.767 C1.415,18.751 1.467,18.665 1.577,18.511 C1.684,18.359 1.81,18.189 1.946,18.011 C2.084,17.831 2.212,17.658 2.333,17.496 C2.456,17.334 2.532,17.229 2.566,17.177 C2.372,16.821 2.21,16.426 2.076,16 C1.993,15.984 1.839,15.963 1.614,15.937 C1.389,15.914 1.159,15.885 0.918,15.851 C0.68,15.817 0.468,15.772 0.28,15.72 C0.092,15.665 0,15.605 0,15.537 L0,13.285 C0,13.22 0.092,13.152 0.28,13.092 C0.468,13.026 0.685,12.979 0.931,12.945 C1.177,12.914 1.415,12.883 1.64,12.859 C1.865,12.833 2.019,12.82 2.103,12.82 C2.202,12.412 2.356,12.046 2.566,11.719 C2.372,11.463 2.184,11.204 1.995,10.95 C1.81,10.696 1.614,10.445 1.415,10.205 L1.365,10.079 C1.365,10.029 1.449,9.907 1.619,9.71 C1.791,9.514 1.988,9.308 2.207,9.085 C2.43,8.863 2.639,8.667 2.835,8.494 C3.031,8.327 3.154,8.238 3.204,8.238 C3.222,8.238 3.306,8.293 3.46,8.403 C3.614,8.51 3.787,8.638 3.975,8.782 C4.161,8.928 4.341,9.072 4.511,9.211 C4.684,9.347 4.786,9.431 4.817,9.465 C5.178,9.255 5.555,9.104 5.947,9.002 C5.947,8.936 5.958,8.779 5.984,8.541 C6.007,8.298 6.039,8.058 6.07,7.82 C6.104,7.579 6.148,7.364 6.203,7.168 C6.256,6.972 6.326,6.875 6.41,6.875 L8.638,6.875 C8.703,6.875 8.769,6.972 8.832,7.168 C8.894,7.364 8.941,7.579 8.975,7.82 C9.009,8.058 9.038,8.298 9.062,8.541 C9.088,8.779 9.109,8.936 9.125,9.002 C9.501,9.104 9.859,9.25 10.202,9.438 C10.461,9.25 10.722,9.059 10.984,8.873 C11.248,8.683 11.502,8.489 11.742,8.29 L11.842,8.238 C11.876,8.238 11.991,8.33 12.187,8.507 C12.383,8.688 12.59,8.884 12.807,9.098 C13.024,9.31 13.223,9.514 13.4,9.71 C13.581,9.907 13.67,10.029 13.67,10.079 C13.67,10.113 13.615,10.205 13.502,10.362 C13.387,10.516 13.262,10.681 13.126,10.861 C12.987,11.042 12.854,11.212 12.726,11.376 C12.595,11.538 12.514,11.643 12.483,11.695" fill="#7F7F7F"/>
  </g>
</svg>
