<?xml version="1.0" encoding="UTF-8"?>
<!DOCTYPE svg PUBLIC "-//W3C//DTD SVG 1.1//EN" "http://www.w3.org/Graphics/SVG/1.1/DTD/svg11.dtd">
<svg version="1.1" xmlns="http://www.w3.org/2000/svg" xmlns:xlink="http://www.w3.org/1999/xlink" x="0" y="0" width="35" height="22" viewBox="0, 0, 35, 22">
  <g id="Background">
    <rect x="0" y="0" width="35" height="22" fill="#000000" fill-opacity="0"/>
  </g>
  <g id="Layer_1">
    <path d="M27,9 L31,13 L35,9 z" fill="#727272"/>
    <path d="M21,14.047 C21,13.915 20.95,13.806 20.85,13.718 C20.754,13.628 20.648,13.584 20.537,13.584 L16.13,13.584 L16.13,8.731 C16.13,8.42 15.977,8.271 15.681,8.28 L13.376,8.28 C13.068,8.28 12.913,8.429 12.913,8.731 L12.913,13.584 L8.521,13.584 C8.213,13.584 8.057,13.739 8.057,14.047 L8.057,16.262 C8.057,16.57 8.213,16.725 8.521,16.725 L12.913,16.725 L12.913,21.551 C12.913,21.859 13.068,22.011 13.376,21.999 L15.681,21.999 C15.989,21.999 16.138,21.85 16.13,21.551 L16.13,16.725 L20.537,16.725 C20.648,16.725 20.754,16.681 20.85,16.59 C20.95,16.505 21,16.394 21,16.262 z" fill="#727272"/>
    <path d="M18,-0 C19.657,0 21,1.333 21,2.978 L21,6.779 L18,6.779 L18,3 L3,3 L3,19 L6.557,19 L6.557,22 L3,22 C1.343,22 -0,20.667 -0,19.022 L-0,2.978 C-0,1.333 1.343,0 3,0 L18,-0 z" fill="#727272"/>
  </g>
</svg>
