<?xml version="1.0" encoding="UTF-8"?>
<!DOCTYPE svg PUBLIC "-//W3C//DTD SVG 1.1//EN" "http://www.w3.org/Graphics/SVG/1.1/DTD/svg11.dtd">
<svg version="1.1" xmlns="http://www.w3.org/2000/svg" xmlns:xlink="http://www.w3.org/1999/xlink" x="0" y="0" width="100" height="50" viewBox="0, 0, 100, 50">
  <g id="Background">
    <rect x="0" y="0" width="100" height="50" fill="#000000" fill-opacity="0"/>
  </g>
  <g id="Layer_1">
    <path d="M44.768,0.064 C44.636,0.085 44.13,0.111 43.643,0.111 C42.85,0.116 42.719,0.134 42.32,0.272 C42.08,0.355 41.677,0.534 41.425,0.672 L40.968,0.918 L40.738,0.809 C40.611,0.75 40.359,0.69 40.168,0.672 C39.686,0.625 39.174,0.856 38.82,1.275 C38.423,1.755 38.243,2.015 38.171,2.207 C38.14,2.309 38.075,2.386 38.028,2.386 C37.925,2.386 37.925,2.381 38.028,1.95 C38.068,1.765 38.093,1.61 38.068,1.61 C38.013,1.61 37.556,2.298 37.407,2.613 C37.334,2.752 37.231,3.127 37.179,3.449 L37.081,4.036 L36.738,4.029 C36.379,4.029 36.205,4.095 35.086,4.627 C34.791,4.77 34.429,4.92 34.298,4.95 C34.063,5.01 33.695,5.243 33.75,5.29 C33.763,5.309 33.895,5.261 34.038,5.195 C34.491,4.992 34.532,5.027 34.304,5.415 C34.189,5.607 34.015,5.87 33.918,6.002 C33.665,6.332 33.19,6.97 33.029,7.186 C32.88,7.395 32.77,7.825 32.77,8.243 C32.77,8.709 32.861,8.631 32.872,8.152 C32.88,7.734 32.986,7.407 33.137,7.316 C33.234,7.249 33.244,7.293 33.19,7.646 C33.168,7.825 33.124,8.225 33.099,8.537 L33.065,9.098 L33.186,8.955 C33.337,8.774 33.34,8.797 33.197,9.174 C33.047,9.563 32.974,10.166 33.065,10.311 C33.118,10.407 33.132,10.392 33.132,10.213 C33.137,9.938 33.264,9.604 33.366,9.568 C33.509,9.52 33.39,10.124 33.168,10.568 C33.059,10.781 32.95,11.028 32.927,11.111 C32.89,11.254 32.89,11.254 32.981,11.093 C33.034,11.002 33.106,10.932 33.143,10.932 C33.234,10.932 33.168,12.065 33.047,12.509 C32.927,12.938 32.95,13.064 33.099,12.784 L33.215,12.574 L33.257,12.813 C33.354,13.371 33.467,13.789 33.552,13.888 C33.6,13.95 33.661,14.192 33.683,14.449 C33.709,14.702 33.756,15.054 33.792,15.234 C33.829,15.413 33.888,15.979 33.924,16.488 C33.984,17.337 33.979,17.457 33.87,17.904 C33.804,18.179 33.774,18.4 33.804,18.4 C33.829,18.4 33.841,18.462 33.823,18.538 C33.792,18.639 33.847,18.759 33.997,18.974 C34.389,19.507 34.929,20.636 35.054,21.173 C35.314,22.273 35.971,23.431 36.529,23.777 C36.716,23.891 36.738,23.953 36.859,24.455 C37.155,25.732 37.502,26.598 38.129,27.613 C38.682,28.516 38.952,28.868 39.2,29.011 C39.457,29.161 39.559,29.389 39.716,30.155 C39.909,31.104 39.909,31.123 40.029,32.891 C40.216,35.543 40.168,35.951 39.649,36.512 C39.47,36.709 39.229,37.008 39.12,37.18 C39.007,37.348 38.777,37.623 38.605,37.792 C38.436,37.953 38.236,38.185 38.171,38.299 C37.87,38.793 37.706,38.914 36.047,39.883 C34.67,40.689 33.918,41.071 33.059,41.411 C32.324,41.699 30.972,42.333 30.322,42.684 C29.618,43.066 26.924,44.764 26.052,45.377 C25.168,45.993 24.338,46.79 23.882,47.453 C23.388,48.175 22.727,49.58 22.727,49.921 C22.727,49.998 25.829,50.009 50,50.009 C65.871,50.009 77.273,49.985 77.273,49.956 C77.273,49.753 75.487,45.135 75.175,44.519 C74.887,43.957 73.876,42.517 73.167,41.65 C72.78,41.177 72.268,40.814 71.59,40.502 C70.756,40.128 67.182,38.764 66.196,38.448 C65.626,38.262 64.537,37.868 63.772,37.569 C63.014,37.271 62.268,37.014 62.119,36.995 C61.962,36.985 61.811,36.923 61.757,36.865 C61.709,36.805 61.355,36.614 60.975,36.439 C60.595,36.266 60.117,35.998 59.904,35.829 C59.46,35.484 59.189,35.408 58.589,35.466 L58.155,35.502 L57.475,35.071 C56.621,34.52 56.273,34.229 55.75,33.614 C54.187,31.78 53.866,30.973 53.698,28.416 C53.628,27.411 53.645,26.998 53.764,26.825 C53.807,26.759 53.813,26.825 53.789,27.047 C53.753,27.304 53.764,27.364 53.836,27.364 C54.023,27.364 54.07,27.202 54.029,26.755 C54.005,26.516 53.95,26.228 53.902,26.114 C53.807,25.886 53.795,25.655 53.873,25.607 C53.902,25.582 53.946,25.446 53.969,25.284 C54,25.034 54.023,25.002 54.161,24.992 C54.246,24.992 54.359,24.943 54.41,24.888 C54.498,24.8 54.493,24.793 54.373,24.793 C54.283,24.793 54.239,24.759 54.239,24.68 C54.239,24.496 54.366,24.21 54.462,24.173 C54.523,24.148 54.535,24.114 54.498,24.059 C54.355,23.88 54.359,23.773 54.512,23.719 C54.644,23.67 54.655,23.647 54.595,23.553 C54.45,23.325 54.577,23.127 54.987,22.948 C55.575,22.68 55.769,22.327 55.634,21.753 C55.6,21.602 55.593,21.454 55.623,21.429 C55.678,21.371 55.863,22.119 55.863,22.391 C55.863,22.488 55.821,22.698 55.773,22.852 C55.66,23.229 55.707,23.27 55.863,22.937 C56.021,22.595 56.013,22.229 55.852,21.591 L55.719,21.07 L55.984,20.319 C56.127,19.907 56.266,19.537 56.291,19.507 C56.416,19.338 56.584,18.353 56.584,17.773 C56.584,17.431 56.603,17.14 56.634,17.127 C56.657,17.109 56.766,17.189 56.88,17.302 C57.146,17.559 57.193,17.516 56.982,17.218 C56.807,16.966 56.777,16.786 56.917,16.786 C57.055,16.786 57.026,16.704 56.826,16.561 C56.569,16.368 56.603,16.286 56.886,16.429 C57.211,16.595 57.314,16.577 57.096,16.4 L56.917,16.249 L57.084,16.286 C57.296,16.334 57.289,16.28 57.066,16.088 C56.971,16.011 56.886,15.891 56.886,15.831 C56.886,15.766 56.844,15.729 56.784,15.737 C56.718,15.74 56.592,15.574 56.393,15.205 C56.135,14.714 56.104,14.629 56.104,14.254 L56.104,13.841 L56.262,13.984 L56.416,14.127 L56.314,13.888 C56.007,13.184 56.007,13.161 56.193,12.293 C56.338,11.625 56.369,11.368 56.364,10.693 C56.357,9.766 56.284,9.355 55.883,8.07 C55.569,7.072 55.039,5.924 54.647,5.404 C54.223,4.836 53.379,3.989 52.875,3.607 C52.616,3.409 52.122,3.038 51.775,2.77 C51.425,2.5 51.027,2.225 50.884,2.155 C50.482,1.95 49.741,1.693 49.229,1.579 C48.773,1.479 48.75,1.461 48.327,1.047 C47.998,0.719 47.774,0.558 47.377,0.368 C47.096,0.236 46.745,0.093 46.595,0.064 C46.284,-0.009 45.116,-0.009 44.768,0.064 z" fill="#F2F2F2"/>
  </g>
</svg>
