<?xml version="1.0" encoding="UTF-8"?>
<!DOCTYPE svg PUBLIC "-//W3C//DTD SVG 1.1//EN" "http://www.w3.org/Graphics/SVG/1.1/DTD/svg11.dtd">
<svg version="1.1" xmlns="http://www.w3.org/2000/svg" xmlns:xlink="http://www.w3.org/1999/xlink" x="0" y="0" width="22" height="22" viewBox="0, 0, 22, 22">
  <g id="Background">
    <rect x="0" y="0" width="22" height="22" fill="#000000" fill-opacity="0"/>
  </g>
  <g id="Background"/>
  <g id="Layer_2">
    <path d="M11,0 C4.924,0 0,4.926 0,11 C0,17.076 4.925,22 11,22 C17.075,22 22,17.075 22,11 C22,4.925 17.075,0 11,0 z M12.338,12.338 L12.338,17.611 L9.662,17.611 L9.662,12.338 L4.387,12.338 L4.387,9.662 L9.66,9.662 L9.66,4.387 L12.338,4.387 L12.338,9.66 L17.611,9.66 L17.611,12.338 L12.338,12.338 z" fill="#FFFFFF"/>
  </g>
</svg>
