<?xml version="1.0" encoding="UTF-8"?>
<!DOCTYPE svg PUBLIC "-//W3C//DTD SVG 1.1//EN" "http://www.w3.org/Graphics/SVG/1.1/DTD/svg11.dtd">
<svg version="1.1" xmlns="http://www.w3.org/2000/svg" xmlns:xlink="http://www.w3.org/1999/xlink" x="0" y="0" width="22" height="22" viewBox="0, 0, 22, 22">
  <g id="Background">
    <rect x="0" y="0" width="22" height="22" fill="#000000" fill-opacity="0"/>
  </g>
  <g id="Background"/>
  <g id="Layer_1">
    <path d="M16.594,5.927 C16.594,6.287 16.714,6.587 16.956,6.829 C17.196,7.071 17.491,7.191 17.833,7.191 C18.193,7.191 18.495,7.071 18.74,6.829 C18.984,6.587 19.106,6.294 19.106,5.951 C19.106,5.592 18.987,5.29 18.744,5.045 C18.505,4.798 18.207,4.678 17.855,4.678 C17.495,4.678 17.196,4.798 16.956,5.045 C16.714,5.29 16.594,5.585 16.594,5.927 M16.031,15.557 C16.031,15.934 16.163,16.257 16.429,16.533 C16.692,16.809 17.014,16.945 17.397,16.945 C17.771,16.945 18.095,16.813 18.368,16.552 C18.639,16.284 18.776,15.958 18.776,15.557 C18.776,15.181 18.641,14.864 18.378,14.598 C18.114,14.335 17.788,14.203 17.397,14.203 C17.023,14.203 16.7,14.335 16.433,14.598 C16.165,14.864 16.031,15.181 16.031,15.557 M20.897,6.985 C20.797,7.26 20.679,7.5 20.54,7.706 C20.557,7.74 20.588,7.8 20.634,7.895 C20.679,7.991 20.732,8.094 20.789,8.207 C20.845,8.317 20.892,8.418 20.933,8.512 C20.969,8.6 20.988,8.658 20.988,8.672 C20.988,8.718 20.902,8.806 20.732,8.941 C20.559,9.075 20.367,9.214 20.156,9.355 C19.946,9.494 19.749,9.622 19.567,9.734 C19.382,9.845 19.284,9.897 19.267,9.897 C19.238,9.897 19.183,9.864 19.106,9.789 C19.032,9.717 18.948,9.636 18.86,9.542 C18.773,9.454 18.694,9.363 18.625,9.274 C18.555,9.185 18.507,9.125 18.476,9.097 C18.368,9.125 18.26,9.149 18.148,9.166 C18.037,9.18 17.925,9.18 17.81,9.166 L17.649,9.166 C17.62,9.195 17.572,9.26 17.512,9.355 C17.45,9.449 17.385,9.55 17.311,9.653 C17.239,9.756 17.167,9.847 17.098,9.921 C17.03,9.998 16.98,10.039 16.949,10.039 C16.92,10.039 16.803,9.996 16.606,9.912 C16.407,9.828 16.199,9.729 15.98,9.617 C15.762,9.506 15.563,9.396 15.383,9.284 C15.204,9.173 15.113,9.097 15.113,9.051 C15.113,9.037 15.125,8.979 15.146,8.883 C15.17,8.787 15.201,8.684 15.24,8.579 C15.278,8.473 15.312,8.368 15.343,8.265 C15.374,8.162 15.395,8.094 15.412,8.063 C15.237,7.886 15.091,7.661 14.976,7.385 C14.571,7.37 14.283,7.351 14.115,7.327 C13.947,7.303 13.835,7.234 13.782,7.116 C13.729,6.997 13.71,6.798 13.725,6.512 C13.741,6.232 13.725,5.815 13.679,5.263 C13.679,5.215 13.727,5.172 13.823,5.124 C13.919,5.079 14.031,5.043 14.161,5.009 C14.29,4.978 14.42,4.959 14.547,4.942 C14.671,4.925 14.758,4.911 14.803,4.894 C14.88,4.645 14.997,4.398 15.158,4.163 C15.144,4.129 15.113,4.065 15.067,3.962 C15.021,3.858 14.974,3.753 14.923,3.645 C14.875,3.537 14.83,3.441 14.794,3.353 C14.753,3.264 14.736,3.204 14.736,3.175 C14.736,3.127 14.818,3.043 14.981,2.916 C15.146,2.789 15.333,2.655 15.544,2.514 C15.753,2.375 15.952,2.247 16.136,2.142 C16.318,2.034 16.426,1.981 16.455,1.981 C16.486,1.981 16.537,2.015 16.606,2.082 C16.673,2.154 16.752,2.235 16.841,2.331 C16.93,2.425 17.006,2.516 17.076,2.6 C17.143,2.684 17.193,2.741 17.225,2.772 C17.332,2.741 17.443,2.72 17.551,2.703 C17.663,2.686 17.776,2.686 17.891,2.703 L18.052,2.703 C18.066,2.674 18.109,2.609 18.179,2.514 C18.246,2.418 18.318,2.322 18.39,2.221 C18.462,2.12 18.529,2.032 18.591,1.953 C18.651,1.873 18.697,1.83 18.728,1.83 C18.759,1.83 18.874,1.876 19.073,1.965 C19.272,2.051 19.485,2.152 19.711,2.262 C19.936,2.375 20.14,2.48 20.317,2.588 C20.497,2.696 20.588,2.772 20.588,2.818 C20.588,2.849 20.574,2.907 20.54,2.995 C20.511,3.084 20.48,3.182 20.449,3.295 C20.42,3.405 20.387,3.511 20.353,3.609 C20.317,3.71 20.293,3.775 20.279,3.806 C20.432,3.997 20.581,4.228 20.725,4.494 C21.115,4.525 21.398,4.551 21.576,4.575 C21.751,4.597 21.861,4.669 21.907,4.784 C21.952,4.906 21.974,5.103 21.964,5.383 C21.957,5.664 21.969,6.071 22,6.606 C22,6.651 21.952,6.699 21.856,6.75 C21.76,6.798 21.65,6.841 21.53,6.869 C21.405,6.901 21.283,6.925 21.156,6.939 C21.029,6.953 20.943,6.97 20.897,6.985 M20.876,16.224 C20.806,16.514 20.717,16.785 20.61,17.039 C20.626,17.082 20.67,17.156 20.741,17.25 C20.816,17.346 20.888,17.451 20.955,17.561 C21.024,17.669 21.084,17.775 21.139,17.875 C21.192,17.974 21.218,18.046 21.218,18.082 C21.218,18.113 21.147,18.201 21.008,18.353 C20.866,18.501 20.701,18.659 20.514,18.822 C20.327,18.985 20.144,19.141 19.974,19.285 C19.802,19.431 19.691,19.532 19.646,19.585 L19.555,19.633 C19.524,19.633 19.461,19.599 19.365,19.534 C19.269,19.467 19.171,19.393 19.073,19.309 C18.975,19.225 18.876,19.144 18.78,19.062 C18.685,18.981 18.622,18.928 18.591,18.897 C18.308,18.988 18.008,19.062 17.694,19.115 C17.68,19.16 17.644,19.244 17.594,19.362 C17.539,19.479 17.479,19.597 17.414,19.712 C17.349,19.827 17.287,19.932 17.225,20.026 C17.165,20.124 17.11,20.17 17.064,20.17 C17.018,20.17 16.884,20.143 16.664,20.083 C16.441,20.026 16.201,19.956 15.944,19.87 C15.69,19.786 15.46,19.697 15.256,19.602 C15.053,19.506 14.952,19.422 14.952,19.345 C14.952,19.168 14.971,18.985 15.009,18.798 C15.048,18.611 15.084,18.434 15.113,18.264 C14.99,18.173 14.882,18.072 14.787,17.962 C14.691,17.851 14.604,17.734 14.528,17.612 C14.353,17.629 14.178,17.638 14.005,17.648 C13.835,17.655 13.662,17.657 13.497,17.657 L13.329,17.657 C13.279,17.657 13.247,17.614 13.231,17.53 C13.216,17.468 13.185,17.334 13.14,17.123 C13.094,16.912 13.041,16.691 12.984,16.459 C12.926,16.224 12.878,16.013 12.842,15.821 C12.802,15.629 12.785,15.519 12.785,15.488 C12.785,15.442 12.835,15.392 12.938,15.339 C13.041,15.286 13.161,15.231 13.295,15.171 C13.427,15.114 13.557,15.068 13.679,15.03 C13.801,14.992 13.885,14.965 13.931,14.951 C13.962,14.771 13.998,14.625 14.041,14.5 C14.082,14.378 14.142,14.239 14.218,14.076 C14.187,14.047 14.139,13.98 14.07,13.882 C14,13.781 13.931,13.675 13.856,13.568 C13.784,13.457 13.72,13.349 13.667,13.246 C13.614,13.143 13.588,13.074 13.588,13.045 C13.588,13.014 13.657,12.923 13.799,12.772 C13.94,12.625 14.106,12.47 14.293,12.304 C14.48,12.141 14.659,11.985 14.832,11.846 C15.005,11.702 15.113,11.609 15.158,11.566 L15.252,11.518 C15.283,11.518 15.345,11.551 15.441,11.616 C15.537,11.678 15.633,11.755 15.733,11.839 C15.832,11.923 15.93,12.004 16.026,12.084 C16.122,12.167 16.184,12.22 16.215,12.254 C16.484,12.16 16.774,12.088 17.088,12.033 C17.102,11.988 17.138,11.906 17.191,11.786 C17.244,11.669 17.306,11.551 17.38,11.439 C17.452,11.321 17.519,11.218 17.582,11.12 C17.642,11.026 17.694,10.978 17.742,10.978 C17.771,10.978 17.901,11.005 18.133,11.06 C18.361,11.11 18.603,11.182 18.86,11.271 C19.116,11.36 19.349,11.448 19.555,11.542 C19.761,11.633 19.864,11.719 19.864,11.803 C19.864,11.98 19.842,12.16 19.802,12.345 C19.759,12.527 19.723,12.707 19.691,12.882 C19.814,12.973 19.924,13.076 20.02,13.186 C20.116,13.297 20.202,13.414 20.279,13.536 C20.468,13.522 20.658,13.51 20.845,13.503 C21.034,13.493 21.216,13.491 21.391,13.491 C21.451,13.491 21.521,13.591 21.597,13.795 C21.674,13.999 21.741,14.229 21.799,14.49 C21.856,14.749 21.904,14.996 21.942,15.231 C21.981,15.464 22,15.615 22,15.682 C22,15.73 21.947,15.778 21.844,15.833 C21.741,15.886 21.628,15.936 21.506,15.979 C21.384,16.027 21.259,16.075 21.132,16.125 C21.008,16.173 20.921,16.207 20.876,16.224 M6.907,11.633 C7.192,11.633 7.458,11.578 7.71,11.472 C7.964,11.364 8.184,11.218 8.371,11.031 C8.558,10.844 8.705,10.624 8.812,10.372 C8.92,10.118 8.973,9.852 8.973,9.566 C8.973,9.284 8.92,9.013 8.812,8.759 C8.705,8.502 8.558,8.277 8.371,8.09 C8.184,7.903 7.964,7.756 7.71,7.644 C7.458,7.534 7.192,7.476 6.907,7.476 C6.326,7.476 5.833,7.68 5.427,8.085 C5.022,8.49 4.819,8.984 4.819,9.566 C4.819,9.852 4.874,10.118 4.986,10.372 C5.097,10.624 5.245,10.844 5.432,11.031 C5.619,11.218 5.842,11.364 6.099,11.472 C6.355,11.578 6.624,11.633 6.907,11.633 M11.442,7.054 C11.617,7.351 11.766,7.704 11.888,8.109 C11.965,8.123 12.106,8.142 12.313,8.166 C12.519,8.188 12.732,8.222 12.95,8.265 C13.168,8.305 13.363,8.351 13.535,8.394 C13.708,8.442 13.794,8.495 13.794,8.557 L13.794,10.6 C13.794,10.674 13.708,10.741 13.535,10.787 C13.363,10.839 13.168,10.88 12.95,10.921 C12.732,10.959 12.516,10.986 12.301,11 C12.087,11.017 11.948,11.031 11.888,11.048 C11.78,11.376 11.641,11.712 11.464,12.057 C11.641,12.295 11.809,12.525 11.975,12.752 C12.14,12.975 12.325,13.201 12.531,13.424 L12.555,13.536 C12.555,13.582 12.476,13.697 12.32,13.882 C12.161,14.066 11.979,14.258 11.773,14.462 C11.567,14.665 11.373,14.843 11.195,15.001 C11.013,15.157 10.901,15.236 10.855,15.236 C10.841,15.236 10.761,15.183 10.62,15.08 C10.479,14.977 10.323,14.86 10.15,14.725 C9.978,14.591 9.817,14.469 9.668,14.351 C9.517,14.239 9.421,14.162 9.376,14.121 C9.031,14.299 8.695,14.44 8.364,14.548 C8.364,14.625 8.352,14.766 8.331,14.97 C8.307,15.178 8.278,15.394 8.24,15.62 C8.201,15.847 8.153,16.046 8.096,16.217 C8.038,16.389 7.978,16.475 7.918,16.475 L5.876,16.475 C5.813,16.475 5.756,16.389 5.698,16.217 C5.641,16.046 5.595,15.847 5.564,15.62 C5.535,15.394 5.507,15.178 5.485,14.977 C5.461,14.773 5.451,14.632 5.451,14.548 C5.106,14.457 4.768,14.313 4.44,14.121 C4.202,14.299 3.968,14.476 3.735,14.656 C3.502,14.838 3.272,15.02 3.052,15.212 L2.937,15.236 C2.908,15.236 2.802,15.157 2.62,15.001 C2.44,14.843 2.253,14.665 2.059,14.462 C1.863,14.258 1.688,14.066 1.532,13.882 C1.374,13.697 1.297,13.582 1.297,13.536 C1.297,13.522 1.345,13.443 1.446,13.301 C1.544,13.162 1.659,13.007 1.784,12.844 C1.911,12.678 2.028,12.52 2.138,12.371 C2.251,12.223 2.321,12.127 2.352,12.079 C2.174,11.753 2.026,11.391 1.903,11 C1.827,10.986 1.685,10.966 1.479,10.942 C1.273,10.921 1.062,10.895 0.841,10.863 C0.623,10.832 0.429,10.791 0.257,10.743 C0.084,10.693 -0,10.638 -0,10.576 L-0,8.512 C-0,8.452 0.084,8.389 0.257,8.334 C0.429,8.274 0.628,8.231 0.853,8.2 C1.079,8.171 1.297,8.142 1.503,8.121 C1.709,8.097 1.851,8.085 1.927,8.085 C2.019,7.711 2.16,7.375 2.352,7.076 C2.174,6.841 2.002,6.603 1.829,6.371 C1.659,6.138 1.479,5.908 1.297,5.688 L1.251,5.573 C1.251,5.527 1.328,5.414 1.484,5.234 C1.642,5.055 1.822,4.865 2.023,4.662 C2.227,4.458 2.419,4.278 2.599,4.12 C2.778,3.966 2.891,3.885 2.937,3.885 C2.953,3.885 3.03,3.935 3.172,4.036 C3.313,4.134 3.471,4.252 3.644,4.383 C3.814,4.518 3.98,4.65 4.135,4.777 C4.294,4.901 4.387,4.978 4.416,5.009 C4.747,4.817 5.092,4.678 5.451,4.585 C5.451,4.525 5.461,4.381 5.485,4.163 C5.507,3.94 5.535,3.719 5.564,3.501 C5.595,3.281 5.636,3.084 5.686,2.904 C5.734,2.725 5.799,2.636 5.876,2.636 L7.918,2.636 C7.978,2.636 8.038,2.725 8.096,2.904 C8.153,3.084 8.196,3.281 8.228,3.501 C8.259,3.719 8.285,3.94 8.307,4.163 C8.331,4.381 8.35,4.525 8.364,4.585 C8.709,4.678 9.038,4.813 9.352,4.985 C9.589,4.813 9.829,4.638 10.069,4.467 C10.311,4.292 10.543,4.115 10.764,3.933 L10.855,3.885 C10.886,3.885 10.992,3.969 11.171,4.132 C11.351,4.297 11.541,4.477 11.74,4.674 C11.939,4.868 12.121,5.055 12.284,5.234 C12.449,5.414 12.531,5.527 12.531,5.573 C12.531,5.604 12.48,5.688 12.377,5.831 C12.272,5.973 12.157,6.124 12.032,6.289 C11.905,6.455 11.783,6.611 11.665,6.762 C11.545,6.91 11.471,7.006 11.442,7.054" fill="#FFFFFF"/>
  </g>
</svg>
