<?xml version="1.0" encoding="UTF-8"?>
<!DOCTYPE svg PUBLIC "-//W3C//DTD SVG 1.1//EN" "http://www.w3.org/Graphics/SVG/1.1/DTD/svg11.dtd">
<svg version="1.1" xmlns="http://www.w3.org/2000/svg" xmlns:xlink="http://www.w3.org/1999/xlink" x="0" y="0" width="16" height="16" viewBox="0, 0, 16, 16">
  <g id="Background">
    <rect x="0" y="0" width="16" height="16" fill="#000000" fill-opacity="0"/>
  </g>
  <g id="Layer_1" display="none">
    <path d="M6.275,0 C6.622,0 7.008,0.085 7.428,0.254 C7.85,0.42 8.169,0.627 8.387,0.88 L15.243,8.512 C15.467,8.777 15.584,9.075 15.591,9.408 C15.597,9.742 15.482,10.028 15.243,10.267 L9.876,15.631 C9.638,15.872 9.346,15.993 8.998,16 C8.651,16.006 8.359,15.885 8.122,15.631 L6.218,13.5 L6.835,13.5 C7.356,14.212 8.172,14.416 9,14.5 C10.657,14.5 12,13.157 12,11.5 C12,9.843 10.657,8.5 9,8.5 C8.077,8.491 7.458,8.877 6.835,9.5 L5.165,9.5 C4.644,8.788 3.828,8.583 3,8.5 C2.24,8.577 2.582,8.482 1.965,8.742 L1.285,7.982 C1.049,7.728 0.842,7.402 0.669,7.001 C0.494,6.601 0.409,6.221 0.409,5.868 L0.409,1.236 C0.409,0.904 0.529,0.614 0.765,0.369 C1.002,0.124 1.296,0 1.643,0 L6.275,0 z M3.602,2.012 C3.269,2.012 2.988,2.125 2.758,2.353 C2.532,2.581 2.417,2.862 2.417,3.195 C2.417,3.529 2.532,3.811 2.758,4.043 C2.988,4.273 3.269,4.388 3.602,4.388 C3.934,4.388 4.218,4.273 4.448,4.043 C4.68,3.811 4.795,3.529 4.795,3.195 C4.795,2.862 4.68,2.581 4.448,2.353 C4.218,2.125 3.934,2.012 3.602,2.012 L3.602,2.012 z" fill="#6C89A6"/>
    <path d="M9,9.5 C10.105,9.5 11,10.395 11,11.5 C11,12.605 10.105,13.5 9,13.5 C8.303,13.493 7.608,13.123 7.269,12.5 L4.731,12.5 C4.389,13.13 3.7,13.482 3,13.5 C1.895,13.5 1,12.605 1,11.5 C1,10.395 1.895,9.5 3,9.5 C3.697,9.507 4.392,9.877 4.731,10.5 L7.269,10.5 C7.611,9.87 8.3,9.518 9,9.5 z" fill="#6C89A6"/>
  </g>
  <g id="Layer_2" display="none">
    <path d="M6.275,-0 C6.622,-0 7.008,0.085 7.428,0.254 C7.85,0.42 8.169,0.627 8.387,0.88 L15.243,8.512 C15.467,8.777 15.584,9.075 15.591,9.408 C15.597,9.742 15.482,10.028 15.243,10.267 L10.943,14.565 L11,14 C11,12.343 9.657,11 8,11 L7.603,11.062 C8.261,10.57 8.423,9.767 8.5,9 C8.5,7.343 7.157,6 5.5,6 C3.843,6 2.5,7.343 2.5,9 L2.539,9.384 L1.285,7.981 C1.049,7.728 0.842,7.402 0.669,7.001 C0.494,6.601 0.409,6.221 0.409,5.868 L0.409,1.236 C0.409,0.904 0.529,0.614 0.765,0.369 C1.002,0.124 1.296,-0 1.643,-0 L6.275,-0 z M3.602,2.012 C3.269,2.012 2.988,2.125 2.758,2.353 C2.532,2.581 2.417,2.862 2.417,3.195 C2.417,3.529 2.532,3.811 2.758,4.043 C2.988,4.273 3.269,4.388 3.602,4.388 C3.934,4.388 4.218,4.273 4.448,4.043 C4.68,3.811 4.795,3.529 4.795,3.195 C4.795,2.862 4.68,2.581 4.448,2.353 C4.218,2.125 3.934,2.012 3.602,2.012 L3.602,2.012 z" fill="#6C89A6"/>
    <path d="M3,16 C1.895,16 1,15.105 1,14 C1,12.895 1.895,12 3,12 C4.105,12 5,12.895 5,14 C5,15.105 4.105,16 3,16 z" fill="#6C89A6"/>
    <path d="M8,16 C6.895,16 6,15.105 6,14 C6,12.895 6.895,12 8,12 C9.105,12 10,12.895 10,14 C10,15.105 9.105,16 8,16 z" fill="#6C89A6"/>
    <path d="M5.5,11 C4.395,11 3.5,10.105 3.5,9 C3.5,7.895 4.395,7 5.5,7 C6.605,7 7.5,7.895 7.5,9 C7.5,10.105 6.605,11 5.5,11 z" fill="#6C89A6"/>
  </g>
  <g id="Layer_3" display="none">
    <path d="M6.806,12.023 L8.648,13.865 L8.634,14 C8.64,14.715 8.881,15.412 9.39,15.921 L8.998,16 C8.651,16.006 8.359,15.885 8.122,15.631 L5.798,13.03 L6.806,12.023 z" fill="#6C89A6"/>
    <path d="M6.275,0 C6.622,0 7.008,0.085 7.428,0.254 C7.85,0.42 8.169,0.627 8.387,0.88 L15.243,8.512 C15.467,8.777 15.584,9.075 15.591,9.408 C15.597,9.742 15.482,10.028 15.243,10.267 L13.654,11.855 C13.172,11.219 12.376,11.075 11.634,11 L11.457,11.018 L9.761,9.321 L9.817,9 C9.817,7.343 8.474,6 6.817,6 C5.16,6 3.817,7.343 3.817,9 L3.817,9 L3.8,9.017 L3.821,9.038 L3.849,9.322 L3.128,10.043 L1.285,7.982 C1.049,7.728 0.842,7.402 0.669,7.001 C0.494,6.601 0.409,6.221 0.409,5.868 L0.409,1.236 C0.409,0.904 0.529,0.614 0.765,0.369 C1.002,0.124 1.296,0 1.643,0 L6.275,0 z M3.602,2.012 C3.269,2.012 2.988,2.125 2.758,2.353 C2.532,2.581 2.417,2.862 2.417,3.195 C2.417,3.529 2.532,3.811 2.758,4.043 C2.988,4.273 3.269,4.388 3.602,4.388 C3.934,4.388 4.218,4.273 4.448,4.043 C4.68,3.811 4.795,3.529 4.795,3.195 C4.795,2.862 4.68,2.581 4.448,2.353 C4.218,2.125 3.934,2.012 3.602,2.012 L3.602,2.012 z" fill="#6C89A6"/>
    <path d="M6.922,7.001 C7.48,7.033 7.958,7.255 8.361,7.639 C8.888,8.193 9.148,8.997 8.925,9.747 L10.886,11.708 C11.628,11.488 12.451,11.739 12.994,12.272 C13.847,13.125 13.847,14.507 12.994,15.36 C12.141,16.213 10.759,16.213 9.906,15.36 C9.379,14.806 9.119,14.002 9.342,13.252 L7.381,11.291 C7.013,11.4 6.62,11.393 6.252,11.29 L6.253,11.291 L4.292,13.252 C4.515,14.002 4.255,14.806 3.728,15.36 C2.875,16.213 1.493,16.213 0.64,15.36 C-0.213,14.507 -0.213,13.125 0.64,12.272 C1.183,11.739 2.006,11.488 2.748,11.708 L4.709,9.747 C4.55,9.191 4.642,8.569 4.935,8.073 C5.03,7.913 5.145,7.773 5.273,7.639 C5.657,7.258 6.171,7.027 6.712,7.001 C6.782,6.998 6.852,7.001 6.922,7.001 z" fill="#6C89A6"/>
  </g>
  <g id="Layer_4" display="none">
    <path d="M6.275,0 C6.622,0 7.008,0.085 7.428,0.254 C7.85,0.42 8.169,0.627 8.387,0.88 L15.243,8.512 C15.467,8.777 15.584,9.075 15.591,9.408 C15.597,9.742 15.482,10.028 15.243,10.267 L9.876,15.631 C9.638,15.872 9.346,15.993 8.998,16 C8.651,16.006 8.359,15.885 8.122,15.631 L6.75,14.095 L6.8,13.6 L6.773,13.337 L8.228,11.882 L8.491,11.909 C10.369,11.909 11.891,10.387 11.891,8.509 C11.891,6.631 10.369,5.109 8.491,5.109 C6.613,5.109 5.091,6.631 5.091,8.509 L5.118,8.771 L3.662,10.226 L3.4,10.2 L3.279,10.212 L1.285,7.982 C1.049,7.728 0.842,7.402 0.669,7.001 C0.494,6.601 0.409,6.221 0.409,5.868 L0.409,1.236 C0.409,0.904 0.529,0.614 0.765,0.369 C1.002,0.124 1.296,0 1.643,0 L6.275,0 z M3.602,2.012 C3.269,2.012 2.988,2.125 2.758,2.353 C2.532,2.581 2.417,2.862 2.417,3.195 C2.417,3.529 2.532,3.811 2.758,4.043 C2.988,4.273 3.269,4.388 3.602,4.388 C3.934,4.388 4.218,4.273 4.448,4.043 C4.68,3.811 4.795,3.529 4.795,3.195 C4.795,2.862 4.68,2.581 4.448,2.353 C4.218,2.125 3.934,2.012 3.602,2.012 L3.602,2.012 z" fill="#6C89A6"/>
    <path d="M6.794,6.812 C7.731,5.875 9.251,5.875 10.188,6.812 C11.125,7.749 11.125,9.269 10.188,10.206 C9.591,10.792 8.687,11.067 7.871,10.826 L5.717,12.98 C5.961,13.805 5.676,14.688 5.097,15.297 C4.16,16.234 2.64,16.234 1.703,15.297 C0.766,14.36 0.766,12.84 1.703,11.903 C2.3,11.317 3.205,11.042 4.02,11.283 L6.174,9.129 C5.93,8.304 6.215,7.421 6.794,6.812 z" fill="#6C89A6"/>
  </g>
  <g id="Layer_5">
    <g>
      <path d="M6.275,0 C6.622,0 7.008,0.085 7.428,0.254 C7.85,0.42 8.169,0.627 8.387,0.88 L15.243,8.512 C15.467,8.777 15.584,9.075 15.591,9.408 C15.597,9.742 15.482,10.028 15.243,10.267 L9.876,15.631 C9.638,15.872 9.346,15.993 8.998,16 C8.651,16.006 8.359,15.885 8.122,15.631 L6.91,14.275 C6.978,14.022 6.993,13.76 7,13.5 C6.994,13.275 6.998,13.236 6.96,12.967 C6.949,12.89 6.929,12.815 6.913,12.739 L8.042,11.61 C8.29,11.676 8.548,11.69 8.803,11.697 C10.736,11.697 12.303,10.13 12.303,8.197 C12.303,6.264 10.736,4.697 8.803,4.697 C6.87,4.697 5.303,6.264 5.303,8.197 C5.309,8.422 5.305,8.46 5.344,8.73 C5.355,8.807 5.375,8.882 5.39,8.958 L4.261,10.087 C4.013,10.021 3.756,10.006 3.5,10 C3.25,10.006 3.38,9.998 3.112,10.026 L1.285,7.982 C1.049,7.728 0.842,7.402 0.669,7.001 C0.494,6.601 0.409,6.221 0.409,5.868 L0.409,1.236 C0.409,0.904 0.529,0.614 0.765,0.369 C1.002,0.124 1.296,0 1.643,0 L6.275,0 z M3.602,2.012 C3.269,2.012 2.988,2.125 2.758,2.353 C2.532,2.581 2.417,2.862 2.417,3.195 C2.417,3.529 2.532,3.811 2.758,4.043 C2.988,4.273 3.269,4.388 3.602,4.388 C3.934,4.388 4.218,4.273 4.448,4.043 C4.68,3.811 4.795,3.529 4.795,3.195 C4.795,2.862 4.68,2.581 4.448,2.353 C4.218,2.125 3.934,2.012 3.602,2.012 L3.602,2.012 z" fill="#6C89A6"/>
      <path d="M7.036,6.429 C8.012,5.453 9.595,5.453 10.571,6.429 C11.547,7.405 11.547,8.988 10.571,9.964 C9.894,10.634 8.878,10.872 7.976,10.557 C7.77,10.484 7.726,10.452 7.533,10.351 L5.654,12.23 C6.221,13.253 6.074,14.419 5.268,15.268 C4.291,16.244 2.709,16.244 1.732,15.268 C0.756,14.291 0.756,12.709 1.732,11.732 C2.409,11.062 3.425,10.824 4.327,11.14 C4.533,11.212 4.577,11.245 4.77,11.346 L6.649,9.467 C6.082,8.444 6.229,7.277 7.036,6.429 z" fill="#6C89A6"/>
    </g>
  </g>
</svg>
