<?xml version="1.0" encoding="UTF-8"?>
<!DOCTYPE svg PUBLIC "-//W3C//DTD SVG 1.1//EN" "http://www.w3.org/Graphics/SVG/1.1/DTD/svg11.dtd">
<svg version="1.1" xmlns="http://www.w3.org/2000/svg" xmlns:xlink="http://www.w3.org/1999/xlink" x="0" y="0" width="24" height="32" viewBox="0, 0, 24, 32">
  <g id="Background">
    <rect x="0" y="0" width="24" height="32" fill="#000000" fill-opacity="0"/>
  </g>
  <g id="Layer_1" display="none">
    <path d="M13.08,21.8 L10.92,21.8 L10.92,19.4 L0.6,19.4 C0.6,19.4 0.75,23.157 0.84,24.987 C0.877,25.745 1.101,27 2.999,27 L21.001,27 C22.899,27 23.118,25.745 23.16,24.987 C23.265,23.105 23.4,19.4 23.4,19.4 L13.08,19.4 z M9.18,7.299 C9.455,6.781 9.549,6.68 10.16,6.68 L13.84,6.68 C14.451,6.68 14.545,6.781 14.82,7.299 C14.923,7.493 15.202,8.019 15.51,8.6 L8.49,8.6 C8.798,8.019 9.077,7.493 9.18,7.299 M10.92,15.8 L13.08,15.8 L13.08,18.2 L24,18.2 C24,18.2 23.822,12.851 23.76,11.176 C23.701,9.585 23.131,8.6 21.36,8.6 L17.511,8.6 C16.914,7.476 16.272,6.266 16.074,5.895 C15.677,5.146 15.542,5 14.659,5 L9.341,5 C8.458,5 8.323,5.146 7.926,5.895 C7.728,6.266 7.086,7.476 6.49,8.6 L2.64,8.6 C0.869,8.6 0.306,9.585 0.24,11.176 C0.174,12.767 -0,18.2 -0,18.2 L10.92,18.2 z" fill="#7F7F7F"/>
  </g>
  <g id="Background">
    <path d="M16,5 L16,9.304 L24,11.875 L24,27 L0,27 L0,9.5 L16,5 z M16,10.354 L16,26 L23,26 L23,12.604 L16,10.354 z M19,20 L19,22 L17,22 L17,20 L19,20 z M22,20 L22,22 L20,22 L20,20 L22,20 z M19,17 L19,19 L17,19 L17,17 L19,17 z M22,17 L22,19 L20,19 L20,17 L22,17 z M19,14 L19,16 L17,16 L17,14 L19,14 z M22,14 L22,16 L20,16 L20,14 L22,14 z M10,21 L8,21 L8,23 L10,23 L10,21 z M13,21 L11,21 L11,23 L13,23 L13,21 z M7,21 L5,21 L5,23 L7,23 L7,21 z M10,18 L8,18 L8,20 L10,20 L10,18 z M13,18 L11,18 L11,20 L13,20 L13,18 z M7,18 L5,18 L5,20 L7,20 L7,18 z M10,15 L8,15 L8,17 L10,17 L10,15 z M13,15 L11,15 L11,17 L13,17 L13,15 z M7,15 L5,15 L5,17 L7,17 L7,15 z M10,12 L8,12 L8,14 L10,14 L10,12 z M13,12 L11,12 L11,14 L13,14 L13,12 z M7,12 L5,12 L5,14 L7,14 L7,12 z" fill="#7F7F7F"/>
  </g>
</svg>
