<?xml version="1.0" encoding="UTF-8"?>
<!DOCTYPE svg PUBLIC "-//W3C//DTD SVG 1.1//EN" "http://www.w3.org/Graphics/SVG/1.1/DTD/svg11.dtd">
<svg version="1.1" xmlns="http://www.w3.org/2000/svg" xmlns:xlink="http://www.w3.org/1999/xlink" x="0" y="0" width="24" height="32" viewBox="0, 0, 24, 32">
  <g id="Layer_1">
    <path d="M14.61,22.745 L8.802,22.745 L8.802,21.246 L14.61,21.246 z M7.385,22.745 L3.387,22.745 L3.387,21.246 L7.385,21.246 z M22.006,16.507 L2.005,16.507 L2.005,23.993 L22.006,23.993 z M22.006,8.004 L2.005,8.004 L2.005,11.491 L22.006,11.491 z M22.006,5.999 C22.556,5.999 23.023,6.195 23.415,6.584 C23.804,6.976 24,7.449 24,8.004 L24,23.993 C24,24.54 23.804,25.013 23.415,25.405 C23.023,25.802 22.556,26.001 22.006,26.001 L2.005,26.001 C1.458,26.001 0.987,25.805 0.593,25.413 C0.196,25.024 0,24.551 0,23.993 L0,8.004 C0,7.457 0.196,6.987 0.585,6.59 C0.977,6.195 1.45,5.999 2.005,5.999 z" fill="#7F7F7F"/>
  </g>
</svg>
