<?xml version="1.0" encoding="UTF-8"?>
<!DOCTYPE svg PUBLIC "-//W3C//DTD SVG 1.1//EN" "http://www.w3.org/Graphics/SVG/1.1/DTD/svg11.dtd">
<svg version="1.1" xmlns="http://www.w3.org/2000/svg" xmlns:xlink="http://www.w3.org/1999/xlink" x="0" y="0" width="22" height="22" viewBox="0, 0, 22, 22">
  <g id="Background">
    <rect x="0" y="0" width="22" height="22" fill="#000000" fill-opacity="0"/>
  </g>
  <g id="Layer_1">
    <path d="M21.997,12.678 L21.997,11.27 L17.845,11.27 C17.718,9.67 17.161,8.21 16.305,7.038 L19.783,7.038 L21.289,0.87 L19.955,0.528 L18.711,5.629 L14.959,5.629 C14.939,5.613 14.92,5.599 14.901,5.583 C15.045,5.154 15.124,4.693 15.124,4.214 C15.124,1.886 13.277,0 10.999,0 C8.72,0 6.874,1.887 6.874,4.214 C6.874,4.693 6.952,5.154 7.096,5.583 C7.077,5.599 7.058,5.613 7.039,5.629 L3.286,5.629 L2.042,0.528 L0.708,0.87 L2.214,7.038 L5.693,7.038 C4.836,8.21 4.279,9.67 4.153,11.27 L0,11.27 L0,12.678 L4.154,12.678 C4.235,13.683 4.487,14.633 4.877,15.49 L2.214,15.49 L0.708,21.658 L2.042,22 L3.286,16.9 L5.701,16.9 C6.962,18.617 8.867,19.711 11,19.711 C13.133,19.711 15.038,18.617 16.299,16.9 L18.714,16.9 L19.958,22 L21.292,21.658 L19.786,15.49 L17.123,15.49 C17.512,14.633 17.764,13.683 17.846,12.678 L22,12.678 z" fill="#FFFFFF"/>
  </g>
</svg>
