<?xml version="1.0" encoding="UTF-8"?>
<!DOCTYPE svg PUBLIC "-//W3C//DTD SVG 1.1//EN" "http://www.w3.org/Graphics/SVG/1.1/DTD/svg11.dtd">
<svg version="1.1" xmlns="http://www.w3.org/2000/svg" xmlns:xlink="http://www.w3.org/1999/xlink" x="0" y="0" width="24" height="32" viewBox="0, 0, 24, 32">
  <g id="Background">
    <rect x="0" y="0" width="24" height="32" fill="#000000" fill-opacity="0"/>
  </g>
  <g id="Layer_1">
    <path d="M14.059,5.706 C16.333,3.431 20.02,3.431 22.294,5.706 C24.569,7.98 24.569,11.667 22.294,13.941 C20.717,15.502 18.35,16.056 16.25,15.32 C15.77,15.152 15.668,15.077 15.218,14.841 L10.841,19.218 C12.162,21.602 11.82,24.318 9.941,26.294 C7.667,28.569 3.98,28.569 1.706,26.294 C-0.569,24.02 -0.569,20.333 1.706,18.059 C3.283,16.498 5.65,15.944 7.75,16.68 C8.23,16.848 8.332,16.923 8.782,17.159 L13.159,12.782 C11.838,10.398 12.18,7.682 14.059,5.706 z" fill="#7F7F7F"/>
  </g>
</svg>
