<?xml version="1.0" encoding="UTF-8"?>
<!DOCTYPE svg PUBLIC "-//W3C//DTD SVG 1.1//EN" "http://www.w3.org/Graphics/SVG/1.1/DTD/svg11.dtd">
<svg version="1.1" xmlns="http://www.w3.org/2000/svg" xmlns:xlink="http://www.w3.org/1999/xlink" x="0" y="0" width="22" height="22" viewBox="0, 0, 22, 22">
  <g id="Background">
    <rect x="0" y="0" width="22" height="22" fill="#000000" fill-opacity="0"/>
  </g>
  <g id="Layer_1">
    <g>
      <path d="M11,0 C4.925,0 0,1.539 0,3.438 L0,6.188 C0,8.086 4.925,9.625 11,9.625 C17.075,9.625 22,8.086 22,6.188 L22,3.438 C22,1.539 17.075,0 11,0 z" fill="#FFFFFF"/>
      <path d="M11,11.688 C4.925,11.688 0,10.148 0,8.25 L0,12.375 C0,14.273 4.925,15.812 11,15.812 C17.075,15.812 22,14.273 22,12.375 L22,8.25 C22,10.148 17.075,11.688 11,11.688 z" fill="#FFFFFF"/>
      <path d="M11,17.875 C4.925,17.875 0,16.336 0,14.438 L0,18.562 C0,20.461 4.925,22 11,22 C17.075,22 22,20.461 22,18.562 L22,14.438 C22,16.336 17.075,17.875 11,17.875 z" fill="#FFFFFF"/>
    </g>
  </g>
</svg>
