<?xml version="1.0" encoding="UTF-8"?>
<!DOCTYPE svg PUBLIC "-//W3C//DTD SVG 1.1//EN" "http://www.w3.org/Graphics/SVG/1.1/DTD/svg11.dtd">
<svg version="1.1" xmlns="http://www.w3.org/2000/svg" xmlns:xlink="http://www.w3.org/1999/xlink" x="0" y="0" width="30" height="22" viewBox="0, 0, 30, 22">
  <g id="Background">
    <rect x="0" y="0" width="30" height="22" fill="#000000" fill-opacity="0"/>
  </g>
  <g id="Layer_1">
    <g>
      <path d="M27.502,13.812 C27.729,13.812 27.923,13.893 28.084,14.052 C28.246,14.213 28.326,14.407 28.326,14.635 L28.326,15.898 C28.326,16.127 28.246,16.319 28.084,16.481 C27.923,16.642 27.729,16.722 27.502,16.722 L23.048,16.722 L23.048,21.159 C23.048,21.399 22.967,21.599 22.808,21.758 C22.647,21.919 22.451,22 22.224,22 L20.962,22 C20.735,22 20.539,21.919 20.377,21.758 C20.216,21.599 20.137,21.405 20.137,21.176 L20.137,16.722 L15.701,16.722 C15.462,16.722 15.26,16.645 15.101,16.49 C14.94,16.336 14.859,16.138 14.859,15.898 L14.859,14.635 C14.859,14.407 14.94,14.213 15.101,14.052 C15.26,13.893 15.454,13.812 15.683,13.812 L20.137,13.812 L20.137,9.375 C20.137,9.135 20.214,8.936 20.368,8.774 C20.524,8.615 20.722,8.533 20.962,8.533 L22.224,8.533 C22.451,8.533 22.647,8.615 22.808,8.774 C22.967,8.936 23.048,9.13 23.048,9.357 L23.048,13.812 z" fill="#FFFFFF"/>
      <path d="M12.014,0.004 L12.176,0.022 C12.242,0.035 12.396,0.098 12.52,0.156 C12.695,0.24 12.793,0.311 12.938,0.455 C13.123,0.637 13.134,0.645 13.335,0.689 C13.56,0.739 13.885,0.852 14.063,0.942 C14.126,0.973 14.301,1.094 14.454,1.213 C14.608,1.331 14.825,1.494 14.939,1.581 C15.161,1.749 15.531,2.122 15.719,2.372 C15.891,2.601 16.124,3.106 16.262,3.545 C16.439,4.11 16.471,4.292 16.473,4.699 C16.476,4.996 16.463,5.109 16.399,5.404 C16.317,5.785 16.317,5.796 16.452,6.106 L16.497,6.211 L16.359,6.085 L16.359,6.266 C16.36,6.432 16.373,6.469 16.486,6.684 C16.574,6.847 16.629,6.921 16.658,6.918 C16.685,6.916 16.704,6.931 16.703,6.96 C16.704,6.987 16.741,7.039 16.783,7.073 C16.881,7.158 16.883,7.181 16.791,7.16 L16.717,7.144 L16.796,7.21 C16.891,7.289 16.846,7.297 16.703,7.223 C16.579,7.16 16.563,7.197 16.677,7.281 C16.764,7.344 16.778,7.381 16.717,7.381 C16.656,7.381 16.669,7.46 16.746,7.57 C16.838,7.702 16.817,7.72 16.701,7.607 C16.651,7.557 16.603,7.523 16.592,7.531 C16.579,7.536 16.571,7.665 16.571,7.815 C16.571,8.07 16.497,8.504 16.442,8.577 C16.431,8.591 16.37,8.754 16.307,8.935 L16.19,9.266 L16.248,9.495 C16.32,9.776 16.322,9.937 16.254,10.087 C16.185,10.234 16.164,10.215 16.214,10.05 C16.235,9.981 16.254,9.889 16.254,9.847 C16.254,9.726 16.172,9.398 16.148,9.424 C16.135,9.435 16.137,9.5 16.153,9.566 C16.211,9.818 16.127,9.974 15.867,10.092 C15.687,10.171 15.632,10.258 15.695,10.357 C15.722,10.399 15.717,10.41 15.658,10.431 C15.592,10.455 15.59,10.502 15.653,10.581 C15.669,10.605 15.664,10.62 15.637,10.631 C15.595,10.647 15.539,10.773 15.539,10.854 C15.539,10.889 15.558,10.904 15.597,10.904 C15.65,10.904 15.653,10.907 15.613,10.946 C15.592,10.97 15.542,10.991 15.505,10.991 C15.444,10.996 15.433,11.009 15.42,11.12 C15.41,11.191 15.391,11.251 15.378,11.262 C15.343,11.283 15.349,11.385 15.391,11.485 C15.412,11.535 15.436,11.662 15.447,11.767 C15.465,11.964 15.444,12.035 15.362,12.035 C15.33,12.035 15.325,12.009 15.341,11.895 C15.351,11.798 15.349,11.769 15.33,11.798 C15.26,12.121 15.281,11.938 15.296,12.349 C14.771,12.369 14.407,12.688 14.039,12.991 C13.597,13.434 13.358,14.009 13.358,14.634 L13.358,15.898 C13.358,16.54 13.599,17.132 14.064,17.575 C14.498,17.999 15.077,18.222 15.7,18.222 L18.636,18.222 L18.636,21.176 C18.692,21.766 18.621,21.494 18.829,21.997 C15.354,22 17.073,21.999 13.674,22 C3.039,22 1.674,21.995 1.674,21.961 C1.674,21.811 1.965,21.193 2.182,20.875 C2.383,20.583 2.748,20.233 3.137,19.962 C3.521,19.691 4.706,18.945 5.016,18.776 C5.302,18.621 5.897,18.343 6.22,18.216 C6.598,18.067 6.929,17.898 7.535,17.543 C8.265,17.117 8.337,17.065 8.469,16.847 C8.498,16.797 8.585,16.694 8.659,16.623 C8.736,16.549 8.837,16.428 8.887,16.355 C8.935,16.279 9.04,16.147 9.12,16.06 C9.347,15.813 9.369,15.634 9.286,14.467 C9.234,13.689 9.234,13.681 9.149,13.263 C9.08,12.926 9.035,12.826 8.921,12.761 C8.813,12.698 8.694,12.542 8.45,12.145 C8.175,11.698 8.022,11.317 7.892,10.754 C7.839,10.534 7.829,10.507 7.746,10.457 C7.5,10.305 7.212,9.795 7.098,9.311 C7.043,9.074 6.805,8.577 6.632,8.343 C6.566,8.249 6.543,8.196 6.556,8.151 C6.564,8.117 6.558,8.091 6.548,8.091 C6.535,8.091 6.548,7.994 6.577,7.873 C6.625,7.676 6.627,7.623 6.601,7.25 C6.585,7.026 6.558,6.776 6.543,6.697 C6.527,6.619 6.506,6.463 6.495,6.353 C6.484,6.24 6.458,6.132 6.437,6.106 C6.4,6.061 6.349,5.877 6.307,5.632 L6.288,5.527 L6.238,5.619 C6.172,5.743 6.162,5.688 6.214,5.498 C6.267,5.304 6.296,4.804 6.257,4.804 C6.241,4.804 6.209,4.836 6.185,4.875 C6.146,4.946 6.146,4.946 6.161,4.883 C6.172,4.846 6.22,4.739 6.267,4.644 C6.365,4.449 6.418,4.184 6.355,4.205 C6.31,4.221 6.254,4.368 6.251,4.489 C6.251,4.568 6.246,4.573 6.222,4.531 C6.183,4.468 6.214,4.202 6.281,4.031 C6.344,3.866 6.341,3.855 6.275,3.934 L6.222,3.997 L6.238,3.75 C6.249,3.613 6.267,3.437 6.278,3.358 C6.302,3.203 6.296,3.185 6.254,3.214 C6.188,3.253 6.14,3.398 6.138,3.582 C6.132,3.792 6.093,3.826 6.093,3.621 C6.093,3.437 6.14,3.248 6.206,3.156 C6.278,3.061 6.487,2.78 6.598,2.635 C6.64,2.577 6.717,2.462 6.767,2.377 C6.868,2.207 6.85,2.191 6.651,2.28 C6.588,2.309 6.529,2.33 6.524,2.322 C6.5,2.301 6.662,2.199 6.765,2.172 C6.823,2.159 6.982,2.094 7.111,2.03 C7.604,1.796 7.68,1.767 7.839,1.767 L7.99,1.77 L8.032,1.512 C8.056,1.37 8.101,1.205 8.133,1.144 C8.199,1.005 8.4,0.703 8.424,0.703 C8.435,0.703 8.424,0.771 8.405,0.852 C8.36,1.042 8.36,1.044 8.405,1.044 C8.427,1.044 8.456,1.01 8.469,0.965 C8.501,0.881 8.58,0.766 8.755,0.555 C8.911,0.371 9.136,0.269 9.347,0.29 C9.432,0.298 9.543,0.324 9.599,0.35 L9.699,0.398 L9.9,0.29 C10.012,0.229 10.189,0.15 10.295,0.114 C10.469,0.053 10.528,0.045 10.877,0.043 C11.091,0.043 11.313,0.032 11.372,0.022 C11.699,-0.012 11.485,0.004 12.014,0.004 z" fill="#FFFFFF"/>
      <path d="M24.546,19.255 C24.658,19.415 24.586,19.307 24.75,19.584 C24.888,19.854 25.674,21.887 25.674,21.976 C25.081,21.989 25.521,21.981 24.354,21.986 C24.561,21.479 24.49,21.753 24.546,21.159 L24.546,19.255 z" fill="#FFFFFF"/>
    </g>
  </g>
</svg>
