<?xml version="1.0" encoding="UTF-8"?>
<!DOCTYPE svg PUBLIC "-//W3C//DTD SVG 1.1//EN" "http://www.w3.org/Graphics/SVG/1.1/DTD/svg11.dtd">
<svg version="1.1" xmlns="http://www.w3.org/2000/svg" xmlns:xlink="http://www.w3.org/1999/xlink" x="0" y="0" width="16" height="16" viewBox="0, 0, 16, 16">
  <g id="Background">
    <rect x="0" y="0" width="16" height="16" fill="#000000" fill-opacity="0"/>
  </g>
  <g id="Background"/>
  <g id="Layer_1">
    <path d="M10.156,2.5 L10.156,4.652 L14.156,5.937 L14.156,12.95 L13.606,13.5 L13.279,13.5 C11.648,14.698 9.788,15.409 7.781,15.594 C5.953,15.565 4.392,14.66 3.049,13.5 L2.393,13.5 L2.156,13.263 L2.156,4.75 L10.156,2.5 z M10.156,5.177 L10.156,13 L13.656,13 L13.656,6.302 L10.156,5.177 z M11.656,10 L11.656,11 L10.656,11 L10.656,10 L11.656,10 z M13.156,10 L13.156,11 L12.156,11 L12.156,10 L13.156,10 z M11.656,8.5 L11.656,9.5 L10.656,9.5 L10.656,8.5 L11.656,8.5 z M13.156,8.5 L13.156,9.5 L12.156,9.5 L12.156,8.5 L13.156,8.5 z M11.656,7 L11.656,8 L10.656,8 L10.656,7 L11.656,7 z M13.156,7 L13.156,8 L12.156,8 L12.156,7 L13.156,7 z M7.156,10.5 L6.156,10.5 L6.156,11.5 L7.156,11.5 L7.156,10.5 z M8.656,10.5 L7.656,10.5 L7.656,11.5 L8.656,11.5 L8.656,10.5 z M5.656,10.5 L4.656,10.5 L4.656,11.5 L5.656,11.5 L5.656,10.5 z M7.156,9 L6.156,9 L6.156,10 L7.156,10 L7.156,9 z M8.656,9 L7.656,9 L7.656,10 L8.656,10 L8.656,9 z M5.656,9 L4.656,9 L4.656,10 L5.656,10 L5.656,9 z M7.156,7.5 L6.156,7.5 L6.156,8.5 L7.156,8.5 L7.156,7.5 z M8.656,7.5 L7.656,7.5 L7.656,8.5 L8.656,8.5 L8.656,7.5 z M5.656,7.5 L4.656,7.5 L4.656,8.5 L5.656,8.5 L5.656,7.5 z M7.156,6 L6.156,6 L6.156,7 L7.156,7 L7.156,6 z M8.656,6 L7.656,6 L7.656,7 L8.656,7 L8.656,6 z M5.656,6 L4.656,6 L4.656,7 L5.656,7 L5.656,6 z" fill="#6C89A6"/>
    <path d="M8,-0 C12.418,0 16,3.582 16,8 C16,12.418 12.418,16 8,16 C3.582,16 -0,12.418 -0,8 C-0,3.582 3.582,0 8,0 z M8,1 C4.134,1 1,4.134 1,8 C1,11.866 4.134,15 8,15 C11.866,15 15,11.866 15,8 C15,4.134 11.866,1 8,1 z" fill="#6C89A6"/>
  </g>
</svg>
