<?xml version="1.0" encoding="UTF-8"?>
<!DOCTYPE svg PUBLIC "-//W3C//DTD SVG 1.1//EN" "http://www.w3.org/Graphics/SVG/1.1/DTD/svg11.dtd">
<svg version="1.1" xmlns="http://www.w3.org/2000/svg" xmlns:xlink="http://www.w3.org/1999/xlink" x="0" y="0" width="100" height="50" viewBox="0, 0, 100, 50">
  <g id="Background">
    <rect x="0" y="0" width="100" height="50" fill="#000000" fill-opacity="0"/>
  </g>
  <g id="Layer_1">
    <g>
      <path d="M38.636,0 L38.636,13.636 L25,13.636 L25,0 L38.636,0 z" fill="#DDDDDD"/>
      <path d="M75,0 L75,13.636 L43.182,13.636 L43.182,0 L75,0 z" fill="#DDDDDD"/>
      <path d="M38.636,18.182 L38.636,31.818 L25,31.818 L25,18.182 L38.636,18.182 z" fill="#DDDDDD"/>
      <path d="M75,18.182 L75,31.818 L43.182,31.818 L43.182,18.182 L75,18.182 z" fill="#DDDDDD"/>
      <path d="M38.636,36.364 L38.636,50 L25,50 L25,36.364 L38.636,36.364 z" fill="#DDDDDD"/>
      <path d="M75,36.364 L75,50 L43.182,50 L43.182,36.364 L75,36.364 z" fill="#DDDDDD"/>
    </g>
  </g>
</svg>
