<?xml version="1.0" encoding="UTF-8"?>
<!DOCTYPE svg PUBLIC "-//W3C//DTD SVG 1.1//EN" "http://www.w3.org/Graphics/SVG/1.1/DTD/svg11.dtd">
<svg version="1.1" xmlns="http://www.w3.org/2000/svg" xmlns:xlink="http://www.w3.org/1999/xlink" x="0" y="0" width="22" height="22" viewBox="0, 0, 22, 22">
  <g id="Background">
    <rect x="0" y="0" width="22" height="22" fill="#000000" fill-opacity="0"/>
  </g>
  <g id="Layer_1">
    <g>
      <path d="M9.478,0.005 L9.627,0.021 C9.687,0.033 9.829,0.09 9.942,0.144 C10.102,0.221 10.192,0.286 10.325,0.417 C10.496,0.585 10.505,0.592 10.689,0.632 C10.895,0.678 11.195,0.782 11.356,0.864 C11.414,0.893 11.575,1.004 11.716,1.113 C11.856,1.221 12.055,1.37 12.16,1.45 C12.363,1.604 12.703,1.946 12.874,2.175 C13.032,2.385 13.246,2.848 13.372,3.25 C13.534,3.768 13.564,3.934 13.567,4.308 C13.569,4.58 13.556,4.684 13.498,4.953 C13.423,5.303 13.423,5.313 13.547,5.597 L13.588,5.693 L13.526,5.635 L13.462,5.578 L13.462,5.744 C13.462,5.896 13.474,5.93 13.578,6.128 C13.659,6.277 13.709,6.344 13.736,6.342 C13.76,6.339 13.777,6.354 13.777,6.38 C13.777,6.404 13.812,6.453 13.85,6.484 C13.94,6.561 13.943,6.583 13.857,6.564 L13.79,6.549 L13.862,6.61 C13.95,6.681 13.908,6.689 13.777,6.621 C13.663,6.564 13.649,6.597 13.753,6.675 C13.834,6.733 13.845,6.766 13.79,6.766 C13.733,6.766 13.746,6.838 13.816,6.94 C13.901,7.06 13.882,7.077 13.775,6.973 C13.729,6.928 13.685,6.896 13.676,6.903 C13.663,6.909 13.656,7.026 13.656,7.164 C13.656,7.397 13.588,7.795 13.537,7.863 C13.527,7.875 13.471,8.024 13.414,8.19 L13.306,8.493 L13.36,8.704 C13.425,8.961 13.428,9.109 13.365,9.246 C13.302,9.381 13.283,9.364 13.328,9.212 C13.348,9.15 13.365,9.065 13.365,9.026 C13.365,8.916 13.29,8.615 13.268,8.638 C13.256,8.648 13.259,8.708 13.272,8.769 C13.327,9 13.248,9.143 13.011,9.251 C12.846,9.323 12.795,9.403 12.853,9.495 C12.877,9.533 12.873,9.542 12.82,9.562 C12.758,9.584 12.757,9.627 12.814,9.699 C12.829,9.721 12.824,9.735 12.8,9.745 C12.761,9.76 12.71,9.875 12.71,9.949 C12.71,9.981 12.727,9.995 12.764,9.995 C12.812,9.995 12.814,9.998 12.778,10.033 C12.758,10.055 12.713,10.075 12.678,10.075 C12.623,10.079 12.613,10.092 12.601,10.193 C12.591,10.258 12.574,10.313 12.562,10.323 C12.531,10.342 12.536,10.436 12.574,10.528 C12.593,10.574 12.615,10.69 12.625,10.786 C12.62,10.989 12.671,10.939 12.59,11 L12.544,11.025 L12.542,11.027 C12.497,10.983 12.521,11.017 12.528,10.904 C12.538,10.815 12.536,10.788 12.518,10.815 C12.472,11.031 12.474,10.943 12.479,11.075 C12.376,11.152 12.441,11.102 12.286,11.23 C12.107,11.387 11.936,11.548 11.76,11.724 C11.57,11.917 11.415,12.081 11.278,12.236 C10.914,12.656 10.817,12.797 10.817,13.234 L10.817,13.444 L10.894,13.639 L10.931,13.732 L10.995,13.893 L11.106,14.027 C11.172,14.11 11.239,14.193 11.305,14.276 C11.307,14.278 11.308,14.28 11.31,14.282 C10.974,14.342 11.159,14.301 10.756,14.415 C10.213,14.589 9.811,14.871 9.811,15.597 L9.811,17.256 C9.811,18.01 10.214,18.274 10.809,18.447 C11.195,18.541 11.012,18.503 11.357,18.563 C11.267,18.682 11.329,18.6 11.175,18.812 C11.127,18.88 11.085,18.943 11.051,18.996 C11.022,19.043 11.022,19.043 10.985,19.11 C10.937,19.176 10.937,19.176 10.854,19.636 C10.882,20.008 10.835,19.832 10.994,20.165 C8.155,20.163 5.316,20.168 2.477,20.161 C2.45,20.161 0.363,20.182 0,20.129 C0,19.992 0.267,19.426 0.466,19.134 C0.65,18.867 0.985,18.546 1.341,18.297 C1.693,18.05 2.779,17.365 3.063,17.211 C3.325,17.069 3.871,16.813 4.167,16.697 C4.514,16.56 4.817,16.406 5.372,16.081 C6.042,15.69 6.108,15.642 6.229,15.442 C6.255,15.396 6.336,15.303 6.404,15.238 C6.473,15.17 6.566,15.059 6.612,14.991 C6.656,14.921 6.753,14.801 6.825,14.721 C7.035,14.495 7.054,14.331 6.978,13.261 C6.93,12.548 6.93,12.541 6.852,12.158 C6.789,11.849 6.748,11.757 6.644,11.696 C6.544,11.639 6.435,11.497 6.212,11.132 C5.959,10.723 5.819,10.374 5.7,9.858 C5.651,9.656 5.642,9.631 5.567,9.585 C5.342,9.446 5.077,8.978 4.972,8.535 C4.922,8.318 4.704,7.863 4.546,7.648 C4.485,7.561 4.463,7.513 4.475,7.472 C4.483,7.441 4.478,7.416 4.468,7.416 C4.456,7.416 4.468,7.327 4.494,7.216 C4.538,7.036 4.54,6.988 4.516,6.645 C4.502,6.44 4.478,6.212 4.463,6.139 C4.448,6.067 4.429,5.925 4.419,5.823 C4.41,5.72 4.385,5.622 4.366,5.597 C4.332,5.557 4.286,5.388 4.247,5.163 L4.23,5.067 L4.183,5.151 C4.123,5.264 4.114,5.214 4.162,5.04 C4.211,4.862 4.238,4.404 4.201,4.404 C4.186,4.404 4.157,4.433 4.136,4.469 C4.099,4.534 4.099,4.534 4.114,4.477 C4.123,4.443 4.167,4.344 4.211,4.258 C4.301,4.079 4.349,3.835 4.291,3.854 C4.25,3.869 4.199,4.004 4.197,4.114 C4.197,4.187 4.191,4.193 4.17,4.154 C4.133,4.095 4.162,3.852 4.223,3.695 C4.281,3.543 4.279,3.534 4.219,3.607 L4.17,3.665 L4.183,3.438 C4.194,3.313 4.211,3.151 4.22,3.079 C4.242,2.937 4.238,2.919 4.198,2.946 C4.138,2.983 4.095,3.115 4.092,3.283 C4.088,3.477 4.051,3.508 4.051,3.32 C4.051,3.151 4.095,2.978 4.155,2.894 C4.22,2.807 4.412,2.549 4.514,2.416 C4.553,2.363 4.623,2.257 4.669,2.179 C4.761,2.023 4.745,2.009 4.562,2.09 C4.505,2.117 4.451,2.136 4.446,2.129 C4.424,2.11 4.572,2.016 4.667,1.992 C4.72,1.98 4.866,1.919 4.985,1.862 C5.436,1.647 5.506,1.62 5.651,1.62 L5.789,1.623 L5.829,1.386 C5.85,1.256 5.892,1.105 5.921,1.049 C5.981,0.922 6.165,0.645 6.187,0.645 C6.198,0.645 6.187,0.707 6.171,0.782 C6.13,0.956 6.13,0.958 6.171,0.958 C6.19,0.958 6.217,0.926 6.229,0.885 C6.258,0.808 6.331,0.703 6.491,0.509 C6.634,0.341 6.84,0.247 7.035,0.266 C7.111,0.274 7.213,0.298 7.264,0.322 L7.357,0.366 L7.541,0.266 C7.643,0.211 7.806,0.138 7.902,0.105 C8.063,0.049 8.116,0.042 8.436,0.04 C8.632,0.04 8.837,0.03 8.89,0.021 C9.19,-0.011 8.994,0.005 9.478,0.005 z" fill="#FFFFFF"/>
      <path d="M21.993,20.12 L22,20.144 L21.98,20.144 L21.993,20.12 z" fill="#FFFFFF"/>
      <path d="M16.463,18.106 C16.693,18.106 16.907,18.062 17.109,17.977 C17.313,17.89 17.49,17.773 17.641,17.622 C17.791,17.472 17.909,17.295 17.995,17.093 C18.082,16.888 18.124,16.674 18.124,16.445 C18.124,16.218 18.082,16 17.995,15.796 C17.909,15.589 17.791,15.408 17.641,15.258 C17.49,15.108 17.313,14.99 17.109,14.899 C16.907,14.811 16.693,14.765 16.463,14.765 C15.997,14.765 15.6,14.928 15.274,15.254 C14.949,15.58 14.785,15.977 14.785,16.445 C14.785,16.674 14.829,16.888 14.92,17.093 C15.008,17.295 15.128,17.472 15.278,17.622 C15.428,17.773 15.608,17.89 15.814,17.977 C16.02,18.062 16.236,18.106 16.463,18.106 M20.109,14.425 C20.25,14.664 20.37,14.948 20.468,15.273 C20.53,15.285 20.643,15.3 20.809,15.32 C20.975,15.337 21.146,15.364 21.322,15.399 C21.497,15.431 21.653,15.468 21.792,15.503 C21.931,15.541 22,15.584 22,15.634 L22,17.276 C22,17.335 21.931,17.389 21.792,17.426 C21.653,17.468 21.497,17.501 21.322,17.534 C21.146,17.565 20.973,17.586 20.799,17.597 C20.628,17.611 20.516,17.622 20.468,17.636 C20.381,17.9 20.269,18.17 20.127,18.447 C20.269,18.638 20.404,18.823 20.537,19.006 C20.67,19.185 20.819,19.367 20.984,19.546 L21.004,19.636 C21.004,19.673 20.94,19.765 20.815,19.914 C20.688,20.062 20.541,20.216 20.375,20.38 C20.21,20.544 20.054,20.687 19.911,20.814 C19.764,20.939 19.674,21.003 19.637,21.003 C19.626,21.003 19.562,20.96 19.448,20.877 C19.335,20.795 19.209,20.7 19.071,20.592 C18.932,20.484 18.803,20.386 18.683,20.292 C18.562,20.201 18.485,20.139 18.448,20.107 C18.171,20.249 17.901,20.363 17.635,20.45 C17.635,20.511 17.625,20.625 17.608,20.789 C17.589,20.956 17.566,21.13 17.535,21.311 C17.504,21.494 17.465,21.654 17.419,21.791 C17.373,21.93 17.325,21.999 17.277,21.999 L15.635,21.999 C15.584,21.999 15.538,21.93 15.492,21.791 C15.446,21.654 15.409,21.494 15.384,21.311 C15.361,21.13 15.338,20.956 15.32,20.795 C15.301,20.631 15.293,20.517 15.293,20.45 C15.016,20.376 14.744,20.261 14.48,20.107 C14.289,20.249 14.101,20.392 13.914,20.536 C13.727,20.683 13.542,20.829 13.364,20.983 L13.272,21.003 C13.249,21.003 13.164,20.939 13.018,20.814 C12.873,20.687 12.723,20.544 12.567,20.38 C12.409,20.216 12.268,20.062 12.143,19.914 C12.015,19.765 11.954,19.673 11.954,19.636 C11.954,19.625 11.992,19.561 12.073,19.447 C12.152,19.336 12.245,19.21 12.345,19.079 C12.447,18.946 12.542,18.819 12.63,18.7 C12.721,18.58 12.777,18.503 12.802,18.465 C12.659,18.203 12.54,17.912 12.441,17.597 C12.38,17.586 12.266,17.57 12.1,17.551 C11.934,17.534 11.765,17.513 11.588,17.488 C11.412,17.463 11.256,17.43 11.117,17.391 C10.979,17.351 10.911,17.306 10.911,17.256 L10.911,15.597 C10.911,15.549 10.979,15.499 11.117,15.454 C11.256,15.406 11.416,15.372 11.597,15.347 C11.778,15.323 11.954,15.3 12.119,15.283 C12.285,15.264 12.399,15.254 12.461,15.254 C12.534,14.953 12.648,14.684 12.802,14.443 C12.659,14.254 12.52,14.063 12.382,13.876 C12.245,13.689 12.1,13.504 11.954,13.327 L11.917,13.234 C11.917,13.198 11.979,13.107 12.104,12.963 C12.231,12.818 12.376,12.666 12.538,12.502 C12.701,12.338 12.856,12.194 13,12.066 C13.145,11.943 13.235,11.878 13.272,11.878 C13.285,11.878 13.347,11.918 13.461,11.999 C13.574,12.078 13.702,12.172 13.84,12.278 C13.977,12.386 14.11,12.492 14.235,12.595 C14.363,12.695 14.438,12.756 14.461,12.781 C14.727,12.627 15.004,12.516 15.293,12.44 C15.293,12.392 15.301,12.277 15.32,12.101 C15.338,11.922 15.361,11.745 15.384,11.569 C15.409,11.392 15.442,11.234 15.482,11.089 C15.521,10.945 15.573,10.874 15.635,10.874 L17.277,10.874 C17.325,10.874 17.373,10.945 17.419,11.089 C17.465,11.234 17.5,11.392 17.525,11.569 C17.55,11.745 17.571,11.922 17.589,12.101 C17.608,12.277 17.623,12.392 17.635,12.44 C17.913,12.516 18.177,12.623 18.429,12.762 C18.62,12.623 18.812,12.483 19.005,12.346 C19.2,12.205 19.387,12.063 19.564,11.916 L19.637,11.878 C19.662,11.878 19.747,11.945 19.892,12.076 C20.036,12.209 20.188,12.354 20.348,12.512 C20.508,12.668 20.655,12.818 20.786,12.963 C20.919,13.107 20.984,13.198 20.984,13.234 C20.984,13.259 20.944,13.327 20.861,13.442 C20.776,13.556 20.684,13.678 20.584,13.811 C20.481,13.944 20.383,14.069 20.289,14.19 C20.192,14.31 20.133,14.387 20.109,14.425" fill="#FFFFFF"/>
    </g>
  </g>
  <g id="Layer_2"/>
</svg>
