<?xml version="1.0" encoding="UTF-8"?>
<!DOCTYPE svg PUBLIC "-//W3C//DTD SVG 1.1//EN" "http://www.w3.org/Graphics/SVG/1.1/DTD/svg11.dtd">
<svg version="1.1" xmlns="http://www.w3.org/2000/svg" xmlns:xlink="http://www.w3.org/1999/xlink" x="0" y="0" width="16" height="16" viewBox="0, 0, 16, 16">
  <g id="Background">
    <rect x="0" y="0" width="16" height="16" fill="#000000" fill-opacity="0"/>
  </g>
  <g id="Layer_1" display="none">
    <path d="M8,0 C12.418,0 16,3.582 16,8 C16,12.418 12.418,16 8,16 C3.582,16 0,12.418 -0,8 C-0,3.582 3.582,0 8,0 z M8,1 C4.134,1 1,4.134 1,8 C1,11.866 4.134,15 8,15 C11.866,15 15,11.866 15,8 C15,4.134 11.866,1 8,1 z" fill="#6C89A6"/>
  </g>
  <g id="Layer_1_Copy" display="none">
    <path d="M8,0 C12.418,0 16,3.582 16,8 C16,12.418 12.418,16 8,16 C3.582,16 0,12.418 -0,8 C-0,3.582 3.582,0 8,0 z M8,1 C4.134,1 1,4.134 1,8 C1,11.866 4.134,15 8,15 C11.866,15 15,11.866 15,8 C15,4.134 11.866,1 8,1 z" fill="#6C89A6"/>
  </g>
  <g id="Layer_2">
    <path d="M10.667,0.333 L10.667,3.202 L16,4.916 L16,8.913 C15.758,8.339 15.942,8.654 15.333,8.045 L15.333,5.402 L10.667,3.902 L10.667,6.334 C9.803,6.421 10.511,6.327 8.667,7.104 L8.667,7 L7.333,7 L7.333,8.333 L7.378,8.333 C6.855,8.856 7.189,8.464 6.667,9.705 L6.667,9 L5.333,9 L5.333,10.333 L6.402,10.333 C6.284,10.614 6.361,10.403 6.3,11 L5.333,11 L5.333,12.333 L6.334,12.333 C6.34,13.458 6.988,14.277 7.711,15 L0,15 L0,3.333 L10.667,0.333 z M4.667,11 L3.333,11 L3.333,12.333 L4.667,12.333 L4.667,11 z M4.667,9 L3.333,9 L3.333,10.333 L4.667,10.333 L4.667,9 z M4.667,7 L3.333,7 L3.333,8.333 L4.667,8.333 L4.667,7 z M6.667,7 L5.333,7 L5.333,8.333 L6.667,8.333 L6.667,7 z M4.667,5 L3.333,5 L3.333,6.333 L4.667,6.333 L4.667,5 z M8.667,5 L7.333,5 L7.333,6.333 L8.667,6.333 L8.667,5 z M6.667,5 L5.333,5 L5.333,6.333 L6.667,6.333 L6.667,5 z" fill="#6C89A6"/>
    <path d="M14.667,6.333 L14.667,7.378 C14.154,6.865 14.536,7.189 13.333,6.683 L13.333,6.333 L14.667,6.333 z" fill="#6C89A6"/>
    <path d="M12.667,6.333 L12.667,6.402 C12.486,6.326 12.597,6.361 12.326,6.333 L12.667,6.333 z" fill="#6C89A6"/>
  </g>
  <g id="Layer_4">
    <path d="M9.942,11.501 C9.818,11.501 9.712,11.544 9.623,11.632 C9.535,11.722 9.491,11.827 9.491,11.951 L9.491,12.402 C9.491,12.525 9.535,12.631 9.623,12.72 C9.712,12.808 9.818,12.851 9.942,12.851 L11.97,12.851 C12.094,12.851 12.201,12.808 12.288,12.72 C12.376,12.631 12.421,12.525 12.421,12.402 L12.421,9.782 C12.421,9.658 12.376,9.552 12.288,9.465 C12.201,9.374 12.094,9.331 11.97,9.331 L11.519,9.331 C11.389,9.331 11.282,9.374 11.198,9.465 C11.116,9.552 11.074,9.658 11.074,9.782 L11.074,11.501 z M11.497,14.649 C11.057,14.649 10.648,14.566 10.268,14.401 C9.889,14.235 9.557,14.01 9.271,13.726 C8.985,13.44 8.76,13.107 8.594,12.728 C8.429,12.349 8.347,11.939 8.347,11.501 C8.347,11.061 8.429,10.651 8.594,10.272 C8.76,9.893 8.985,9.562 9.271,9.274 C9.557,8.99 9.89,8.765 10.27,8.599 C10.653,8.434 11.061,8.351 11.497,8.351 C11.936,8.351 12.347,8.434 12.728,8.599 C13.11,8.765 13.443,8.99 13.726,9.274 C14.009,9.562 14.234,9.893 14.399,10.272 C14.565,10.651 14.647,11.061 14.647,11.501 C14.647,11.939 14.565,12.349 14.399,12.728 C14.234,13.107 14.009,13.44 13.726,13.726 C13.443,14.01 13.11,14.235 12.728,14.401 C12.347,14.566 11.936,14.649 11.497,14.649 M11.497,7 C10.873,7 10.289,7.116 9.744,7.352 C9.199,7.587 8.722,7.907 8.313,8.315 C7.904,8.723 7.582,9.199 7.35,9.745 C7.117,10.292 7,10.877 7,11.501 C7,12.123 7.117,12.708 7.35,13.254 C7.582,13.801 7.904,14.277 8.313,14.686 C8.722,15.093 9.199,15.414 9.744,15.648 C10.289,15.884 10.873,16 11.497,16 C12.121,16 12.706,15.884 13.253,15.648 C13.799,15.414 14.277,15.093 14.684,14.686 C15.091,14.277 15.413,13.801 15.648,13.254 C15.882,12.708 16,12.123 16,11.501 C16,10.877 15.882,10.292 15.648,9.745 C15.413,9.199 15.091,8.723 14.684,8.315 C14.277,7.907 13.799,7.587 13.253,7.352 C12.706,7.116 12.121,7 11.497,7" fill="#6C89A6"/>
  </g>
</svg>
