<?xml version="1.0" encoding="UTF-8"?>
<!DOCTYPE svg PUBLIC "-//W3C//DTD SVG 1.1//EN" "http://www.w3.org/Graphics/SVG/1.1/DTD/svg11.dtd">
<svg version="1.1" xmlns="http://www.w3.org/2000/svg" xmlns:xlink="http://www.w3.org/1999/xlink" x="0" y="0" width="50" height="50" viewBox="0, 0, 50, 50">
  <g id="Background">
    <rect x="0" y="0" width="50" height="50" fill="#000000" fill-opacity="0"/>
  </g>
  <g id="Layer_1">
    <g>
      <g>
        <path d="M26.18,14 C26.415,14 26.665,14.029 26.932,14.085 C27.2,14.141 27.47,14.229 27.743,14.344 C28.014,14.461 28.269,14.593 28.507,14.74 C28.746,14.884 28.942,15.042 29.095,15.21 L38.521,25.724 C38.829,26.071 38.988,26.473 39,26.931 C39.009,27.392 38.847,27.786 38.521,28.114 L31.117,35.479 C30.791,35.808 30.386,35.981 29.901,35.998 C29.419,36.019 29.028,35.846 28.728,35.479 L23.716,29.903 L25.987,26.263 L26.861,24.861 L25.381,24.124 L18.092,20.491 L18.092,15.703 C18.092,15.242 18.253,14.843 18.582,14.508 C18.912,14.17 19.317,14 19.793,14 L26.18,14 z M22.494,16.742 C22.033,16.743 21.645,16.904 21.319,17.227 C20.995,17.55 20.834,17.944 20.834,18.402 C20.834,18.839 20.995,19.224 21.319,19.555 C21.645,19.881 22.033,20.046 22.494,20.046 C22.935,20.046 23.32,19.881 23.646,19.555 C23.976,19.224 24.14,18.839 24.14,18.402 C24.14,17.944 23.976,17.55 23.646,17.227 C23.32,16.904 22.935,16.743 22.494,16.743 L22.494,16.742 z" fill="#FFFFFF"/>
        <path d="M19.086,29.155 L20.102,32.875 L24.71,25.479 L17.038,21.653 L17.939,24.954 C10.448,26.999 11.01,35.774 11.01,35.774 C12.106,31.448 15.02,30.265 19.086,29.155" fill="#FFFFFF"/>
      </g>
      <path d="M25,-0 C38.807,-0 50,11.193 50,25 C50,38.807 38.807,50 25,50 C11.193,50 -0,38.807 -0,25 C-0,11.193 11.193,-0 25,-0 L25,-0 z M25,3 C12.85,3 3,12.85 3,25 C3,37.15 12.85,47 25,47 C37.15,47 47,37.15 47,25 C47,12.85 37.15,3 25,3 z" fill="#FFFFFF"/>
    </g>
  </g>
</svg>
