<?xml version="1.0" encoding="UTF-8"?>
<!DOCTYPE svg PUBLIC "-//W3C//DTD SVG 1.1//EN" "http://www.w3.org/Graphics/SVG/1.1/DTD/svg11.dtd">
<svg version="1.1" xmlns="http://www.w3.org/2000/svg" xmlns:xlink="http://www.w3.org/1999/xlink" x="0" y="0" width="22" height="22" viewBox="0, 0, 22, 22">
  <g id="Background">
    <rect x="0" y="0" width="22" height="22" fill="#000000" fill-opacity="0"/>
  </g>
  <g id="Background" display="none">
    <g>
      <path d="M11.512,2.951 C11.469,2.958 11.306,2.966 11.149,2.966 C10.893,2.968 10.85,2.974 10.722,3.018 C10.644,3.045 10.515,3.103 10.433,3.147 L10.286,3.227 L10.212,3.191 C10.171,3.172 10.089,3.153 10.028,3.147 C9.872,3.132 9.707,3.207 9.593,3.342 C9.464,3.497 9.406,3.581 9.383,3.642 C9.373,3.675 9.352,3.7 9.337,3.7 C9.304,3.7 9.304,3.699 9.337,3.56 C9.35,3.5 9.358,3.45 9.35,3.45 C9.332,3.45 9.185,3.672 9.137,3.774 C9.113,3.818 9.08,3.939 9.063,4.044 L9.032,4.233 L8.921,4.231 C8.805,4.231 8.749,4.252 8.388,4.423 C8.293,4.47 8.176,4.518 8.133,4.528 C8.058,4.547 7.939,4.622 7.957,4.638 C7.961,4.643 8.004,4.628 8.05,4.607 C8.196,4.542 8.209,4.553 8.136,4.678 C8.098,4.74 8.042,4.825 8.011,4.867 C7.93,4.973 7.776,5.18 7.724,5.249 C7.676,5.317 7.641,5.455 7.641,5.59 C7.641,5.741 7.67,5.716 7.674,5.561 C7.676,5.426 7.71,5.32 7.759,5.291 C7.79,5.27 7.794,5.284 7.776,5.397 C7.769,5.455 7.755,5.584 7.747,5.685 L7.736,5.866 L7.775,5.82 C7.823,5.762 7.825,5.769 7.778,5.891 C7.73,6.016 7.707,6.211 7.736,6.258 C7.753,6.288 7.757,6.284 7.757,6.226 C7.759,6.137 7.8,6.029 7.833,6.018 C7.879,6.002 7.841,6.197 7.769,6.34 C7.734,6.409 7.699,6.489 7.691,6.516 C7.679,6.562 7.679,6.562 7.709,6.51 C7.726,6.48 7.749,6.458 7.761,6.458 C7.79,6.458 7.769,6.824 7.73,6.967 C7.691,7.105 7.699,7.146 7.747,7.055 L7.784,6.988 L7.798,7.065 C7.829,7.245 7.866,7.38 7.893,7.412 C7.908,7.432 7.928,7.51 7.935,7.593 C7.943,7.674 7.959,7.788 7.971,7.846 C7.982,7.904 8.001,8.086 8.013,8.251 C8.032,8.524 8.031,8.563 7.996,8.708 C7.974,8.796 7.965,8.867 7.974,8.867 C7.982,8.867 7.986,8.887 7.98,8.912 C7.971,8.944 7.988,8.983 8.037,9.053 C8.163,9.225 8.337,9.589 8.378,9.762 C8.461,10.117 8.673,10.491 8.854,10.603 C8.914,10.639 8.921,10.659 8.96,10.821 C9.055,11.233 9.167,11.513 9.37,11.84 C9.548,12.132 9.635,12.245 9.715,12.291 C9.798,12.34 9.831,12.413 9.882,12.66 C9.944,12.967 9.944,12.973 9.983,13.543 C10.043,14.399 10.028,14.53 9.86,14.711 C9.802,14.775 9.725,14.871 9.69,14.927 C9.653,14.981 9.579,15.07 9.523,15.124 C9.469,15.176 9.404,15.251 9.383,15.288 C9.286,15.448 9.233,15.487 8.698,15.799 C8.254,16.059 8.011,16.182 7.734,16.292 C7.497,16.385 7.061,16.589 6.851,16.703 C6.623,16.826 5.754,17.374 5.473,17.572 C5.188,17.771 4.92,18.028 4.773,18.242 C4.613,18.475 4.4,18.928 4.4,19.038 C4.4,19.063 5.401,19.067 13.2,19.067 C18.321,19.067 22,19.059 22,19.049 C22,18.984 21.424,17.494 21.323,17.295 C21.23,17.114 20.904,16.649 20.675,16.369 C20.55,16.217 20.385,16.1 20.166,15.999 C19.897,15.878 18.744,15.438 18.426,15.336 C18.242,15.276 17.89,15.149 17.644,15.052 C17.399,14.956 17.159,14.873 17.11,14.868 C17.06,14.864 17.011,14.844 16.994,14.825 C16.978,14.806 16.864,14.744 16.741,14.688 C16.619,14.632 16.464,14.546 16.396,14.491 C16.252,14.38 16.165,14.355 15.971,14.374 L15.831,14.386 L15.612,14.246 C15.336,14.069 15.224,13.975 15.055,13.776 C14.551,13.185 14.447,12.924 14.393,12.099 C14.37,11.775 14.376,11.642 14.414,11.586 C14.428,11.565 14.431,11.586 14.422,11.658 C14.411,11.741 14.414,11.76 14.438,11.76 C14.498,11.76 14.513,11.708 14.5,11.563 C14.492,11.486 14.475,11.393 14.459,11.356 C14.428,11.283 14.425,11.208 14.45,11.193 C14.459,11.185 14.473,11.141 14.48,11.089 C14.491,11.008 14.498,10.998 14.543,10.994 C14.57,10.994 14.607,10.979 14.623,10.961 C14.651,10.933 14.65,10.93 14.611,10.93 C14.582,10.93 14.568,10.919 14.568,10.894 C14.568,10.834 14.609,10.742 14.64,10.73 C14.659,10.722 14.663,10.711 14.651,10.693 C14.605,10.636 14.607,10.601 14.656,10.583 C14.698,10.568 14.702,10.561 14.683,10.53 C14.636,10.457 14.677,10.393 14.809,10.335 C14.999,10.248 15.061,10.135 15.018,9.949 C15.007,9.901 15.005,9.853 15.014,9.845 C15.032,9.826 15.092,10.067 15.092,10.155 C15.092,10.187 15.078,10.254 15.063,10.304 C15.026,10.426 15.041,10.439 15.092,10.331 C15.143,10.221 15.14,10.103 15.088,9.897 L15.045,9.729 L15.131,9.486 C15.177,9.354 15.222,9.234 15.23,9.225 C15.27,9.17 15.324,8.852 15.324,8.665 C15.324,8.555 15.33,8.461 15.341,8.457 C15.348,8.451 15.383,8.477 15.42,8.513 C15.506,8.596 15.521,8.582 15.453,8.486 C15.396,8.405 15.387,8.347 15.432,8.347 C15.476,8.347 15.467,8.32 15.402,8.274 C15.319,8.212 15.33,8.185 15.422,8.232 C15.527,8.285 15.56,8.279 15.489,8.222 L15.432,8.174 L15.486,8.185 C15.554,8.201 15.552,8.183 15.48,8.122 C15.449,8.097 15.422,8.058 15.422,8.039 C15.422,8.018 15.408,8.006 15.389,8.008 C15.368,8.009 15.327,7.956 15.263,7.836 C15.179,7.678 15.17,7.651 15.17,7.53 L15.17,7.396 L15.22,7.443 L15.27,7.489 L15.237,7.412 C15.138,7.184 15.138,7.177 15.198,6.897 C15.245,6.681 15.255,6.599 15.253,6.381 C15.251,6.082 15.228,5.949 15.098,5.534 C14.997,5.213 14.826,4.842 14.7,4.674 C14.563,4.491 14.29,4.217 14.128,4.094 C14.044,4.03 13.885,3.911 13.773,3.824 C13.66,3.737 13.531,3.648 13.485,3.626 C13.355,3.56 13.116,3.477 12.951,3.44 C12.804,3.408 12.797,3.402 12.66,3.268 C12.554,3.163 12.482,3.111 12.354,3.049 C12.263,3.007 12.15,2.96 12.101,2.951 C12.001,2.927 11.624,2.927 11.512,2.951 z" fill="#FFFFFF"/>
      <path d="M6.204,5.87 L6.269,5.878 L6.269,6.633 L6.298,6.685 C6.22,7.148 6.208,6.928 6.312,7.347 L6.324,7.921 L6.48,7.921 L6.503,7.957 L6.533,8.136 C6.528,8.114 6.543,8.251 6.55,8.354 L6.56,8.41 C6.531,8.54 6.545,8.468 6.519,8.627 C6.509,8.71 6.509,8.71 6.504,8.874 C6.505,8.994 6.505,8.994 6.561,9.267 C6.603,9.398 6.58,9.351 6.613,9.414 L6.634,9.481 L6.707,9.72 L6.855,9.922 C6.867,9.938 6.956,10.123 6.949,10.094 C7.209,10.907 7.019,10.461 7.605,11.394 C7.844,12.167 7.684,11.756 8.122,12.611 L8.242,12.803 C8.258,12.862 8.248,12.821 8.264,12.927 C8.275,13.046 8.262,13.088 8.213,13.088 C8.194,13.088 8.191,13.073 8.2,13.005 C8.207,12.946 8.205,12.929 8.194,12.946 C8.162,12.992 8.158,13.101 8.176,13.366 C8.237,13.941 8.168,13.663 8.381,14.2 C8.281,14.308 8.323,14.255 8.249,14.36 C8.141,14.428 8.236,14.368 7.959,14.532 C7.577,14.756 7.394,14.849 7.193,14.929 C6.913,15.038 6.422,15.267 6.152,15.413 C5.87,15.566 4.954,16.144 4.629,16.372 C4.214,16.662 3.82,17.038 3.565,17.41 C3.241,17.883 2.934,18.54 2.933,19.037 L2.933,19.065 C2.154,19.063 1.375,19.066 0.596,19.06 C0.068,19.055 0.225,19.076 0,19.043 C0,18.953 0.175,18.582 0.305,18.392 C0.425,18.216 0.644,18.006 0.878,17.844 C1.108,17.682 1.819,17.234 2.005,17.133 C2.177,17.04 2.534,16.872 2.728,16.797 C2.954,16.707 3.153,16.606 3.517,16.393 C3.955,16.137 3.998,16.106 4.077,15.975 C4.094,15.945 4.147,15.884 4.192,15.841 C4.237,15.797 4.298,15.724 4.328,15.68 C4.357,15.634 4.42,15.555 4.468,15.503 C4.604,15.355 4.617,15.248 4.568,14.547 C4.536,14.081 4.536,14.076 4.485,13.825 C4.444,13.623 4.417,13.563 4.349,13.523 C4.283,13.485 4.212,13.392 4.066,13.154 C3.901,12.886 3.809,12.657 3.731,12.32 C3.699,12.188 3.693,12.171 3.644,12.141 C3.496,12.05 3.323,11.744 3.254,11.454 C3.221,11.312 3.079,11.014 2.975,10.874 C2.936,10.817 2.921,10.785 2.929,10.758 C2.934,10.738 2.931,10.722 2.924,10.722 C2.917,10.722 2.924,10.664 2.942,10.591 C2.971,10.473 2.972,10.441 2.956,10.217 C2.947,10.083 2.931,9.933 2.921,9.886 C2.912,9.839 2.899,9.746 2.893,9.679 C2.887,9.611 2.87,9.547 2.858,9.531 C2.836,9.504 2.806,9.394 2.78,9.247 L2.769,9.184 L2.738,9.239 C2.699,9.313 2.693,9.28 2.725,9.167 C2.756,9.05 2.774,8.75 2.75,8.75 C2.74,8.75 2.721,8.769 2.707,8.793 C2.683,8.835 2.683,8.835 2.693,8.798 C2.699,8.775 2.728,8.711 2.756,8.654 C2.815,8.537 2.846,8.378 2.809,8.39 C2.782,8.4 2.748,8.488 2.747,8.561 C2.747,8.608 2.743,8.612 2.729,8.586 C2.705,8.548 2.725,8.389 2.764,8.286 C2.802,8.187 2.801,8.181 2.761,8.228 L2.729,8.266 L2.738,8.118 C2.745,8.036 2.756,7.93 2.762,7.883 C2.777,7.79 2.774,7.778 2.748,7.796 C2.708,7.82 2.68,7.906 2.678,8.016 C2.675,8.143 2.651,8.163 2.651,8.04 C2.651,7.93 2.68,7.817 2.72,7.761 C2.762,7.704 2.888,7.536 2.954,7.449 C2.98,7.414 3.026,7.344 3.056,7.294 C3.116,7.191 3.106,7.182 2.986,7.236 C2.948,7.253 2.914,7.266 2.91,7.261 C2.896,7.248 2.993,7.187 3.055,7.171 C3.089,7.163 3.185,7.124 3.263,7.086 C3.558,6.945 3.604,6.928 3.699,6.928 L3.79,6.93 L3.815,6.775 C3.829,6.69 3.856,6.591 3.875,6.554 C3.915,6.471 4.036,6.29 4.05,6.29 C4.057,6.29 4.05,6.33 4.039,6.379 C4.012,6.493 4.012,6.494 4.039,6.494 C4.052,6.494 4.069,6.474 4.077,6.447 C4.096,6.396 4.144,6.327 4.249,6.201 C4.342,6.09 4.477,6.029 4.604,6.042 C4.655,6.047 4.721,6.062 4.755,6.078 L4.816,6.107 L4.936,6.042 C5.003,6.005 5.109,5.958 5.173,5.936 C5.278,5.9 5.312,5.895 5.522,5.894 C5.65,5.894 5.784,5.887 5.819,5.881 C6.015,5.86 5.887,5.87 6.204,5.87 z" fill="#FFFFFF"/>
      <path d="M6.629,9.443 C6.657,9.497 6.686,9.551 6.714,9.605 C6.715,9.606 6.715,9.607 6.716,9.607 C6.642,9.524 6.675,9.576 6.629,9.443 L6.629,9.443 z" fill="#FFFFFF"/>
      <path d="M8.499,14.075 C8.489,14.084 8.471,14.105 8.499,14.075 z" fill="#FFFFFF"/>
      <path d="M6.629,9.443 C6.657,9.497 6.686,9.551 6.714,9.605 C6.715,9.606 6.715,9.607 6.716,9.607 C6.642,9.524 6.675,9.576 6.629,9.443 L6.629,9.443 z" fill="#FFFFFF"/>
    </g>
  </g>
  <g id="Layer_5">
    <path d="M6,0 L6,6 L0,6 L0,0 L6,0 z" fill="#FFFFFF"/>
    <path d="M22,0 L22,6 L8,6 L8,0 L22,0 z" fill="#FFFFFF"/>
    <path d="M6,8 L6,14 L0,14 L0,8 L6,8 z" fill="#FFFFFF"/>
    <path d="M22,8 L22,14 L8,14 L8,8 L22,8 z" fill="#FFFFFF"/>
    <path d="M6,16 L6,22 L0,22 L0,16 L6,16 z" fill="#FFFFFF"/>
    <path d="M22,16 L22,22 L8,22 L8,16 L22,16 z" fill="#FFFFFF"/>
  </g>
</svg>
