<?xml version="1.0" encoding="UTF-8"?>
<!DOCTYPE svg PUBLIC "-//W3C//DTD SVG 1.1//EN" "http://www.w3.org/Graphics/SVG/1.1/DTD/svg11.dtd">
<svg version="1.1" xmlns="http://www.w3.org/2000/svg" xmlns:xlink="http://www.w3.org/1999/xlink" x="0" y="0" width="100" height="50" viewBox="0, 0, 100, 50">
  <g id="Layer_1">
    <g>
      <path d="M44.608,-0 C45.694,0 46.899,0.266 48.211,0.793 C49.53,1.312 50.529,1.958 51.208,2.751 L72.635,26.601 C73.334,27.427 73.7,28.36 73.72,29.399 C73.74,30.444 73.381,31.337 72.635,32.083 L55.864,48.847 C55.118,49.6 54.206,49.979 53.12,49.999 C52.034,50.019 51.122,49.64 50.383,48.847 L46.594,44.609 C46.805,43.818 46.854,43.001 46.875,42.188 C46.857,41.483 46.868,41.363 46.749,40.522 C46.715,40.281 46.652,40.046 46.603,39.808 L50.131,36.28 C50.908,36.486 51.711,36.532 52.51,36.552 C58.551,36.552 63.448,31.655 63.448,25.615 C63.448,19.574 58.551,14.677 52.51,14.677 C46.47,14.677 41.573,19.574 41.573,25.615 C41.591,26.319 41.579,26.439 41.699,27.28 C41.733,27.521 41.796,27.756 41.845,27.993 L38.316,31.522 C37.54,31.316 36.737,31.27 35.938,31.25 C35.157,31.27 35.561,31.245 34.725,31.33 L29.016,24.943 C28.277,24.15 27.631,23.131 27.091,21.879 C26.545,20.627 26.279,19.442 26.279,18.336 L26.279,3.863 C26.279,2.824 26.652,1.918 27.391,1.152 C28.13,0.386 29.049,0 30.135,0 L44.608,-0 z M36.256,6.287 C35.217,6.287 34.338,6.64 33.618,7.353 C32.912,8.066 32.553,8.945 32.553,9.984 C32.553,11.03 32.912,11.909 33.618,12.635 C34.338,13.354 35.217,13.714 36.256,13.714 C37.295,13.714 38.181,13.354 38.9,12.635 C39.626,11.909 39.986,11.03 39.986,9.984 C39.986,8.945 39.626,8.066 38.9,7.353 C38.181,6.64 37.295,6.287 36.256,6.287 L36.256,6.287 z" fill="#DBDBDB"/>
      <path d="M46.986,20.09 C50.037,17.039 54.984,17.039 58.035,20.09 C61.086,23.141 61.086,28.088 58.035,31.139 C55.919,33.233 52.743,33.976 49.926,32.989 C49.282,32.764 49.145,32.663 48.541,32.346 L42.669,38.218 C44.442,41.416 43.982,45.06 41.462,47.712 C38.411,50.763 33.464,50.763 30.413,47.712 C27.362,44.661 27.362,39.714 30.413,36.663 C32.529,34.57 35.704,33.826 38.522,34.813 C39.166,35.039 39.303,35.139 39.907,35.456 L45.779,29.584 C44.006,26.386 44.465,22.742 46.986,20.09 z" fill="#DBDBDB"/>
    </g>
  </g>
  <g id="Layer_2" display="none">
    <path d="M54.289,3.553 C59.027,-1.184 66.709,-1.184 71.447,3.553 C76.184,8.291 76.184,15.973 71.447,20.711 C68.161,23.962 63.23,25.116 58.854,23.584 C57.854,23.234 57.641,23.078 56.704,22.585 L47.585,31.704 C50.338,36.67 49.625,42.329 45.711,46.447 C40.973,51.184 33.291,51.184 28.553,46.447 C23.816,41.709 23.816,34.027 28.553,29.289 C31.839,26.038 36.77,24.884 41.146,26.416 C42.146,26.766 42.359,26.922 43.296,27.415 L52.415,18.296 C49.662,13.33 50.375,7.671 54.289,3.553 z" fill="#DBDBDB"/>
  </g>
</svg>
