<?xml version="1.0" encoding="UTF-8"?>
<!DOCTYPE svg PUBLIC "-//W3C//DTD SVG 1.1//EN" "http://www.w3.org/Graphics/SVG/1.1/DTD/svg11.dtd">
<svg version="1.1" xmlns="http://www.w3.org/2000/svg" xmlns:xlink="http://www.w3.org/1999/xlink" x="0" y="0" width="18" height="18" viewBox="0, 0, 18, 18">
  <g id="Layer_4">
    <path d="M17.442,15.318 L13.179,11.691 C12.738,11.295 12.266,11.113 11.886,11.13 C12.892,9.951 13.5,8.422 13.5,6.75 C13.5,3.022 10.479,-0 6.75,-0 C3.022,-0 0,3.022 0,6.75 C0,10.479 3.022,13.5 6.75,13.5 C8.422,13.5 9.952,12.892 11.131,11.886 C11.113,12.266 11.295,12.738 11.692,13.179 L15.318,17.442 C15.939,18.132 16.953,18.19 17.572,17.572 C18.19,16.953 18.132,15.938 17.442,15.318 z M6.75,11.25 C4.265,11.25 2.25,9.236 2.25,6.75 C2.25,4.264 4.265,2.25 6.75,2.25 C9.236,2.25 11.25,4.264 11.25,6.75 C11.25,9.236 9.236,11.25 6.75,11.25 z" fill="#A5A5A5"/>
  </g>
</svg>
