<?xml version="1.0" encoding="UTF-8"?>
<!DOCTYPE svg PUBLIC "-//W3C//DTD SVG 1.1//EN" "http://www.w3.org/Graphics/SVG/1.1/DTD/svg11.dtd">
<svg version="1.1" xmlns="http://www.w3.org/2000/svg" xmlns:xlink="http://www.w3.org/1999/xlink" x="0" y="0" width="108" height="108" viewBox="0, 0, 108, 108">
  <g id="Background">
    <rect x="0" y="0" width="108" height="108" fill="#000000" fill-opacity="0"/>
  </g>
  <g id="Layer_2">
    <path d="M84.136,31.165 C85.399,34.518 85.395,37.199 85.558,40.527 L85.558,49.957 C86.889,50.413 87.969,51.217 88.761,52.368 C89.589,53.508 89.984,54.84 89.984,56.327 L89.984,92.282 C89.984,94.081 89.313,95.653 87.993,96.985 C86.673,98.328 85.114,99 83.314,99 L39.176,99 L40.949,97.739 L41.391,97.424 L41.613,96.93 C49.237,80.103 59.14,64.41 69.982,49.489 L72.001,49.489 L72.001,46.71 L72.541,45.967 C76.24,40.903 80.178,36.026 84.136,31.165 z" fill="#C6C6C6"/>
    <path d="M54.03,9 C58.349,9 62.428,9.828 66.255,11.471 C70.094,13.127 73.441,15.382 76.308,18.25 L77.062,19.08 C68.21,27.539 71.35,24.309 67.348,28.475 L66.711,27.787 C65.079,26.179 63.148,24.908 60.952,23.972 C58.745,23.024 56.441,22.556 54.03,22.556 C51.499,22.556 49.159,23.024 47.024,23.972 C44.876,24.908 42.969,26.179 41.301,27.787 C39.634,29.395 38.338,31.302 37.402,33.497 C36.467,35.693 35.999,38.044 35.999,40.528 L35.999,49.489 L48.962,49.489 C42.36,57.397 36.727,66.019 31.44,74.837 L30.576,72.783 C27.628,66.173 24.621,58.866 18.157,55.031 C18.806,52.928 18.385,53.789 19.239,52.368 C20.079,51.217 21.147,50.413 22.502,49.957 L22.502,40.528 C22.502,36.209 23.318,32.13 24.962,28.303 C26.617,24.464 28.861,21.117 31.704,18.25 C34.571,15.382 37.918,13.127 41.757,11.471 C45.608,9.828 49.699,9 54.03,9 z" fill="#C6C6C6"/>
  </g>
  <g id="Layer_1">
    <path d="M105.275,0 L108,4.1 Q91.337,17.303 70.936,44.774 Q50.535,72.246 39.789,96.109 L34.027,100.21 Q26.864,105.458 24.294,108 Q23.282,104.146 19.856,95.371 L17.676,90.041 Q13.004,78.56 8.994,73.066 Q4.983,67.572 0,65.768 Q8.41,56.419 15.417,56.419 Q21.413,56.419 28.733,73.558 L31.146,79.298 Q44.306,55.927 64.94,33.868 Q85.575,11.809 105.275,0 z" fill="#7F7F7F"/>
  </g>
</svg>
