<?xml version="1.0" encoding="UTF-8"?>
<!DOCTYPE svg PUBLIC "-//W3C//DTD SVG 1.1//EN" "http://www.w3.org/Graphics/SVG/1.1/DTD/svg11.dtd">
<svg version="1.1" xmlns="http://www.w3.org/2000/svg" xmlns:xlink="http://www.w3.org/1999/xlink" x="0" y="0" width="24" height="32" viewBox="0, 0, 24, 32">
  <g id="Background">
    <rect x="0" y="0" width="24" height="32" fill="#000000" fill-opacity="0"/>
  </g>
  <g id="Layer_1">
    <g>
      <path d="M12,4 C5.373,4 -0,5.679 -0,7.75 L-0,10.75 C-0,12.821 5.373,14.5 12,14.5 C18.627,14.5 24,12.821 24,10.75 L24,7.75 C24,5.679 18.627,4 12,4 z" fill="#7F7F7F"/>
      <path d="M12,16.75 C5.373,16.75 -0,15.071 -0,13 L-0,17.5 C-0,19.571 5.373,21.25 12,21.25 C18.627,21.25 24,19.571 24,17.5 L24,13 C24,15.071 18.627,16.75 12,16.75 z" fill="#7F7F7F"/>
      <path d="M12,23.5 C5.373,23.5 -0,21.821 -0,19.75 L-0,24.25 C-0,26.321 5.373,28 12,28 C18.627,28 24,26.321 24,24.25 L24,19.75 C24,21.821 18.627,23.5 12,23.5 z" fill="#7F7F7F"/>
    </g>
  </g>
</svg>
