<?xml version="1.0" encoding="UTF-8"?>
<!DOCTYPE svg PUBLIC "-//W3C//DTD SVG 1.1//EN" "http://www.w3.org/Graphics/SVG/1.1/DTD/svg11.dtd">
<svg version="1.1" xmlns="http://www.w3.org/2000/svg" xmlns:xlink="http://www.w3.org/1999/xlink" x="0" y="0" width="54" height="54" viewBox="0, 0, 54, 54">
  <g id="Layer_1">
    <path d="M37.981,22.119 C37.992,22.347 37.996,22.577 37.996,22.807 C37.996,29.834 32.647,37.938 22.866,37.938 C19.863,37.938 17.068,37.057 14.715,35.548 C15.13,35.598 15.553,35.623 15.983,35.623 C18.474,35.623 20.767,34.773 22.588,33.346 C20.261,33.303 18.296,31.766 17.62,29.653 C17.945,29.715 18.278,29.748 18.62,29.748 C19.105,29.748 19.575,29.683 20.021,29.562 C17.589,29.073 15.755,26.924 15.755,24.347 C15.755,24.325 15.755,24.303 15.756,24.281 C16.473,24.679 17.294,24.918 18.164,24.946 C16.737,23.992 15.799,22.365 15.799,20.519 C15.799,19.545 16.06,18.632 16.519,17.846 C19.141,21.063 23.06,23.181 27.48,23.402 C27.389,23.013 27.343,22.607 27.343,22.19 C27.343,19.253 29.723,16.873 32.66,16.873 C34.189,16.873 35.571,17.518 36.541,18.552 C37.753,18.313 38.891,17.871 39.918,17.261 C39.521,18.503 38.678,19.546 37.581,20.204 C38.656,20.075 39.681,19.789 40.635,19.366 C39.922,20.432 39.02,21.369 37.981,22.119 M27,0 C12.087,0 0,12.088 0,27 C0,41.912 12.087,54 27,54 C41.911,54 54,41.912 54,27 C54,12.088 41.911,0 27,0" fill="#FFFFFF"/>
  </g>
</svg>
