<?xml version="1.0" encoding="UTF-8"?>
<!DOCTYPE svg PUBLIC "-//W3C//DTD SVG 1.1//EN" "http://www.w3.org/Graphics/SVG/1.1/DTD/svg11.dtd">
<svg version="1.1" xmlns="http://www.w3.org/2000/svg" xmlns:xlink="http://www.w3.org/1999/xlink" x="0" y="0" width="22" height="22" viewBox="0, 0, 22, 22">
  <g id="Background">
    <rect x="0" y="0" width="22" height="22" fill="#000000" fill-opacity="0"/>
  </g>
  <g id="Layer_1">
    <g>
      <path d="M19.303,-0 C19.781,0 20.185,0.17 20.511,0.507 C20.836,0.844 21,1.243 21,1.7 L21,8.068 C21,8.554 20.883,9.076 20.642,9.627 C20.405,10.178 20.121,10.626 19.795,10.975 L18.6,12.312 L17.221,12.312 L17.221,9.357 C17.222,8.735 16.985,8.162 16.548,7.72 C16.095,7.271 15.52,7.033 14.897,7.033 L13.635,7.033 C12.998,7.033 12.412,7.273 11.969,7.726 C11.531,8.185 11.311,8.757 11.311,9.375 L11.311,12.312 L8.357,12.312 C7.731,12.312 7.155,12.55 6.714,12.991 C6.272,13.434 6.033,14.009 6.033,14.634 L6.033,15.898 C6.033,16.54 6.275,17.132 6.739,17.575 C7.173,17.999 7.752,18.222 8.375,18.222 L11.311,18.222 L11.311,20.467 L10.394,21.493 C10.069,21.841 9.668,22.008 9.19,22 C8.712,21.991 8.311,21.824 7.982,21.493 L0.603,14.116 C0.275,13.788 0.117,13.396 0.126,12.935 C0.134,12.478 0.296,12.068 0.603,11.705 L10.031,1.21 C10.33,0.862 10.769,0.577 11.35,0.349 C11.927,0.117 12.457,0 12.935,-0 L19.303,-0 z M16.61,2.766 C16.153,2.766 15.763,2.922 15.447,3.235 C15.127,3.549 14.969,3.936 14.969,4.393 C14.969,4.853 15.127,5.24 15.447,5.559 C15.763,5.876 16.153,6.034 16.61,6.034 C17.067,6.034 17.454,5.876 17.77,5.559 C18.081,5.24 18.239,4.853 18.239,4.393 C18.239,3.936 18.081,3.549 17.77,3.235 C17.454,2.922 17.067,2.766 16.61,2.766 z" fill="#6C89A6"/>
      <path d="M20.176,13.812 C20.403,13.812 20.597,13.893 20.758,14.052 C20.919,14.213 21,14.407 21,14.635 L21,15.898 C21,16.127 20.919,16.319 20.758,16.481 C20.597,16.642 20.403,16.722 20.176,16.722 L15.722,16.722 L15.722,21.159 C15.722,21.399 15.641,21.599 15.482,21.758 C15.32,21.919 15.124,22 14.897,22 L13.635,22 C13.408,22 13.212,21.919 13.051,21.758 C12.89,21.599 12.811,21.405 12.811,21.176 L12.811,16.722 L8.375,16.722 C8.135,16.722 7.934,16.645 7.775,16.49 C7.613,16.336 7.533,16.138 7.533,15.898 L7.533,14.635 C7.533,14.407 7.613,14.213 7.775,14.052 C7.934,13.893 8.128,13.812 8.357,13.812 L12.811,13.812 L12.811,9.375 C12.811,9.135 12.888,8.936 13.042,8.774 C13.198,8.615 13.395,8.533 13.635,8.533 L14.897,8.533 C15.124,8.533 15.32,8.615 15.482,8.774 C15.641,8.936 15.722,9.13 15.722,9.357 L15.722,13.812 z" fill="#6C89A6"/>
    </g>
  </g>
</svg>
