<?xml version="1.0" encoding="UTF-8"?>
<!DOCTYPE svg PUBLIC "-//W3C//DTD SVG 1.1//EN" "http://www.w3.org/Graphics/SVG/1.1/DTD/svg11.dtd">
<svg version="1.1" xmlns="http://www.w3.org/2000/svg" xmlns:xlink="http://www.w3.org/1999/xlink" x="0" y="0" width="22" height="22" viewBox="0, 0, 22, 22">
  <g id="Background">
    <rect x="0" y="0" width="22" height="22" fill="#000000" fill-opacity="0"/>
  </g>
  <g id="Layer_1">
    <path d="M21.999,13.065 L21.999,8.936 L18.846,8.41 C18.718,8.02 18.562,7.644 18.38,7.282 L20.238,4.682 L17.318,1.762 L14.722,3.616 C14.359,3.433 13.98,3.275 13.588,3.146 L13.064,-0 L8.935,-0 L8.411,3.146 C8.019,3.275 7.641,3.433 7.277,3.616 L4.681,1.762 L1.762,4.682 L3.619,7.282 C3.437,7.644 3.281,8.02 3.153,8.41 L-0,8.936 L-0,13.065 L3.161,13.591 C3.289,13.977 3.444,14.351 3.626,14.709 L1.762,17.318 L4.682,20.238 L7.295,18.371 C7.652,18.55 8.023,18.705 8.408,18.832 L8.936,22 L13.064,22 L13.592,18.832 C13.977,18.705 14.348,18.55 14.705,18.371 L17.318,20.238 L20.238,17.318 L18.374,14.709 C18.556,14.351 18.711,13.977 18.839,13.591 L22,13.064 z M11,13.75 C9.481,13.75 8.25,12.519 8.25,11 C8.25,9.481 9.481,8.25 11,8.25 C12.518,8.25 13.75,9.481 13.75,11 C13.75,12.519 12.518,13.75 11,13.75 z" fill="#FFFFFF"/>
  </g>
</svg>
