<?xml version="1.0" encoding="UTF-8"?>
<!DOCTYPE svg PUBLIC "-//W3C//DTD SVG 1.1//EN" "http://www.w3.org/Graphics/SVG/1.1/DTD/svg11.dtd">
<svg version="1.1" xmlns="http://www.w3.org/2000/svg" xmlns:xlink="http://www.w3.org/1999/xlink" x="0" y="0" width="24" height="32" viewBox="0, 0, 24, 32">
  <g id="Background">
    <rect x="0" y="0" width="24" height="32" fill="#000000" fill-opacity="0"/>
  </g>
  <g id="Layer_1">
    <g>
      <path d="M23.258,18.532 C23.462,18.532 23.637,18.605 23.782,18.748 C23.927,18.894 24,19.068 24,19.273 L24,20.411 C24,20.617 23.927,20.79 23.782,20.935 C23.637,21.08 23.462,21.153 23.258,21.153 L19.247,21.153 L19.247,25.148 C19.247,25.364 19.174,25.544 19.031,25.688 C18.886,25.833 18.709,25.905 18.505,25.905 L17.368,25.905 C17.164,25.905 16.987,25.833 16.842,25.688 C16.697,25.544 16.626,25.369 16.626,25.163 L16.626,21.153 L12.632,21.153 C12.416,21.153 12.234,21.083 12.091,20.943 C11.946,20.805 11.873,20.627 11.873,20.411 L11.873,19.273 C11.873,19.068 11.946,18.894 12.091,18.748 C12.234,18.605 12.409,18.532 12.615,18.532 L16.626,18.532 L16.626,14.537 C16.626,14.321 16.695,14.141 16.834,13.996 C16.974,13.852 17.152,13.778 17.368,13.778 L18.505,13.778 C18.709,13.778 18.886,13.852 19.031,13.996 C19.174,14.141 19.247,14.316 19.247,14.52 L19.247,18.532 z" fill="#7F7F7F"/>
      <path d="M9.311,6.098 L9.457,6.114 C9.517,6.126 9.655,6.183 9.767,6.235 C9.924,6.311 10.012,6.375 10.143,6.505 C10.31,6.668 10.32,6.675 10.501,6.716 C10.703,6.761 10.996,6.862 11.156,6.943 C11.213,6.971 11.37,7.08 11.509,7.187 C11.647,7.293 11.842,7.44 11.945,7.518 C12.145,7.67 12.478,8.006 12.648,8.231 C12.802,8.437 13.012,8.891 13.136,9.287 C13.296,9.796 13.324,9.959 13.327,10.326 C13.329,10.594 13.317,10.696 13.26,10.961 C13.186,11.304 13.186,11.314 13.308,11.593 L13.348,11.688 L13.224,11.574 L13.224,11.737 C13.224,11.886 13.236,11.92 13.339,12.114 C13.417,12.261 13.467,12.327 13.493,12.324 C13.517,12.322 13.534,12.336 13.534,12.362 C13.534,12.386 13.567,12.433 13.605,12.464 C13.694,12.54 13.696,12.561 13.613,12.542 L13.546,12.528 L13.617,12.587 C13.703,12.658 13.663,12.665 13.534,12.599 C13.422,12.542 13.408,12.575 13.51,12.651 C13.589,12.708 13.601,12.741 13.546,12.741 C13.491,12.741 13.503,12.812 13.572,12.912 C13.656,13.03 13.636,13.047 13.532,12.945 C13.486,12.9 13.443,12.869 13.434,12.876 C13.422,12.881 13.415,12.997 13.415,13.132 C13.415,13.362 13.348,13.752 13.298,13.818 C13.289,13.83 13.234,13.977 13.177,14.14 L13.072,14.439 L13.124,14.645 C13.188,14.898 13.191,15.043 13.129,15.178 C13.067,15.31 13.048,15.294 13.093,15.144 C13.112,15.083 13.129,15 13.129,14.962 C13.129,14.853 13.055,14.557 13.034,14.581 C13.022,14.59 13.024,14.65 13.038,14.709 C13.091,14.936 13.015,15.076 12.781,15.182 C12.619,15.253 12.569,15.331 12.626,15.421 C12.65,15.459 12.645,15.469 12.593,15.488 C12.533,15.509 12.531,15.552 12.588,15.623 C12.602,15.644 12.598,15.658 12.574,15.668 C12.536,15.682 12.486,15.795 12.486,15.869 C12.486,15.9 12.502,15.914 12.538,15.914 C12.586,15.914 12.588,15.916 12.552,15.952 C12.533,15.973 12.488,15.992 12.455,15.992 C12.4,15.997 12.39,16.009 12.378,16.108 C12.369,16.172 12.352,16.226 12.34,16.236 C12.309,16.255 12.314,16.347 12.352,16.437 C12.371,16.482 12.393,16.596 12.402,16.69 C12.419,16.868 12.4,16.932 12.326,16.932 C12.297,16.932 12.293,16.908 12.307,16.806 C12.316,16.719 12.314,16.693 12.297,16.719 C12.234,17.01 12.253,16.845 12.266,17.215 C11.793,17.233 11.466,17.52 11.134,17.793 C10.736,18.191 10.521,18.71 10.521,19.273 L10.521,20.411 C10.521,20.988 10.739,21.521 11.157,21.92 C11.548,22.302 12.069,22.504 12.63,22.503 L15.274,22.503 L15.274,25.163 C15.325,25.694 15.26,25.449 15.448,25.903 C12.319,25.905 13.866,25.905 10.806,25.905 C1.229,25.905 0,25.901 -0,25.87 C0,25.735 0.262,25.178 0.457,24.892 C0.639,24.629 0.967,24.314 1.318,24.07 C1.663,23.826 2.731,23.154 3.009,23.002 C3.267,22.863 3.803,22.612 4.093,22.498 C4.434,22.363 4.732,22.212 5.278,21.892 C5.935,21.509 6,21.461 6.119,21.265 C6.145,21.22 6.224,21.127 6.29,21.063 C6.36,20.997 6.45,20.888 6.495,20.822 C6.538,20.753 6.634,20.635 6.705,20.557 C6.91,20.334 6.929,20.173 6.855,19.122 C6.808,18.421 6.808,18.414 6.731,18.038 C6.669,17.735 6.629,17.645 6.526,17.585 C6.429,17.529 6.321,17.389 6.102,17.031 C5.854,16.629 5.716,16.286 5.599,15.779 C5.552,15.58 5.542,15.556 5.468,15.511 C5.247,15.374 4.987,14.915 4.885,14.479 C4.835,14.266 4.62,13.818 4.465,13.608 C4.406,13.523 4.384,13.475 4.396,13.435 C4.403,13.404 4.399,13.38 4.389,13.38 C4.377,13.38 4.389,13.293 4.415,13.184 C4.458,13.006 4.461,12.959 4.437,12.623 C4.422,12.422 4.399,12.197 4.384,12.126 C4.37,12.055 4.351,11.915 4.341,11.815 C4.332,11.714 4.308,11.617 4.289,11.593 C4.256,11.553 4.21,11.387 4.172,11.167 L4.155,11.072 L4.11,11.155 C4.051,11.266 4.041,11.216 4.089,11.046 C4.136,10.871 4.163,10.421 4.127,10.421 C4.113,10.421 4.084,10.449 4.063,10.485 C4.027,10.549 4.027,10.549 4.041,10.492 C4.051,10.459 4.094,10.362 4.136,10.276 C4.225,10.101 4.272,9.862 4.215,9.881 C4.175,9.895 4.125,10.028 4.122,10.137 C4.122,10.208 4.117,10.213 4.096,10.175 C4.06,10.118 4.089,9.879 4.148,9.725 C4.206,9.576 4.203,9.566 4.144,9.637 L4.096,9.694 L4.11,9.471 C4.12,9.348 4.136,9.19 4.146,9.119 C4.167,8.979 4.163,8.962 4.124,8.988 C4.065,9.024 4.022,9.154 4.02,9.32 C4.015,9.509 3.979,9.54 3.979,9.355 C3.979,9.19 4.022,9.019 4.082,8.936 C4.146,8.851 4.334,8.598 4.434,8.468 C4.472,8.416 4.542,8.311 4.587,8.236 C4.677,8.082 4.661,8.067 4.482,8.148 C4.425,8.174 4.372,8.193 4.368,8.186 C4.346,8.167 4.491,8.075 4.584,8.051 C4.637,8.039 4.78,7.98 4.897,7.923 C5.34,7.712 5.409,7.686 5.552,7.686 L5.688,7.689 L5.726,7.457 C5.747,7.329 5.788,7.18 5.816,7.125 C5.876,7 6.057,6.727 6.078,6.727 C6.088,6.727 6.078,6.789 6.062,6.862 C6.021,7.033 6.021,7.035 6.062,7.035 C6.081,7.035 6.107,7.004 6.119,6.964 C6.147,6.888 6.219,6.784 6.376,6.595 C6.517,6.429 6.719,6.337 6.91,6.356 C6.986,6.363 7.086,6.386 7.136,6.41 L7.227,6.453 L7.408,6.356 C7.508,6.301 7.668,6.23 7.763,6.197 C7.92,6.143 7.973,6.135 8.287,6.133 C8.48,6.133 8.68,6.124 8.733,6.114 C9.027,6.084 8.835,6.098 9.311,6.098 z" fill="#7F7F7F"/>
      <path d="M20.596,23.433 C20.696,23.577 20.632,23.481 20.78,23.729 C20.904,23.973 21.611,25.803 21.611,25.884 C21.078,25.895 21.474,25.888 20.423,25.893 C20.609,25.436 20.545,25.683 20.596,25.148 L20.596,23.433 z" fill="#7F7F7F"/>
    </g>
  </g>
</svg>
