<?xml version="1.0" encoding="UTF-8"?>
<!DOCTYPE svg PUBLIC "-//W3C//DTD SVG 1.1//EN" "http://www.w3.org/Graphics/SVG/1.1/DTD/svg11.dtd">
<svg version="1.1" xmlns="http://www.w3.org/2000/svg" xmlns:xlink="http://www.w3.org/1999/xlink" x="0" y="0" width="22" height="22" viewBox="0, 0, 22, 22">
  <g id="Background">
    <rect x="0" y="0" width="22" height="22" fill="#000000" fill-opacity="0"/>
  </g>
  <g id="Layer_1">
    <path d="M11,0 C4.925,0 0,4.925 0,11 C0,17.075 4.925,22 11,22 C17.075,22 22,17.075 22,11 C22,4.925 17.075,0 11,0 z M6.875,11 C6.875,8.722 8.722,6.875 11,6.875 C13.278,6.875 15.125,8.722 15.125,11 C15.125,13.278 13.278,15.125 11,15.125 C8.722,15.125 6.875,13.278 6.875,11 z M19.893,14.684 L19.893,14.684 L16.082,13.105 C16.351,12.456 16.5,11.745 16.5,11 C16.5,10.255 16.351,9.544 16.082,8.895 L19.893,7.316 C20.364,8.451 20.625,9.695 20.625,11 C20.625,12.305 20.365,13.549 19.893,14.684 L19.893,14.684 z M14.684,2.106 L14.684,2.106 L14.684,2.106 L13.105,5.918 C12.456,5.648 11.745,5.5 11,5.5 C10.255,5.5 9.544,5.648 8.895,5.918 L7.316,2.106 C8.451,1.636 9.695,1.375 11,1.375 C12.305,1.375 13.549,1.635 14.684,2.106 z M2.106,7.316 L5.918,8.895 C5.648,9.544 5.5,10.255 5.5,11 C5.5,11.745 5.648,12.456 5.918,13.105 L2.106,14.684 C1.636,13.549 1.375,12.305 1.375,11 C1.375,9.695 1.635,8.451 2.106,7.316 z M7.316,19.893 L8.895,16.082 C9.544,16.351 10.255,16.5 11,16.5 C11.745,16.5 12.456,16.351 13.105,16.082 L14.684,19.893 C13.549,20.364 12.305,20.625 11,20.625 C9.695,20.625 8.451,20.365 7.316,19.893 z" fill="#FFFFFF"/>
  </g>
</svg>
