<?xml version="1.0" encoding="UTF-8"?>
<!DOCTYPE svg PUBLIC "-//W3C//DTD SVG 1.1//EN" "http://www.w3.org/Graphics/SVG/1.1/DTD/svg11.dtd">
<svg version="1.1" xmlns="http://www.w3.org/2000/svg" xmlns:xlink="http://www.w3.org/1999/xlink" x="0" y="0" width="50" height="50" viewBox="0, 0, 50, 50">
  <g id="Background">
    <rect x="0" y="0" width="50" height="50" fill="#000000" fill-opacity="0"/>
  </g>
  <g id="Background"/>
  <g id="Layer_1">
    <path d="M21.164,13.381 C21.067,13.397 20.695,13.416 20.339,13.416 C19.756,13.419 19.66,13.432 19.368,13.534 C19.192,13.594 18.897,13.726 18.712,13.827 L18.377,14.008 L18.208,13.928 C18.115,13.884 17.93,13.84 17.79,13.827 C17.436,13.792 17.061,13.962 16.802,14.269 C16.51,14.621 16.379,14.812 16.325,14.952 C16.303,15.027 16.255,15.084 16.22,15.084 C16.145,15.084 16.145,15.08 16.22,14.764 C16.25,14.629 16.268,14.515 16.25,14.515 C16.21,14.515 15.875,15.019 15.765,15.25 C15.712,15.352 15.636,15.627 15.598,15.864 L15.526,16.294 L15.275,16.288 C15.012,16.288 14.884,16.337 14.063,16.728 C13.847,16.832 13.581,16.942 13.485,16.964 C13.313,17.008 13.044,17.179 13.084,17.214 C13.093,17.227 13.19,17.192 13.295,17.144 C13.627,16.995 13.657,17.021 13.49,17.305 C13.405,17.446 13.278,17.639 13.207,17.736 C13.021,17.977 12.673,18.446 12.555,18.604 C12.445,18.757 12.365,19.072 12.365,19.379 C12.365,19.72 12.432,19.664 12.44,19.312 C12.445,19.006 12.524,18.766 12.634,18.699 C12.705,18.65 12.713,18.682 12.673,18.941 C12.657,19.072 12.625,19.366 12.606,19.594 L12.581,20.006 L12.67,19.901 C12.78,19.768 12.783,19.785 12.678,20.062 C12.568,20.347 12.515,20.789 12.581,20.896 C12.62,20.966 12.63,20.955 12.63,20.824 C12.634,20.622 12.727,20.377 12.802,20.351 C12.907,20.315 12.82,20.759 12.657,21.084 C12.577,21.24 12.497,21.421 12.48,21.482 C12.453,21.587 12.453,21.587 12.52,21.469 C12.558,21.402 12.612,21.351 12.638,21.351 C12.705,21.351 12.657,22.182 12.568,22.507 C12.48,22.822 12.497,22.914 12.606,22.709 L12.692,22.555 L12.722,22.73 C12.793,23.139 12.876,23.446 12.939,23.519 C12.973,23.564 13.019,23.742 13.035,23.93 C13.053,24.115 13.088,24.374 13.115,24.505 C13.141,24.637 13.185,25.052 13.212,25.425 C13.255,26.048 13.252,26.136 13.172,26.464 C13.124,26.665 13.101,26.827 13.124,26.827 C13.141,26.827 13.15,26.872 13.137,26.928 C13.115,27.002 13.155,27.09 13.265,27.248 C13.552,27.639 13.948,28.467 14.04,28.861 C14.23,29.667 14.712,30.517 15.122,30.77 C15.259,30.854 15.275,30.899 15.364,31.267 C15.58,32.204 15.835,32.839 16.295,33.584 C16.7,34.246 16.899,34.504 17.08,34.608 C17.268,34.719 17.343,34.886 17.459,35.448 C17.6,36.144 17.6,36.157 17.688,37.454 C17.825,39.399 17.79,39.697 17.41,40.109 C17.278,40.254 17.101,40.472 17.021,40.599 C16.939,40.722 16.77,40.924 16.644,41.048 C16.52,41.166 16.373,41.336 16.325,41.419 C16.105,41.782 15.985,41.871 14.768,42.581 C13.758,43.172 13.207,43.452 12.577,43.702 C12.038,43.912 11.046,44.377 10.57,44.635 C10.053,44.915 8.078,46.16 7.438,46.61 C6.79,47.062 6.181,47.646 5.847,48.132 C5.485,48.662 5,49.692 5,49.942 C5,49.999 7.275,50.007 25,50.007 C36.638,50.007 45,49.989 45,49.968 C45,49.819 43.69,46.432 43.461,45.981 C43.25,45.568 42.508,44.512 41.988,43.877 C41.705,43.53 41.33,43.264 40.832,43.035 C40.22,42.76 37.6,41.76 36.876,41.528 C36.459,41.392 35.66,41.104 35.1,40.884 C34.543,40.665 33.996,40.477 33.887,40.464 C33.772,40.456 33.661,40.41 33.621,40.368 C33.587,40.324 33.327,40.184 33.048,40.056 C32.77,39.928 32.419,39.732 32.263,39.608 C31.937,39.355 31.739,39.299 31.299,39.342 L30.98,39.368 L30.482,39.052 C29.855,38.648 29.6,38.435 29.217,37.984 C28.07,36.639 27.835,36.048 27.712,34.172 C27.66,33.435 27.673,33.132 27.76,33.006 C27.792,32.957 27.796,33.006 27.779,33.168 C27.752,33.357 27.76,33.4 27.813,33.4 C27.95,33.4 27.985,33.282 27.955,32.954 C27.937,32.779 27.897,32.568 27.861,32.484 C27.792,32.317 27.783,32.147 27.84,32.112 C27.861,32.094 27.893,31.994 27.91,31.875 C27.933,31.692 27.95,31.669 28.052,31.661 C28.114,31.661 28.196,31.625 28.234,31.585 C28.299,31.52 28.295,31.515 28.207,31.515 C28.14,31.515 28.108,31.49 28.108,31.432 C28.108,31.297 28.202,31.088 28.272,31.061 C28.316,31.042 28.325,31.017 28.299,30.977 C28.194,30.846 28.196,30.768 28.308,30.728 C28.405,30.692 28.413,30.675 28.37,30.606 C28.263,30.439 28.356,30.294 28.657,30.162 C29.088,29.966 29.23,29.707 29.132,29.286 C29.107,29.176 29.101,29.067 29.124,29.048 C29.164,29.006 29.3,29.554 29.3,29.754 C29.3,29.825 29.268,29.979 29.234,30.092 C29.15,30.368 29.185,30.399 29.3,30.154 C29.415,29.904 29.41,29.635 29.292,29.168 L29.194,28.785 L29.388,28.234 C29.493,27.932 29.595,27.661 29.613,27.639 C29.705,27.515 29.828,26.792 29.828,26.368 C29.828,26.117 29.842,25.904 29.865,25.894 C29.882,25.88 29.962,25.939 30.045,26.022 C30.24,26.21 30.275,26.179 30.12,25.96 C29.992,25.776 29.97,25.644 30.072,25.644 C30.173,25.644 30.152,25.584 30.005,25.479 C29.817,25.337 29.842,25.277 30.05,25.382 C30.288,25.504 30.364,25.49 30.204,25.36 L30.072,25.25 L30.195,25.277 C30.35,25.312 30.345,25.272 30.181,25.132 C30.112,25.075 30.05,24.987 30.05,24.944 C30.05,24.896 30.019,24.869 29.975,24.874 C29.926,24.877 29.834,24.755 29.688,24.484 C29.499,24.124 29.476,24.062 29.476,23.787 L29.476,23.484 L29.592,23.589 L29.705,23.694 L29.63,23.519 C29.405,23.002 29.405,22.985 29.541,22.349 C29.648,21.859 29.67,21.671 29.667,21.176 C29.661,20.496 29.608,20.194 29.314,19.252 C29.084,18.52 28.695,17.679 28.408,17.297 C28.097,16.88 27.478,16.259 27.108,15.979 C26.918,15.834 26.556,15.562 26.301,15.366 C26.045,15.168 25.753,14.966 25.648,14.914 C25.354,14.764 24.81,14.576 24.435,14.492 C24.1,14.419 24.084,14.406 23.773,14.102 C23.532,13.862 23.368,13.744 23.076,13.604 C22.87,13.507 22.613,13.402 22.503,13.381 C22.275,13.328 21.419,13.328 21.164,13.381 z" fill="#CFDAE5"/>
  </g>
</svg>
