<?xml version="1.0" encoding="UTF-8"?>
<!DOCTYPE svg PUBLIC "-//W3C//DTD SVG 1.1//EN" "http://www.w3.org/Graphics/SVG/1.1/DTD/svg11.dtd">
<svg version="1.1" xmlns="http://www.w3.org/2000/svg" xmlns:xlink="http://www.w3.org/1999/xlink" x="0" y="0" width="18" height="18" viewBox="0, 0, 18, 18">
  <g id="Background">
    <rect x="0" y="0" width="18" height="18" fill="#000000" fill-opacity="0"/>
  </g>
  <g id="Layer_1">
    <path d="M9,0 C13.971,0 18,4.029 18,9 C18,13.971 13.971,18 9,18 C4.029,18 0,13.971 0,9 C0,4.029 4.029,0 9,0 z M9,1 C4.582,1 1,4.582 1,9 C1,13.418 4.582,17 9,17 C13.418,17 17,13.418 17,9 C17,4.582 13.418,1 9,1 z" fill="#6C89A6"/>
  </g>
</svg>
