<?xml version="1.0" encoding="UTF-8"?>
<!DOCTYPE svg PUBLIC "-//W3C//DTD SVG 1.1//EN" "http://www.w3.org/Graphics/SVG/1.1/DTD/svg11.dtd">
<svg version="1.1" xmlns="http://www.w3.org/2000/svg" xmlns:xlink="http://www.w3.org/1999/xlink" x="0" y="0" width="24" height="32" viewBox="0, 0, 24, 32">
  <g id="Background">
    <rect x="0" y="0" width="24" height="32" fill="#000000" fill-opacity="0"/>
  </g>
  <g id="Layer_1">
    <g>
      <path d="M22.049,3.353 C22.598,3.353 23.063,3.549 23.437,3.936 C23.811,4.323 24,4.782 24,5.307 L24,12.629 C24,13.188 23.865,13.788 23.589,14.421 C23.316,15.055 22.989,15.57 22.615,15.971 L21.241,17.509 L19.656,17.509 L19.656,14.111 C19.656,13.395 19.384,12.737 18.882,12.229 C18.36,11.713 17.7,11.439 16.984,11.439 L15.533,11.439 C14.8,11.439 14.126,11.715 13.617,12.236 C13.114,12.763 12.861,13.421 12.861,14.132 L12.861,17.509 L9.464,17.509 C8.745,17.509 8.083,17.782 7.575,18.29 C7.067,18.798 6.792,19.46 6.792,20.179 L6.792,21.631 C6.792,22.369 7.07,23.05 7.604,23.559 C8.103,24.047 8.769,24.304 9.485,24.303 L12.861,24.303 L12.861,26.884 L11.806,28.064 C11.432,28.465 10.971,28.657 10.422,28.646 C9.873,28.636 9.411,28.444 9.034,28.064 L0.55,19.583 C0.172,19.206 -0.01,18.754 0,18.225 C0.011,17.7 0.196,17.228 0.55,16.81 L11.389,4.745 C11.732,4.344 12.238,4.017 12.905,3.754 C13.569,3.488 14.178,3.353 14.728,3.353 L22.049,3.353 z M18.953,6.534 C18.427,6.534 17.979,6.712 17.615,7.073 C17.248,7.433 17.066,7.878 17.066,8.404 C17.066,8.933 17.248,9.377 17.615,9.745 C17.979,10.109 18.427,10.291 18.953,10.29 C19.478,10.291 19.923,10.109 20.287,9.745 C20.644,9.377 20.826,8.933 20.826,8.404 C20.826,7.878 20.644,7.433 20.287,7.073 C19.923,6.712 19.478,6.534 18.953,6.534 z" fill="#7F7F7F"/>
      <path d="M23.052,19.233 C23.314,19.233 23.537,19.326 23.722,19.509 C23.907,19.694 24,19.918 24,20.179 L24,21.632 C24,21.895 23.907,22.116 23.722,22.301 C23.537,22.486 23.314,22.579 23.052,22.579 L17.931,22.579 L17.931,27.681 C17.931,27.956 17.839,28.186 17.655,28.369 C17.47,28.554 17.245,28.647 16.984,28.647 L15.533,28.647 C15.272,28.647 15.046,28.554 14.861,28.369 C14.676,28.186 14.585,27.963 14.585,27.699 L14.585,22.579 L9.485,22.579 C9.209,22.579 8.978,22.491 8.794,22.312 C8.609,22.135 8.516,21.907 8.516,21.632 L8.516,20.179 C8.516,19.918 8.609,19.694 8.794,19.509 C8.978,19.326 9.201,19.233 9.464,19.233 L14.585,19.233 L14.585,14.132 C14.585,13.856 14.674,13.627 14.851,13.441 C15.03,13.258 15.257,13.163 15.533,13.163 L16.984,13.163 C17.245,13.163 17.47,13.258 17.655,13.441 C17.839,13.627 17.931,13.85 17.931,14.111 L17.931,19.233 z" fill="#7F7F7F"/>
    </g>
  </g>
</svg>
