<?xml version="1.0" encoding="UTF-8"?>
<!DOCTYPE svg PUBLIC "-//W3C//DTD SVG 1.1//EN" "http://www.w3.org/Graphics/SVG/1.1/DTD/svg11.dtd">
<svg version="1.1" xmlns="http://www.w3.org/2000/svg" xmlns:xlink="http://www.w3.org/1999/xlink" x="0" y="0" width="108" height="108" viewBox="0, 0, 108, 108">
  <g id="Layer_1">
    <g>
      <path d="M9,76.745 C11.774,81.167 13.82,85.99 15.823,90.795 L16.116,91.511 L14.611,91.511 C13.081,91.512 11.765,90.951 10.652,89.849 C9.551,88.737 9,87.421 9,85.891 L9,76.745 z" fill="#C6C6C6"/>
      <path d="M99,41.686 L99,85.891 C99,87.421 98.459,88.737 97.367,89.849 C96.276,90.951 94.97,91.512 93.44,91.511 L44.166,91.511 C47.445,84.178 51.669,77.499 55.812,70.671 C58.237,70.309 57.164,70.549 59.049,70.037 C60.682,69.548 62.243,68.884 63.743,68.089 C65.242,67.293 66.691,66.375 68.089,65.364 C69.486,64.334 70.853,63.273 72.2,62.202 C76.26,58.958 80.361,55.765 84.503,52.653 C88.635,49.552 92.808,46.43 97,43.298 C97.327,43.043 97.664,42.799 98,42.543 C98.347,42.309 98.684,42.013 99,41.686 z" fill="#C6C6C6"/>
      <path d="M9,41.686 C9.316,42.013 9.653,42.309 9.999,42.543 C10.336,42.799 10.673,43.043 10.999,43.298 C15.203,46.43 19.365,49.552 23.506,52.653 C27.639,55.765 31.74,58.958 35.81,62.202 C37.925,63.858 37.099,63.234 38.262,64.105 C33.62,70.964 35.904,67.393 31.44,74.837 L30.576,72.783 C25.375,60.603 20.57,54.419 15.417,54.419 C13.205,54.515 10.958,54.847 9,56.013 L9,41.686 z" fill="#C6C6C6"/>
      <path d="M79.887,16.488 C74.004,21.371 68.768,26.997 63.479,32.501 C56.817,39.602 50.735,47.188 44.798,54.893 L43.92,54.193 C42.839,53.317 41.901,52.592 41.084,52 C37.136,49.001 33.25,46.043 29.382,43.114 C25.527,40.177 21.599,37.208 17.59,34.177 C16.845,33.586 15.968,32.801 14.978,31.801 C13.978,30.811 13.06,29.71 12.192,28.506 C11.336,27.302 10.602,26.088 9.999,24.843 C9.398,23.609 9.092,22.477 9.092,21.477 C9.092,20.14 9.684,18.977 10.846,17.977 C12.03,16.988 13.275,16.488 14.611,16.488 L79.887,16.488 z" fill="#C6C6C6"/>
      <path d="M96.425,17.429 L97.173,17.978 C98.327,18.977 98.908,20.14 98.907,21.477 C98.908,22.477 98.602,23.609 98,24.843 C97.398,26.088 96.664,27.302 95.807,28.506 C94.95,29.71 94.011,30.811 93.021,31.801 C92.032,32.801 91.155,33.586 90.41,34.178 C86.411,37.167 82.473,40.136 78.617,43.084 C71.763,48.311 74.738,46.045 69.695,49.884 L72.541,45.967 C79.938,36 87.763,26.329 96.425,17.429 z" fill="#C6C6C6"/>
      <path d="M105.275,0 L108,4.1 Q91.337,17.303 70.936,44.774 Q50.535,72.246 39.789,96.109 L34.027,100.21 Q26.864,105.458 24.294,108 Q23.282,104.146 19.856,95.371 L17.676,90.041 Q13.004,78.56 8.994,73.066 Q4.983,67.572 0,65.768 Q8.41,56.419 15.417,56.419 Q21.413,56.419 28.733,73.558 L31.146,79.298 Q44.306,55.927 64.94,33.868 Q85.575,11.809 105.275,0 z" fill="#7F7F7F"/>
    </g>
  </g>
</svg>
