<?xml version="1.0" encoding="UTF-8"?>
<!DOCTYPE svg PUBLIC "-//W3C//DTD SVG 1.1//EN" "http://www.w3.org/Graphics/SVG/1.1/DTD/svg11.dtd">
<svg version="1.1" xmlns="http://www.w3.org/2000/svg" xmlns:xlink="http://www.w3.org/1999/xlink" x="0" y="0" width="30" height="30" viewBox="0, 0, 30, 30">
  <g id="Background">
    <rect x="0" y="0" width="30" height="30" fill="#000000" fill-opacity="0"/>
  </g>
  <defs>
    <linearGradient id="Gradient_1" gradientUnits="userSpaceOnUse" x1="0" y1="15" x2="30" y2="15">
      <stop offset="0" stop-color="#FFFFFF" stop-opacity="0"/>
      <stop offset="0.063" stop-color="#FFFFFF"/>
      <stop offset="1" stop-color="#FFFFFF"/>
    </linearGradient>
  </defs>
  <g id="Background">
    <path d="M0,0 L30,0 L30,30 L0,30 L0,0 z" fill="url(#Gradient_1)"/>
  </g>
  <g id="Layer_2">
    <path d="M15,4 C8.924,4 4,8.926 4,15 C4,21.076 8.925,26 15,26 C21.075,26 26,21.075 26,15 C26,8.925 21.075,4 15,4 z M17.264,15 L21.273,19.009 L19.009,21.273 L15,17.264 L10.991,21.273 L8.728,19.009 L12.736,15 L8.728,10.993 L10.991,8.729 L15,12.736 L19.009,8.729 L21.273,10.992 L17.264,15 z" fill="#7F7F7F"/>
  </g>
</svg>
