<?xml version="1.0" encoding="UTF-8"?>
<!DOCTYPE svg PUBLIC "-//W3C//DTD SVG 1.1//EN" "http://www.w3.org/Graphics/SVG/1.1/DTD/svg11.dtd">
<svg version="1.1" xmlns="http://www.w3.org/2000/svg" xmlns:xlink="http://www.w3.org/1999/xlink" x="0" y="0" width="22" height="22" viewBox="0, 0, 22, 22">
  <g id="Background">
    <rect x="0" y="0" width="22" height="22" fill="#000000" fill-opacity="0"/>
  </g>
  <g id="Layer_1">
    <path d="M4,-0 L4,4 L0,4 L0,-0 L4,-0 z" fill="#FFFFFF"/>
    <path d="M22,0 L22,4 L8,4 L8,0 L22,0 z" fill="#FFFFFF"/>
    <path d="M4,9 L4,13 L0,13 L0,9 L4,9 z" fill="#FFFFFF"/>
    <path d="M22,9 L22,13 L8,13 L8,9 L22,9 z" fill="#FFFFFF"/>
    <path d="M4,18 L4,22 L0,22 L0,18 L4,18 z" fill="#FFFFFF"/>
    <path d="M22,18 L22,22 L8,22 L8,18 L22,18 z" fill="#FFFFFF"/>
  </g>
</svg>
