<?xml version="1.0" encoding="UTF-8"?>
<!DOCTYPE svg PUBLIC "-//W3C//DTD SVG 1.1//EN" "http://www.w3.org/Graphics/SVG/1.1/DTD/svg11.dtd">
<svg version="1.1" xmlns="http://www.w3.org/2000/svg" xmlns:xlink="http://www.w3.org/1999/xlink" x="0" y="0" width="16" height="16" viewBox="0, 0, 16, 16">
  <g id="Background">
    <rect x="0" y="0" width="16" height="16" fill="#000000" fill-opacity="0"/>
  </g>
  <g id="Layer_1">
    <path d="M8,0 C12.418,0 16,3.582 16,8 C16,12.418 12.418,16 8,16 C3.582,16 0,12.418 0,8 C0,3.582 3.582,0 8,0 z M13,6.632 C12.965,6.668 12.927,6.701 12.889,6.727 C12.852,6.755 12.814,6.783 12.778,6.811 C12.312,7.159 11.848,7.506 11.389,7.85 C10.929,8.196 10.473,8.551 10.022,8.911 C9.873,9.03 9.721,9.148 9.565,9.263 C9.41,9.375 9.249,9.477 9.083,9.565 C8.916,9.654 8.742,9.727 8.561,9.782 C8.381,9.839 8.19,9.867 7.992,9.867 C7.8,9.867 7.613,9.839 7.43,9.782 C7.247,9.727 7.073,9.652 6.906,9.56 C6.741,9.468 6.579,9.365 6.423,9.251 C6.268,9.137 6.119,9.025 5.979,8.911 C5.527,8.551 5.071,8.196 4.612,7.85 C4.152,7.506 3.689,7.159 3.222,6.811 C3.186,6.783 3.148,6.755 3.111,6.727 C3.073,6.701 3.035,6.668 3,6.632 L3,11.543 C3,11.713 3.061,11.86 3.184,11.983 C3.307,12.106 3.453,12.168 3.623,12.168 L12.382,12.168 C12.552,12.168 12.697,12.106 12.819,11.983 C12.94,11.86 13,11.713 13,11.543 L13,6.632 z M12.382,3.832 L3.623,3.832 C3.475,3.832 3.337,3.888 3.205,3.998 C3.076,4.109 3.01,4.238 3.01,4.386 C3.01,4.497 3.044,4.623 3.111,4.76 C3.178,4.899 3.26,5.034 3.355,5.167 C3.451,5.301 3.553,5.423 3.664,5.533 C3.774,5.645 3.872,5.732 3.954,5.798 C4.4,6.134 4.836,6.464 5.265,6.791 C5.694,7.116 6.126,7.445 6.565,7.778 C6.656,7.844 6.76,7.924 6.88,8.022 C6.999,8.12 7.12,8.213 7.246,8.302 C7.371,8.39 7.498,8.466 7.628,8.529 C7.759,8.593 7.88,8.625 7.992,8.625 L8.014,8.625 C8.122,8.625 8.241,8.593 8.372,8.529 C8.502,8.466 8.63,8.39 8.757,8.302 C8.884,8.213 9.005,8.12 9.123,8.022 C9.241,7.924 9.344,7.844 9.435,7.778 C9.873,7.445 10.307,7.115 10.735,6.787 C11.164,6.46 11.601,6.13 12.045,5.798 C12.128,5.732 12.226,5.645 12.336,5.533 C12.446,5.423 12.55,5.301 12.645,5.167 C12.74,5.034 12.822,4.899 12.889,4.76 C12.956,4.623 12.99,4.497 12.99,4.386 C12.99,4.238 12.925,4.109 12.797,3.998 C12.668,3.888 12.53,3.832 12.382,3.832 z" fill="#6C89A6"/>
  </g>
</svg>
