<?xml version="1.0" encoding="UTF-8"?>
<!DOCTYPE svg PUBLIC "-//W3C//DTD SVG 1.1//EN" "http://www.w3.org/Graphics/SVG/1.1/DTD/svg11.dtd">
<svg version="1.1" xmlns="http://www.w3.org/2000/svg" xmlns:xlink="http://www.w3.org/1999/xlink" x="0" y="0" width="20" height="20" viewBox="0, 0, 20, 20">
  <g id="Layer_1">
    <g>
      <path d="M3.333,0 L16.667,0 C18.508,0 20,1.492 20,3.333 L20,16.667 C20,18.508 18.508,20 16.667,20 L3.333,20 C1.492,20 0,18.508 0,16.667 L0,3.333 C0,1.492 1.492,0 3.333,0 z" fill="#FFFFFF"/>
      <path d="M16.667,0 C18.508,0 20,1.492 20,3.333 L20,16.667 C20,18.508 18.508,20 16.667,20 L3.333,20 C1.492,20 0,18.508 0,16.667 L0,3.333 C0,1.492 1.492,0 3.333,0 L16.667,0 z M16.667,1 L3.333,1 C2.045,1 1,2.045 1,3.333 L1,16.667 C1,17.955 2.045,19 3.333,19 L16.667,19 C17.955,19 19,17.955 19,16.667 L19,3.333 C19,2.045 17.955,1 16.667,1 z" fill="#999999"/>
    </g>
  </g>
  <g id="Layer_4" display="none">
    <path d="M4.5,3 L15.5,3 C16.328,3 17,3.672 17,4.5 L17,15.5 C17,16.328 16.328,17 15.5,17 L4.5,17 C3.672,17 3,16.328 3,15.5 L3,4.5 C3,3.672 3.672,3 4.5,3 z" fill="#999999"/>
  </g>
  <g id="Layer_3" display="none">
    <path d="M14.413,3.791 C14.305,3.683 14.175,3.635 14.021,3.644 C13.867,3.649 13.745,3.7 13.653,3.791 L10.039,7.405 L6.06,3.426 C5.805,3.171 5.558,3.174 5.322,3.424 L3.432,5.314 C3.18,5.566 3.175,5.816 3.422,6.064 L7.402,10.043 L3.8,13.645 C3.547,13.897 3.547,14.152 3.799,14.404 L5.616,16.221 C5.868,16.473 6.123,16.473 6.376,16.221 L9.978,12.619 L13.935,16.577 C14.187,16.829 14.44,16.826 14.683,16.564 L16.573,14.674 C16.825,14.422 16.825,14.177 16.573,13.939 L12.615,9.981 L16.229,6.367 C16.321,6.276 16.371,6.153 16.376,5.999 C16.388,5.848 16.338,5.716 16.23,5.608 z" fill="#999999"/>
  </g>
  <g id="Layer_2">
    <path d="M3.982,8.404 C4.159,8.192 4.475,8.165 4.686,8.342 L8.516,11.556 L14.944,3.896 C15.122,3.684 15.437,3.657 15.649,3.834 L17.564,5.441 C17.775,5.619 17.803,5.934 17.625,6.146 L9.269,16.104 C9.092,16.316 8.776,16.343 8.565,16.166 L2.436,11.024 C2.225,10.846 2.197,10.531 2.375,10.319 L3.982,8.404 z" fill="#999999"/>
  </g>
</svg>
