<?xml version="1.0" encoding="UTF-8"?>
<!DOCTYPE svg PUBLIC "-//W3C//DTD SVG 1.1//EN" "http://www.w3.org/Graphics/SVG/1.1/DTD/svg11.dtd">
<svg version="1.1" xmlns="http://www.w3.org/2000/svg" xmlns:xlink="http://www.w3.org/1999/xlink" x="0" y="0" width="22" height="22" viewBox="0, 0, 22, 22">
  <g id="Layer_1">
    <path d="M21.318,18.722 L16.107,14.289 C15.569,13.805 14.992,13.582 14.527,13.603 C15.757,12.162 16.5,10.293 16.5,8.25 C16.5,3.694 12.807,0 8.25,0 C3.694,0 0,3.694 0,8.25 C0,12.807 3.694,16.5 8.25,16.5 C10.293,16.5 12.163,15.757 13.604,14.527 C13.582,14.992 13.805,15.569 14.29,16.107 L18.722,21.318 C19.481,22.161 20.72,22.232 21.476,21.476 C22.232,20.72 22.161,19.48 21.318,18.722 z M8.25,13.75 C5.213,13.75 2.75,11.288 2.75,8.25 C2.75,5.212 5.213,2.75 8.25,2.75 C11.288,2.75 13.75,5.212 13.75,8.25 C13.75,11.288 11.288,13.75 8.25,13.75 z" fill="#FFFFFF"/>
  </g>
</svg>
