<?xml version="1.0" encoding="UTF-8"?>
<!DOCTYPE svg PUBLIC "-//W3C//DTD SVG 1.1//EN" "http://www.w3.org/Graphics/SVG/1.1/DTD/svg11.dtd">
<svg version="1.1" xmlns="http://www.w3.org/2000/svg" xmlns:xlink="http://www.w3.org/1999/xlink" x="0" y="0" width="22" height="22" viewBox="0, 0, 22, 22">
  <g id="Layer_1">
    <path d="M14.131,19.208 C14.131,19.357 14.184,19.481 14.287,19.58 C14.389,19.677 14.521,19.727 14.68,19.727 L15.228,19.727 C15.378,19.727 15.507,19.677 15.612,19.586 C15.721,19.492 15.777,19.366 15.777,19.208 L15.777,10.588 C15.777,10.438 15.721,10.306 15.612,10.201 C15.507,10.092 15.378,10.037 15.228,10.037 L14.68,10.037 C14.53,10.037 14.401,10.092 14.295,10.201 C14.187,10.306 14.131,10.438 14.131,10.588 z M11.659,10.588 C11.659,10.438 11.609,10.306 11.5,10.201 C11.389,10.092 11.26,10.037 11.113,10.037 L10.565,10.037 C10.415,10.037 10.289,10.092 10.192,10.201 C10.095,10.306 10.046,10.438 10.046,10.588 L10.046,19.208 C10.046,19.357 10.093,19.481 10.186,19.58 C10.28,19.677 10.403,19.727 10.565,19.727 L11.113,19.727 C11.26,19.727 11.389,19.677 11.5,19.586 C11.609,19.492 11.659,19.366 11.659,19.208 z M8.811,3.2 C10.16,3.179 11.518,3.179 12.896,3.2 C12.896,3.088 12.905,2.98 12.926,2.871 C12.943,2.763 12.943,2.66 12.926,2.566 L12.926,2.358 C12.597,2.264 12.248,2.211 11.885,2.203 C11.518,2.194 11.172,2.188 10.846,2.188 C10.5,2.188 10.148,2.194 9.787,2.203 C9.427,2.211 9.081,2.264 8.755,2.358 L8.755,2.566 C8.755,2.66 8.758,2.766 8.77,2.877 C8.779,2.992 8.793,3.097 8.811,3.2 M7.547,10.588 C7.547,10.438 7.491,10.306 7.385,10.201 C7.277,10.092 7.148,10.037 6.998,10.037 L6.453,10.037 C6.3,10.037 6.177,10.092 6.08,10.201 C5.981,10.306 5.931,10.438 5.931,10.588 L5.931,19.208 C5.931,19.357 5.981,19.481 6.08,19.58 C6.177,19.677 6.3,19.727 6.453,19.727 L6.998,19.727 C7.148,19.727 7.277,19.677 7.385,19.586 C7.491,19.492 7.547,19.366 7.547,19.208 z M10.846,8.45 C12.055,8.432 13.26,8.403 14.468,8.368 C15.674,8.33 16.882,8.239 18.094,8.086 L18.094,19.838 C18.094,20.428 17.885,20.938 17.475,21.361 C17.061,21.789 16.56,22 15.97,22 L5.708,22 C5.118,22 4.611,21.792 4.183,21.366 C3.757,20.95 3.546,20.44 3.546,19.838 L3.546,8.086 C4.696,8.239 5.84,8.335 6.972,8.382 C8.104,8.426 9.245,8.45 10.398,8.45 z M20,5.012 L20,5.98 C19.654,6.168 19.079,6.318 18.272,6.438 C17.469,6.555 16.601,6.643 15.668,6.702 C14.738,6.766 13.832,6.801 12.952,6.807 C12.072,6.816 11.371,6.822 10.846,6.822 C10.33,6.822 9.629,6.816 8.74,6.807 C7.849,6.801 6.94,6.766 6.007,6.702 C5.077,6.643 4.215,6.555 3.42,6.444 C2.622,6.329 2.053,6.177 1.707,5.98 C1.687,5.831 1.678,5.669 1.678,5.493 L1.678,5.012 L1.678,4.505 C1.678,4.338 1.687,4.168 1.707,3.998 C1.939,3.871 2.273,3.757 2.704,3.669 C3.133,3.581 3.59,3.508 4.077,3.452 C4.564,3.396 5.045,3.355 5.517,3.326 C5.992,3.3 6.359,3.273 6.62,3.256 C6.544,2.49 6.599,1.892 6.781,1.458 C6.966,1.029 7.242,0.707 7.617,0.499 C7.99,0.287 8.45,0.15 8.999,0.088 C9.547,0.029 10.16,-0 10.846,-0 C11.362,-0 11.873,0.012 12.383,0.041 C12.893,0.07 13.348,0.167 13.753,0.326 C14.155,0.493 14.474,0.748 14.715,1.094 C14.952,1.44 15.073,1.93 15.073,2.566 L15.073,2.904 C15.073,3.018 15.061,3.135 15.046,3.256 C15.316,3.273 15.686,3.3 16.152,3.326 C16.621,3.355 17.102,3.396 17.595,3.452 C18.085,3.508 18.551,3.581 18.988,3.669 C19.431,3.757 19.768,3.871 20,3.998 z" fill="#6C89A6"/>
  </g>
</svg>
