<?xml version="1.0" encoding="UTF-8"?>
<!DOCTYPE svg PUBLIC "-//W3C//DTD SVG 1.1//EN" "http://www.w3.org/Graphics/SVG/1.1/DTD/svg11.dtd">
<svg version="1.1" xmlns="http://www.w3.org/2000/svg" xmlns:xlink="http://www.w3.org/1999/xlink" x="0" y="0" width="39" height="22" viewBox="0, 0, 39, 22">
  <g id="Background">
    <rect x="0" y="0" width="39" height="22" fill="#000000" fill-opacity="0"/>
  </g>
  <g id="Layer_1">
    <g>
      <path d="M30.961,-0.004 C31.436,-0.004 31.841,0.166 32.169,0.503 C32.497,0.837 32.658,1.235 32.658,1.696 L32.658,8.064 C32.658,8.53 32.538,9.042 32.301,9.59 C32.063,10.144 31.782,10.601 31.451,10.968 L22.052,21.433 C21.754,21.799 21.364,21.972 20.883,21.952 C20.4,21.934 19.995,21.761 19.67,21.433 L15.057,16.84 L17.472,16.84 C18.312,16.84 19.083,16.54 19.689,15.97 C20.331,15.337 20.659,14.551 20.659,13.696 L20.659,8.306 C20.659,7.439 20.321,6.647 19.693,6.053 C18.92,5.457 19.29,5.711 18.067,5.245 L21.686,1.203 C21.839,1.036 22.035,0.878 22.272,0.734 C22.51,0.588 22.765,0.456 23.034,0.339 C23.307,0.224 23.576,0.136 23.843,0.081 C24.11,0.025 24.359,-0.004 24.593,-0.004 L30.961,-0.004 z M28.268,2.733 C27.829,2.733 27.445,2.894 27.119,3.216 C26.791,3.539 26.627,3.932 26.627,4.389 C26.627,4.825 26.791,5.209 27.119,5.54 C27.445,5.866 27.829,6.03 28.268,6.03 C28.728,6.03 29.115,5.866 29.44,5.54 C29.763,5.209 29.924,4.825 29.924,4.389 C29.924,3.932 29.763,3.539 29.44,3.216 C29.115,2.894 28.728,2.733 28.268,2.733 z" fill="#FFFFFF"/>
      <path d="M0.942,10.372 C0.757,10.55 0.664,10.76 0.658,11.018 C0.655,11.269 0.747,11.474 0.942,11.63 L9.366,19.733 C9.551,19.907 9.767,19.996 10.025,19.996 C10.124,19.996 10.235,19.978 10.359,19.939 C10.754,19.783 10.955,19.504 10.955,19.106 L10.955,14.84 L17.472,14.84 C17.81,14.84 18.089,14.729 18.318,14.513 C18.545,14.29 18.659,14.017 18.659,13.696 L18.659,8.306 C18.659,7.985 18.545,7.719 18.318,7.505 C18.089,7.296 17.81,7.193 17.472,7.193 L10.955,7.193 L10.955,2.901 C10.955,2.501 10.754,2.223 10.359,2.063 C9.962,1.926 9.63,2 9.366,2.271 z" fill="#FFFFFF"/>
      <path d="M12.954,17.484 L16.766,21.295 L16.596,21.488 C16.271,21.834 15.866,22.004 15.388,21.995 C14.914,21.987 14.509,21.817 14.184,21.488 L12.765,20.07 C12.994,19.742 12.819,20.02 12.954,19.106 L12.954,17.484 z" fill="#FFFFFF"/>
      <path d="M20.86,0.164 L20.13,0.412 C19.635,0.611 19.242,0.878 18.955,1.203 L15.381,5.193 L12.954,5.193 L12.954,4.89 L16.232,1.232 C16.531,0.887 16.968,0.597 17.542,0.368 C18.12,0.139 18.644,0.025 19.119,0.025 L21.56,0.025 L20.86,0.164 z" fill="#FFFFFF"/>
    </g>
  </g>
</svg>
