<?xml version="1.0" encoding="UTF-8"?>
<!DOCTYPE svg PUBLIC "-//W3C//DTD SVG 1.1//EN" "http://www.w3.org/Graphics/SVG/1.1/DTD/svg11.dtd">
<svg version="1.1" xmlns="http://www.w3.org/2000/svg" xmlns:xlink="http://www.w3.org/1999/xlink" x="0" y="0" width="34" height="22" viewBox="0, 0, 34, 22">
  <g id="Background">
    <g>
      <path d="M13.9,16.702 C12.757,18.682 13.528,20.311 15.112,21.225 C16.695,22.14 18.492,21.993 19.635,20.013 C20.777,18.034 27.99,0.369 27.363,0.006 C26.735,-0.356 15.043,14.723 13.9,16.702" fill="#FFFFFF"/>
      <path d="M17,0.81 C18.892,0.828 20.812,1.085 22.565,1.825 C21.372,3.239 20.243,4.664 19.094,6.106 C16.786,9.04 14.479,11.98 12.343,15.043 L11.988,15.599 C11.072,17.261 10.865,19.073 11.712,20.83 C11.931,21.284 12.351,21.61 12.671,22 L1.131,22 C0.418,18.504 0.581,20.057 0.445,17.365 C0.445,8.222 7.857,0.81 17,0.81 L17,0.81 z" fill="#FFFFFF"/>
      <path d="M28.139,5.198 C31.731,8.353 33.319,12.686 33.555,17.365 C33.419,20.057 33.582,18.504 32.869,22 L20.927,22 L21.546,21.117 C22.187,20.008 24.264,15.135 26.214,10.218 C27.352,7.318 26.705,8.989 28.139,5.198 z" fill="#FFFFFF"/>
    </g>
  </g>
</svg>
