<?xml version="1.0" encoding="UTF-8"?>
<!DOCTYPE svg PUBLIC "-//W3C//DTD SVG 1.1//EN" "http://www.w3.org/Graphics/SVG/1.1/DTD/svg11.dtd">
<svg version="1.1" xmlns="http://www.w3.org/2000/svg" xmlns:xlink="http://www.w3.org/1999/xlink" x="0" y="0" width="24" height="32" viewBox="0, 0, 24, 32">
  <g id="Background">
    <rect x="0" y="0" width="24" height="32" fill="#000000" fill-opacity="0"/>
  </g>
  <g id="Layer_1">
    <path d="M24,24.387 C24,25.043 23.873,25.663 23.618,26.238 C23.364,26.819 23.021,27.324 22.593,27.762 C22.166,28.199 21.66,28.548 21.073,28.809 C20.482,29.07 19.859,29.201 19.203,29.201 L4.797,29.201 C4.145,29.201 3.528,29.07 2.947,28.809 C2.369,28.548 1.863,28.199 1.423,27.762 C0.986,27.324 0.643,26.819 0.385,26.247 C0.131,25.676 0,25.053 0,24.387 L0,17.201 L3.016,17.201 L3.016,24.387 C3.016,24.877 3.192,25.298 3.541,25.654 C3.89,26.006 4.311,26.185 4.797,26.185 L19.203,26.185 C19.695,26.185 20.113,26.009 20.462,25.663 C20.808,25.311 20.984,24.887 20.984,24.387 L20.984,17.201 L24,17.201 z M12.672,20.967 C12.486,21.134 12.255,21.218 11.984,21.225 C11.713,21.228 11.497,21.143 11.328,20.967 L2.692,12.329 C2.503,12.139 2.408,11.917 2.408,11.656 C2.408,11.571 2.431,11.447 2.47,11.278 C2.637,10.893 2.934,10.703 3.361,10.703 L7.908,10.703 L7.908,4.016 C7.908,3.67 8.025,3.38 8.26,3.148 C8.495,2.913 8.782,2.799 9.125,2.799 L14.875,2.799 C15.221,2.799 15.502,2.913 15.727,3.148 C15.952,3.38 16.063,3.67 16.063,4.016 L16.063,10.703 L20.642,10.703 C21.069,10.703 21.363,10.893 21.533,11.278 C21.676,11.686 21.605,12.035 21.314,12.329 z" fill="#7F7F7F"/>
  </g>
</svg>
