<?xml version="1.0" encoding="UTF-8"?>
<!DOCTYPE svg PUBLIC "-//W3C//DTD SVG 1.1//EN" "http://www.w3.org/Graphics/SVG/1.1/DTD/svg11.dtd">
<svg version="1.1" xmlns="http://www.w3.org/2000/svg" xmlns:xlink="http://www.w3.org/1999/xlink" x="0" y="0" width="16" height="16" viewBox="0, 0, 16, 16">
  <g id="Background">
    <rect x="0" y="0" width="16" height="16" fill="#000000" fill-opacity="0"/>
  </g>
  <g id="Background"/>
  <g id="Layer_1">
    <path d="M10.667,0.667 L10.667,3.536 L16,5.25 L16,15.333 L0,15.333 L0,3.667 L10.667,0.667 z M10.667,4.236 L10.667,14.667 L15.333,14.667 L15.333,5.736 L10.667,4.236 z M12.667,10.667 L12.667,12 L11.333,12 L11.333,10.667 L12.667,10.667 z M14.667,10.667 L14.667,12 L13.333,12 L13.333,10.667 L14.667,10.667 z M12.667,8.667 L12.667,10 L11.333,10 L11.333,8.667 L12.667,8.667 z M14.667,8.667 L14.667,10 L13.333,10 L13.333,8.667 L14.667,8.667 z M12.667,6.667 L12.667,8 L11.333,8 L11.333,6.667 L12.667,6.667 z M14.667,6.667 L14.667,8 L13.333,8 L13.333,6.667 L14.667,6.667 z M6.667,11.333 L5.333,11.333 L5.333,12.667 L6.667,12.667 L6.667,11.333 z M8.667,11.333 L7.333,11.333 L7.333,12.667 L8.667,12.667 L8.667,11.333 z M4.667,11.333 L3.333,11.333 L3.333,12.667 L4.667,12.667 L4.667,11.333 z M6.667,9.333 L5.333,9.333 L5.333,10.667 L6.667,10.667 L6.667,9.333 z M8.667,9.333 L7.333,9.333 L7.333,10.667 L8.667,10.667 L8.667,9.333 z M4.667,9.333 L3.333,9.333 L3.333,10.667 L4.667,10.667 L4.667,9.333 z M6.667,7.333 L5.333,7.333 L5.333,8.667 L6.667,8.667 L6.667,7.333 z M8.667,7.333 L7.333,7.333 L7.333,8.667 L8.667,8.667 L8.667,7.333 z M4.667,7.333 L3.333,7.333 L3.333,8.667 L4.667,8.667 L4.667,7.333 z M6.667,5.333 L5.333,5.333 L5.333,6.667 L6.667,6.667 L6.667,5.333 z M8.667,5.333 L7.333,5.333 L7.333,6.667 L8.667,6.667 L8.667,5.333 z M4.667,5.333 L3.333,5.333 L3.333,6.667 L4.667,6.667 L4.667,5.333 z" fill="#6C89A6"/>
  </g>
</svg>
