<?xml version="1.0" encoding="UTF-8"?>
<!DOCTYPE svg PUBLIC "-//W3C//DTD SVG 1.1//EN" "http://www.w3.org/Graphics/SVG/1.1/DTD/svg11.dtd">
<svg version="1.1" xmlns="http://www.w3.org/2000/svg" xmlns:xlink="http://www.w3.org/1999/xlink" x="0" y="0" width="22" height="22" viewBox="0, 0, 22, 22">
  <g id="Layer_1">
    <path d="M0,0.688 C0,0.307 0.307,0 0.688,0 L15.812,0 C16.193,0 16.5,0.307 16.5,0.688 L16.5,3.031 C19.537,3.031 22,5.493 22,8.531 C22,11.569 19.537,14.032 16.5,14.032 L16.5,19 C16.5,20.657 15.157,22 13.5,22 L3,22 C1.343,22 0,20.657 0,19 L0,0.688 z M16.5,5.781 L16.5,11.281 C18.019,11.281 19.25,10.05 19.25,8.531 C19.25,7.012 18.019,5.781 16.5,5.781 z" fill="#FFFFFF"/>
  </g>
</svg>
