<?xml version="1.0" encoding="UTF-8"?>
<!DOCTYPE svg PUBLIC "-//W3C//DTD SVG 1.1//EN" "http://www.w3.org/Graphics/SVG/1.1/DTD/svg11.dtd">
<svg version="1.1" xmlns="http://www.w3.org/2000/svg" xmlns:xlink="http://www.w3.org/1999/xlink" x="0" y="0" width="30" height="22" viewBox="0, 0, 30, 22">
  <g id="Background">
    <rect x="0" y="0" width="30" height="22" fill="#000000" fill-opacity="0"/>
  </g>
  <g id="Layer_1">
    <path d="M12.014,0.006 L12.176,0.024 C12.242,0.037 12.396,0.1 12.52,0.158 C12.695,0.242 12.793,0.313 12.938,0.457 C13.124,0.639 13.134,0.647 13.335,0.691 C13.56,0.741 13.886,0.854 14.063,0.944 C14.126,0.975 14.301,1.096 14.455,1.215 C14.608,1.333 14.825,1.496 14.939,1.583 C15.161,1.751 15.532,2.124 15.719,2.374 C15.891,2.603 16.124,3.108 16.262,3.547 C16.439,4.112 16.471,4.293 16.474,4.701 C16.476,4.998 16.463,5.111 16.399,5.405 C16.317,5.787 16.317,5.797 16.452,6.107 L16.497,6.212 L16.429,6.149 L16.36,6.086 L16.36,6.268 C16.36,6.433 16.373,6.47 16.487,6.686 C16.574,6.849 16.63,6.922 16.659,6.92 C16.685,6.917 16.704,6.933 16.704,6.962 C16.704,6.988 16.741,7.041 16.783,7.075 C16.881,7.159 16.884,7.183 16.791,7.162 L16.717,7.146 L16.796,7.212 C16.892,7.29 16.847,7.298 16.704,7.225 C16.579,7.162 16.564,7.198 16.677,7.283 C16.765,7.346 16.778,7.382 16.717,7.382 C16.656,7.382 16.669,7.461 16.746,7.572 C16.839,7.703 16.818,7.722 16.701,7.609 C16.651,7.559 16.603,7.524 16.593,7.532 C16.579,7.538 16.571,7.666 16.571,7.816 C16.571,8.071 16.497,8.505 16.442,8.579 C16.431,8.592 16.37,8.755 16.307,8.936 L16.19,9.267 L16.249,9.496 C16.32,9.777 16.323,9.938 16.254,10.088 C16.185,10.235 16.164,10.217 16.214,10.051 C16.235,9.983 16.254,9.891 16.254,9.848 C16.254,9.728 16.172,9.399 16.148,9.425 C16.135,9.436 16.138,9.501 16.153,9.567 C16.212,9.82 16.127,9.975 15.868,10.093 C15.688,10.172 15.632,10.259 15.696,10.359 C15.722,10.401 15.717,10.411 15.659,10.432 C15.592,10.456 15.59,10.503 15.653,10.582 C15.669,10.606 15.664,10.621 15.637,10.632 C15.595,10.648 15.539,10.774 15.539,10.855 C15.539,10.89 15.558,10.905 15.598,10.905 C15.651,10.905 15.653,10.908 15.614,10.947 C15.592,10.971 15.542,10.992 15.505,10.992 C15.444,10.997 15.434,11.011 15.42,11.121 C15.41,11.192 15.391,11.252 15.378,11.263 C15.344,11.284 15.349,11.386 15.391,11.486 C15.412,11.536 15.436,11.663 15.447,11.768 C15.465,11.965 15.444,12.036 15.362,12.036 C15.33,12.036 15.325,12.01 15.341,11.897 C15.352,11.799 15.349,11.77 15.33,11.799 C15.278,11.875 15.27,12.057 15.301,12.499 C15.382,13.269 15.288,12.993 15.434,13.363 C15.143,13.415 15.313,13.378 14.926,13.488 C14.53,13.614 14.256,13.807 14.256,14.251 L14.256,16.259 C14.256,16.719 14.529,16.898 14.956,17.022 C15.163,17.08 15.379,17.125 15.612,17.158 C15.839,17.19 16.051,17.216 16.256,17.238 L16.275,17.24 C16.381,17.532 16.323,17.395 16.446,17.653 C16.221,17.956 16.329,17.812 16.121,18.085 C15.994,18.251 15.878,18.409 15.778,18.551 C15.725,18.624 15.682,18.689 15.649,18.74 C15.624,18.781 15.624,18.781 15.598,18.829 C15.566,18.875 15.566,18.875 15.518,19.14 C15.518,19.41 15.616,19.555 15.897,19.883 C16.052,20.066 16.231,20.262 16.435,20.475 C16.625,20.673 16.819,20.859 17.018,21.035 C17.455,21.408 17.469,21.419 17.739,21.419 L17.866,21.406 L17.978,21.383 L18.138,21.349 L18.261,21.242 C18.435,21.091 18.608,20.952 18.901,20.722 C19.235,20.466 19.111,20.559 19.269,20.441 C19.495,20.554 19.386,20.51 19.594,20.581 L19.598,20.615 C19.607,20.702 19.619,20.802 19.634,20.924 C19.655,21.084 19.655,21.084 19.676,21.246 C19.711,21.508 19.764,21.741 19.834,21.948 L19.854,21.996 C15.354,22 17.414,21.999 13.674,22 C3.039,22 1.674,21.995 1.674,21.961 C1.674,21.811 1.965,21.193 2.182,20.875 C2.383,20.583 2.748,20.233 3.137,19.962 C3.521,19.692 4.706,18.945 5.016,18.777 C5.302,18.622 5.897,18.343 6.22,18.217 C6.598,18.067 6.929,17.899 7.535,17.544 C8.265,17.118 8.337,17.065 8.469,16.847 C8.498,16.797 8.586,16.695 8.66,16.624 C8.736,16.55 8.837,16.429 8.887,16.355 C8.935,16.279 9.041,16.148 9.12,16.061 C9.348,15.814 9.369,15.635 9.287,14.468 C9.234,13.69 9.234,13.682 9.149,13.264 C9.08,12.927 9.035,12.827 8.922,12.761 C8.813,12.698 8.694,12.543 8.451,12.146 C8.175,11.699 8.022,11.318 7.892,10.756 C7.839,10.535 7.829,10.508 7.747,10.458 C7.501,10.306 7.212,9.796 7.098,9.312 C7.043,9.076 6.805,8.579 6.633,8.345 C6.567,8.25 6.543,8.197 6.556,8.153 C6.564,8.119 6.559,8.092 6.548,8.092 C6.535,8.092 6.548,7.995 6.577,7.874 C6.625,7.677 6.627,7.624 6.601,7.251 C6.585,7.027 6.559,6.778 6.543,6.699 C6.527,6.62 6.506,6.465 6.495,6.354 C6.485,6.241 6.458,6.134 6.437,6.107 C6.4,6.063 6.35,5.879 6.307,5.634 L6.289,5.529 L6.238,5.621 C6.172,5.744 6.162,5.689 6.215,5.5 C6.268,5.305 6.297,4.806 6.257,4.806 C6.241,4.806 6.209,4.837 6.186,4.877 C6.146,4.948 6.146,4.948 6.162,4.885 C6.172,4.848 6.22,4.74 6.268,4.646 C6.366,4.451 6.418,4.185 6.355,4.206 C6.31,4.222 6.254,4.369 6.252,4.49 C6.252,4.569 6.246,4.575 6.223,4.533 C6.183,4.469 6.215,4.204 6.281,4.033 C6.344,3.867 6.342,3.857 6.276,3.936 L6.223,3.999 L6.238,3.752 C6.249,3.615 6.268,3.439 6.278,3.36 C6.302,3.205 6.297,3.186 6.254,3.215 C6.188,3.255 6.141,3.399 6.138,3.583 C6.133,3.794 6.093,3.828 6.093,3.623 C6.093,3.439 6.141,3.25 6.207,3.158 C6.278,3.063 6.487,2.782 6.598,2.637 C6.641,2.579 6.717,2.463 6.768,2.379 C6.868,2.208 6.85,2.193 6.651,2.282 C6.588,2.311 6.53,2.332 6.524,2.324 C6.5,2.303 6.662,2.201 6.765,2.174 C6.823,2.161 6.982,2.095 7.112,2.032 C7.604,1.798 7.681,1.769 7.839,1.769 L7.99,1.772 L8.033,1.514 C8.056,1.372 8.101,1.207 8.133,1.146 C8.199,1.007 8.4,0.705 8.424,0.705 C8.435,0.705 8.424,0.773 8.406,0.854 C8.361,1.044 8.361,1.046 8.406,1.046 C8.427,1.046 8.456,1.012 8.469,0.967 C8.501,0.883 8.58,0.768 8.755,0.557 C8.911,0.373 9.136,0.271 9.348,0.292 C9.432,0.3 9.543,0.326 9.599,0.352 L9.7,0.4 L9.901,0.292 C10.012,0.231 10.189,0.152 10.295,0.116 C10.47,0.055 10.528,0.047 10.877,0.045 C11.091,0.045 11.314,0.034 11.372,0.024 C11.699,-0.011 11.485,0.006 12.014,0.006 z" fill="#FFFFFF"/>
    <path d="M23.921,20.438 C24.071,20.556 24.223,20.673 24.374,20.791 C24.544,20.923 24.701,21.041 24.847,21.148 C24.923,21.203 24.983,21.245 25.03,21.277 C25.243,21.417 25.245,21.419 25.444,21.419 L25.478,21.416 C25.654,21.897 25.596,21.708 25.674,21.976 C24.894,21.994 24.114,21.988 23.334,21.99 L23.352,21.946 C23.418,21.749 23.473,21.524 23.515,21.271 C23.552,21.058 23.581,20.843 23.609,20.606 L23.612,20.57 C23.808,20.497 23.705,20.539 23.921,20.438 z" fill="#FFFFFF"/>
    <path d="M21.602,17.288 C21.88,17.288 22.138,17.234 22.383,17.132 C22.631,17.027 22.845,16.884 23.027,16.702 C23.209,16.52 23.352,16.306 23.456,16.061 C23.561,15.814 23.613,15.555 23.613,15.277 C23.613,15.002 23.561,14.738 23.456,14.491 C23.352,14.241 23.209,14.022 23.027,13.84 C22.845,13.658 22.631,13.516 22.383,13.406 C22.138,13.299 21.88,13.243 21.602,13.243 C21.037,13.243 20.557,13.441 20.163,13.835 C19.768,14.23 19.57,14.71 19.57,15.277 C19.57,15.555 19.624,15.814 19.733,16.061 C19.841,16.306 19.985,16.52 20.167,16.702 C20.349,16.884 20.566,17.027 20.816,17.132 C21.065,17.234 21.327,17.288 21.602,17.288 M26.016,12.832 C26.186,13.122 26.33,13.464 26.449,13.859 C26.524,13.873 26.662,13.891 26.862,13.915 C27.063,13.936 27.271,13.968 27.483,14.01 C27.695,14.05 27.884,14.094 28.052,14.136 C28.22,14.183 28.304,14.234 28.304,14.295 L28.304,16.282 C28.304,16.355 28.22,16.42 28.052,16.464 C27.884,16.516 27.695,16.555 27.483,16.595 C27.271,16.632 27.061,16.658 26.851,16.672 C26.643,16.688 26.508,16.702 26.449,16.719 C26.344,17.038 26.209,17.365 26.037,17.701 C26.209,17.932 26.372,18.156 26.533,18.377 C26.694,18.594 26.874,18.813 27.075,19.03 L27.098,19.14 C27.098,19.184 27.021,19.296 26.869,19.476 C26.715,19.656 26.538,19.842 26.337,20.04 C26.137,20.239 25.948,20.411 25.775,20.565 C25.598,20.717 25.488,20.794 25.444,20.794 C25.43,20.794 25.353,20.743 25.215,20.642 C25.078,20.542 24.926,20.428 24.758,20.297 C24.59,20.166 24.434,20.047 24.289,19.933 C24.142,19.824 24.049,19.749 24.005,19.709 C23.669,19.882 23.342,20.019 23.02,20.124 C23.02,20.199 23.009,20.337 22.988,20.535 C22.964,20.738 22.936,20.948 22.899,21.167 C22.862,21.389 22.815,21.582 22.759,21.748 C22.703,21.916 22.645,22 22.586,22 L20.599,22 C20.538,22 20.482,21.916 20.426,21.748 C20.37,21.582 20.326,21.389 20.296,21.167 C20.268,20.948 20.24,20.738 20.219,20.542 C20.195,20.344 20.186,20.206 20.186,20.124 C19.85,20.036 19.521,19.896 19.202,19.709 C18.971,19.882 18.742,20.054 18.516,20.229 C18.289,20.407 18.065,20.584 17.851,20.771 L17.739,20.794 C17.711,20.794 17.608,20.717 17.431,20.565 C17.256,20.411 17.074,20.239 16.885,20.04 C16.694,19.842 16.524,19.656 16.372,19.476 C16.218,19.296 16.143,19.184 16.143,19.14 C16.143,19.126 16.19,19.049 16.288,18.911 C16.384,18.776 16.496,18.625 16.617,18.466 C16.74,18.305 16.855,18.151 16.962,18.006 C17.072,17.862 17.139,17.768 17.17,17.722 C16.997,17.404 16.852,17.052 16.733,16.672 C16.659,16.658 16.521,16.639 16.321,16.616 C16.12,16.595 15.915,16.569 15.7,16.539 C15.488,16.509 15.299,16.469 15.131,16.422 C14.963,16.373 14.881,16.32 14.881,16.259 L14.881,14.251 C14.881,14.192 14.963,14.132 15.131,14.078 C15.299,14.02 15.492,13.978 15.712,13.947 C15.931,13.919 16.143,13.891 16.344,13.87 C16.545,13.847 16.682,13.835 16.757,13.835 C16.845,13.471 16.983,13.145 17.17,12.853 C16.997,12.625 16.829,12.394 16.661,12.167 C16.496,11.941 16.321,11.717 16.143,11.503 L16.099,11.391 C16.099,11.346 16.174,11.237 16.325,11.062 C16.479,10.887 16.654,10.702 16.85,10.504 C17.048,10.306 17.235,10.131 17.41,9.977 C17.585,9.828 17.695,9.748 17.739,9.748 C17.755,9.748 17.83,9.797 17.968,9.895 C18.105,9.991 18.259,10.105 18.427,10.234 C18.593,10.364 18.754,10.493 18.905,10.616 C19.059,10.737 19.15,10.812 19.178,10.842 C19.5,10.656 19.836,10.521 20.186,10.43 C20.186,10.371 20.195,10.231 20.219,10.019 C20.24,9.802 20.268,9.587 20.296,9.375 C20.326,9.161 20.366,8.969 20.415,8.794 C20.461,8.619 20.524,8.533 20.599,8.533 L22.586,8.533 C22.645,8.533 22.703,8.619 22.759,8.794 C22.815,8.969 22.857,9.161 22.887,9.375 C22.918,9.587 22.943,9.802 22.964,10.019 C22.988,10.231 23.006,10.371 23.02,10.43 C23.356,10.521 23.676,10.651 23.981,10.819 C24.212,10.651 24.446,10.481 24.679,10.315 C24.914,10.145 25.141,9.972 25.355,9.795 L25.444,9.748 C25.474,9.748 25.577,9.83 25.752,9.989 C25.927,10.15 26.111,10.325 26.305,10.516 C26.498,10.705 26.676,10.887 26.834,11.062 C26.995,11.237 27.075,11.346 27.075,11.391 C27.075,11.421 27.026,11.503 26.925,11.643 C26.823,11.78 26.711,11.927 26.589,12.088 C26.466,12.249 26.347,12.401 26.232,12.548 C26.116,12.692 26.044,12.786 26.016,12.832" fill="#FFFFFF"/>
    <path d="M21.602,17.288 C21.88,17.288 22.138,17.234 22.383,17.132 C22.631,17.027 22.845,16.884 23.027,16.702 C23.209,16.52 23.352,16.306 23.456,16.061 C23.561,15.814 23.613,15.555 23.613,15.277 C23.613,15.002 23.561,14.738 23.456,14.491 C23.352,14.241 23.209,14.022 23.027,13.84 C22.845,13.658 22.631,13.516 22.383,13.406 C22.138,13.299 21.88,13.243 21.602,13.243 C21.037,13.243 20.557,13.441 20.163,13.835 C19.768,14.23 19.57,14.71 19.57,15.277 C19.57,15.555 19.624,15.814 19.733,16.061 C19.841,16.306 19.985,16.52 20.167,16.702 C20.349,16.884 20.566,17.027 20.816,17.132 C21.065,17.234 21.327,17.288 21.602,17.288 M26.016,12.832 C26.186,13.122 26.33,13.464 26.449,13.859 C26.524,13.873 26.662,13.891 26.862,13.915 C27.063,13.936 27.271,13.968 27.483,14.01 C27.695,14.05 27.884,14.094 28.052,14.136 C28.22,14.183 28.304,14.234 28.304,14.295 L28.304,16.282 C28.304,16.355 28.22,16.42 28.052,16.464 C27.884,16.516 27.695,16.555 27.483,16.595 C27.271,16.632 27.061,16.658 26.851,16.672 C26.643,16.688 26.508,16.702 26.449,16.719 C26.344,17.038 26.209,17.365 26.037,17.701 C26.209,17.932 26.372,18.156 26.533,18.377 C26.694,18.594 26.874,18.813 27.075,19.03 L27.098,19.14 C27.098,19.184 27.021,19.296 26.869,19.476 C26.715,19.656 26.538,19.842 26.337,20.04 C26.137,20.239 25.948,20.411 25.775,20.565 C25.598,20.717 25.488,20.794 25.444,20.794 C25.43,20.794 25.353,20.743 25.215,20.642 C25.078,20.542 24.926,20.428 24.758,20.297 C24.59,20.166 24.434,20.047 24.289,19.933 C24.142,19.824 24.049,19.749 24.005,19.709 C23.669,19.882 23.342,20.019 23.02,20.124 C23.02,20.199 23.009,20.337 22.988,20.535 C22.964,20.738 22.936,20.948 22.899,21.167 C22.862,21.389 22.815,21.582 22.759,21.748 C22.703,21.916 22.645,22 22.586,22 L20.599,22 C20.538,22 20.482,21.916 20.426,21.748 C20.37,21.582 20.326,21.389 20.296,21.167 C20.268,20.948 20.24,20.738 20.219,20.542 C20.195,20.344 20.186,20.206 20.186,20.124 C19.85,20.036 19.521,19.896 19.202,19.709 C18.971,19.882 18.742,20.054 18.516,20.229 C18.289,20.407 18.065,20.584 17.851,20.771 L17.739,20.794 C17.711,20.794 17.608,20.717 17.431,20.565 C17.256,20.411 17.074,20.239 16.885,20.04 C16.694,19.842 16.524,19.656 16.372,19.476 C16.218,19.296 16.143,19.184 16.143,19.14 C16.143,19.126 16.19,19.049 16.288,18.911 C16.384,18.776 16.496,18.625 16.617,18.466 C16.74,18.305 16.855,18.151 16.962,18.006 C17.072,17.862 17.139,17.768 17.17,17.722 C16.997,17.404 16.852,17.052 16.733,16.672 C16.659,16.658 16.521,16.639 16.321,16.616 C16.12,16.595 15.915,16.569 15.7,16.539 C15.488,16.509 15.299,16.469 15.131,16.422 C14.963,16.373 14.881,16.32 14.881,16.259 L14.881,14.251 C14.881,14.192 14.963,14.132 15.131,14.078 C15.299,14.02 15.492,13.978 15.712,13.947 C15.931,13.919 16.143,13.891 16.344,13.87 C16.545,13.847 16.682,13.835 16.757,13.835 C16.845,13.471 16.983,13.145 17.17,12.853 C16.997,12.625 16.829,12.394 16.661,12.167 C16.496,11.941 16.321,11.717 16.143,11.503 L16.099,11.391 C16.099,11.346 16.174,11.237 16.325,11.062 C16.479,10.887 16.654,10.702 16.85,10.504 C17.048,10.306 17.235,10.131 17.41,9.977 C17.585,9.828 17.695,9.748 17.739,9.748 C17.755,9.748 17.83,9.797 17.968,9.895 C18.105,9.991 18.259,10.105 18.427,10.234 C18.593,10.364 18.754,10.493 18.905,10.616 C19.059,10.737 19.15,10.812 19.178,10.842 C19.5,10.656 19.836,10.521 20.186,10.43 C20.186,10.371 20.195,10.231 20.219,10.019 C20.24,9.802 20.268,9.587 20.296,9.375 C20.326,9.161 20.366,8.969 20.415,8.794 C20.461,8.619 20.524,8.533 20.599,8.533 L22.586,8.533 C22.645,8.533 22.703,8.619 22.759,8.794 C22.815,8.969 22.857,9.161 22.887,9.375 C22.918,9.587 22.943,9.802 22.964,10.019 C22.988,10.231 23.006,10.371 23.02,10.43 C23.356,10.521 23.676,10.651 23.981,10.819 C24.212,10.651 24.446,10.481 24.679,10.315 C24.914,10.145 25.141,9.972 25.355,9.795 L25.444,9.748 C25.474,9.748 25.577,9.83 25.752,9.989 C25.927,10.15 26.111,10.325 26.305,10.516 C26.498,10.705 26.676,10.887 26.834,11.062 C26.995,11.237 27.075,11.346 27.075,11.391 C27.075,11.421 27.026,11.503 26.925,11.643 C26.823,11.78 26.711,11.927 26.589,12.088 C26.466,12.249 26.347,12.401 26.232,12.548 C26.116,12.692 26.044,12.786 26.016,12.832" fill="#FFFFFF"/>
  </g>
</svg>
