<?xml version="1.0" encoding="UTF-8"?>
<!DOCTYPE svg PUBLIC "-//W3C//DTD SVG 1.1//EN" "http://www.w3.org/Graphics/SVG/1.1/DTD/svg11.dtd">
<svg version="1.1" xmlns="http://www.w3.org/2000/svg" xmlns:xlink="http://www.w3.org/1999/xlink" x="0" y="0" width="24" height="32" viewBox="0, 0, 24, 32">
  <g id="Background">
    <rect x="0" y="0" width="24" height="32" fill="#000000" fill-opacity="0"/>
  </g>
  <g id="Layer_1">
    <path d="M11.334,3.057 C11.52,2.89 11.752,2.806 12.023,2.799 C12.294,2.796 12.509,2.881 12.679,3.057 L21.314,11.695 C21.503,11.885 21.598,12.107 21.598,12.368 C21.598,12.453 21.575,12.577 21.536,12.746 C21.37,13.131 21.073,13.321 20.645,13.321 L16.099,13.321 L16.099,20.008 C16.099,20.354 15.981,20.644 15.746,20.876 C15.511,21.111 15.224,21.225 14.882,21.225 L9.131,21.225 C8.785,21.225 8.505,21.111 8.28,20.876 C8.054,20.644 7.943,20.354 7.943,20.008 L7.943,13.321 L3.365,13.321 C2.937,13.321 2.643,13.131 2.474,12.746 C2.33,12.338 2.402,11.989 2.692,11.695 z" fill="#7F7F7F"/>
    <path d="M24,24.387 C24,25.043 23.873,25.663 23.618,26.238 C23.364,26.819 23.021,27.324 22.593,27.762 C22.166,28.199 21.66,28.548 21.073,28.809 C20.482,29.07 19.859,29.201 19.203,29.201 L4.797,29.201 C4.145,29.201 3.528,29.07 2.947,28.809 C2.369,28.548 1.863,28.199 1.423,27.762 C0.986,27.324 0.643,26.819 0.385,26.247 C0.131,25.676 0,25.053 0,24.387 L0,17.201 L3.016,17.201 L3.016,24.387 C3.016,24.877 3.192,25.298 3.541,25.654 C3.89,26.006 4.311,26.185 4.797,26.185 L19.203,26.185 C19.695,26.185 20.113,26.009 20.462,25.663 C20.808,25.311 20.984,24.887 20.984,24.387 L20.984,17.201 L24,17.201 z" fill="#7F7F7F"/>
  </g>
</svg>
