<?xml version="1.0" encoding="UTF-8"?>
<!DOCTYPE svg PUBLIC "-//W3C//DTD SVG 1.1//EN" "http://www.w3.org/Graphics/SVG/1.1/DTD/svg11.dtd">
<svg version="1.1" xmlns="http://www.w3.org/2000/svg" xmlns:xlink="http://www.w3.org/1999/xlink" x="0" y="0" width="20" height="20" viewBox="0, 0, 20, 20">
  <g id="Background">
    <rect x="0" y="0" width="20" height="20" fill="#000000" fill-opacity="0"/>
  </g>
  <g id="Layer_1">
    <g>
      <path d="M19.743,9.003 C19.914,9.172 20,9.379 20,9.62 C20,9.863 19.914,10.065 19.743,10.232 L18.874,11.101 L16.824,9.053 L17.695,8.182 C17.865,8.012 18.07,7.927 18.31,7.927 C18.548,7.927 18.754,8.012 18.924,8.182 L19.341,8.585 z M18.155,11.82 L11.819,18.163 L8.761,19.166 L9.765,16.107 L16.107,9.77 z" fill="#5C7999"/>
      <path d="M8.617,0.838 L8.752,0.852 C8.807,0.863 8.935,0.916 9.038,0.964 C9.184,1.034 9.266,1.093 9.387,1.213 C9.542,1.365 9.55,1.372 9.718,1.408 C9.905,1.45 10.177,1.544 10.324,1.619 C10.377,1.645 10.523,1.746 10.651,1.845 C10.778,1.943 10.959,2.079 11.054,2.152 C11.239,2.292 11.548,2.602 11.704,2.811 C11.848,3.002 12.042,3.422 12.157,3.788 C12.304,4.259 12.331,4.41 12.333,4.75 C12.335,4.997 12.324,5.092 12.271,5.337 C12.203,5.655 12.203,5.663 12.315,5.922 L12.352,6.009 L12.296,5.957 L12.238,5.904 L12.238,6.056 C12.238,6.193 12.249,6.224 12.344,6.404 C12.417,6.54 12.463,6.601 12.487,6.599 C12.509,6.597 12.525,6.61 12.525,6.634 C12.525,6.656 12.556,6.7 12.591,6.728 C12.673,6.798 12.675,6.818 12.597,6.801 L12.536,6.787 L12.602,6.842 C12.682,6.907 12.644,6.914 12.525,6.853 C12.421,6.801 12.408,6.831 12.502,6.902 C12.576,6.954 12.587,6.984 12.536,6.984 C12.485,6.984 12.496,7.05 12.56,7.142 C12.638,7.252 12.62,7.267 12.522,7.173 C12.481,7.132 12.441,7.102 12.432,7.109 C12.421,7.114 12.414,7.221 12.414,7.346 C12.414,7.558 12.353,7.92 12.307,7.982 C12.298,7.992 12.247,8.128 12.194,8.279 L12.097,8.555 L12.146,8.746 C12.205,8.98 12.208,9.114 12.15,9.239 C12.093,9.362 12.075,9.347 12.117,9.208 C12.134,9.152 12.15,9.075 12.15,9.039 C12.15,8.939 12.082,8.665 12.062,8.687 C12.051,8.696 12.053,8.75 12.066,8.805 C12.115,9.016 12.044,9.145 11.828,9.243 C11.678,9.309 11.632,9.382 11.685,9.465 C11.707,9.5 11.703,9.508 11.654,9.526 C11.598,9.546 11.597,9.585 11.649,9.651 C11.663,9.671 11.658,9.683 11.636,9.692 C11.601,9.706 11.554,9.811 11.554,9.878 C11.554,9.907 11.57,9.92 11.603,9.92 C11.648,9.92 11.649,9.922 11.617,9.955 C11.598,9.975 11.557,9.992 11.526,9.992 C11.475,9.997 11.467,10.008 11.455,10.1 C11.447,10.159 11.431,10.209 11.42,10.218 C11.392,10.236 11.396,10.321 11.431,10.404 C11.448,10.446 11.468,10.552 11.477,10.639 C11.493,10.803 11.475,10.862 11.407,10.862 C11.38,10.862 11.376,10.841 11.389,10.747 C11.398,10.665 11.396,10.641 11.38,10.665 C11.337,10.728 11.33,10.88 11.356,11.248 C11.451,12.151 11.345,11.66 11.756,12.7 L9.34,15.113 L9.171,15.282 L9.096,15.51 L8.092,18.569 L7.896,19.166 C6.015,19.164 4.133,19.167 2.252,19.162 C2.218,19.162 0.335,19.181 -0,19.133 C0,19.008 0.243,18.493 0.423,18.228 C0.591,17.985 0.895,17.693 1.219,17.467 C1.539,17.242 2.527,16.62 2.785,16.48 C3.023,16.351 3.519,16.118 3.788,16.013 C4.103,15.888 4.379,15.748 4.884,15.452 C5.493,15.097 5.553,15.053 5.662,14.872 C5.687,14.83 5.76,14.745 5.822,14.686 C5.885,14.624 5.969,14.523 6.011,14.462 C6.051,14.398 6.139,14.289 6.205,14.217 C6.395,14.011 6.413,13.862 6.344,12.889 C6.3,12.241 6.3,12.234 6.229,11.886 C6.172,11.605 6.134,11.522 6.04,11.467 C5.949,11.414 5.85,11.285 5.648,10.954 C5.418,10.582 5.29,10.264 5.182,9.796 C5.138,9.612 5.129,9.589 5.061,9.547 C4.856,9.421 4.615,8.996 4.52,8.592 C4.474,8.396 4.276,7.982 4.133,7.787 C4.078,7.707 4.058,7.663 4.068,7.627 C4.075,7.598 4.071,7.576 4.062,7.576 C4.051,7.576 4.062,7.495 4.086,7.394 C4.126,7.23 4.128,7.186 4.106,6.875 C4.093,6.688 4.071,6.481 4.058,6.415 C4.044,6.349 4.027,6.22 4.017,6.127 C4.009,6.033 3.987,5.944 3.969,5.922 C3.938,5.885 3.897,5.732 3.861,5.527 L3.846,5.44 L3.803,5.517 C3.748,5.619 3.74,5.573 3.784,5.416 C3.828,5.253 3.853,4.837 3.819,4.837 C3.806,4.837 3.779,4.863 3.76,4.897 C3.727,4.956 3.727,4.956 3.74,4.903 C3.748,4.872 3.788,4.782 3.828,4.704 C3.91,4.542 3.953,4.32 3.901,4.337 C3.863,4.351 3.817,4.473 3.815,4.574 C3.815,4.64 3.81,4.645 3.791,4.61 C3.758,4.557 3.784,4.336 3.839,4.193 C3.892,4.055 3.89,4.047 3.835,4.112 L3.791,4.165 L3.803,3.959 C3.813,3.845 3.828,3.698 3.837,3.632 C3.857,3.503 3.853,3.487 3.817,3.512 C3.762,3.545 3.723,3.665 3.72,3.818 C3.716,3.994 3.683,4.022 3.683,3.852 C3.683,3.698 3.723,3.541 3.778,3.464 C3.837,3.385 4.011,3.151 4.103,3.03 C4.139,2.982 4.203,2.885 4.245,2.815 C4.328,2.672 4.313,2.66 4.148,2.734 C4.095,2.758 4.047,2.776 4.042,2.769 C4.022,2.752 4.157,2.667 4.243,2.644 C4.291,2.633 4.423,2.578 4.532,2.526 C4.942,2.331 5.006,2.307 5.138,2.307 L5.263,2.309 L5.299,2.094 C5.318,1.976 5.356,1.838 5.383,1.787 C5.438,1.672 5.605,1.42 5.625,1.42 C5.634,1.42 5.625,1.477 5.61,1.544 C5.573,1.702 5.573,1.704 5.61,1.704 C5.628,1.704 5.652,1.676 5.662,1.638 C5.689,1.568 5.755,1.472 5.901,1.297 C6.031,1.143 6.218,1.058 6.395,1.076 C6.465,1.082 6.558,1.104 6.604,1.126 L6.688,1.166 L6.856,1.076 C6.948,1.025 7.096,0.959 7.184,0.929 C7.33,0.878 7.378,0.872 7.669,0.87 C7.848,0.87 8.033,0.861 8.082,0.852 C8.354,0.824 8.176,0.838 8.617,0.838 z" fill="#5C7999"/>
      <path d="M16.332,15.065 C16.87,15.246 17.392,15.464 17.916,15.68 C18.165,15.794 18.353,15.927 18.494,16.101 C18.754,16.418 19.125,16.947 19.231,17.152 C19.345,17.378 20,19.072 20,19.146 C17.134,19.169 14.267,19.165 11.4,19.165 L12.416,18.832 L12.644,18.758 L12.813,18.588 L16.332,15.065 z" fill="#5C7999"/>
    </g>
  </g>
</svg>
