<?xml version="1.0" encoding="UTF-8"?>
<!DOCTYPE svg PUBLIC "-//W3C//DTD SVG 1.1//EN" "http://www.w3.org/Graphics/SVG/1.1/DTD/svg11.dtd">
<svg version="1.1" xmlns="http://www.w3.org/2000/svg" xmlns:xlink="http://www.w3.org/1999/xlink" x="0" y="0" width="100" height="50" viewBox="0, 0, 100, 50">
  <g id="Background">
    <rect x="0" y="0" width="100" height="50" fill="#000000" fill-opacity="0"/>
  </g>
  <g id="Layer_1">
    <g>
      <path d="M44.608,-0 C45.694,-0 46.899,0.266 48.211,0.793 C49.53,1.312 50.529,1.958 51.208,2.751 L72.635,26.601 C73.334,27.427 73.7,28.36 73.72,29.399 C73.74,30.444 73.381,31.337 72.635,32.083 L55.864,48.847 C55.118,49.6 54.206,49.979 53.12,49.999 L52.867,49.953 C54.098,48.723 53.452,49.606 54.004,46.875 L54.004,25 C54.004,21.548 51.205,18.75 47.754,18.75 L36.621,18.75 C33.169,18.75 30.371,21.548 30.371,25 L30.371,26.459 L29.016,24.943 C28.277,24.15 27.631,23.131 27.091,21.879 C26.545,20.627 26.279,19.442 26.279,18.336 L26.279,3.863 C26.279,2.824 26.652,1.918 27.391,1.152 C28.13,0.386 29.049,-0 30.135,-0 L44.608,-0 z M36.256,6.287 C35.217,6.287 34.338,6.64 33.618,7.353 C32.912,8.066 32.553,8.945 32.553,9.984 C32.553,11.03 32.912,11.909 33.618,12.635 C34.338,13.354 35.217,13.714 36.256,13.714 C37.295,13.714 38.181,13.354 38.9,12.635 C39.626,11.909 39.986,11.03 39.986,9.984 C39.986,8.945 39.626,8.066 38.9,7.353 C38.181,6.64 37.295,6.287 36.256,6.287 z" fill="#DDDDDD"/>
      <path d="M36.621,21.875 L47.754,21.875 C49.48,21.875 50.879,23.274 50.879,25 L50.879,46.875 C50.879,48.601 49.48,50 47.754,50 L36.621,50 C34.895,50 33.496,48.601 33.496,46.875 L33.496,25 C33.496,23.274 34.895,21.875 36.621,21.875 z" fill="#DDDDDD"/>
    </g>
  </g>
</svg>
