<?xml version="1.0" encoding="UTF-8"?>
<!DOCTYPE svg PUBLIC "-//W3C//DTD SVG 1.1//EN" "http://www.w3.org/Graphics/SVG/1.1/DTD/svg11.dtd">
<svg version="1.1" xmlns="http://www.w3.org/2000/svg" xmlns:xlink="http://www.w3.org/1999/xlink" x="0" y="0" width="18" height="18" viewBox="0, 0, 18, 18">
  <g id="Layer_2" display="none">
    <path d="M11.434,6.653 C14.075,6.653 16.216,8.794 16.216,11.435 C16.099,12.759 16.239,12.018 15.646,13.622 L15.732,13.677 L18.22,15.794 L18.238,15.809 C18.991,16.486 19.057,17.635 18.346,18.347 C17.635,19.058 16.486,18.992 15.793,18.221 L13.692,15.751 L13.625,15.646 C12.018,16.24 12.759,16.099 11.434,16.217 C8.793,16.217 6.652,14.076 6.652,11.435 C6.652,8.794 8.793,6.653 11.434,6.653 z" fill="#FF0000"/>
  </g>
  <g id="Layer_3">
    <path d="M6.742,14.667 C5.644,14.666 3.423,14.666 2.353,14.664 C1.789,14.663 1.226,14.663 0.662,14.659 C0.083,14.655 0.25,14.676 0,14.641 C0,14.541 0.194,14.129 0.339,13.917 C0.473,13.722 0.716,13.489 0.975,13.308 C1.231,13.128 2.021,12.63 2.228,12.518 C2.419,12.415 2.815,12.229 3.031,12.145 C3.283,12.045 3.503,11.933 3.907,11.696 C4.394,11.412 4.442,11.377 4.53,11.231 C4.549,11.198 4.608,11.13 4.657,11.083 C4.708,11.033 4.775,10.953 4.809,10.903 C4.841,10.853 4.911,10.765 4.964,10.707 C5.116,10.543 5.13,10.423 5.075,9.645 C5.04,9.127 5.04,9.121 4.983,8.843 C4.937,8.618 4.907,8.551 4.832,8.507 C4.759,8.465 4.68,8.362 4.518,8.097 C4.334,7.799 4.232,7.545 4.145,7.171 C4.11,7.023 4.103,7.005 4.049,6.972 C3.885,6.871 3.692,6.531 3.616,6.208 C3.579,6.051 3.421,5.719 3.306,5.563 C3.262,5.5 3.246,5.465 3.255,5.435 C3.26,5.413 3.257,5.395 3.249,5.395 C3.241,5.395 3.249,5.33 3.269,5.249 C3.301,5.118 3.302,5.083 3.285,4.834 C3.274,4.685 3.257,4.519 3.246,4.466 C3.235,4.413 3.221,4.31 3.214,4.236 C3.207,4.161 3.189,4.089 3.175,4.071 C3.151,4.042 3.117,3.919 3.089,3.756 L3.077,3.686 L3.043,3.747 C2.999,3.829 2.992,3.793 3.027,3.667 C3.063,3.537 3.082,3.204 3.055,3.204 C3.045,3.204 3.023,3.225 3.008,3.251 C2.981,3.299 2.981,3.299 2.992,3.257 C2.999,3.232 3.031,3.16 3.063,3.097 C3.128,2.967 3.163,2.79 3.121,2.804 C3.091,2.815 3.053,2.913 3.052,2.993 C3.052,3.046 3.048,3.05 3.033,3.022 C3.006,2.979 3.027,2.803 3.071,2.689 C3.113,2.578 3.112,2.571 3.068,2.624 L3.033,2.666 L3.043,2.501 C3.05,2.41 3.063,2.293 3.069,2.24 C3.085,2.137 3.082,2.124 3.053,2.143 C3.009,2.17 2.978,2.266 2.976,2.389 C2.973,2.529 2.946,2.552 2.946,2.415 C2.946,2.293 2.978,2.167 3.022,2.105 C3.069,2.042 3.209,1.855 3.283,1.758 C3.311,1.719 3.362,1.642 3.396,1.586 C3.463,1.472 3.451,1.462 3.318,1.521 C3.276,1.541 3.237,1.555 3.233,1.549 C3.217,1.535 3.325,1.467 3.394,1.449 C3.433,1.441 3.539,1.397 3.625,1.355 C3.953,1.199 4.005,1.179 4.11,1.179 L4.211,1.181 L4.239,1.009 C4.255,0.915 4.285,0.805 4.306,0.764 C4.35,0.671 4.484,0.47 4.5,0.47 C4.507,0.47 4.5,0.515 4.488,0.569 C4.458,0.696 4.458,0.697 4.488,0.697 C4.502,0.697 4.521,0.675 4.53,0.645 C4.551,0.589 4.604,0.512 4.721,0.371 C4.825,0.249 4.975,0.181 5.116,0.195 C5.172,0.2 5.246,0.217 5.283,0.235 L5.351,0.267 L5.485,0.195 C5.559,0.154 5.677,0.101 5.747,0.077 C5.864,0.037 5.903,0.031 6.135,0.03 C6.278,0.03 6.427,0.023 6.465,0.016 C6.567,-0.005 6.91,-0.005 7.001,0.016 C7.045,0.025 7.148,0.067 7.231,0.105 C7.347,0.161 7.413,0.209 7.509,0.305 C7.633,0.426 7.64,0.431 7.774,0.461 C7.924,0.494 8.141,0.569 8.259,0.629 C8.301,0.65 8.418,0.731 8.521,0.81 C8.623,0.889 8.767,0.997 8.843,1.055 C8.991,1.167 9.239,1.416 9.363,1.583 C9.478,1.735 9.633,2.072 9.725,2.365 C9.843,2.741 9.865,2.862 9.867,3.134 C9.868,3.332 9.859,3.407 9.817,3.603 C9.762,3.858 9.762,3.865 9.852,4.071 L9.882,4.141 L9.837,4.099 L9.791,4.057 L9.791,4.179 C9.791,4.289 9.799,4.313 9.875,4.457 C9.933,4.566 9.971,4.615 9.99,4.613 C10.007,4.611 10.02,4.622 10.02,4.641 C10.02,4.659 10.045,4.694 10.073,4.717 C10.138,4.773 10.14,4.789 10.078,4.775 L10.029,4.764 L10.081,4.808 C10.145,4.86 10.115,4.865 10.02,4.817 C9.937,4.775 9.927,4.799 10.002,4.855 C10.061,4.897 10.069,4.921 10.029,4.921 C9.988,4.921 9.997,4.974 10.048,5.048 C10.11,5.135 10.096,5.148 10.018,5.073 C9.985,5.039 9.953,5.016 9.946,5.021 C9.937,5.025 9.931,5.111 9.931,5.211 C9.931,5.381 9.882,5.67 9.845,5.719 C9.838,5.728 9.797,5.837 9.755,5.957 L9.677,6.178 L9.717,6.331 C9.764,6.518 9.766,6.625 9.72,6.725 C9.674,6.823 9.66,6.811 9.693,6.701 C9.707,6.655 9.72,6.594 9.72,6.565 C9.72,6.485 9.665,6.266 9.649,6.283 C9.641,6.291 9.643,6.334 9.653,6.378 C9.692,6.547 9.635,6.65 9.463,6.729 C9.343,6.781 9.305,6.839 9.348,6.906 C9.365,6.934 9.362,6.941 9.323,6.955 C9.279,6.971 9.277,7.002 9.319,7.055 C9.33,7.071 9.327,7.081 9.309,7.088 C9.281,7.099 9.243,7.183 9.243,7.237 C9.247,7.245 9.25,7.254 9.253,7.262 C9.253,7.262 9.253,7.262 9.253,7.262 C7.499,7.92 6.824,9.73 6.652,11.435 C6.675,12.785 7.079,13.719 8.026,14.667 L6.742,14.667 z" fill="#6C89A6"/>
  </g>
  <g id="Layer_4">
    <path d="M17.674,16.435 L15.186,14.318 C14.929,14.087 14.654,13.98 14.432,13.99 C15.019,13.302 15.374,12.41 15.374,11.434 C15.374,9.259 13.61,7.495 11.434,7.495 C9.259,7.495 7.495,9.259 7.495,11.434 C7.495,13.61 9.259,15.374 11.434,15.374 C12.41,15.374 13.303,15.019 13.991,14.432 C13.98,14.654 14.087,14.929 14.318,15.186 L16.435,17.674 C16.797,18.077 17.389,18.111 17.75,17.75 C18.111,17.389 18.077,16.797 17.674,16.435 z M11.434,14.061 C9.984,14.061 8.808,12.885 8.808,11.434 C8.808,9.983 9.984,8.808 11.434,8.808 C12.885,8.808 14.061,9.983 14.061,11.434 C14.061,12.885 12.885,14.061 11.434,14.061 z" fill="#6C89A6"/>
  </g>
</svg>
