<?xml version="1.0" encoding="UTF-8"?>
<!DOCTYPE svg PUBLIC "-//W3C//DTD SVG 1.1//EN" "http://www.w3.org/Graphics/SVG/1.1/DTD/svg11.dtd">
<svg version="1.1" xmlns="http://www.w3.org/2000/svg" xmlns:xlink="http://www.w3.org/1999/xlink" x="0" y="0" width="22" height="22" viewBox="0, 0, 22, 22">
  <g id="Background">
    <rect x="0" y="0" width="22" height="22" fill="#000000" fill-opacity="0"/>
  </g>
  <g id="Background"/>
  <g id="Layer_1">
    <g>
      <path d="M9.386,15.84 L12.612,15.84 L12.609,12.616 L15.84,12.616 L15.84,9.384 L12.609,9.384 L12.612,6.16 L9.386,6.16 L9.389,9.384 L6.16,9.384 L6.16,12.616 L9.389,12.616 z" fill="#FFFFFF"/>
      <path d="M11,-0 C17.075,-0 22,4.925 22,11 C22,17.075 17.075,22 11,22 C4.925,22 -0,17.075 -0,11 C-0,4.925 4.925,-0 11,-0 z M11,1.32 C5.654,1.32 1.32,5.654 1.32,11 C1.32,16.346 5.654,20.68 11,20.68 C16.346,20.68 20.68,16.346 20.68,11 C20.68,5.654 16.346,1.32 11,1.32 z" fill="#FFFFFF"/>
    </g>
  </g>
</svg>
