<?xml version="1.0" encoding="UTF-8"?>
<!DOCTYPE svg PUBLIC "-//W3C//DTD SVG 1.1//EN" "http://www.w3.org/Graphics/SVG/1.1/DTD/svg11.dtd">
<svg version="1.1" xmlns="http://www.w3.org/2000/svg" xmlns:xlink="http://www.w3.org/1999/xlink" x="0" y="0" width="24" height="32" viewBox="0, 0, 24, 32">
  <g id="Background">
    <rect x="0" y="0" width="24" height="32" fill="#000000" fill-opacity="0"/>
  </g>
  <g id="Layer_1">
    <path d="M11.977,17.499 C11.708,17.499 11.417,17.422 11.104,17.27 C10.791,17.118 10.487,16.936 10.188,16.723 C9.886,16.511 9.595,16.288 9.309,16.052 C9.021,15.818 8.771,15.625 8.553,15.467 C7.501,14.667 6.465,13.879 5.434,13.098 C4.406,12.315 3.359,11.524 2.29,10.716 C2.091,10.558 1.857,10.349 1.594,10.082 C1.327,9.818 1.082,9.525 0.851,9.204 C0.623,8.883 0.427,8.559 0.267,8.227 C0.106,7.898 0.024,7.596 0.024,7.33 C0.024,6.974 0.182,6.664 0.492,6.397 C0.808,6.133 1.14,6 1.496,6 L22.51,6 C22.864,6 23.196,6.133 23.506,6.397 C23.813,6.664 23.968,6.974 23.968,7.33 C23.968,7.596 23.886,7.898 23.726,8.227 C23.565,8.559 23.37,8.883 23.141,9.204 C22.913,9.525 22.662,9.818 22.399,10.082 C22.135,10.349 21.901,10.558 21.702,10.716 C20.636,11.513 19.587,12.304 18.559,13.09 C17.531,13.876 16.489,14.667 15.439,15.467 C15.222,15.625 14.974,15.818 14.691,16.052 C14.408,16.288 14.117,16.511 13.813,16.723 C13.508,16.936 13.201,17.118 12.888,17.27 C12.575,17.422 12.29,17.499 12.029,17.499 L12.002,17.499 z M11.977,20.479 C12.453,20.479 12.91,20.411 13.342,20.275 C13.778,20.145 14.194,19.968 14.593,19.756 C14.993,19.544 15.379,19.299 15.752,19.03 C16.125,18.755 16.489,18.472 16.848,18.187 C17.93,17.322 19.024,16.47 20.128,15.641 C21.229,14.814 22.342,13.982 23.459,13.147 C23.546,13.079 23.636,13.014 23.726,12.946 C23.818,12.883 23.908,12.804 23.992,12.717 L23.992,24.501 C23.992,24.909 23.848,25.26 23.557,25.557 C23.266,25.85 22.918,26 22.51,26 L1.496,26 C1.088,26 0.737,25.85 0.441,25.557 C0.147,25.26 -0,24.909 -0,24.501 L-0,12.717 C0.084,12.804 0.174,12.883 0.267,12.946 C0.356,13.014 0.446,13.079 0.533,13.147 C1.654,13.982 2.763,14.814 3.867,15.641 C4.969,16.47 6.062,17.322 7.147,18.187 C7.484,18.459 7.841,18.728 8.213,19.002 C8.586,19.274 8.975,19.522 9.372,19.742 C9.772,19.962 10.19,20.145 10.628,20.275 C11.069,20.411 11.518,20.479 11.977,20.479" fill="#7F7F7F"/>
  </g>
</svg>
