<?xml version="1.0" encoding="UTF-8"?>
<!DOCTYPE svg PUBLIC "-//W3C//DTD SVG 1.1//EN" "http://www.w3.org/Graphics/SVG/1.1/DTD/svg11.dtd">
<svg version="1.1" xmlns="http://www.w3.org/2000/svg" xmlns:xlink="http://www.w3.org/1999/xlink" x="0" y="0" width="16" height="16" viewBox="0, 0, 16, 16">
  <g id="Background">
    <rect x="0" y="0" width="16" height="16" fill="#000000" fill-opacity="0"/>
  </g>
  <g id="Layer_6">
    <path d="M6.274,0 C6.622,-0 7.008,0.085 7.428,0.254 C7.85,0.42 8.169,0.627 8.387,0.88 L15.243,8.512 C15.467,8.777 15.584,9.075 15.591,9.408 C15.597,9.742 15.482,10.028 15.243,10.267 L9.876,15.631 C9.638,15.872 9.346,15.993 8.998,16 L8.917,15.985 C9.311,15.591 9.105,15.874 9.281,15 L9.281,8 C9.281,6.895 8.386,6 7.281,6 L3.719,6 C2.614,6 1.719,6.895 1.719,8 L1.719,8.467 L1.285,7.982 C1.049,7.728 0.842,7.402 0.669,7.001 C0.494,6.601 0.409,6.221 0.409,5.868 L0.409,1.236 C0.409,0.904 0.529,0.614 0.765,0.369 C1.002,0.124 1.296,-0 1.643,-0 L6.274,0 z M3.602,2.012 C3.269,2.012 2.988,2.125 2.758,2.353 C2.532,2.581 2.417,2.862 2.417,3.195 C2.417,3.529 2.532,3.811 2.758,4.043 C2.988,4.273 3.269,4.388 3.602,4.388 C3.934,4.388 4.218,4.273 4.448,4.043 C4.68,3.811 4.795,3.529 4.795,3.195 C4.795,2.862 4.68,2.581 4.448,2.353 C4.218,2.125 3.934,2.012 3.602,2.012 z" fill="#A7A7A7"/>
    <path d="M3.719,7 L7.281,7 C7.833,7 8.281,7.448 8.281,8 L8.281,15 C8.281,15.552 7.833,16 7.281,16 L3.719,16 C3.167,16 2.719,15.552 2.719,15 L2.719,8 C2.719,7.448 3.167,7 3.719,7 z" fill="#A7A7A7"/>
  </g>
</svg>
