<?xml version="1.0" encoding="UTF-8"?>
<!DOCTYPE svg PUBLIC "-//W3C//DTD SVG 1.1//EN" "http://www.w3.org/Graphics/SVG/1.1/DTD/svg11.dtd">
<svg version="1.1" xmlns="http://www.w3.org/2000/svg" xmlns:xlink="http://www.w3.org/1999/xlink" x="0" y="0" width="16" height="16" viewBox="0, 0, 16, 16">
  <g id="Background">
    <rect x="0" y="0" width="16" height="16" fill="#000000" fill-opacity="0"/>
  </g>
  <g id="Background"/>
  <g id="Layer_1">
    <path d="M8,0 C12.418,0 16,3.582 16,8 C16,12.418 12.418,16 8,16 C3.582,16 0,12.418 0,8 C-0,3.582 3.582,0 8,0 z M8,1 C4.134,1 1,4.134 1,8 C1,11.866 4.134,15 8,15 C11.866,15 15,11.866 15,8 C15,4.134 11.866,1 8,1 z" fill="#6C89A6"/>
    <path d="M7.102,2.229 L7.337,2.243 C7.377,2.251 7.468,2.289 7.542,2.323 C7.645,2.373 7.704,2.415 7.79,2.5 C7.9,2.609 7.906,2.613 8.026,2.64 C8.16,2.669 8.353,2.737 8.458,2.79 C8.496,2.808 8.6,2.88 8.691,2.951 C8.782,3.021 8.911,3.118 8.978,3.169 C9.111,3.269 9.331,3.491 9.442,3.639 C9.544,3.775 9.682,4.075 9.765,4.336 C9.869,4.672 9.889,4.779 9.89,5.021 C9.892,5.198 9.884,5.265 9.846,5.44 C9.797,5.667 9.797,5.672 9.878,5.857 L9.904,5.919 L9.864,5.882 L9.823,5.845 L9.823,5.952 C9.823,6.05 9.831,6.073 9.898,6.2 C9.95,6.297 9.983,6.341 10,6.34 C10.016,6.338 10.027,6.347 10.027,6.364 C10.027,6.38 10.049,6.412 10.074,6.432 C10.132,6.482 10.134,6.496 10.079,6.483 L10.035,6.474 L10.082,6.513 C10.139,6.56 10.112,6.565 10.027,6.521 C9.953,6.483 9.944,6.505 10.011,6.555 C10.064,6.593 10.071,6.614 10.035,6.614 C9.999,6.614 10.007,6.661 10.052,6.727 C10.107,6.805 10.095,6.816 10.025,6.749 C9.996,6.719 9.967,6.698 9.961,6.703 C9.953,6.707 9.948,6.783 9.948,6.872 C9.948,7.023 9.904,7.281 9.872,7.325 C9.865,7.333 9.829,7.43 9.791,7.537 L9.722,7.734 L9.757,7.87 C9.799,8.037 9.801,8.133 9.76,8.222 C9.719,8.309 9.707,8.298 9.736,8.2 C9.748,8.159 9.76,8.105 9.76,8.079 C9.76,8.008 9.711,7.813 9.697,7.828 C9.689,7.834 9.691,7.873 9.7,7.912 C9.735,8.063 9.684,8.155 9.531,8.224 C9.424,8.271 9.39,8.323 9.429,8.383 C9.444,8.407 9.441,8.413 9.406,8.426 C9.367,8.44 9.366,8.468 9.403,8.515 C9.412,8.529 9.409,8.538 9.393,8.545 C9.368,8.554 9.335,8.629 9.335,8.677 C9.335,8.698 9.346,8.707 9.37,8.707 C9.402,8.707 9.403,8.708 9.38,8.732 C9.367,8.746 9.337,8.758 9.315,8.758 C9.279,8.762 9.273,8.77 9.265,8.835 C9.259,8.877 9.247,8.913 9.239,8.92 C9.219,8.932 9.222,8.993 9.247,9.052 C9.26,9.082 9.274,9.157 9.281,9.22 C9.291,9.336 9.279,9.379 9.23,9.379 C9.211,9.379 9.208,9.363 9.217,9.296 C9.224,9.238 9.222,9.221 9.211,9.238 C9.18,9.283 9.175,9.391 9.194,9.654 C9.238,10.322 9.322,10.533 9.73,11.012 C9.867,11.173 9.958,11.249 10.181,11.393 L10.359,11.506 L10.472,11.496 C10.629,11.481 10.7,11.501 10.816,11.592 C10.871,11.635 10.997,11.706 11.095,11.751 C11.195,11.796 11.287,11.846 11.3,11.862 C11.314,11.877 11.354,11.893 11.394,11.896 C11.434,11.901 11.629,11.968 11.827,12.046 C12.027,12.124 12.311,12.227 12.46,12.276 C12.718,12.358 13.652,12.715 13.87,12.813 L14,12.887 C11.835,15.053 12.989,14.348 10.734,15.297 C9.225,15.298 10.061,15.297 8.227,15.298 C6.645,15.298 7.48,15.298 5.722,15.297 C3.702,14.447 4.62,15.053 3,13.433 L3.084,13.383 C3.254,13.291 3.607,13.125 3.799,13.05 C4.024,12.961 4.221,12.862 4.58,12.65 C5.014,12.398 5.057,12.366 5.135,12.236 C5.153,12.207 5.205,12.147 5.249,12.104 C5.294,12.06 5.354,11.988 5.384,11.944 C5.412,11.899 5.475,11.821 5.522,11.77 C5.657,11.623 5.67,11.517 5.621,10.823 C5.59,10.361 5.59,10.357 5.539,10.108 C5.498,9.908 5.471,9.848 5.404,9.81 C5.34,9.772 5.269,9.68 5.125,9.444 C4.961,9.178 4.87,8.952 4.792,8.618 C4.761,8.487 4.755,8.471 4.706,8.441 C4.561,8.351 4.389,8.048 4.321,7.76 C4.288,7.621 4.147,7.325 4.044,7.186 C4.006,7.13 3.991,7.098 3.999,7.072 C4.004,7.052 4.001,7.036 3.994,7.036 C3.986,7.036 3.994,6.979 4.012,6.907 C4.04,6.789 4.041,6.758 4.026,6.536 C4.016,6.403 4.001,6.255 3.991,6.209 C3.981,6.161 3.969,6.069 3.963,6.004 C3.957,5.936 3.941,5.873 3.928,5.857 C3.906,5.831 3.877,5.721 3.851,5.576 L3.841,5.513 L3.81,5.568 C3.771,5.641 3.765,5.608 3.796,5.496 C3.828,5.38 3.845,5.084 3.821,5.084 C3.812,5.084 3.793,5.102 3.779,5.126 C3.756,5.168 3.756,5.168 3.765,5.131 C3.771,5.109 3.799,5.045 3.828,4.989 C3.886,4.873 3.917,4.715 3.879,4.728 C3.853,4.737 3.82,4.824 3.819,4.896 C3.819,4.943 3.815,4.947 3.801,4.922 C3.777,4.884 3.796,4.726 3.836,4.624 C3.873,4.526 3.872,4.52 3.833,4.567 L3.801,4.605 L3.81,4.458 C3.816,4.377 3.828,4.272 3.834,4.225 C3.848,4.133 3.845,4.122 3.82,4.139 C3.78,4.163 3.752,4.248 3.751,4.357 C3.748,4.482 3.724,4.503 3.724,4.381 C3.724,4.272 3.752,4.16 3.792,4.105 C3.834,4.049 3.958,3.882 4.024,3.795 C4.049,3.761 4.094,3.692 4.125,3.642 C4.184,3.54 4.173,3.532 4.055,3.585 C4.018,3.602 3.984,3.614 3.98,3.61 C3.966,3.597 4.062,3.537 4.123,3.52 C4.157,3.512 4.252,3.474 4.329,3.436 C4.621,3.297 4.667,3.28 4.761,3.28 L4.851,3.282 L4.876,3.128 C4.89,3.044 4.917,2.946 4.936,2.91 C4.975,2.827 5.095,2.648 5.108,2.648 C5.115,2.648 5.108,2.688 5.098,2.737 C5.071,2.849 5.071,2.85 5.098,2.85 C5.11,2.85 5.127,2.83 5.135,2.803 C5.154,2.754 5.202,2.685 5.305,2.56 C5.398,2.45 5.532,2.39 5.657,2.403 C5.708,2.407 5.773,2.422 5.806,2.438 L5.867,2.467 L5.986,2.403 C6.052,2.366 6.157,2.319 6.22,2.298 C6.324,2.262 6.358,2.257 6.566,2.256 C6.693,2.256 6.825,2.249 6.86,2.243 L7.102,2.229 z" fill="#6C89A6"/>
  </g>
</svg>
