<?xml version="1.0" encoding="UTF-8"?>
<!DOCTYPE svg PUBLIC "-//W3C//DTD SVG 1.1//EN" "http://www.w3.org/Graphics/SVG/1.1/DTD/svg11.dtd">
<svg version="1.1" xmlns="http://www.w3.org/2000/svg" xmlns:xlink="http://www.w3.org/1999/xlink" x="0" y="0" width="20" height="20" viewBox="0, 0, 20, 20">
  <g id="Layer_1">
    <g>
      <path d="M8.421,10.526 L5.611,10.526 C5.634,11.551 6.26,12.373 6.842,13.158 C7.999,14.234 8.68,14.384 10.174,14.384 L12.693,16.904 C9.916,18.101 6.898,17.216 4.737,15.263 C3.358,13.689 2.81,12.601 2.691,10.526 L0,10.526 L4.21,6.316 L8.421,10.526 z" fill="#5C7A99"/>
      <path d="M20,9.474 L15.79,13.684 L11.579,9.474 L14.389,9.474 C14.366,8.449 13.74,7.627 13.158,6.842 C12.001,5.766 11.32,5.616 9.826,5.616 L7.307,3.096 C10.084,1.899 13.102,2.784 15.263,4.737 L15.774,5.302 C16.736,6.518 17.193,7.951 17.318,9.474 L20,9.474 z" fill="#5C7A99"/>
    </g>
  </g>
</svg>
