<?xml version="1.0" encoding="UTF-8"?>
<!DOCTYPE svg PUBLIC "-//W3C//DTD SVG 1.1//EN" "http://www.w3.org/Graphics/SVG/1.1/DTD/svg11.dtd">
<svg version="1.1" xmlns="http://www.w3.org/2000/svg" xmlns:xlink="http://www.w3.org/1999/xlink" x="0" y="0" width="22" height="22" viewBox="0, 0, 22, 22">
  <g id="Background">
    <rect x="0" y="0" width="22" height="22" fill="#000000" fill-opacity="0"/>
  </g>
  <g id="Background"/>
  <g id="Layer_1">
    <path d="M21.653,10.237 C21.879,10.455 21.993,10.712 22,11.027 C22.004,11.333 21.892,11.585 21.653,11.775 L11.357,21.679 C11.132,21.891 10.868,22 10.553,22 C10.432,22 10.296,21.978 10.144,21.93 C9.662,21.739 9.416,21.398 9.416,20.912 L9.416,15.698 L1.45,15.698 C1.038,15.698 0.697,15.563 0.416,15.299 C0.139,15.026 0,14.692 0,14.3 L0,7.713 C0,7.32 0.139,6.996 0.416,6.734 C0.697,6.479 1.038,6.352 1.45,6.352 L9.416,6.352 L9.416,1.107 C9.416,0.618 9.662,0.278 10.144,0.082 C10.63,-0.085 11.035,0.005 11.357,0.337 z" fill="#FFFFFF"/>
  </g>
</svg>
