<?xml version="1.0" encoding="UTF-8"?>
<!DOCTYPE svg PUBLIC "-//W3C//DTD SVG 1.1//EN" "http://www.w3.org/Graphics/SVG/1.1/DTD/svg11.dtd">
<svg version="1.1" xmlns="http://www.w3.org/2000/svg" xmlns:xlink="http://www.w3.org/1999/xlink" x="0" y="0" width="24" height="32" viewBox="0, 0, 24, 32">
  <g id="Layer_1">
    <g>
      <path d="M9.753,20.133 C8.925,21.568 9.483,22.749 10.631,23.412 C11.779,24.075 13.082,23.968 13.91,22.533 C14.738,21.099 19.966,8.294 19.511,8.031 C19.056,7.769 10.581,18.699 9.753,20.133" fill="#7F7F7F"/>
      <path d="M12,8.613 C13.371,8.627 14.763,8.813 16.034,9.349 C15.169,10.374 14.351,11.408 13.518,12.453 C11.845,14.579 10.173,16.71 8.624,18.93 L8.367,19.333 C7.703,20.539 7.553,21.852 8.167,23.125 C8.326,23.454 8.63,23.691 8.862,23.973 L0.497,23.973 C-0.02,21.439 0.099,22.565 -0,20.613 C0,13.986 5.373,8.613 12,8.613 L12,8.613 z" fill="#7F7F7F"/>
      <path d="M20.074,11.794 C22.678,14.081 23.829,17.222 24,20.613 C23.901,22.565 24.02,21.439 23.503,23.973 L14.847,23.973 L15.295,23.333 C15.76,22.529 17.266,18.997 18.679,15.433 C19.504,13.331 19.035,14.542 20.074,11.794 z" fill="#7F7F7F"/>
    </g>
  </g>
</svg>
