<?xml version="1.0" encoding="UTF-8"?>
<!DOCTYPE svg PUBLIC "-//W3C//DTD SVG 1.1//EN" "http://www.w3.org/Graphics/SVG/1.1/DTD/svg11.dtd">
<svg version="1.1" xmlns="http://www.w3.org/2000/svg" xmlns:xlink="http://www.w3.org/1999/xlink" x="0" y="0" width="22" height="22" viewBox="0, 0, 22, 22">
  <g id="Background">
    <rect x="0" y="0" width="22" height="22" fill="#000000" fill-opacity="0"/>
  </g>
  <g id="Layer_2">
    <path d="M9.478,1.839 L9.627,1.856 C9.687,1.868 9.829,1.925 9.942,1.978 C10.102,2.055 10.192,2.12 10.325,2.252 C10.496,2.42 10.505,2.427 10.689,2.467 C10.895,2.513 11.195,2.617 11.356,2.699 C11.414,2.728 11.575,2.838 11.716,2.947 C11.856,3.056 12.055,3.205 12.16,3.285 C12.363,3.439 12.703,3.781 12.874,4.01 C13.032,4.22 13.246,4.683 13.373,5.085 C13.534,5.603 13.564,5.769 13.567,6.143 C13.569,6.415 13.556,6.519 13.498,6.788 C13.423,7.138 13.423,7.148 13.547,7.432 L13.588,7.528 L13.526,7.47 L13.462,7.412 L13.462,7.579 C13.462,7.73 13.474,7.765 13.578,7.962 C13.659,8.112 13.709,8.179 13.736,8.177 C13.76,8.174 13.777,8.189 13.777,8.215 C13.777,8.239 13.812,8.288 13.85,8.319 C13.94,8.396 13.943,8.418 13.857,8.399 L13.79,8.384 L13.862,8.444 C13.95,8.516 13.908,8.523 13.777,8.456 C13.663,8.399 13.649,8.432 13.753,8.51 C13.834,8.567 13.845,8.601 13.79,8.601 C13.733,8.601 13.746,8.673 13.816,8.774 C13.901,8.895 13.882,8.912 13.775,8.808 C13.729,8.763 13.685,8.731 13.676,8.738 C13.663,8.743 13.656,8.861 13.656,8.998 C13.656,9.232 13.588,9.63 13.537,9.698 C13.527,9.71 13.471,9.859 13.414,10.025 L13.307,10.328 L13.36,10.538 C13.425,10.796 13.428,10.943 13.365,11.081 C13.302,11.216 13.283,11.199 13.328,11.047 C13.348,10.985 13.365,10.9 13.365,10.861 C13.365,10.751 13.29,10.45 13.268,10.473 C13.256,10.483 13.259,10.543 13.272,10.603 C13.327,10.835 13.248,10.978 13.011,11.085 C12.846,11.158 12.795,11.238 12.853,11.329 C12.877,11.368 12.873,11.377 12.82,11.396 C12.758,11.418 12.757,11.462 12.814,11.534 C12.829,11.556 12.824,11.57 12.8,11.58 C12.761,11.594 12.71,11.71 12.71,11.784 C12.71,11.816 12.727,11.83 12.764,11.83 C12.812,11.83 12.814,11.833 12.778,11.868 C12.758,11.89 12.713,11.91 12.678,11.91 C12.623,11.914 12.613,11.927 12.601,12.028 C12.591,12.093 12.574,12.148 12.562,12.158 C12.531,12.177 12.536,12.271 12.574,12.362 C12.593,12.408 12.615,12.525 12.625,12.621 C12.642,12.802 12.623,12.867 12.547,12.866 C12.518,12.867 12.514,12.843 12.528,12.739 C12.538,12.65 12.536,12.623 12.518,12.649 C12.47,12.719 12.463,12.886 12.491,13.291 C12.58,14.137 12.48,13.744 12.769,14.476 L11.762,15.523 C11.51,15.768 11.435,16.12 11.557,16.474 C11.713,16.86 12.016,17.076 12.402,17.076 L13.81,17.076 L13.81,19.473 C13.81,19.744 13.9,19.989 14.078,20.185 C14.276,20.394 14.526,20.5 14.804,20.5 L17.2,20.5 C17.476,20.5 17.726,20.396 17.919,20.2 C18.112,19.995 18.209,19.748 18.208,19.473 L18.208,17.581 C19.425,18.045 18.928,17.845 19.708,18.166 C19.981,18.291 20.188,18.438 20.344,18.629 C20.63,18.978 21.037,19.559 21.154,19.786 C21.279,20.034 22,21.897 22,21.978 C22,21.99 17.401,22 11,22 C1.251,22 0,21.996 0,21.964 C0,21.827 0.267,21.26 0.466,20.969 C0.65,20.702 0.985,20.38 1.341,20.132 C1.693,19.885 2.779,19.2 3.063,19.046 C3.325,18.904 3.871,18.648 4.167,18.532 C4.514,18.395 4.817,18.241 5.372,17.916 C6.042,17.525 6.108,17.476 6.229,17.277 C6.255,17.231 6.336,17.138 6.404,17.072 C6.473,17.005 6.566,16.894 6.612,16.826 C6.656,16.756 6.753,16.636 6.825,16.556 C7.035,16.33 7.054,16.166 6.978,15.096 C6.93,14.383 6.93,14.375 6.852,13.992 C6.789,13.684 6.748,13.592 6.644,13.531 C6.544,13.473 6.435,13.332 6.212,12.967 C5.959,12.558 5.819,12.209 5.7,11.693 C5.651,11.491 5.642,11.466 5.567,11.42 C5.342,11.281 5.077,10.813 4.972,10.37 C4.922,10.153 4.704,9.698 4.546,9.483 C4.485,9.396 4.463,9.348 4.475,9.307 C4.483,9.276 4.478,9.251 4.468,9.251 C4.456,9.251 4.468,9.162 4.494,9.051 C4.538,8.871 4.54,8.822 4.516,8.48 C4.502,8.275 4.478,8.047 4.463,7.974 C4.448,7.902 4.429,7.76 4.419,7.658 C4.41,7.554 4.385,7.457 4.366,7.432 C4.332,7.392 4.286,7.223 4.247,6.998 L4.23,6.902 L4.183,6.986 C4.123,7.099 4.114,7.048 4.162,6.875 C4.211,6.696 4.238,6.239 4.201,6.239 C4.186,6.239 4.157,6.268 4.136,6.304 C4.099,6.369 4.099,6.369 4.114,6.311 C4.123,6.278 4.167,6.179 4.211,6.092 C4.301,5.914 4.349,5.67 4.291,5.689 C4.25,5.704 4.199,5.838 4.197,5.949 C4.197,6.022 4.191,6.028 4.17,5.989 C4.133,5.93 4.162,5.687 4.223,5.53 C4.281,5.378 4.279,5.369 4.219,5.442 L4.17,5.499 L4.183,5.273 C4.194,5.148 4.211,4.986 4.22,4.914 C4.242,4.772 4.238,4.754 4.199,4.781 C4.138,4.818 4.095,4.95 4.092,5.118 C4.088,5.311 4.051,5.343 4.051,5.155 C4.051,4.986 4.095,4.813 4.155,4.728 C4.22,4.642 4.412,4.384 4.514,4.251 C4.553,4.198 4.623,4.092 4.669,4.014 C4.761,3.858 4.745,3.844 4.562,3.925 C4.505,3.952 4.451,3.971 4.446,3.964 C4.424,3.945 4.572,3.851 4.667,3.826 C4.72,3.814 4.866,3.754 4.985,3.696 C5.436,3.482 5.506,3.455 5.651,3.455 L5.789,3.458 L5.829,3.221 C5.85,3.091 5.892,2.94 5.921,2.884 C5.981,2.757 6.165,2.48 6.187,2.48 C6.198,2.48 6.187,2.542 6.171,2.616 C6.13,2.791 6.13,2.793 6.171,2.792 C6.19,2.793 6.217,2.761 6.229,2.72 C6.258,2.643 6.331,2.538 6.491,2.344 C6.634,2.176 6.84,2.082 7.035,2.101 C7.111,2.109 7.213,2.133 7.264,2.156 L7.357,2.2 L7.542,2.101 C7.643,2.046 7.806,1.973 7.902,1.94 C8.063,1.884 8.116,1.877 8.436,1.875 C8.632,1.875 8.837,1.865 8.89,1.856 C9.19,1.824 8.994,1.839 9.478,1.839 z" fill="#CFDAE4"/>
    <g>
      <path d="M15.723,12.126 C15.802,12.044 15.895,12.003 16.01,12 C16.121,11.999 16.213,12.039 16.282,12.126 L19.883,15.87 C19.961,15.952 20,16.048 20,16.163 C20,16.207 19.992,16.256 19.975,16.311 C19.905,16.487 19.781,16.576 19.605,16.576 L17.709,16.576 L17.709,19.473 C17.709,19.623 17.659,19.747 17.563,19.849 C17.464,19.95 17.343,20 17.2,20 L14.805,20 C14.662,20 14.544,19.95 14.449,19.849 C14.356,19.747 14.31,19.623 14.31,19.473 L14.31,16.576 L12.402,16.576 C12.224,16.576 12.101,16.487 12.03,16.311 C11.969,16.135 12.002,15.987 12.122,15.87 z" fill="#CFDAE4"/>
    </g>
  </g>
  <g id="Layer_2">
    <text transform="matrix(1, 0, 0, 1, 11, 11)">
      <tspan x="-8.186" y="1" font-family="HelveticaNeue-Light" font-size="4" fill="#294A6C">(disabled)</tspan>
    </text>
  </g>
</svg>
