<?xml version="1.0" encoding="UTF-8"?>
<!DOCTYPE svg PUBLIC "-//W3C//DTD SVG 1.1//EN" "http://www.w3.org/Graphics/SVG/1.1/DTD/svg11.dtd">
<svg version="1.1" xmlns="http://www.w3.org/2000/svg" xmlns:xlink="http://www.w3.org/1999/xlink" x="0" y="0" width="47" height="56" viewBox="0, 0, 47, 56">
  <g id="Layer_1">
    <path d="M31.699,48.893 C31.699,49.273 31.834,49.587 32.095,49.841 C32.356,50.087 32.692,50.214 33.095,50.214 L34.491,50.214 C34.872,50.214 35.201,50.087 35.469,49.856 C35.746,49.617 35.887,49.296 35.887,48.893 L35.887,26.951 C35.887,26.57 35.746,26.234 35.469,25.966 C35.201,25.689 34.872,25.548 34.491,25.548 L33.095,25.548 C32.715,25.548 32.386,25.689 32.117,25.966 C31.841,26.234 31.699,26.57 31.699,26.951 z M25.406,26.951 C25.406,26.57 25.279,26.234 25.003,25.966 C24.719,25.689 24.39,25.548 24.017,25.548 L22.621,25.548 C22.24,25.548 21.919,25.689 21.673,25.966 C21.426,26.234 21.3,26.57 21.3,26.951 L21.3,48.893 C21.3,49.273 21.419,49.587 21.658,49.841 C21.897,50.087 22.21,50.214 22.621,50.214 L24.017,50.214 C24.39,50.214 24.719,50.087 25.003,49.856 C25.279,49.617 25.406,49.296 25.406,48.893 z M18.157,8.145 C21.591,8.093 25.047,8.093 28.556,8.145 C28.556,7.861 28.579,7.585 28.631,7.309 C28.676,7.033 28.676,6.771 28.631,6.532 L28.631,6.002 C27.795,5.763 26.906,5.629 25.981,5.607 C25.047,5.584 24.166,5.569 23.338,5.569 C22.457,5.569 21.561,5.584 20.643,5.607 C19.724,5.629 18.843,5.763 18.015,6.002 L18.015,6.532 C18.015,6.771 18.022,7.04 18.052,7.324 C18.074,7.615 18.112,7.884 18.157,8.145 M14.939,26.951 C14.939,26.57 14.797,26.234 14.528,25.966 C14.252,25.689 13.923,25.548 13.543,25.548 L12.154,25.548 C11.766,25.548 11.452,25.689 11.206,25.966 C10.952,26.234 10.825,26.57 10.825,26.951 L10.825,48.893 C10.825,49.273 10.952,49.587 11.206,49.841 C11.452,50.087 11.766,50.214 12.154,50.214 L13.543,50.214 C13.923,50.214 14.252,50.087 14.528,49.856 C14.797,49.617 14.939,49.296 14.939,48.893 z M23.338,21.509 C26.414,21.464 29.482,21.389 32.558,21.3 C35.626,21.203 38.702,20.971 41.785,20.583 L41.785,50.498 C41.785,51.998 41.255,53.297 40.21,54.372 C39.157,55.462 37.881,56 36.38,56 L10.258,56 C8.757,56 7.466,55.47 6.376,54.387 C5.293,53.327 4.756,52.028 4.756,50.498 L4.756,20.583 C7.682,20.971 10.594,21.217 13.476,21.337 C16.357,21.449 19.261,21.509 22.195,21.509 z M46.638,12.759 L46.638,15.223 C45.757,15.7 44.294,16.081 42.241,16.387 C40.195,16.686 37.985,16.91 35.611,17.059 C33.245,17.223 30.938,17.313 28.698,17.328 C26.458,17.35 24.674,17.365 23.338,17.365 C22.024,17.365 20.239,17.35 17.977,17.328 C15.708,17.313 13.393,17.223 11.019,17.059 C8.653,16.91 6.458,16.686 4.435,16.402 C2.404,16.111 0.956,15.723 0.075,15.223 C0.022,14.842 -0,14.431 -0,13.983 L-0,12.759 L-0,11.467 C-0,11.042 0.022,10.609 0.075,10.176 C0.664,9.855 1.516,9.564 2.613,9.34 C3.703,9.116 4.868,8.929 6.107,8.787 C7.346,8.645 8.571,8.541 9.773,8.466 C10.982,8.399 11.915,8.332 12.58,8.287 C12.386,6.338 12.527,4.815 12.99,3.71 C13.461,2.62 14.162,1.799 15.118,1.269 C16.066,0.732 17.238,0.381 18.634,0.224 C20.03,0.075 21.591,0 23.338,0 C24.652,0 25.951,0.03 27.25,0.105 C28.549,0.179 29.706,0.426 30.736,0.829 C31.759,1.254 32.573,1.904 33.185,2.785 C33.79,3.666 34.096,4.912 34.096,6.532 L34.096,7.391 C34.096,7.682 34.066,7.981 34.029,8.287 C34.715,8.332 35.656,8.399 36.843,8.466 C38.038,8.541 39.262,8.645 40.516,8.787 C41.763,8.929 42.95,9.116 44.062,9.34 C45.19,9.564 46.048,9.855 46.638,10.176 z" fill="#7F7F7F"/>
  </g>
</svg>
