<?xml version="1.0" encoding="UTF-8"?>
<!DOCTYPE svg PUBLIC "-//W3C//DTD SVG 1.1//EN" "http://www.w3.org/Graphics/SVG/1.1/DTD/svg11.dtd">
<svg version="1.1" xmlns="http://www.w3.org/2000/svg" xmlns:xlink="http://www.w3.org/1999/xlink" x="0" y="0" width="20" height="20" viewBox="0, 0, 20, 20">
  <g id="Background">
    <rect x="0" y="0" width="20" height="20" fill="#000000" fill-opacity="0"/>
  </g>
  <g id="Layer_1">
    <path d="M8.617,0.005 L8.752,0.02 C8.807,0.031 8.935,0.083 9.038,0.131 C9.184,0.201 9.266,0.26 9.387,0.38 C9.542,0.532 9.55,0.539 9.717,0.575 C9.905,0.617 10.177,0.712 10.324,0.787 C10.376,0.812 10.523,0.913 10.651,1.012 C10.778,1.111 10.959,1.247 11.054,1.319 C11.239,1.459 11.548,1.77 11.704,1.978 C11.848,2.169 12.042,2.59 12.157,2.955 C12.304,3.427 12.331,3.577 12.333,3.917 C12.335,4.165 12.324,4.259 12.271,4.504 C12.203,4.822 12.203,4.831 12.315,5.089 L12.352,5.176 L12.296,5.124 L12.238,5.071 L12.238,5.223 C12.238,5.36 12.249,5.392 12.344,5.571 C12.417,5.707 12.463,5.768 12.488,5.767 C12.509,5.764 12.525,5.777 12.525,5.801 C12.525,5.823 12.556,5.867 12.591,5.895 C12.672,5.966 12.675,5.986 12.597,5.968 L12.536,5.955 L12.602,6.01 C12.682,6.075 12.644,6.081 12.525,6.02 C12.421,5.968 12.408,5.998 12.503,6.069 C12.576,6.121 12.587,6.152 12.536,6.151 C12.485,6.152 12.496,6.217 12.56,6.31 C12.637,6.419 12.62,6.435 12.523,6.34 C12.481,6.299 12.441,6.27 12.432,6.276 C12.421,6.281 12.414,6.388 12.414,6.513 C12.414,6.726 12.352,7.087 12.307,7.149 C12.297,7.16 12.247,7.296 12.194,7.447 L12.097,7.722 L12.146,7.913 C12.205,8.147 12.208,8.281 12.15,8.407 C12.092,8.529 12.075,8.514 12.117,8.375 C12.134,8.319 12.15,8.242 12.15,8.207 C12.15,8.107 12.082,7.832 12.062,7.854 C12.051,7.863 12.053,7.917 12.066,7.972 C12.115,8.183 12.044,8.312 11.828,8.411 C11.678,8.476 11.632,8.549 11.685,8.632 C11.707,8.667 11.703,8.676 11.654,8.693 C11.598,8.713 11.597,8.752 11.649,8.818 C11.663,8.838 11.658,8.851 11.636,8.86 C11.601,8.873 11.554,8.978 11.554,9.046 C11.554,9.075 11.57,9.087 11.604,9.087 C11.648,9.087 11.649,9.09 11.617,9.122 C11.598,9.142 11.557,9.16 11.526,9.16 C11.475,9.164 11.467,9.176 11.455,9.267 C11.447,9.327 11.431,9.376 11.42,9.386 C11.392,9.403 11.396,9.488 11.431,9.571 C11.448,9.613 11.468,9.719 11.477,9.807 C11.473,9.991 11.52,9.945 11.446,10 L11.404,10.024 L11.402,10.025 C11.36,9.986 11.382,10.016 11.389,9.914 C11.398,9.832 11.396,9.808 11.38,9.832 C11.338,10.029 11.34,9.949 11.344,10.069 C11.251,10.139 11.31,10.094 11.169,10.21 C11.006,10.353 10.851,10.499 10.691,10.659 C10.518,10.834 10.377,10.983 10.253,11.124 C9.922,11.507 9.834,11.635 9.834,12.032 L9.834,12.223 L9.904,12.4 L9.937,12.484 L9.995,12.631 L10.096,12.753 C10.157,12.828 10.217,12.904 10.277,12.979 C10.279,12.981 10.28,12.983 10.281,12.984 C9.976,13.039 10.145,13.002 9.779,13.106 C9.284,13.263 8.919,13.52 8.919,14.18 L8.919,15.688 C8.919,16.373 9.286,16.613 9.827,16.771 C10.177,16.856 10.011,16.822 10.324,16.877 C10.243,16.985 10.299,16.91 10.159,17.103 C10.115,17.165 10.077,17.221 10.046,17.27 C10.02,17.313 10.02,17.313 9.987,17.373 C9.943,17.434 9.943,17.434 9.867,17.852 C9.893,18.19 9.85,18.03 9.994,18.333 C7.414,18.331 4.833,18.336 2.252,18.329 C2.227,18.329 0.33,18.348 -0,18.3 C-0,18.176 0.243,17.66 0.423,17.396 C0.591,17.152 0.895,16.86 1.219,16.635 C1.539,16.41 2.527,15.787 2.785,15.647 C3.023,15.518 3.519,15.286 3.788,15.18 C4.104,15.056 4.379,14.916 4.884,14.62 C5.492,14.265 5.552,14.22 5.663,14.039 C5.687,13.997 5.76,13.912 5.822,13.853 C5.885,13.792 5.969,13.691 6.011,13.629 C6.051,13.566 6.139,13.456 6.205,13.384 C6.395,13.178 6.412,13.029 6.344,12.056 C6.3,11.408 6.3,11.401 6.229,11.053 C6.172,10.772 6.134,10.689 6.04,10.634 C5.949,10.581 5.85,10.452 5.648,10.121 C5.417,9.749 5.29,9.432 5.182,8.963 C5.137,8.779 5.129,8.756 5.061,8.715 C4.856,8.588 4.615,8.163 4.52,7.76 C4.474,7.563 4.276,7.149 4.132,6.954 C4.077,6.875 4.057,6.831 4.068,6.794 C4.075,6.766 4.071,6.743 4.062,6.743 C4.051,6.743 4.062,6.662 4.086,6.561 C4.126,6.397 4.128,6.353 4.106,6.042 C4.092,5.856 4.071,5.648 4.057,5.582 C4.044,5.516 4.027,5.387 4.017,5.295 C4.009,5.2 3.987,5.112 3.969,5.089 C3.938,5.052 3.896,4.899 3.861,4.695 L3.846,4.607 L3.803,4.684 C3.748,4.787 3.74,4.74 3.784,4.583 C3.828,4.42 3.852,4.005 3.819,4.005 C3.806,4.005 3.779,4.031 3.76,4.064 C3.727,4.123 3.727,4.123 3.74,4.071 C3.748,4.04 3.788,3.95 3.828,3.871 C3.91,3.709 3.953,3.487 3.901,3.505 C3.864,3.518 3.817,3.64 3.815,3.741 C3.815,3.807 3.81,3.812 3.791,3.777 C3.757,3.724 3.784,3.503 3.839,3.36 C3.892,3.222 3.89,3.214 3.835,3.28 L3.791,3.332 L3.803,3.127 C3.812,3.012 3.828,2.866 3.836,2.8 C3.856,2.671 3.852,2.655 3.817,2.679 C3.762,2.712 3.723,2.832 3.72,2.986 C3.716,3.161 3.683,3.19 3.683,3.019 C3.683,2.866 3.723,2.708 3.777,2.631 C3.836,2.552 4.011,2.318 4.103,2.197 C4.139,2.149 4.203,2.052 4.245,1.982 C4.328,1.84 4.313,1.827 4.148,1.901 C4.095,1.926 4.047,1.943 4.042,1.936 C4.022,1.919 4.156,1.834 4.243,1.811 C4.291,1.8 4.424,1.746 4.531,1.693 C4.942,1.498 5.006,1.474 5.137,1.474 L5.263,1.476 L5.299,1.261 C5.318,1.143 5.356,1.006 5.383,0.955 C5.437,0.839 5.605,0.587 5.625,0.587 C5.634,0.587 5.625,0.644 5.61,0.711 C5.572,0.87 5.572,0.872 5.61,0.871 C5.628,0.872 5.652,0.843 5.663,0.806 C5.689,0.736 5.755,0.64 5.901,0.464 C6.031,0.311 6.218,0.226 6.395,0.243 C6.465,0.25 6.557,0.272 6.604,0.293 L6.688,0.333 L6.856,0.243 C6.948,0.192 7.096,0.127 7.184,0.096 C7.33,0.046 7.378,0.039 7.669,0.037 C7.848,0.037 8.033,0.028 8.082,0.02 C8.354,-0.009 8.176,0.005 8.617,0.005 z" fill="#5C7A99"/>
    <path d="M19.994,18.292 L20,18.313 L19.982,18.314 L19.994,18.292 z" fill="#7F7F7F"/>
    <path d="M14.967,16.461 C15.175,16.461 15.37,16.421 15.554,16.344 C15.739,16.265 15.9,16.158 16.037,16.021 C16.174,15.885 16.281,15.723 16.359,15.54 C16.438,15.354 16.477,15.159 16.477,14.951 C16.477,14.744 16.438,14.546 16.359,14.36 C16.281,14.173 16.174,14.008 16.037,13.872 C15.9,13.735 15.739,13.628 15.554,13.546 C15.37,13.465 15.175,13.423 14.967,13.423 C14.543,13.423 14.182,13.572 13.886,13.868 C13.59,14.164 13.441,14.525 13.441,14.951 C13.441,15.159 13.481,15.354 13.563,15.54 C13.644,15.723 13.753,15.885 13.889,16.021 C14.026,16.158 14.189,16.265 14.376,16.344 C14.564,16.421 14.76,16.461 14.967,16.461 M18.281,13.115 C18.409,13.332 18.518,13.59 18.607,13.886 C18.663,13.896 18.767,13.91 18.917,13.928 C19.068,13.943 19.224,13.968 19.383,14 C19.543,14.029 19.685,14.063 19.811,14.094 C19.937,14.129 20,14.168 20,14.213 L20,15.706 C20,15.76 19.937,15.809 19.811,15.843 C19.685,15.881 19.543,15.911 19.383,15.941 C19.224,15.969 19.066,15.988 18.909,15.999 C18.753,16.011 18.651,16.021 18.607,16.034 C18.528,16.274 18.427,16.519 18.297,16.771 C18.427,16.945 18.549,17.113 18.67,17.279 C18.791,17.442 18.926,17.607 19.077,17.77 L19.094,17.852 C19.094,17.885 19.036,17.969 18.923,18.104 C18.807,18.239 18.674,18.379 18.523,18.528 C18.372,18.677 18.231,18.807 18.101,18.923 C17.968,19.036 17.885,19.094 17.852,19.094 C17.842,19.094 17.784,19.056 17.68,18.98 C17.577,18.905 17.463,18.819 17.337,18.721 C17.211,18.623 17.094,18.534 16.985,18.448 C16.875,18.365 16.804,18.309 16.771,18.28 C16.519,18.409 16.274,18.513 16.032,18.591 C16.032,18.647 16.023,18.751 16.007,18.9 C15.99,19.052 15.969,19.21 15.941,19.375 C15.913,19.541 15.878,19.686 15.836,19.811 C15.794,19.937 15.75,20 15.706,20 L14.213,20 C14.168,20 14.126,19.937 14.084,19.811 C14.042,19.686 14.008,19.541 13.986,19.375 C13.965,19.21 13.943,19.052 13.928,18.905 C13.91,18.756 13.903,18.653 13.903,18.591 C13.651,18.525 13.404,18.42 13.164,18.28 C12.99,18.409 12.819,18.539 12.649,18.67 C12.479,18.803 12.311,18.937 12.149,19.077 L12.065,19.094 C12.044,19.094 11.967,19.036 11.834,18.923 C11.703,18.807 11.566,18.677 11.424,18.528 C11.28,18.379 11.153,18.239 11.039,18.104 C10.923,17.969 10.867,17.885 10.867,17.852 C10.867,17.842 10.902,17.784 10.976,17.68 C11.047,17.579 11.132,17.465 11.223,17.346 C11.316,17.225 11.401,17.109 11.482,17.001 C11.564,16.892 11.615,16.822 11.638,16.787 C11.508,16.549 11.4,16.284 11.31,15.999 C11.254,15.988 11.151,15.974 11,15.956 C10.85,15.941 10.695,15.921 10.534,15.899 C10.375,15.876 10.233,15.846 10.107,15.811 C9.981,15.774 9.919,15.734 9.919,15.688 L9.919,14.18 C9.919,14.136 9.981,14.091 10.107,14.05 C10.233,14.007 10.378,13.975 10.543,13.952 C10.708,13.931 10.867,13.91 11.018,13.894 C11.168,13.877 11.272,13.868 11.328,13.868 C11.394,13.595 11.498,13.35 11.638,13.131 C11.508,12.959 11.382,12.785 11.256,12.615 C11.132,12.446 11,12.277 10.867,12.116 L10.834,12.032 C10.834,11.999 10.89,11.916 11.004,11.785 C11.119,11.654 11.251,11.515 11.398,11.366 C11.547,11.217 11.687,11.086 11.818,10.97 C11.95,10.858 12.032,10.799 12.065,10.799 C12.078,10.799 12.134,10.836 12.237,10.909 C12.34,10.981 12.456,11.067 12.582,11.163 C12.707,11.261 12.827,11.358 12.941,11.45 C13.057,11.542 13.125,11.598 13.146,11.62 C13.388,11.48 13.64,11.379 13.903,11.31 C13.903,11.266 13.91,11.161 13.928,11.002 C13.943,10.839 13.965,10.678 13.986,10.518 C14.008,10.357 14.038,10.214 14.075,10.082 C14.11,9.951 14.157,9.886 14.213,9.886 L15.706,9.886 C15.75,9.886 15.794,9.951 15.836,10.082 C15.878,10.214 15.909,10.357 15.932,10.518 C15.955,10.678 15.974,10.839 15.99,11.002 C16.007,11.161 16.021,11.266 16.032,11.31 C16.284,11.379 16.524,11.477 16.754,11.603 C16.927,11.477 17.102,11.349 17.277,11.224 C17.454,11.097 17.624,10.967 17.786,10.834 L17.852,10.799 C17.875,10.799 17.952,10.86 18.083,10.979 C18.215,11.1 18.353,11.231 18.499,11.375 C18.644,11.517 18.777,11.654 18.896,11.785 C19.017,11.916 19.077,11.999 19.077,12.032 C19.077,12.055 19.04,12.116 18.965,12.221 C18.888,12.325 18.803,12.435 18.712,12.556 C18.619,12.677 18.53,12.791 18.444,12.901 C18.357,13.01 18.302,13.08 18.281,13.115" fill="#5C7A99"/>
  </g>
  <g id="Layer_2"/>
</svg>
