<?xml version="1.0" encoding="UTF-8"?>
<!DOCTYPE svg PUBLIC "-//W3C//DTD SVG 1.1//EN" "http://www.w3.org/Graphics/SVG/1.1/DTD/svg11.dtd">
<svg version="1.1" xmlns="http://www.w3.org/2000/svg" xmlns:xlink="http://www.w3.org/1999/xlink" x="0" y="0" width="24" height="32" viewBox="0, 0, 24, 32">
  <g id="Background">
    <rect x="0" y="0" width="24" height="32" fill="#000000" fill-opacity="0"/>
  </g>
  <g id="Layer_1">
    <path d="M5.054,10.309 C5.56,10.309 6.002,10.12 6.376,9.745 C6.754,9.364 6.943,8.922 6.943,8.42 C6.943,7.893 6.754,7.441 6.376,7.07 C6.002,6.699 5.56,6.514 5.054,6.514 C4.524,6.514 4.079,6.699 3.704,7.07 C3.333,7.441 3.148,7.893 3.148,8.42 C3.148,8.922 3.333,9.364 3.704,9.745 C4.079,10.12 4.524,10.309 5.054,10.309 M23.45,16.833 C23.804,17.231 23.986,17.694 24,18.22 C24.01,18.749 23.824,19.202 23.45,19.579 L14.952,28.04 C14.577,28.418 14.112,28.617 13.555,28.637 C13.002,28.661 12.553,28.462 12.209,28.04 L1.39,15.993 C1.009,15.572 0.685,15.045 0.412,14.408 C0.138,13.777 -0,13.186 -0,12.65 L-0,5.319 C-0,4.79 0.186,4.331 0.563,3.946 C0.941,3.558 1.407,3.363 1.953,3.363 L9.284,3.363 C9.554,3.363 9.841,3.396 10.148,3.46 C10.455,3.525 10.765,3.626 11.079,3.757 C11.389,3.892 11.683,4.044 11.956,4.213 C12.229,4.378 12.455,4.56 12.631,4.753 z" fill="#7F7F7F"/>
  </g>
</svg>
