<?xml version="1.0" encoding="UTF-8"?>
<!DOCTYPE svg PUBLIC "-//W3C//DTD SVG 1.1//EN" "http://www.w3.org/Graphics/SVG/1.1/DTD/svg11.dtd">
<svg version="1.1" xmlns="http://www.w3.org/2000/svg" xmlns:xlink="http://www.w3.org/1999/xlink" x="0" y="0" width="54" height="54" viewBox="0, 0, 54, 54">
  <g id="Layer_1">
    <path d="M40.358,38.19 L34.89,38.19 L34.89,28.439 C34.89,26.173 34.097,24.626 32.12,24.626 C30.608,24.626 29.709,25.67 29.313,26.677 C29.169,27.037 29.132,27.541 29.132,28.044 L29.132,38.19 L23.665,38.19 L23.665,26.209 C23.665,24.015 23.593,22.18 23.521,20.596 L28.27,20.596 L28.522,23.043 L28.629,23.043 C29.349,21.891 31.112,20.201 34.063,20.201 C37.66,20.201 40.358,22.611 40.358,27.792 z M17.621,18.438 C15.894,18.438 14.779,17.215 14.779,15.704 C14.779,14.156 15.93,12.97 17.693,12.97 C19.457,12.97 20.536,14.156 20.571,15.704 C20.571,17.215 19.457,18.438 17.621,18.438 M20.392,38.19 L14.923,38.19 L14.923,20.596 L20.392,20.596 z M27,0 C12.088,0 0,12.089 0,27 C0,41.912 12.088,54 27,54 C41.913,54 54,41.912 54,27 C54,12.089 41.913,0 27,0" fill="#FFFFFF"/>
  </g>
</svg>
