<?xml version="1.0" encoding="UTF-8"?>
<!DOCTYPE svg PUBLIC "-//W3C//DTD SVG 1.1//EN" "http://www.w3.org/Graphics/SVG/1.1/DTD/svg11.dtd">
<svg version="1.1" xmlns="http://www.w3.org/2000/svg" xmlns:xlink="http://www.w3.org/1999/xlink" x="0" y="0" width="20" height="20" viewBox="0, 0, 20, 20">
  <g id="Background">
    <rect x="0" y="0" width="20" height="20" fill="#000000" fill-opacity="0"/>
  </g>
  <g id="Layer_1">
    <g>
      <path d="M3.333,0 L16.667,0 C18.508,0 20,1.492 20,3.333 L20,16.667 C20,18.508 18.508,20 16.667,20 L3.333,20 C1.492,20 0,18.508 0,16.667 L0,3.333 C0,1.492 1.492,0 3.333,0 z" fill="#FFFFFF"/>
      <path d="M16.667,0 C18.508,0 20,1.492 20,3.333 L20,16.667 C20,18.508 18.508,20 16.667,20 L3.333,20 C1.492,20 0,18.508 0,16.667 L0,3.333 C0,1.492 1.492,0 3.333,0 L16.667,0 z M16.667,1 L3.333,1 C2.045,1 1,2.045 1,3.333 L1,16.667 C1,17.955 2.045,19 3.333,19 L16.667,19 C17.955,19 19,17.955 19,16.667 L19,3.333 C19,2.045 17.955,1 16.667,1 z" fill="#999999"/>
    </g>
  </g>
</svg>
