<?xml version="1.0" encoding="UTF-8"?>
<!DOCTYPE svg PUBLIC "-//W3C//DTD SVG 1.1//EN" "http://www.w3.org/Graphics/SVG/1.1/DTD/svg11.dtd">
<svg version="1.1" xmlns="http://www.w3.org/2000/svg" xmlns:xlink="http://www.w3.org/1999/xlink" x="0" y="0" width="56" height="56" viewBox="0, 0, 56, 56">
  <g id="Layer_1">
    <g>
      <path d="M45.119,21.011 L47.151,28.452 L56.369,13.659 L41.022,6.005 L42.825,12.607 C27.841,16.698 28.964,34.251 28.964,34.251 C31.158,25.597 36.987,23.232 45.119,21.011" fill="#6C89A6"/>
      <path d="M16.501,5.997 C17.456,5.997 18.517,6.231 19.672,6.694 C20.833,7.152 21.712,7.72 22.31,8.418 L30.981,18.07 C29.214,20.648 29.961,19.324 28.709,22.023 C27.664,24.468 27.019,27.055 26.689,29.669 C26.469,31.415 26.415,32.937 26.455,34.121 C26.46,34.252 26.464,34.338 26.468,34.411 C26.651,37.255 30.687,37.629 31.388,34.866 C32.551,31.201 34.654,27.831 38.241,26.151 L41.168,29.409 C41.783,30.137 42.106,30.957 42.123,31.871 C42.141,32.792 41.824,33.578 41.168,34.234 L26.407,48.988 C25.751,49.651 24.948,49.985 23.992,50.002 C23.037,50.02 22.234,49.686 21.583,48.988 L2.778,27.95 C2.127,27.252 1.559,26.356 1.084,25.253 C0.603,24.151 0.369,23.108 0.369,22.135 L0.369,9.397 C0.369,8.482 0.697,7.685 1.348,7.011 C1.998,6.337 2.807,5.997 3.763,5.997 L16.501,5.997 z M9.15,11.53 C8.235,11.531 7.462,11.841 6.829,12.468 C6.207,13.096 5.891,13.87 5.891,14.784 C5.891,15.704 6.207,16.478 6.829,17.117 C7.462,17.75 8.235,18.067 9.15,18.067 C10.064,18.067 10.844,17.75 11.477,17.117 C12.116,16.478 12.433,15.704 12.433,14.784 C12.433,13.87 12.116,13.096 11.477,12.468 C10.844,11.841 10.064,11.531 9.15,11.53 z" fill="#6C89A6"/>
    </g>
  </g>
</svg>
