<?xml version="1.0" encoding="UTF-8"?>
<!DOCTYPE svg PUBLIC "-//W3C//DTD SVG 1.1//EN" "http://www.w3.org/Graphics/SVG/1.1/DTD/svg11.dtd">
<svg version="1.1" xmlns="http://www.w3.org/2000/svg" xmlns:xlink="http://www.w3.org/1999/xlink" x="0" y="0" width="22" height="22" viewBox="0, 0, 22, 22">
  <g id="Background">
    <rect x="0" y="0" width="22" height="22" fill="#000000" fill-opacity="0"/>
  </g>
  <g id="Background"/>
  <g id="Layer_1">
    <path d="M16.047,5.648 C16.047,6.182 16.402,6.443 17.114,6.443 C17.824,6.443 18.176,6.182 18.167,5.648 L18.167,2.446 C18.167,1.915 17.815,1.645 17.114,1.645 C16.402,1.645 16.047,1.915 16.047,2.446 z M19.78,16.273 L15.806,16.273 L15.806,19.783 L19.78,19.783 z M19.78,12.199 L15.806,12.199 L15.806,15.739 L19.78,15.739 z M19.78,8.117 L15.806,8.117 L15.806,11.657 L19.78,11.657 z M15.261,16.273 L11.276,16.273 L11.276,19.783 L15.261,19.783 z M15.261,12.199 L11.276,12.199 L11.276,15.739 L15.261,15.739 z M15.261,8.117 L11.276,8.117 L11.276,11.657 L15.261,11.657 z M9.953,5.648 C9.953,5.935 10.029,6.141 10.179,6.261 C10.328,6.387 10.595,6.443 10.979,6.443 C11.364,6.443 11.636,6.381 11.801,6.255 C11.965,6.129 12.047,5.93 12.047,5.648 L12.047,2.446 C12.047,2.17 11.965,1.971 11.801,1.839 C11.636,1.707 11.364,1.645 10.979,1.645 C10.595,1.645 10.328,1.713 10.179,1.85 C10.029,1.982 9.953,2.182 9.953,2.446 z M10.727,16.273 L6.727,16.273 L6.727,19.783 L10.727,19.783 z M10.727,12.199 L6.727,12.199 L6.727,15.739 L10.727,15.739 z M10.727,8.117 L6.727,8.117 L6.727,11.657 L10.727,11.657 z M3.821,5.648 C3.821,6.182 4.176,6.443 4.886,6.443 C5.598,6.443 5.953,6.182 5.953,5.648 L5.953,2.446 C5.953,1.915 5.598,1.645 4.886,1.645 C4.176,1.645 3.821,1.915 3.821,2.446 z M6.179,16.273 L2.22,16.273 L2.22,19.783 L6.179,19.783 z M6.179,12.199 L2.22,12.199 L2.22,15.739 L6.179,15.739 z M6.179,8.117 L2.22,8.117 L2.22,11.657 L6.179,11.657 z M20.358,2.63 C20.798,2.63 21.179,2.789 21.507,3.111 C21.836,3.437 22,3.815 22,4.255 L22,20.358 C22,20.798 21.836,21.182 21.507,21.507 C21.179,21.836 20.798,22 20.358,22 L1.642,22 C1.202,22 0.821,21.836 0.493,21.507 C0.164,21.182 0,20.798 0,20.358 L0,4.255 C0,3.815 0.164,3.437 0.493,3.111 C0.821,2.789 1.202,2.63 1.642,2.63 L2.191,2.63 L2.191,2.446 C2.191,2.155 2.238,1.862 2.331,1.569 C2.425,1.273 2.578,1.009 2.789,0.78 C2.997,0.551 3.276,0.367 3.622,0.217 C3.968,0.076 4.39,0 4.886,0 C5.381,0 5.804,0.076 6.15,0.217 C6.496,0.367 6.774,0.551 6.985,0.78 C7.194,1.009 7.349,1.279 7.449,1.575 C7.548,1.874 7.595,2.164 7.595,2.446 L7.595,2.63 L8.284,2.63 L8.284,2.446 C8.284,2.155 8.331,1.862 8.422,1.569 C8.519,1.273 8.669,1.009 8.88,0.78 C9.091,0.551 9.37,0.367 9.716,0.217 C10.062,0.076 10.484,0 10.979,0 C11.475,0 11.894,0.076 12.243,0.217 C12.589,0.367 12.871,0.551 13.091,0.78 C13.311,1.009 13.472,1.279 13.569,1.575 C13.666,1.874 13.718,2.164 13.718,2.446 L13.718,2.63 L14.405,2.63 L14.405,2.446 C14.405,2.155 14.455,1.862 14.551,1.569 C14.651,1.273 14.804,1.009 15.015,0.78 C15.226,0.551 15.501,0.367 15.845,0.217 C16.185,0.076 16.607,0 17.114,0 C17.61,0 18.032,0.076 18.378,0.217 C18.724,0.367 19.003,0.551 19.214,0.78 C19.422,1.009 19.575,1.279 19.669,1.575 C19.762,1.874 19.809,2.164 19.809,2.446 L19.809,2.63 z" fill="#FFFFFF"/>
  </g>
</svg>
