<?xml version="1.0" encoding="UTF-8"?>
<!DOCTYPE svg PUBLIC "-//W3C//DTD SVG 1.1//EN" "http://www.w3.org/Graphics/SVG/1.1/DTD/svg11.dtd">
<svg version="1.1" xmlns="http://www.w3.org/2000/svg" xmlns:xlink="http://www.w3.org/1999/xlink" x="0" y="0" width="18" height="18" viewBox="0, 0, 18, 18">
  <g id="Layer_2" display="none">
    <path d="M11.434,6.653 C14.075,6.653 16.216,8.794 16.216,11.435 C16.099,12.759 16.239,12.018 15.646,13.622 L15.732,13.677 L18.22,15.794 L18.238,15.809 C18.991,16.486 19.057,17.635 18.346,18.347 C17.635,19.058 16.486,18.992 15.793,18.221 L13.692,15.751 L13.625,15.646 C12.018,16.24 12.759,16.099 11.434,16.217 C8.793,16.217 6.652,14.076 6.652,11.435 C6.652,8.794 8.793,6.653 11.434,6.653 z" fill="#FF0000"/>
  </g>
  <g id="Layer_4">
    <path d="M10.47,6.75 C8.119,7.437 6.893,9.043 6.652,11.435 C6.84,13.876 7.729,14.967 9.919,15.888 L8.402,17.585 C8.136,17.87 7.807,18.007 7.416,18 C7.026,17.993 6.697,17.856 6.428,17.585 L0.391,11.55 C0.123,11.281 -0.007,10.96 0,10.583 C0.007,10.21 0.139,9.874 0.391,9.576 L8.104,0.99 C8.349,0.705 8.709,0.472 9.184,0.285 C9.656,0.096 10.09,0 10.481,0 L15.691,0 C16.082,0 16.413,0.139 16.679,0.415 C16.945,0.691 17.079,1.017 17.079,1.391 L17.079,6.601 C17.079,6.999 16.983,7.426 16.787,7.877 C16.593,8.327 16.36,8.694 16.094,8.979 L15.684,9.438 C15.042,7.586 13.235,6.834 11.434,6.653 L10.47,6.75 z M13.487,2.263 C13.113,2.263 12.795,2.391 12.535,2.647 C12.274,2.904 12.145,3.22 12.145,3.594 C12.145,3.971 12.274,4.287 12.535,4.548 C12.795,4.807 13.113,4.937 13.487,4.937 C13.862,4.937 14.178,4.807 14.437,4.548 C14.691,4.287 14.821,3.971 14.821,3.594 C14.821,3.22 14.691,2.904 14.437,2.647 C14.178,2.391 13.862,2.263 13.487,2.263 z" fill="#A5A5A5"/>
  </g>
  <g id="Layer_4">
    <path d="M17.674,16.435 L15.186,14.318 C14.929,14.087 14.654,13.98 14.432,13.99 C15.019,13.302 15.374,12.41 15.374,11.434 C15.374,9.259 13.61,7.495 11.434,7.495 C9.259,7.495 7.495,9.259 7.495,11.434 C7.495,13.61 9.259,15.374 11.434,15.374 C12.41,15.374 13.303,15.019 13.991,14.432 C13.98,14.654 14.087,14.929 14.318,15.186 L16.435,17.674 C16.797,18.077 17.389,18.111 17.75,17.75 C18.111,17.389 18.077,16.797 17.674,16.435 z M11.434,14.061 C9.984,14.061 8.808,12.885 8.808,11.434 C8.808,9.983 9.984,8.808 11.434,8.808 C12.885,8.808 14.061,9.983 14.061,11.434 C14.061,12.885 12.885,14.061 11.434,14.061 z" fill="#A5A5A5"/>
  </g>
</svg>
