<?xml version="1.0" encoding="UTF-8"?>
<!DOCTYPE svg PUBLIC "-//W3C//DTD SVG 1.1//EN" "http://www.w3.org/Graphics/SVG/1.1/DTD/svg11.dtd">
<svg version="1.1" xmlns="http://www.w3.org/2000/svg" xmlns:xlink="http://www.w3.org/1999/xlink" x="0" y="0" width="22" height="22" viewBox="0, 0, 22, 22">
  <g id="Background">
    <rect x="0" y="0" width="22" height="22" fill="#000000" fill-opacity="0"/>
  </g>
  <g id="Background"/>
  <g id="Layer_1">
    <path d="M21.202,18.606 L15.991,14.173 C15.453,13.689 14.876,13.466 14.411,13.487 C15.641,12.046 16.384,10.177 16.384,8.134 C16.384,3.578 12.691,-0.116 8.134,-0.116 C3.578,-0.116 -0.116,3.578 -0.116,8.134 C-0.116,12.691 3.578,16.384 8.134,16.384 C10.177,16.384 12.047,15.641 13.488,14.411 C13.466,14.876 13.689,15.453 14.174,15.991 L18.606,21.202 C19.365,22.045 20.604,22.116 21.36,21.36 C22.116,20.604 22.045,19.364 21.202,18.606 z M8.134,13.634 C5.097,13.634 2.634,11.172 2.634,8.134 C2.634,5.096 5.097,2.634 8.134,2.634 C11.172,2.634 13.634,5.096 13.634,8.134 C13.634,11.172 11.172,13.634 8.134,13.634 z" fill="#A6A6A6"/>
  </g>
</svg>
