<?xml version="1.0" encoding="UTF-8"?>
<!DOCTYPE svg PUBLIC "-//W3C//DTD SVG 1.1//EN" "http://www.w3.org/Graphics/SVG/1.1/DTD/svg11.dtd">
<svg version="1.1" xmlns="http://www.w3.org/2000/svg" xmlns:xlink="http://www.w3.org/1999/xlink" x="0" y="0" width="35" height="22" viewBox="0, 0, 35, 22">
  <g id="Layer_1">
    <path d="M27,9 L31,13 L35,9 z" fill="#727272"/>
    <path d="M2,-0 L20,0 C21.105,-0 22,0.895 22,2 L22,20 C22,21.104 21.105,22 20,22 L2,22 C0.895,22 -0,21.104 -0,20 L0,2 C-0,0.895 0.895,-0 2,-0 z M2,16.417 L2,20 L7.167,20 L7.167,16.417 L2,16.417 z M13.833,16.417 L8.167,16.417 L8.167,20 L13.833,20 L13.833,16.417 z M20,16.417 L14.833,16.417 L14.833,20 L20,20 L20,16.417 z M20,15.417 L20,11.083 L14.833,11.083 L14.833,15.417 L20,15.417 z M2,11.083 L2,15.417 L7.167,15.417 L7.167,11.083 L2,11.083 z M13.833,11.083 L8.167,11.083 L8.167,15.417 L13.833,15.417 L13.833,11.083 z M20,10.083 L20,6 L14.833,6 L14.833,10.083 L20,10.083 z M7.167,6 L2,6 L2,10.083 L7.167,10.083 L7.167,6 z M13.833,6 L8.167,6 L8.167,10.083 L13.833,10.083 L13.833,6 z" fill="#727272"/>
  </g>
</svg>
