<?xml version="1.0" encoding="UTF-8"?>
<!DOCTYPE svg PUBLIC "-//W3C//DTD SVG 1.1//EN" "http://www.w3.org/Graphics/SVG/1.1/DTD/svg11.dtd">
<svg version="1.1" xmlns="http://www.w3.org/2000/svg" xmlns:xlink="http://www.w3.org/1999/xlink" x="0" y="0" width="13" height="13" viewBox="0, 0, 13, 13">
  <g id="Background">
    <rect x="0" y="0" width="13" height="13" fill="#000000" fill-opacity="0"/>
  </g>
  <g id="Layer_1">
    <path d="M7.615,0.924 C8.847,-0.308 10.844,-0.308 12.076,0.924 C13.308,2.156 13.308,4.153 12.076,5.385 C11.222,6.23 9.94,6.53 8.802,6.132 C8.542,6.041 8.487,6 8.243,5.872 L5.872,8.243 C6.588,9.534 6.403,11.006 5.385,12.076 C4.153,13.308 2.156,13.308 0.924,12.076 C-0.308,10.844 -0.308,8.847 0.924,7.615 C1.778,6.77 3.06,6.47 4.198,6.868 C4.458,6.959 4.513,7 4.757,7.128 L7.128,4.757 C6.412,3.466 6.597,1.994 7.615,0.924 z" fill="#6C89A6"/>
  </g>
</svg>
