<?xml version="1.0" encoding="UTF-8"?>
<!DOCTYPE svg PUBLIC "-//W3C//DTD SVG 1.1//EN" "http://www.w3.org/Graphics/SVG/1.1/DTD/svg11.dtd">
<svg version="1.1" xmlns="http://www.w3.org/2000/svg" xmlns:xlink="http://www.w3.org/1999/xlink" x="0" y="0" width="20" height="20" viewBox="0, 0, 20, 20">
  <g id="Layer_1">
    <g>
      <path d="M12.293,3 L12.293,7.708 L12.313,7.905 C12.663,9.64 13.488,10.551 15.205,10.703 L19.293,10.707 L20,10.707 L20,15 C20,16.105 19.105,17 18,17 L2,17 C0.895,17 -0,16.105 -0,15 L-0,5 C-0,3.895 0.895,3 2,3 L12.293,3 z" fill="#5C7A99"/>
      <path d="M20,5 L20,5 L20,9 L20,9 L20,5 z" fill="#5C7A99"/>
      <path d="M14,3 L20,9 L16,9 C14.67,8.882 14.242,8.2 14,7.001 L14,3 z" fill="#5C7A99"/>
    </g>
  </g>
</svg>
