<?xml version="1.0" encoding="UTF-8"?>
<!DOCTYPE svg PUBLIC "-//W3C//DTD SVG 1.1//EN" "http://www.w3.org/Graphics/SVG/1.1/DTD/svg11.dtd">
<svg version="1.1" xmlns="http://www.w3.org/2000/svg" xmlns:xlink="http://www.w3.org/1999/xlink" x="0" y="0" width="24" height="32" viewBox="0, 0, 24, 32">
  <g id="Background">
    <rect x="0" y="0" width="24" height="32" fill="#000000" fill-opacity="0"/>
  </g>
  <g id="Layer_1">
    <path d="M15.592,24.954 C15.592,25.117 15.649,25.252 15.761,25.36 C15.873,25.466 16.017,25.52 16.19,25.52 L16.788,25.52 C16.951,25.52 17.092,25.466 17.207,25.367 C17.326,25.264 17.386,25.127 17.386,24.954 L17.386,15.55 C17.386,15.387 17.326,15.243 17.207,15.128 C17.092,15.01 16.951,14.949 16.788,14.949 L16.19,14.949 C16.027,14.949 15.886,15.01 15.771,15.128 C15.652,15.243 15.592,15.387 15.592,15.55 z M12.894,15.55 C12.894,15.387 12.84,15.243 12.722,15.128 C12.6,15.01 12.459,14.949 12.299,14.949 L11.701,14.949 C11.538,14.949 11.4,15.01 11.294,15.128 C11.189,15.243 11.135,15.387 11.135,15.55 L11.135,24.954 C11.135,25.117 11.186,25.252 11.288,25.36 C11.39,25.466 11.525,25.52 11.701,25.52 L12.299,25.52 C12.459,25.52 12.6,25.466 12.722,25.367 C12.84,25.264 12.894,25.127 12.894,24.954 z M9.787,7.491 C11.259,7.468 12.741,7.468 14.245,7.491 C14.245,7.369 14.254,7.251 14.276,7.132 C14.296,7.014 14.296,6.902 14.276,6.8 L14.276,6.572 C13.918,6.47 13.537,6.412 13.141,6.403 C12.741,6.393 12.363,6.387 12.008,6.387 C11.63,6.387 11.247,6.393 10.853,6.403 C10.459,6.412 10.082,6.47 9.727,6.572 L9.727,6.8 C9.727,6.902 9.73,7.017 9.743,7.139 C9.752,7.264 9.768,7.379 9.787,7.491 M8.408,15.55 C8.408,15.387 8.348,15.243 8.233,15.128 C8.114,15.01 7.973,14.949 7.81,14.949 L7.215,14.949 C7.049,14.949 6.914,15.01 6.809,15.128 C6.7,15.243 6.646,15.387 6.646,15.55 L6.646,24.954 C6.646,25.117 6.7,25.252 6.809,25.36 C6.914,25.466 7.049,25.52 7.215,25.52 L7.81,25.52 C7.973,25.52 8.114,25.466 8.233,25.367 C8.348,25.264 8.408,25.127 8.408,24.954 z M12.008,13.218 C13.326,13.199 14.641,13.167 15.959,13.128 C17.274,13.087 18.593,12.988 19.914,12.821 L19.914,25.642 C19.914,26.285 19.687,26.842 19.239,27.302 C18.788,27.77 18.241,28 17.598,28 L6.402,28 C5.759,28 5.206,27.773 4.739,27.309 C4.275,26.855 4.044,26.298 4.044,25.642 L4.044,12.821 C5.298,12.988 6.546,13.093 7.781,13.144 C9.016,13.192 10.261,13.218 11.518,13.218 z M21.994,9.468 L21.994,10.524 C21.616,10.729 20.989,10.892 20.109,11.023 C19.233,11.151 18.286,11.247 17.268,11.311 C16.254,11.381 15.265,11.42 14.305,11.426 C13.345,11.436 12.581,11.442 12.008,11.442 C11.445,11.442 10.68,11.436 9.711,11.426 C8.738,11.42 7.746,11.381 6.729,11.311 C5.714,11.247 4.774,11.151 3.907,11.029 C3.036,10.905 2.416,10.738 2.038,10.524 C2.016,10.361 2.006,10.185 2.006,9.993 L2.006,9.468 L2.006,8.915 C2.006,8.732 2.016,8.547 2.038,8.361 C2.291,8.223 2.656,8.099 3.126,8.003 C3.593,7.907 4.092,7.827 4.623,7.766 C5.155,7.705 5.679,7.66 6.194,7.628 C6.713,7.6 7.113,7.571 7.397,7.552 C7.314,6.716 7.375,6.064 7.573,5.59 C7.775,5.123 8.076,4.771 8.485,4.544 C8.892,4.314 9.394,4.163 9.992,4.096 C10.591,4.032 11.259,4 12.008,4 C12.571,4 13.128,4.013 13.685,4.045 C14.241,4.077 14.737,4.182 15.179,4.355 C15.617,4.538 15.966,4.816 16.228,5.193 C16.487,5.571 16.619,6.105 16.619,6.8 L16.619,7.168 C16.619,7.292 16.606,7.42 16.59,7.552 C16.884,7.571 17.287,7.6 17.796,7.628 C18.308,7.66 18.833,7.705 19.37,7.766 C19.905,7.827 20.413,7.907 20.89,8.003 C21.373,8.099 21.741,8.223 21.994,8.361 z" fill="#7F7F7F"/>
  </g>
</svg>
