<?xml version="1.0" encoding="UTF-8"?>
<!DOCTYPE svg PUBLIC "-//W3C//DTD SVG 1.1//EN" "http://www.w3.org/Graphics/SVG/1.1/DTD/svg11.dtd">
<svg version="1.1" xmlns="http://www.w3.org/2000/svg" xmlns:xlink="http://www.w3.org/1999/xlink" x="0" y="0" width="24" height="32" viewBox="0, 0, 24, 32">
  <g id="Background">
    <rect x="0" y="0" width="24" height="32" fill="#000000" fill-opacity="0"/>
  </g>
  <g id="Layer_1" display="none">
    <g>
      <path d="M2,21.054 C2.616,22.037 3.071,23.109 3.516,24.177 L3.581,24.336 L3.247,24.336 C2.907,24.336 2.614,24.211 2.367,23.966 C2.122,23.719 2,23.427 2,23.087 L2,21.054 z" fill="#B3B3B3"/>
      <path d="M22,13.264 L22,23.087 C22,23.427 21.88,23.719 21.637,23.966 C21.395,24.211 21.105,24.336 20.764,24.336 L9.815,24.336 C10.543,22.706 11.482,21.222 12.403,19.705 C12.942,19.624 12.703,19.678 13.122,19.564 C13.485,19.455 13.832,19.308 14.165,19.131 C14.498,18.954 14.82,18.75 15.131,18.525 C15.441,18.297 15.745,18.061 16.044,17.823 C16.947,17.102 17.858,16.392 18.778,15.701 C19.697,15.012 20.624,14.318 21.556,13.622 C21.628,13.565 21.703,13.511 21.778,13.454 C21.855,13.402 21.93,13.336 22,13.264 z" fill="#B3B3B3"/>
      <path d="M2,13.264 C2.07,13.336 2.145,13.402 2.222,13.454 C2.297,13.511 2.372,13.565 2.444,13.622 C3.378,14.318 4.303,15.012 5.224,15.701 C6.142,16.392 7.053,17.102 7.958,17.823 C8.428,18.191 8.244,18.052 8.503,18.245 C7.471,19.77 7.979,18.976 6.987,20.63 L6.795,20.174 C5.639,17.467 4.571,16.093 3.426,16.093 C2.934,16.114 2.435,16.188 2,16.447 L2,13.264 z" fill="#B3B3B3"/>
      <path d="M17.753,7.664 C16.445,8.749 15.282,9.999 14.107,11.223 C12.626,12.8 11.274,14.486 9.955,16.198 L9.76,16.043 C9.52,15.848 9.311,15.687 9.13,15.556 C8.253,14.889 7.389,14.232 6.529,13.581 C5.673,12.928 4.8,12.268 3.909,11.595 C3.743,11.464 3.548,11.289 3.328,11.067 C3.106,10.847 2.902,10.602 2.709,10.335 C2.519,10.067 2.356,9.797 2.222,9.521 C2.088,9.246 2.02,8.995 2.02,8.773 C2.02,8.476 2.152,8.217 2.41,7.995 C2.673,7.775 2.95,7.664 3.247,7.664 L17.753,7.664 z" fill="#B3B3B3"/>
      <path d="M21.428,7.873 L21.594,7.995 C21.85,8.217 21.98,8.476 21.979,8.773 C21.98,8.995 21.912,9.246 21.778,9.521 C21.644,9.797 21.481,10.067 21.29,10.335 C21.1,10.602 20.891,10.847 20.671,11.067 C20.452,11.289 20.257,11.464 20.091,11.595 C19.202,12.259 18.327,12.919 17.47,13.574 C15.947,14.736 16.608,14.232 15.488,15.085 L16.12,14.215 C17.764,12 19.503,9.851 21.428,7.873 z" fill="#B3B3B3"/>
    </g>
    <path d="M23.394,4 L24,4.911 Q20.297,7.845 15.764,13.95 Q11.23,20.055 8.842,25.358 L7.562,26.269 Q5.97,27.435 5.399,28 Q5.174,27.144 4.412,25.194 L3.928,24.009 Q2.89,21.458 1.999,20.237 Q1.107,19.016 -0,18.615 Q1.869,16.538 3.426,16.538 Q4.758,16.538 6.385,20.346 L6.921,21.622 Q9.846,16.428 14.431,11.526 Q19.017,6.624 23.394,4 z" fill="#7F7F7F"/>
  </g>
  <g id="Layer_2">
    <path d="M11.981,17.499 C11.712,17.499 11.421,17.423 11.108,17.27 C10.795,17.118 10.49,16.936 10.191,16.724 C9.889,16.511 9.598,16.288 9.312,16.052 C9.024,15.818 8.774,15.625 8.556,15.467 C7.503,14.667 6.467,13.878 5.436,13.097 C4.407,12.314 3.36,11.522 2.291,10.714 C2.092,10.556 1.858,10.347 1.594,10.08 C1.328,9.816 1.083,9.523 0.852,9.202 C0.623,8.881 0.427,8.557 0.267,8.225 C0.106,7.896 0.024,7.594 0.024,7.327 C0.024,6.971 0.182,6.661 0.492,6.394 C0.808,6.13 1.14,5.997 1.496,5.997 L22.517,5.997 C22.871,5.997 23.203,6.13 23.513,6.394 C23.82,6.661 23.976,6.971 23.976,7.327 C23.976,7.594 23.894,7.896 23.733,8.225 C23.573,8.557 23.377,8.881 23.148,9.202 C22.92,9.523 22.67,9.816 22.406,10.08 C22.142,10.347 21.908,10.556 21.709,10.714 C20.643,11.511 19.593,12.303 18.564,13.089 C17.536,13.875 16.494,14.667 15.444,15.467 C15.226,15.625 14.979,15.818 14.696,16.052 C14.413,16.288 14.122,16.511 13.817,16.724 C13.513,16.936 13.205,17.118 12.892,17.27 C12.579,17.423 12.294,17.499 12.033,17.499 L12.005,17.499 z M11.981,20.481 C12.457,20.481 12.914,20.413 13.347,20.277 C13.782,20.146 14.198,19.969 14.598,19.757 C14.998,19.545 15.384,19.3 15.757,19.031 C16.13,18.756 16.494,18.473 16.853,18.187 C17.936,17.322 19.03,16.471 20.134,15.641 C21.236,14.814 22.349,13.981 23.467,13.146 C23.554,13.078 23.644,13.013 23.733,12.945 C23.826,12.882 23.916,12.803 24,12.716 L24,24.504 C24,24.912 23.856,25.263 23.565,25.56 C23.274,25.854 22.925,26.003 22.517,26.003 L1.496,26.003 C1.088,26.003 0.737,25.854 0.441,25.56 C0.147,25.263 0,24.912 0,24.504 L0,12.716 C0.084,12.803 0.174,12.882 0.267,12.945 C0.356,13.013 0.446,13.078 0.533,13.146 C1.654,13.981 2.764,14.814 3.869,15.641 C4.97,16.471 6.064,17.322 7.149,18.187 C7.487,18.459 7.843,18.729 8.216,19.003 C8.589,19.275 8.978,19.523 9.375,19.743 C9.775,19.964 10.194,20.146 10.632,20.277 C11.072,20.413 11.521,20.481 11.981,20.481" fill="#7F7F7F"/>
  </g>
</svg>
