<?xml version="1.0" encoding="UTF-8"?>
<!DOCTYPE svg PUBLIC "-//W3C//DTD SVG 1.1//EN" "http://www.w3.org/Graphics/SVG/1.1/DTD/svg11.dtd">
<svg version="1.1" xmlns="http://www.w3.org/2000/svg" xmlns:xlink="http://www.w3.org/1999/xlink" x="0" y="0" width="30" height="22" viewBox="0, 0, 30, 22">
  <g id="Background">
    <rect x="0" y="0" width="30" height="22" fill="#000000" fill-opacity="0"/>
  </g>
  <g id="Layer_1">
    <path d="M23.376,7.502 L24.392,11.222 L29,3.826 L21.328,0 L22.229,3.301 C14.738,5.346 15.3,14.121 15.3,14.121 C16.397,9.795 19.31,8.612 23.376,7.502" fill="#FFFFFF"/>
    <path d="M9.069,-0.004 C9.547,-0.004 10.077,0.113 10.654,0.344 C11.235,0.573 11.674,0.857 11.973,1.206 L16.308,6.031 C15.425,7.32 15.798,6.658 15.172,8.008 C14.65,9.23 14.327,10.523 14.162,11.83 C14.053,12.703 14.026,13.464 14.045,14.056 C14.048,14.121 14.05,14.164 14.052,14.201 C14.143,15.623 16.161,15.809 16.511,14.428 C17.093,12.596 18.144,10.911 19.938,10.072 L21.401,11.7 C21.708,12.064 21.87,12.474 21.878,12.931 C21.887,13.391 21.729,13.784 21.401,14.112 L14.022,21.488 C13.693,21.82 13.292,21.987 12.814,21.995 C12.337,22.004 11.935,21.837 11.61,21.488 L2.209,10.971 C1.883,10.622 1.599,10.174 1.362,9.623 C1.121,9.072 1.004,8.55 1.004,8.064 L1.004,1.695 C1.004,1.238 1.168,0.84 1.494,0.503 C1.819,0.166 2.223,-0.004 2.701,-0.004 L9.069,-0.004 z M5.394,2.762 C4.937,2.762 4.55,2.918 4.234,3.231 C3.923,3.545 3.765,3.932 3.765,4.389 C3.765,4.849 3.923,5.236 4.234,5.555 C4.55,5.872 4.937,6.03 5.394,6.03 C5.851,6.03 6.241,5.872 6.558,5.555 C6.877,5.236 7.035,4.849 7.035,4.389 C7.035,3.932 6.877,3.545 6.558,3.231 C6.241,2.918 5.851,2.762 5.394,2.762 z" fill="#FFFFFF"/>
  </g>
</svg>
