<?xml version="1.0" encoding="UTF-8"?>
<!DOCTYPE svg PUBLIC "-//W3C//DTD SVG 1.1//EN" "http://www.w3.org/Graphics/SVG/1.1/DTD/svg11.dtd">
<svg version="1.1" xmlns="http://www.w3.org/2000/svg" xmlns:xlink="http://www.w3.org/1999/xlink" x="0" y="0" width="16" height="16" viewBox="0, 0, 16, 16">
  <g id="Background">
    <rect x="0" y="0" width="16" height="16" fill="#000000" fill-opacity="0"/>
  </g>
  <g id="Layer_1">
    <g>
      <path d="M8.674,1.714 C8.809,1.714 8.951,1.731 9.104,1.763 C9.257,1.795 9.411,1.845 9.568,1.911 C9.722,1.978 9.868,2.053 10.004,2.137 C10.14,2.219 10.253,2.31 10.34,2.406 L15.726,8.414 C15.902,8.612 15.993,8.842 16,9.104 C16.005,9.367 15.912,9.592 15.726,9.78 L11.496,13.988 C11.309,14.176 11.077,14.275 10.8,14.285 C10.525,14.297 10.302,14.198 10.13,13.988 L7.266,10.802 L8.564,8.722 L9.064,7.921 L8.218,7.499 L4.052,5.424 L4.052,2.687 C4.052,2.424 4.145,2.196 4.333,2.005 C4.521,1.812 4.753,1.714 5.025,1.714 L8.674,1.714 z M6.568,3.281 C6.305,3.281 6.083,3.374 5.896,3.558 C5.712,3.743 5.619,3.968 5.619,4.229 C5.619,4.479 5.712,4.699 5.896,4.889 C6.083,5.075 6.305,5.169 6.568,5.169 C6.82,5.169 7.04,5.075 7.227,4.889 C7.415,4.699 7.509,4.479 7.509,4.229 C7.509,3.968 7.415,3.743 7.227,3.558 C7.04,3.374 6.82,3.281 6.568,3.281 L6.568,3.281 z" fill="#6C89A6"/>
      <path d="M4.621,10.374 L5.201,12.5 L7.834,8.274 L3.45,6.088 L3.965,7.974 C-0.315,9.142 0.005,14.157 0.005,14.157 C0.632,11.684 2.297,11.009 4.621,10.374" fill="#6C89A6"/>
    </g>
  </g>
</svg>
