<?xml version="1.0" encoding="UTF-8"?>
<!DOCTYPE svg PUBLIC "-//W3C//DTD SVG 1.1//EN" "http://www.w3.org/Graphics/SVG/1.1/DTD/svg11.dtd">
<svg version="1.1" xmlns="http://www.w3.org/2000/svg" xmlns:xlink="http://www.w3.org/1999/xlink" x="0" y="0" width="33" height="22" viewBox="0, 0, 33, 22">
  <g id="Layer_1">
    <path d="M32.202,18.722 L26.991,14.289 C26.453,13.805 25.876,13.582 25.411,13.603 C26.641,12.162 27.384,10.293 27.384,8.25 C27.384,3.694 23.691,0 19.134,0 C14.578,0 10.884,3.694 10.884,8.25 C10.884,12.807 14.578,16.5 19.134,16.5 C21.177,16.5 23.047,15.757 24.488,14.527 C24.466,14.992 24.689,15.569 25.174,16.107 L29.606,21.318 C30.365,22.161 31.604,22.232 32.36,21.476 C33.116,20.72 33.045,19.48 32.202,18.722 z M19.134,13.75 C16.097,13.75 13.634,11.288 13.634,8.25 C13.634,5.212 16.097,2.75 19.134,2.75 C22.172,2.75 24.634,5.212 24.634,8.25 C24.634,11.288 22.172,13.75 19.134,13.75 z" fill="#FFFFFF"/>
    <path d="M6,0 L6,6 L0,6 L0,0 L6,0 z" fill="#FFFFFF"/>
    <path d="M15.405,0 C13.075,1.059 10.818,3.417 10.292,6 L8,6 L8,0 L15.405,0 z" fill="#FFFFFF"/>
    <path d="M6,8 L6,14 L0,14 L0,8 L6,8 z" fill="#FFFFFF"/>
    <path d="M9.922,8 L9.884,8.75 C9.89,10.626 10.418,12.446 11.467,14 L8,14 L8,8 L9.922,8 z" fill="#FFFFFF"/>
    <path d="M6,16 L6,22 L0,22 L0,16 L6,16 z" fill="#FFFFFF"/>
    <path d="M13.158,16 C14.87,17.726 17.281,18.381 19.634,18.5 C19.846,18.483 21.232,18.371 21.41,18.339 C21.612,18.303 21.803,18.221 22,18.161 L22,22 L8,22 L8,16 L13.158,16 z" fill="#FFFFFF"/>
  </g>
</svg>
