<?xml version="1.0" encoding="UTF-8"?>
<!DOCTYPE svg PUBLIC "-//W3C//DTD SVG 1.1//EN" "http://www.w3.org/Graphics/SVG/1.1/DTD/svg11.dtd">
<svg version="1.1" xmlns="http://www.w3.org/2000/svg" xmlns:xlink="http://www.w3.org/1999/xlink" x="0" y="0" width="16" height="16" viewBox="0, 0, 16, 16">
  <g id="Background">
    <rect x="0" y="0" width="16" height="16" fill="#000000" fill-opacity="0"/>
  </g>
  <g id="Layer_1">
    <path d="M8,0 C12.418,-0 16,3.582 16,8 C16,12.418 12.418,16 8,16 C3.582,16 -0,12.418 -0,8 C-0,3.582 3.582,-0 8,-0 z M10.778,3 L9.191,3 C7.877,3 6.921,4.121 6.92,5.5 L6.92,6.461 L5.222,6.461 L5.222,8.095 L6.92,8.095 L6.92,13 L8.794,13 L8.794,8.095 L10.778,8.095 L10.778,6.461 L8.794,6.461 L8.794,5.315 C8.794,4.985 9.003,4.738 9.191,4.738 L10.778,4.738 L10.778,3 z" fill="#6C89A6"/>
  </g>
</svg>
