<?xml version="1.0" encoding="UTF-8"?>
<!DOCTYPE svg PUBLIC "-//W3C//DTD SVG 1.1//EN" "http://www.w3.org/Graphics/SVG/1.1/DTD/svg11.dtd">
<svg version="1.1" xmlns="http://www.w3.org/2000/svg" xmlns:xlink="http://www.w3.org/1999/xlink" x="0" y="0" width="24" height="32" viewBox="0, 0, 24, 32">
  <g id="Layer_1">
    <path d="M13.462,16.001 C13.737,16.001 13.973,16.098 14.171,16.294 C14.368,16.493 14.464,16.726 14.464,17.003 L14.464,18.004 C14.464,18.279 14.368,18.514 14.171,18.71 C13.973,18.906 13.737,19.003 13.462,19.003 L8.955,19.003 C8.68,19.003 8.442,18.906 8.249,18.71 C8.052,18.514 7.953,18.279 7.953,18.004 L7.953,12.181 C7.953,11.907 8.052,11.671 8.249,11.478 C8.442,11.277 8.68,11.18 8.955,11.18 L9.957,11.18 C10.247,11.18 10.485,11.277 10.671,11.478 C10.854,11.671 10.946,11.907 10.946,12.181 L10.946,16.001 z M10.007,22.998 C10.985,22.998 11.893,22.813 12.738,22.447 C13.58,22.078 14.318,21.579 14.954,20.946 C15.589,20.31 16.089,19.57 16.458,18.728 C16.824,17.887 17.007,16.977 17.007,16.001 C17.007,15.023 16.824,14.113 16.458,13.272 C16.089,12.43 15.589,11.692 14.954,11.054 C14.318,10.421 13.578,9.922 12.733,9.553 C11.882,9.187 10.974,9.002 10.007,9.002 C9.031,9.002 8.118,9.187 7.27,9.553 C6.422,9.922 5.682,10.421 5.054,11.054 C4.424,11.692 3.924,12.43 3.558,13.272 C3.189,14.113 3.006,15.023 3.006,16.001 C3.006,16.977 3.189,17.887 3.558,18.728 C3.924,19.57 4.424,20.31 5.054,20.946 C5.682,21.579 6.422,22.078 7.27,22.447 C8.118,22.813 9.031,22.998 10.007,22.998 M10.007,6 C11.393,6 12.691,6.259 13.902,6.782 C15.113,7.305 16.173,8.016 17.083,8.923 C17.991,9.828 18.708,10.887 19.223,12.1 C19.741,13.316 20,14.616 20,16.001 C20,17.384 19.741,18.684 19.223,19.897 C18.708,21.113 17.991,22.172 17.083,23.079 C16.173,23.984 15.113,24.698 13.902,25.218 C12.691,25.741 11.393,26 10.007,26 C8.62,26 7.32,25.741 6.103,25.218 C4.892,24.698 3.83,23.984 2.925,23.079 C2.02,22.172 1.305,21.113 0.782,19.897 C0.262,18.684 0,17.384 0,16.001 C0,14.616 0.262,13.316 0.782,12.1 C1.305,10.887 2.02,9.828 2.925,8.923 C3.83,8.016 4.892,7.305 6.103,6.782 C7.32,6.259 8.62,6 10.007,6" fill="#7F7F7F"/>
  </g>
</svg>
