<?xml version="1.0" encoding="UTF-8"?>
<!DOCTYPE svg PUBLIC "-//W3C//DTD SVG 1.1//EN" "http://www.w3.org/Graphics/SVG/1.1/DTD/svg11.dtd">
<svg version="1.1" xmlns="http://www.w3.org/2000/svg" xmlns:xlink="http://www.w3.org/1999/xlink" x="0" y="0" width="50" height="50" viewBox="0, 0, 50, 50">
  <g id="Background">
    <rect x="0" y="0" width="50" height="50" fill="#000000" fill-opacity="0"/>
  </g>
  <g id="Layer_1">
    <g>
      <g>
        <path d="M33.741,14 C34.218,14 34.623,14.17 34.948,14.507 C35.273,14.844 35.437,15.243 35.437,15.7 L35.437,22.068 C35.437,22.554 35.32,23.076 35.08,23.627 C34.842,24.178 34.558,24.626 34.233,24.975 L33.038,26.312 L31.659,26.312 L31.659,23.357 C31.659,22.735 31.422,22.162 30.986,21.72 C30.532,21.271 29.958,21.033 29.335,21.033 L28.073,21.033 C27.436,21.033 26.849,21.273 26.406,21.726 C25.969,22.185 25.749,22.757 25.749,23.375 L25.749,26.312 L22.794,26.312 C22.169,26.312 21.593,26.55 21.151,26.991 C20.709,27.434 20.47,28.009 20.47,28.634 L20.47,29.898 C20.47,30.54 20.712,31.132 21.176,31.575 C21.61,31.999 22.189,32.222 22.813,32.222 L25.749,32.222 L25.749,34.467 L24.832,35.493 C24.506,35.841 24.105,36.008 23.627,36 C23.15,35.991 22.748,35.824 22.42,35.493 L15.041,28.116 C14.712,27.788 14.554,27.396 14.563,26.935 C14.572,26.478 14.733,26.068 15.041,25.705 L24.468,15.21 C24.767,14.862 25.207,14.577 25.787,14.349 C26.364,14.117 26.895,14 27.372,14 L33.741,14 z M31.047,16.766 C30.59,16.766 30.2,16.922 29.884,17.235 C29.565,17.549 29.406,17.936 29.406,18.393 C29.406,18.853 29.565,19.24 29.884,19.559 C30.2,19.876 30.59,20.034 31.047,20.034 C31.505,20.034 31.891,19.876 32.208,19.559 C32.519,19.24 32.677,18.853 32.677,18.393 C32.677,17.936 32.519,17.549 32.208,17.235 C31.891,16.922 31.505,16.766 31.047,16.766 z" fill="#FFFFFF"/>
        <path d="M34.613,27.812 C34.84,27.812 35.034,27.893 35.196,28.052 C35.357,28.213 35.437,28.408 35.437,28.635 L35.437,29.898 C35.437,30.127 35.357,30.319 35.196,30.481 C35.034,30.642 34.84,30.722 34.613,30.722 L30.159,30.722 L30.159,35.159 C30.159,35.399 30.078,35.599 29.919,35.758 C29.758,35.919 29.562,36 29.335,36 L28.073,36 C27.846,36 27.65,35.919 27.488,35.758 C27.327,35.599 27.249,35.405 27.249,35.176 L27.249,30.722 L22.813,30.722 C22.573,30.722 22.371,30.645 22.212,30.49 C22.051,30.336 21.97,30.138 21.97,29.898 L21.97,28.635 C21.97,28.408 22.051,28.213 22.212,28.052 C22.371,27.893 22.565,27.812 22.794,27.812 L27.249,27.812 L27.249,23.375 C27.249,23.135 27.325,22.936 27.479,22.774 C27.635,22.615 27.833,22.533 28.073,22.533 L29.335,22.533 C29.562,22.533 29.758,22.615 29.919,22.774 C30.078,22.936 30.159,23.13 30.159,23.357 L30.159,27.812 z" fill="#FFFFFF"/>
      </g>
      <path d="M27.556,0.129 C40.601,2.025 49.339,11.917 50,25 C50,38.807 38.807,50 25,50 C11.193,50 0,38.807 0,25 C0,11.193 11.193,0 25,0 L27.556,0.129 z M25,3 C12.85,3 3,12.85 3,25 C3,37.15 12.85,47 25,47 C37.15,47 47,37.15 47,25 C47,12.85 37.15,3 25,3 z" fill="#FFFFFF"/>
    </g>
  </g>
</svg>
