<?xml version="1.0" encoding="UTF-8"?>
<!DOCTYPE svg PUBLIC "-//W3C//DTD SVG 1.1//EN" "http://www.w3.org/Graphics/SVG/1.1/DTD/svg11.dtd">
<svg version="1.1" xmlns="http://www.w3.org/2000/svg" xmlns:xlink="http://www.w3.org/1999/xlink" x="0" y="0" width="54" height="54" viewBox="0, 0, 54, 54">
  <g id="Layer_1">
    <path d="M33.395,18.658 L29.336,18.658 C28.856,18.658 28.321,19.289 28.321,20.134 L28.321,23.065 L33.395,23.065 L33.395,27.243 L28.321,27.243 L28.321,39.79 L23.528,39.79 L23.528,27.243 L19.184,27.243 L19.184,23.065 L23.528,23.065 L23.528,20.605 C23.528,17.079 25.976,14.211 29.336,14.211 L33.395,14.211 z M27,0 C12.088,0 0,12.088 0,27 C0,41.912 12.088,54 27,54 C41.912,54 54,41.912 54,27 C54,12.088 41.912,0 27,0" fill="#FFFFFF"/>
  </g>
</svg>
