<?xml version="1.0" encoding="UTF-8"?>
<!DOCTYPE svg PUBLIC "-//W3C//DTD SVG 1.1//EN" "http://www.w3.org/Graphics/SVG/1.1/DTD/svg11.dtd">
<svg version="1.1" xmlns="http://www.w3.org/2000/svg" xmlns:xlink="http://www.w3.org/1999/xlink" x="0" y="0" width="32" height="22" viewBox="0, 0, 32, 22">
  <g id="Background">
    <rect x="0" y="0" width="32" height="22" fill="#000000" fill-opacity="0"/>
  </g>
  <g id="Layer_1" display="none">
    <path d="M30.303,0 C30.778,0 31.182,0.17 31.51,0.507 C31.839,0.841 32,1.24 32,1.7 L32,8.068 C32,8.534 31.88,9.047 31.642,9.595 C31.405,10.149 31.124,10.606 30.793,10.972 L21.394,21.437 C21.095,21.803 20.706,21.976 20.225,21.956 C19.741,21.938 19.337,21.765 19.012,21.437 L14.399,16.844 L16.814,16.844 C17.654,16.844 18.425,16.544 19.031,15.974 C19.673,15.341 20.001,14.555 20.001,13.7 L20.001,8.31 C20.001,7.443 19.663,6.652 19.035,6.057 C18.262,5.461 18.632,5.715 17.408,5.249 L21.028,1.207 C21.18,1.04 21.377,0.882 21.614,0.738 C21.851,0.592 22.106,0.46 22.376,0.343 C22.649,0.229 22.918,0.141 23.185,0.085 C23.452,0.029 23.701,0 23.935,0 L30.303,0 z M27.61,2.737 C27.17,2.737 26.787,2.898 26.461,3.221 C26.133,3.543 25.969,3.936 25.969,4.393 C25.969,4.83 26.133,5.213 26.461,5.545 C26.787,5.87 27.17,6.034 27.61,6.034 C28.07,6.034 28.457,5.87 28.782,5.545 C29.105,5.213 29.266,4.83 29.266,4.393 C29.266,3.936 29.105,3.543 28.782,3.221 C28.457,2.898 28.07,2.737 27.61,2.737 z" fill="#7F7F7F"/>
    <path d="M0.284,10.376 C0.099,10.554 0.006,10.764 0,11.022 C-0.003,11.273 0.089,11.478 0.284,11.634 L8.708,19.737 C8.892,19.911 9.108,20 9.366,20 C9.465,20 9.576,19.982 9.701,19.943 C10.095,19.787 10.296,19.508 10.296,19.11 L10.296,14.844 L16.814,14.844 C17.152,14.844 17.431,14.733 17.66,14.517 C17.887,14.294 18.001,14.021 18.001,13.7 L18.001,8.31 C18.001,7.989 17.887,7.724 17.66,7.509 C17.431,7.301 17.152,7.197 16.814,7.197 L10.296,7.197 L10.296,2.905 C10.296,2.505 10.095,2.227 9.701,2.067 C9.303,1.93 8.972,2.004 8.708,2.275 z" fill="#7F7F7F"/>
  </g>
  <g id="Layer_2" display="none">
    <path d="M12.296,17.488 L16.108,21.299 L15.938,21.493 C15.612,21.838 15.208,22.008 14.73,22 C14.255,21.991 13.851,21.821 13.526,21.493 L12.107,20.075 C12.335,19.747 12.161,20.024 12.296,19.11 L12.296,17.488 z" fill="#7F7F7F"/>
    <path d="M20.202,0.168 L19.472,0.416 C18.977,0.615 18.584,0.882 18.297,1.207 L14.722,5.197 L12.296,5.197 L12.296,4.895 L15.574,1.237 C15.873,0.891 16.31,0.601 16.884,0.372 C17.462,0.144 17.986,0.029 18.461,0.029 L20.902,0.029 L20.202,0.168 z" fill="#7F7F7F"/>
  </g>
  <g id="Layer_3">
    <path d="M32,1.979 L23,10.979 L32,19.979 z" fill="#7F7F7F"/>
  </g>
</svg>
