<?xml version="1.0" encoding="UTF-8"?>
<!DOCTYPE svg PUBLIC "-//W3C//DTD SVG 1.1//EN" "http://www.w3.org/Graphics/SVG/1.1/DTD/svg11.dtd">
<svg version="1.1" xmlns="http://www.w3.org/2000/svg" xmlns:xlink="http://www.w3.org/1999/xlink" x="0" y="0" width="24" height="32" viewBox="0, 0, 24, 32">
  <g id="Background">
    <rect x="0" y="0" width="24" height="32" fill="#000000" fill-opacity="0"/>
  </g>
  <g id="Layer_1">
    <g>
      <path d="M10.34,4.005 L10.502,4.023 C10.568,4.036 10.722,4.099 10.846,4.157 C11.021,4.241 11.119,4.311 11.264,4.455 C11.45,4.638 11.46,4.646 11.661,4.69 C11.886,4.74 12.212,4.853 12.389,4.943 C12.452,4.974 12.627,5.095 12.781,5.214 C12.934,5.332 13.151,5.495 13.265,5.582 C13.487,5.75 13.858,6.123 14.045,6.373 C14.217,6.602 14.45,7.107 14.588,7.546 C14.765,8.111 14.797,8.292 14.8,8.7 C14.802,8.997 14.789,9.11 14.725,9.404 C14.643,9.786 14.643,9.796 14.778,10.106 L14.823,10.211 L14.755,10.148 L14.686,10.085 L14.686,10.267 C14.686,10.431 14.699,10.469 14.813,10.685 C14.9,10.847 14.956,10.921 14.985,10.919 C15.011,10.916 15.03,10.932 15.03,10.961 C15.03,10.987 15.067,11.039 15.109,11.074 C15.207,11.158 15.21,11.182 15.117,11.161 L15.043,11.144 L15.122,11.211 C15.218,11.289 15.173,11.297 15.03,11.223 C14.905,11.161 14.89,11.197 15.003,11.282 C15.091,11.345 15.104,11.381 15.043,11.381 C14.982,11.381 14.995,11.46 15.072,11.571 C15.165,11.702 15.144,11.721 15.027,11.607 C14.977,11.558 14.929,11.523 14.919,11.531 C14.905,11.537 14.897,11.665 14.897,11.815 C14.897,12.07 14.823,12.503 14.768,12.578 C14.757,12.591 14.696,12.754 14.633,12.935 L14.516,13.266 L14.575,13.495 C14.646,13.775 14.649,13.937 14.58,14.087 C14.511,14.234 14.49,14.215 14.54,14.05 C14.561,13.982 14.58,13.89 14.58,13.847 C14.58,13.727 14.498,13.398 14.474,13.423 C14.461,13.435 14.464,13.5 14.479,13.566 C14.538,13.819 14.453,13.974 14.194,14.092 C14.014,14.171 13.958,14.258 14.022,14.358 C14.048,14.399 14.043,14.41 13.985,14.431 C13.918,14.455 13.916,14.502 13.979,14.581 C13.995,14.605 13.99,14.62 13.963,14.631 C13.921,14.647 13.865,14.773 13.865,14.854 C13.865,14.889 13.884,14.903 13.924,14.903 C13.977,14.903 13.979,14.907 13.94,14.946 C13.918,14.97 13.868,14.991 13.831,14.991 C13.77,14.996 13.76,15.01 13.746,15.119 C13.736,15.191 13.717,15.251 13.704,15.262 C13.67,15.283 13.675,15.385 13.717,15.485 C13.738,15.535 13.762,15.662 13.773,15.767 C13.768,15.988 13.823,15.933 13.735,16 L13.685,16.028 L13.683,16.029 C13.633,15.982 13.659,16.018 13.667,15.895 C13.678,15.798 13.675,15.769 13.656,15.798 C13.605,16.034 13.608,15.938 13.613,16.082 C13.501,16.166 13.572,16.111 13.403,16.251 C13.208,16.422 13.021,16.598 12.829,16.79 C12.621,17 12.453,17.179 12.303,17.348 C11.906,17.807 11.801,17.961 11.8,18.437 L11.8,18.666 L11.885,18.879 L11.925,18.98 L11.994,19.156 L12.115,19.303 C12.188,19.393 12.26,19.483 12.333,19.574 C12.335,19.576 12.336,19.578 12.338,19.58 C11.972,19.646 12.174,19.601 11.734,19.726 C11.141,19.915 10.703,20.223 10.703,21.015 L10.703,22.825 C10.703,23.647 11.143,23.935 11.792,24.124 C12.213,24.226 12.013,24.186 12.389,24.251 C12.292,24.381 12.359,24.291 12.191,24.523 C12.138,24.597 12.092,24.665 12.055,24.723 C12.024,24.775 12.024,24.775 11.984,24.847 C11.931,24.92 11.931,24.92 11.84,25.421 C11.871,25.827 11.82,25.635 11.993,25.998 C8.896,25.996 5.799,26.002 2.703,25.994 C2.673,25.993 0.396,26.017 0,25.959 C0,25.81 0.291,25.191 0.508,24.874 C0.709,24.582 1.074,24.231 1.463,23.96 C1.847,23.691 3.032,22.943 3.342,22.775 C3.628,22.621 4.223,22.342 4.546,22.215 C4.924,22.066 5.255,21.898 5.861,21.543 C6.591,21.117 6.663,21.063 6.795,20.846 C6.824,20.796 6.912,20.694 6.986,20.623 C7.062,20.549 7.163,20.428 7.213,20.354 C7.261,20.278 7.367,20.147 7.446,20.06 C7.674,19.813 7.695,19.634 7.613,18.467 C7.56,17.689 7.56,17.681 7.475,17.263 C7.406,16.926 7.361,16.826 7.248,16.759 C7.139,16.697 7.02,16.542 6.777,16.145 C6.501,15.698 6.348,15.317 6.218,14.755 C6.165,14.534 6.155,14.507 6.073,14.456 C5.827,14.305 5.538,13.795 5.424,13.311 C5.369,13.075 5.131,12.578 4.959,12.343 C4.893,12.249 4.869,12.196 4.882,12.151 C4.89,12.118 4.885,12.091 4.874,12.091 C4.861,12.091 4.874,11.994 4.903,11.873 C4.951,11.676 4.953,11.623 4.927,11.25 C4.911,11.026 4.885,10.777 4.869,10.698 C4.853,10.619 4.832,10.463 4.821,10.352 C4.811,10.239 4.784,10.133 4.763,10.106 C4.726,10.062 4.676,9.878 4.633,9.632 L4.615,9.527 L4.564,9.62 C4.498,9.743 4.488,9.687 4.541,9.499 C4.594,9.303 4.623,8.805 4.583,8.805 C4.567,8.805 4.535,8.836 4.512,8.876 C4.472,8.947 4.472,8.947 4.488,8.884 C4.498,8.847 4.546,8.739 4.594,8.645 C4.692,8.45 4.744,8.183 4.681,8.205 C4.636,8.221 4.58,8.367 4.578,8.489 C4.578,8.567 4.572,8.574 4.549,8.532 C4.509,8.468 4.541,8.203 4.607,8.031 C4.67,7.866 4.668,7.855 4.602,7.935 L4.549,7.998 L4.564,7.751 C4.575,7.614 4.594,7.438 4.604,7.359 C4.628,7.204 4.623,7.185 4.58,7.214 C4.514,7.254 4.467,7.398 4.464,7.582 C4.459,7.793 4.419,7.827 4.419,7.622 C4.419,7.438 4.467,7.249 4.533,7.157 C4.604,7.062 4.813,6.781 4.924,6.636 C4.967,6.578 5.043,6.462 5.094,6.378 C5.194,6.207 5.176,6.191 4.977,6.281 C4.914,6.31 4.856,6.331 4.85,6.323 C4.826,6.302 4.988,6.199 5.091,6.173 C5.149,6.159 5.308,6.094 5.438,6.031 C5.93,5.797 6.007,5.767 6.165,5.767 L6.316,5.771 L6.359,5.513 C6.382,5.371 6.427,5.206 6.459,5.144 C6.525,5.006 6.726,4.703 6.75,4.703 C6.761,4.703 6.75,4.772 6.732,4.853 C6.687,5.043 6.687,5.045 6.732,5.045 C6.753,5.045 6.782,5.011 6.795,4.966 C6.827,4.882 6.906,4.767 7.081,4.556 C7.237,4.372 7.462,4.27 7.674,4.291 C7.758,4.299 7.869,4.325 7.925,4.351 L8.026,4.399 L8.227,4.291 C8.338,4.23 8.515,4.151 8.621,4.115 C8.796,4.054 8.854,4.046 9.203,4.044 C9.417,4.044 9.64,4.033 9.698,4.023 C10.025,3.989 9.812,4.005 10.34,4.005 z" fill="#7F7F7F"/>
      <path d="M23.992,25.949 L24,25.975 L23.978,25.975 L23.992,25.949 z" fill="#7F7F7F"/>
      <path d="M17.96,23.752 C18.21,23.752 18.443,23.704 18.664,23.611 C18.887,23.517 19.08,23.389 19.244,23.225 C19.408,23.061 19.537,22.867 19.631,22.646 C19.726,22.424 19.772,22.19 19.772,21.94 C19.772,21.692 19.726,21.454 19.631,21.231 C19.537,21.007 19.408,20.809 19.244,20.645 C19.08,20.481 18.887,20.353 18.664,20.254 C18.443,20.157 18.21,20.107 17.96,20.107 C17.451,20.107 17.018,20.285 16.663,20.641 C16.307,20.996 16.129,21.429 16.129,21.94 C16.129,22.19 16.177,22.424 16.276,22.646 C16.373,22.867 16.503,23.061 16.667,23.225 C16.831,23.389 17.027,23.517 17.251,23.611 C17.476,23.704 17.712,23.752 17.96,23.752 M21.938,19.737 C22.091,19.997 22.221,20.306 22.329,20.662 C22.396,20.674 22.52,20.691 22.701,20.712 C22.882,20.731 23.069,20.761 23.26,20.798 C23.451,20.834 23.622,20.874 23.773,20.912 C23.924,20.954 24,21 24,21.055 L24,22.846 C24,22.911 23.924,22.97 23.773,23.01 C23.622,23.056 23.451,23.092 23.26,23.128 C23.069,23.161 22.879,23.185 22.69,23.197 C22.503,23.212 22.381,23.225 22.329,23.239 C22.234,23.527 22.112,23.822 21.957,24.124 C22.112,24.332 22.259,24.534 22.404,24.734 C22.549,24.93 22.711,25.127 22.892,25.323 L22.913,25.421 C22.913,25.461 22.844,25.562 22.707,25.724 C22.568,25.886 22.409,26.054 22.228,26.233 C22.047,26.412 21.877,26.567 21.721,26.706 C21.561,26.843 21.462,26.912 21.423,26.912 C21.41,26.912 21.341,26.866 21.216,26.775 C21.092,26.685 20.956,26.582 20.804,26.464 C20.653,26.347 20.512,26.239 20.382,26.136 C20.249,26.037 20.165,25.97 20.125,25.934 C19.823,26.09 19.528,26.214 19.238,26.309 C19.238,26.376 19.228,26.5 19.209,26.679 C19.188,26.862 19.162,27.051 19.129,27.248 C19.095,27.448 19.053,27.623 19.003,27.772 C18.952,27.923 18.9,27.999 18.847,27.999 L17.056,27.999 C17.001,27.999 16.951,27.923 16.9,27.772 C16.85,27.623 16.81,27.448 16.783,27.248 C16.757,27.051 16.732,26.862 16.713,26.685 C16.692,26.506 16.684,26.382 16.684,26.309 C16.381,26.229 16.085,26.103 15.797,25.934 C15.588,26.09 15.382,26.246 15.179,26.403 C14.975,26.563 14.773,26.723 14.579,26.891 L14.478,26.912 C14.453,26.912 14.361,26.843 14.201,26.706 C14.043,26.567 13.879,26.412 13.709,26.233 C13.537,26.054 13.383,25.886 13.246,25.724 C13.108,25.562 13.04,25.461 13.04,25.421 C13.04,25.409 13.082,25.339 13.171,25.215 C13.257,25.094 13.358,24.957 13.467,24.814 C13.579,24.669 13.682,24.53 13.778,24.4 C13.877,24.269 13.938,24.185 13.965,24.143 C13.81,23.857 13.68,23.54 13.572,23.197 C13.505,23.185 13.381,23.168 13.2,23.147 C13.019,23.128 12.834,23.105 12.641,23.077 C12.45,23.05 12.279,23.014 12.128,22.972 C11.977,22.928 11.903,22.88 11.903,22.825 L11.903,21.015 C11.903,20.962 11.977,20.908 12.128,20.859 C12.279,20.807 12.454,20.769 12.652,20.742 C12.849,20.716 13.04,20.691 13.221,20.672 C13.402,20.651 13.526,20.641 13.593,20.641 C13.673,20.313 13.797,20.018 13.965,19.756 C13.81,19.55 13.659,19.341 13.507,19.138 C13.358,18.934 13.2,18.732 13.04,18.538 L13,18.437 C13,18.398 13.068,18.299 13.204,18.141 C13.343,17.983 13.501,17.817 13.677,17.639 C13.856,17.46 14.024,17.302 14.182,17.163 C14.34,17.029 14.439,16.957 14.478,16.957 C14.493,16.957 14.56,17.002 14.684,17.09 C14.809,17.176 14.947,17.279 15.099,17.395 C15.248,17.512 15.393,17.628 15.53,17.739 C15.668,17.849 15.75,17.916 15.776,17.943 C16.066,17.775 16.368,17.653 16.684,17.571 C16.684,17.519 16.692,17.393 16.713,17.201 C16.732,17.006 16.757,16.812 16.783,16.621 C16.81,16.428 16.846,16.255 16.89,16.098 C16.932,15.94 16.989,15.862 17.056,15.862 L18.847,15.862 C18.9,15.862 18.952,15.94 19.003,16.098 C19.053,16.255 19.091,16.428 19.118,16.621 C19.146,16.812 19.169,17.006 19.188,17.201 C19.209,17.393 19.226,17.519 19.238,17.571 C19.541,17.653 19.829,17.771 20.104,17.922 C20.312,17.771 20.523,17.618 20.733,17.468 C20.945,17.315 21.149,17.159 21.343,16.999 L21.423,16.957 C21.45,16.957 21.542,17.031 21.7,17.174 C21.858,17.319 22.024,17.477 22.198,17.649 C22.373,17.819 22.533,17.983 22.676,18.141 C22.821,18.299 22.892,18.398 22.892,18.437 C22.892,18.465 22.848,18.538 22.758,18.665 C22.665,18.789 22.564,18.921 22.455,19.066 C22.343,19.211 22.236,19.348 22.133,19.48 C22.028,19.611 21.963,19.695 21.938,19.737" fill="#7F7F7F"/>
    </g>
  </g>
</svg>
