<?xml version="1.0" encoding="UTF-8"?>
<!DOCTYPE svg PUBLIC "-//W3C//DTD SVG 1.1//EN" "http://www.w3.org/Graphics/SVG/1.1/DTD/svg11.dtd">
<svg version="1.1" xmlns="http://www.w3.org/2000/svg" xmlns:xlink="http://www.w3.org/1999/xlink" x="0" y="0" width="22" height="22" viewBox="0, 0, 22, 22">
  <g id="Background">
    <rect x="0" y="0" width="22" height="22" fill="#000000" fill-opacity="0"/>
  </g>
  <g id="Layer_1">
    <path d="M10.445,0.215 C10.6,0.076 10.793,0.006 11.019,0 C11.245,-0.003 11.424,0.068 11.566,0.215 L18.761,7.413 C18.919,7.571 18.998,7.756 18.998,7.973 C18.998,8.044 18.979,8.147 18.946,8.289 C18.807,8.61 18.56,8.767 18.204,8.767 L14.416,8.767 L14.416,14.34 C14.416,14.628 14.318,14.87 14.122,15.063 C13.926,15.259 13.687,15.354 13.401,15.354 L8.61,15.354 C8.321,15.354 8.087,15.259 7.9,15.063 C7.712,14.87 7.62,14.628 7.62,14.34 L7.62,8.767 L3.804,8.767 C3.448,8.767 3.203,8.61 3.062,8.289 C2.942,7.949 3.002,7.658 3.244,7.413 z" fill="#FFFFFF"/>
    <path d="M20.999,17.989 C20.999,18.535 20.893,19.052 20.681,19.531 C20.469,20.015 20.183,20.436 19.827,20.801 C19.471,21.165 19.049,21.456 18.56,21.674 C18.068,21.891 17.548,22 17.002,22 L4.998,22 C4.454,22 3.94,21.891 3.456,21.674 C2.975,21.456 2.554,21.165 2.186,20.801 C1.822,20.436 1.536,20.015 1.322,19.539 C1.11,19.063 1.001,18.544 1.001,17.989 L1.001,12.001 L3.513,12.001 L3.513,17.989 C3.513,18.397 3.66,18.748 3.951,19.044 C4.242,19.338 4.593,19.487 4.998,19.487 L17.002,19.487 C17.412,19.487 17.76,19.34 18.051,19.052 C18.34,18.758 18.487,18.405 18.487,17.989 L18.487,12.001 L20.999,12.001 z" fill="#FFFFFF"/>
  </g>
</svg>
