<?xml version="1.0" encoding="UTF-8"?>
<!DOCTYPE svg PUBLIC "-//W3C//DTD SVG 1.1//EN" "http://www.w3.org/Graphics/SVG/1.1/DTD/svg11.dtd">
<svg version="1.1" xmlns="http://www.w3.org/2000/svg" xmlns:xlink="http://www.w3.org/1999/xlink" x="0" y="0" width="22" height="22" viewBox="0, 0, 22, 22">
  <g id="Background">
    <rect x="0" y="0" width="22" height="22" fill="#000000" fill-opacity="0"/>
  </g>
  <g id="Layer_1">
    <path d="M12.395,6.18 C13.84,6.18 15.387,7.053 14.176,10.312 C14.176,10.312 11.756,16.861 11.756,16.861 C11.555,17.365 11.185,18.205 11.185,18.742 C11.185,18.977 11.319,19.213 11.588,19.213 C12.596,19.213 14.446,16.357 14.916,16.357 C15.084,16.357 15.319,16.558 15.319,16.861 C15.319,17.835 11.387,22 7.992,22 C6.781,22 5.941,21.43 5.941,20.153 C5.941,18.541 7.084,15.787 7.32,15.215 C7.32,15.215 9.672,9.303 9.672,9.303 C9.908,8.699 9.605,8.397 9.336,8.397 C8.092,8.397 6.478,11.319 5.874,11.319 C5.638,11.319 5.437,11.083 5.437,10.882 C5.437,10.277 6.916,8.867 7.353,8.43 C8.697,7.154 10.445,6.18 12.395,6.18 z M14.243,0 C15.588,0 16.563,0.906 16.563,2.284 C16.563,3.829 15.286,4.971 13.774,4.971 C12.395,4.971 11.487,4.064 11.487,2.686 C11.487,1.209 12.764,0 14.243,0 z" fill="#7F7F7F" id="Shape_1"/>
  </g>
</svg>
