<?xml version="1.0" encoding="UTF-8"?>
<!DOCTYPE svg PUBLIC "-//W3C//DTD SVG 1.1//EN" "http://www.w3.org/Graphics/SVG/1.1/DTD/svg11.dtd">
<svg version="1.1" xmlns="http://www.w3.org/2000/svg" xmlns:xlink="http://www.w3.org/1999/xlink" x="0" y="0" width="24" height="32" viewBox="0, 0, 24, 32">
  <g id="Background">
    <rect x="0" y="0" width="24" height="32" fill="#000000" fill-opacity="0"/>
  </g>
  <g id="Layer_1">
    <g>
      <path d="M9.272,3.353 C9.822,3.353 10.431,3.488 11.095,3.754 C11.762,4.017 12.268,4.344 12.611,4.745 L23.45,16.81 C23.804,17.228 23.989,17.7 24,18.225 C24.01,18.754 23.828,19.206 23.45,19.583 L14.966,28.064 C14.589,28.444 14.128,28.636 13.578,28.647 L13.45,28.623 C14.073,28.001 13.746,28.448 14.025,27.066 L14.025,16 C14.025,14.254 12.61,12.838 10.864,12.838 L5.232,12.838 C3.486,12.838 2.07,14.254 2.07,16 L2.07,16.738 L1.385,15.971 C1.011,15.57 0.684,15.055 0.411,14.421 C0.135,13.788 0,13.188 0,12.629 L0,5.307 C0,4.782 0.189,4.323 0.563,3.936 C0.937,3.549 1.402,3.353 1.951,3.353 L9.272,3.353 z M5.047,6.534 C4.522,6.534 4.077,6.712 3.713,7.073 C3.356,7.433 3.174,7.878 3.174,8.404 C3.174,8.933 3.356,9.377 3.713,9.745 C4.077,10.109 4.522,10.291 5.047,10.291 C5.573,10.291 6.021,10.109 6.385,9.745 C6.752,9.377 6.934,8.933 6.934,8.404 C6.934,7.878 6.752,7.433 6.385,7.073 C6.021,6.712 5.573,6.534 5.047,6.534 z" fill="#7F7F7F"/>
      <path d="M5.232,14.419 L10.864,14.419 C11.737,14.419 12.445,15.127 12.445,16 L12.445,27.066 C12.445,27.939 11.737,28.647 10.864,28.647 L5.232,28.647 C4.359,28.647 3.651,27.939 3.651,27.066 L3.651,16 C3.651,15.127 4.359,14.419 5.232,14.419 z" fill="#7F7F7F"/>
    </g>
  </g>
</svg>
