<?xml version="1.0" encoding="UTF-8"?>
<!DOCTYPE svg PUBLIC "-//W3C//DTD SVG 1.1//EN" "http://www.w3.org/Graphics/SVG/1.1/DTD/svg11.dtd">
<svg version="1.1" xmlns="http://www.w3.org/2000/svg" xmlns:xlink="http://www.w3.org/1999/xlink" x="0" y="0" width="20" height="20" viewBox="0, 0, 20, 20">
  <g id="Layer_1">
    <path d="M12.175,15.621 L7.335,15.621 L7.335,14.372 L12.175,14.372 z M6.154,15.621 L2.822,15.621 L2.822,14.372 L6.154,14.372 z M18.338,10.423 L1.671,10.423 L1.671,16.661 L18.338,16.661 z M18.338,3.337 L1.671,3.337 L1.671,6.243 L18.338,6.243 z M18.338,1.666 C18.796,1.666 19.186,1.829 19.513,2.153 C19.837,2.48 20,2.874 20,3.337 L20,16.661 C20,17.117 19.837,17.511 19.513,17.837 C19.186,18.168 18.796,18.334 18.338,18.334 L1.671,18.334 C1.215,18.334 0.823,18.171 0.494,17.844 C0.163,17.52 0,17.126 0,16.661 L0,3.337 C0,2.881 0.163,2.489 0.487,2.158 C0.814,1.829 1.208,1.666 1.671,1.666 z" fill="#5C7A99"/>
  </g>
</svg>
