<?xml version="1.0" encoding="UTF-8"?>
<!DOCTYPE svg PUBLIC "-//W3C//DTD SVG 1.1//EN" "http://www.w3.org/Graphics/SVG/1.1/DTD/svg11.dtd">
<svg version="1.1" xmlns="http://www.w3.org/2000/svg" xmlns:xlink="http://www.w3.org/1999/xlink" x="0" y="0" width="20" height="20" viewBox="0, 0, 20, 20">
  <g id="Layer_1">
    <path d="M12.993,17.462 C12.993,17.598 13.041,17.71 13.134,17.8 C13.228,17.888 13.348,17.934 13.492,17.934 L13.99,17.934 C14.126,17.934 14.243,17.888 14.339,17.806 C14.438,17.72 14.489,17.606 14.489,17.462 L14.489,9.625 C14.489,9.489 14.438,9.369 14.339,9.273 C14.243,9.175 14.126,9.124 13.99,9.124 L13.492,9.124 C13.356,9.124 13.238,9.175 13.142,9.273 C13.044,9.369 12.993,9.489 12.993,9.625 z M10.745,9.625 C10.745,9.489 10.7,9.369 10.601,9.273 C10.5,9.175 10.383,9.124 10.249,9.124 L9.751,9.124 C9.615,9.124 9.5,9.175 9.412,9.273 C9.324,9.369 9.279,9.489 9.279,9.625 L9.279,17.462 C9.279,17.598 9.321,17.71 9.407,17.8 C9.492,17.888 9.604,17.934 9.751,17.934 L10.249,17.934 C10.383,17.934 10.5,17.888 10.601,17.806 C10.7,17.72 10.745,17.606 10.745,17.462 z M8.156,2.909 C9.383,2.89 10.617,2.89 11.87,2.909 C11.87,2.808 11.878,2.709 11.897,2.61 C11.913,2.512 11.913,2.418 11.897,2.333 L11.897,2.144 C11.598,2.058 11.281,2.01 10.951,2.002 C10.617,1.994 10.303,1.989 10.007,1.989 C9.692,1.989 9.372,1.994 9.044,2.002 C8.716,2.01 8.402,2.058 8.106,2.144 L8.106,2.333 C8.106,2.418 8.108,2.514 8.119,2.616 C8.127,2.72 8.14,2.816 8.156,2.909 M7.007,9.625 C7.007,9.489 6.956,9.369 6.86,9.273 C6.762,9.175 6.644,9.124 6.508,9.124 L6.013,9.124 C5.874,9.124 5.762,9.175 5.674,9.273 C5.583,9.369 5.538,9.489 5.538,9.625 L5.538,17.462 C5.538,17.598 5.583,17.71 5.674,17.8 C5.762,17.888 5.874,17.934 6.013,17.934 L6.508,17.934 C6.644,17.934 6.762,17.888 6.86,17.806 C6.956,17.72 7.007,17.606 7.007,17.462 z M10.007,7.682 C11.105,7.666 12.201,7.639 13.3,7.607 C14.395,7.572 15.494,7.49 16.595,7.351 L16.595,18.035 C16.595,18.571 16.406,19.035 16.033,19.419 C15.657,19.808 15.201,20 14.665,20 L5.335,20 C4.799,20 4.338,19.811 3.949,19.424 C3.562,19.045 3.37,18.582 3.37,18.035 L3.37,7.351 C4.415,7.49 5.455,7.578 6.484,7.62 C7.514,7.66 8.551,7.682 9.599,7.682 z M18.328,4.557 L18.328,5.437 C18.014,5.607 17.491,5.743 16.758,5.853 C16.027,5.959 15.238,6.039 14.39,6.093 C13.545,6.151 12.721,6.183 11.921,6.189 C11.121,6.197 10.484,6.202 10.007,6.202 C9.537,6.202 8.9,6.197 8.092,6.189 C7.282,6.183 6.455,6.151 5.607,6.093 C4.762,6.039 3.978,5.959 3.256,5.858 C2.53,5.754 2.013,5.615 1.698,5.437 C1.68,5.301 1.672,5.154 1.672,4.994 L1.672,4.557 L1.672,4.095 C1.672,3.943 1.68,3.789 1.698,3.634 C1.909,3.52 2.213,3.416 2.605,3.336 C2.994,3.256 3.41,3.189 3.853,3.138 C4.295,3.088 4.733,3.05 5.162,3.024 C5.594,3 5.927,2.976 6.165,2.96 C6.095,2.264 6.146,1.72 6.311,1.325 C6.479,0.936 6.73,0.643 7.071,0.453 C7.41,0.261 7.828,0.136 8.327,0.08 C8.825,0.027 9.383,0 10.007,0 C10.476,0 10.94,0.011 11.404,0.037 C11.868,0.064 12.281,0.152 12.649,0.296 C13.014,0.448 13.305,0.68 13.524,0.995 C13.74,1.309 13.849,1.754 13.849,2.333 L13.849,2.64 C13.849,2.744 13.838,2.85 13.825,2.96 C14.07,2.976 14.406,3 14.83,3.024 C15.257,3.05 15.694,3.088 16.142,3.138 C16.587,3.189 17.011,3.256 17.408,3.336 C17.811,3.416 18.118,3.52 18.328,3.634 z" fill="#6C89A6"/>
  </g>
</svg>
