<?xml version="1.0" encoding="UTF-8"?>
<!DOCTYPE svg PUBLIC "-//W3C//DTD SVG 1.1//EN" "http://www.w3.org/Graphics/SVG/1.1/DTD/svg11.dtd">
<svg version="1.1" xmlns="http://www.w3.org/2000/svg" xmlns:xlink="http://www.w3.org/1999/xlink" x="0" y="0" width="16" height="16" viewBox="0, 0, 16, 16">
  <g id="Background">
    <rect x="0" y="0" width="16" height="16" fill="#000000" fill-opacity="0"/>
  </g>
  <g id="Layer_1">
    <path d="M6.274,0 C6.622,-0 7.008,0.085 7.428,0.254 C7.85,0.42 8.169,0.627 8.387,0.88 L15.243,8.512 C15.467,8.777 15.584,9.075 15.591,9.408 C15.597,9.742 15.482,10.028 15.243,10.267 L9.876,15.631 C9.638,15.872 9.346,15.993 8.998,16 C8.485,15.907 8.651,16.007 8.435,15.853 C9.966,14.731 10.567,13.316 10.75,11.5 C10.75,8.601 8.399,6.25 5.5,6.25 C3.491,6.308 2.813,6.898 1.495,8.216 L1.285,7.982 C1.049,7.728 0.842,7.402 0.669,7.001 C0.494,6.601 0.409,6.221 0.409,5.868 L0.409,1.236 C0.409,0.904 0.529,0.614 0.765,0.369 C1.002,0.124 1.296,-0 1.643,-0 L6.274,0 z M3.602,2.012 C3.269,2.012 2.988,2.125 2.758,2.353 C2.532,2.581 2.417,2.862 2.417,3.195 C2.417,3.529 2.532,3.811 2.758,4.043 C2.988,4.273 3.269,4.388 3.602,4.388 C3.934,4.388 4.218,4.273 4.448,4.043 C4.68,3.811 4.795,3.529 4.795,3.195 C4.795,2.862 4.68,2.581 4.448,2.353 C4.218,2.125 3.934,2.012 3.602,2.012 z" fill="#999999"/>
    <path d="M7.058,11.501 C7.182,11.501 7.288,11.544 7.377,11.632 C7.465,11.722 7.509,11.827 7.509,11.951 L7.509,12.402 C7.509,12.525 7.465,12.631 7.377,12.72 C7.288,12.808 7.182,12.851 7.058,12.851 L5.03,12.851 C4.906,12.851 4.799,12.808 4.712,12.72 C4.624,12.631 4.579,12.525 4.579,12.402 L4.579,9.782 C4.579,9.658 4.624,9.552 4.712,9.465 C4.799,9.374 4.906,9.331 5.03,9.331 L5.481,9.331 C5.611,9.331 5.718,9.374 5.802,9.465 C5.884,9.552 5.926,9.658 5.926,9.782 L5.926,11.501 z M5.503,14.649 C5.943,14.649 6.352,14.566 6.732,14.401 C7.111,14.235 7.443,14.01 7.729,13.726 C8.015,13.44 8.24,13.107 8.406,12.728 C8.571,12.349 8.653,11.939 8.653,11.501 C8.653,11.061 8.571,10.651 8.406,10.272 C8.24,9.893 8.015,9.562 7.729,9.274 C7.443,8.99 7.11,8.765 6.73,8.599 C6.347,8.434 5.939,8.351 5.503,8.351 C5.064,8.351 4.653,8.434 4.272,8.599 C3.89,8.765 3.557,8.99 3.274,9.274 C2.991,9.562 2.766,9.893 2.601,10.272 C2.435,10.651 2.353,11.061 2.353,11.501 C2.353,11.939 2.435,12.349 2.601,12.728 C2.766,13.107 2.991,13.44 3.274,13.726 C3.557,14.01 3.89,14.235 4.272,14.401 C4.653,14.566 5.064,14.649 5.503,14.649 M5.503,7 C6.127,7 6.711,7.116 7.256,7.352 C7.801,7.587 8.278,7.907 8.687,8.315 C9.096,8.723 9.418,9.199 9.65,9.745 C9.883,10.292 10,10.877 10,11.501 C10,12.123 9.883,12.708 9.65,13.254 C9.418,13.801 9.096,14.277 8.687,14.686 C8.278,15.093 7.801,15.414 7.256,15.648 C6.711,15.884 6.127,16 5.503,16 C4.879,16 4.294,15.884 3.747,15.648 C3.201,15.414 2.723,15.093 2.316,14.686 C1.909,14.277 1.587,13.801 1.352,13.254 C1.118,12.708 1,12.123 1,11.501 C1,10.877 1.118,10.292 1.352,9.745 C1.587,9.199 1.909,8.723 2.316,8.315 C2.723,7.907 3.201,7.587 3.747,7.352 C4.294,7.116 4.879,7 5.503,7" fill="#999999"/>
  </g>
</svg>
