<?xml version="1.0" encoding="UTF-8"?>
<!DOCTYPE svg PUBLIC "-//W3C//DTD SVG 1.1//EN" "http://www.w3.org/Graphics/SVG/1.1/DTD/svg11.dtd">
<svg version="1.1" xmlns="http://www.w3.org/2000/svg" xmlns:xlink="http://www.w3.org/1999/xlink" x="0" y="0" width="24" height="32" viewBox="0, 0, 24, 32">
  <g id="Background">
    <rect x="0" y="0" width="24" height="32" fill="#000000" fill-opacity="0"/>
  </g>
  <g id="Layer_1">
    <g>
      <path d="M2.256,11.596 L4.563,11.596 Q5.499,11.596 6.002,11.743 Q6.505,11.89 6.758,12.167 Q7.011,12.445 7.101,12.839 Q7.191,13.234 7.191,14.061 L7.191,14.828 Q7.191,15.671 7.017,16.057 Q6.843,16.443 6.377,16.65 Q5.912,16.857 5.161,16.857 L4.547,16.857 L4.547,20.404 L2.256,20.404 z M4.547,13.103 L4.547,15.344 Q4.645,15.35 4.715,15.35 Q5.031,15.35 5.153,15.195 Q5.276,15.04 5.276,14.55 L5.276,13.827 Q5.276,13.375 5.134,13.239 Q4.993,13.103 4.547,13.103 z" fill="#5C7999"/>
      <path d="M11.527,11.596 L12.838,20.404 L10.493,20.404 L10.379,18.821 L9.557,18.821 L9.421,20.404 L7.049,20.404 L8.214,11.596 z M10.313,17.259 Q10.139,15.763 9.965,13.565 Q9.617,16.09 9.53,17.259 z" fill="#5C7999"/>
      <path d="M15.52,11.596 L15.52,20.404 L13.23,20.404 L13.23,11.596 z" fill="#5C7999"/>
      <path d="M16.439,11.596 L18.153,11.596 Q19.812,11.596 20.397,11.748 Q20.982,11.901 21.287,12.249 Q21.591,12.597 21.668,13.024 Q21.744,13.451 21.744,14.702 L21.744,17.787 Q21.744,18.973 21.632,19.373 Q21.521,19.773 21.243,19.999 Q20.966,20.224 20.558,20.314 Q20.15,20.404 19.328,20.404 L16.439,20.404 z M18.73,13.103 L18.73,18.897 Q19.225,18.897 19.339,18.698 Q19.453,18.5 19.453,17.619 L19.453,14.197 Q19.453,13.598 19.415,13.429 Q19.377,13.261 19.241,13.182 Q19.105,13.103 18.73,13.103 z" fill="#5C7999"/>
      <path d="M22.143,9.34 C23.169,9.34 24,10.171 24,11.197 L24,20.803 C24,21.829 23.169,22.66 22.143,22.66 L1.857,22.66 C0.831,22.66 0,21.829 0,20.803 L0,11.197 C0,10.171 0.831,9.34 1.857,9.34 L22.143,9.34 z M22.143,10.5 L1.857,10.5 C1.472,10.5 1.161,10.812 1.161,11.197 L1.161,20.803 C1.161,21.188 1.472,21.5 1.857,21.5 L22.143,21.5 C22.528,21.5 22.839,21.188 22.839,20.803 L22.839,11.197 C22.839,10.812 22.528,10.5 22.143,10.5 z" fill="#5C7999"/>
    </g>
  </g>
</svg>
