<?xml version="1.0" encoding="UTF-8"?>
<!DOCTYPE svg PUBLIC "-//W3C//DTD SVG 1.1//EN" "http://www.w3.org/Graphics/SVG/1.1/DTD/svg11.dtd">
<svg version="1.1" xmlns="http://www.w3.org/2000/svg" xmlns:xlink="http://www.w3.org/1999/xlink" x="0" y="0" width="24" height="32" viewBox="0, 0, 24, 32">
  <g id="Layer_1">
    <path d="M23.13,24.298 L17.445,19.462 C16.858,18.933 16.228,18.69 15.721,18.713 C17.063,17.141 17.874,15.102 17.874,12.873 C17.874,7.903 13.845,3.873 8.873,3.873 C3.903,3.873 -0.127,7.903 -0.127,12.873 C-0.127,17.845 3.903,21.874 8.873,21.874 C11.102,21.874 13.142,21.063 14.714,19.721 C14.69,20.228 14.933,20.858 15.463,21.445 L20.298,27.13 C21.126,28.049 22.477,28.127 23.302,27.302 C24.127,26.477 24.049,25.124 23.13,24.298 z M8.873,18.873 C5.56,18.873 2.873,16.188 2.873,12.873 C2.873,9.559 5.56,6.873 8.873,6.873 C12.188,6.873 14.873,9.559 14.873,12.873 C14.873,16.188 12.188,18.873 8.873,18.873 z" fill="#7F7F7F"/>
  </g>
</svg>
