<?xml version="1.0" encoding="UTF-8"?>
<!DOCTYPE svg PUBLIC "-//W3C//DTD SVG 1.1//EN" "http://www.w3.org/Graphics/SVG/1.1/DTD/svg11.dtd">
<svg version="1.1" xmlns="http://www.w3.org/2000/svg" xmlns:xlink="http://www.w3.org/1999/xlink" x="0" y="0" width="20" height="20" viewBox="0, 0, 20, 20">
  <g id="Background">
    <rect x="0" y="0" width="20" height="20" fill="#000000" fill-opacity="0"/>
  </g>
  <g id="Layer_1">
    <g>
      <path d="M18.776,7.841 C19.113,7.841 19.402,7.96 19.641,8.197 C19.88,8.436 20,8.725 20,9.062 L20,10.938 C20,11.278 19.88,11.564 19.641,11.803 C19.402,12.042 19.113,12.162 18.776,12.162 L12.161,12.162 L12.161,18.752 C12.161,19.108 12.041,19.404 11.805,19.641 C11.565,19.88 11.274,20 10.937,20 L9.063,20 C8.726,20 8.435,19.88 8.195,19.641 C7.956,19.404 7.839,19.116 7.839,18.776 L7.839,12.162 L1.251,12.162 C0.895,12.162 0.596,12.048 0.359,11.817 C0.12,11.588 0,11.295 0,10.938 L0,9.062 C0,8.725 0.12,8.436 0.359,8.197 C0.596,7.96 0.884,7.841 1.224,7.841 L7.839,7.841 L7.839,1.251 C7.839,0.895 7.953,0.598 8.182,0.359 C8.413,0.122 8.707,0 9.063,0 L10.937,0 C11.274,0 11.565,0.122 11.805,0.359 C12.041,0.598 12.161,0.887 12.161,1.224 L12.161,7.841 z" fill="#5C7999"/>
    </g>
  </g>
</svg>
