<?xml version="1.0" encoding="UTF-8"?>
<!DOCTYPE svg PUBLIC "-//W3C//DTD SVG 1.1//EN" "http://www.w3.org/Graphics/SVG/1.1/DTD/svg11.dtd">
<svg version="1.1" xmlns="http://www.w3.org/2000/svg" xmlns:xlink="http://www.w3.org/1999/xlink" x="0" y="0" width="22" height="22" viewBox="0, 0, 22, 22">
  <g id="Background">
    <rect x="0" y="0" width="22" height="22" fill="#000000" fill-opacity="0"/>
  </g>
  <g id="Background"/>
  <g id="Layer_1">
    <path d="M12.887,1.563 C14.972,-0.521 18.352,-0.521 20.437,1.563 C22.521,3.648 22.521,7.028 20.437,9.113 C18.991,10.543 16.821,11.051 14.896,10.377 C14.456,10.223 14.362,10.154 13.95,9.937 L9.937,13.95 C11.149,16.135 10.835,18.625 9.113,20.437 C7.028,22.521 3.648,22.521 1.563,20.437 C-0.521,18.352 -0.521,14.972 1.563,12.887 C3.009,11.457 5.179,10.949 7.104,11.623 C7.544,11.777 7.638,11.846 8.05,12.063 L12.063,8.05 C10.851,5.865 11.165,3.375 12.887,1.563 z" fill="#FFFFFF"/>
  </g>
</svg>
