<?xml version="1.0" encoding="UTF-8"?>
<!DOCTYPE svg PUBLIC "-//W3C//DTD SVG 1.1//EN" "http://www.w3.org/Graphics/SVG/1.1/DTD/svg11.dtd">
<svg version="1.1" xmlns="http://www.w3.org/2000/svg" xmlns:xlink="http://www.w3.org/1999/xlink" x="0" y="0" width="30" height="22" viewBox="0, 0, 30, 22">
  <g id="Background">
    <rect x="0" y="0" width="30" height="22" fill="#000000" fill-opacity="0"/>
  </g>
  <g id="Layer_1">
    <path d="M2.331,11.728 C2.006,12.077 1.842,12.484 1.842,12.95 C1.842,13.416 2.006,13.815 2.331,14.143 L9.684,21.493 C10.009,21.821 10.414,21.991 10.888,22 C11.366,22.008 11.771,21.838 12.096,21.493 L12.266,21.299 L5.054,14.087 C4.725,13.759 4.564,13.366 4.57,12.9 C4.576,12.437 4.734,12.036 5.054,11.702 L14.455,1.207 C14.742,0.882 15.135,0.615 15.63,0.416 C16.128,0.214 16.603,0.085 17.06,0.029 L14.619,0.029 C14.144,0.029 13.62,0.144 13.042,0.372 C12.468,0.601 12.031,0.891 11.732,1.237 z M23.768,6.034 C23.329,6.034 22.945,5.87 22.619,5.545 C22.291,5.213 22.127,4.83 22.127,4.393 C22.127,3.936 22.291,3.543 22.619,3.221 C22.945,2.898 23.329,2.737 23.768,2.737 C24.228,2.737 24.615,2.898 24.94,3.221 C25.263,3.543 25.424,3.936 25.424,4.393 C25.424,4.83 25.263,5.213 24.94,5.545 C24.615,5.87 24.228,6.034 23.768,6.034 M7.788,11.702 C7.48,12.048 7.322,12.449 7.31,12.906 C7.301,13.366 7.463,13.759 7.788,14.087 L15.17,21.437 C15.495,21.765 15.9,21.938 16.383,21.956 C16.864,21.976 17.254,21.803 17.553,21.437 L26.951,10.972 C27.282,10.606 27.563,10.149 27.801,9.595 C28.038,9.047 28.158,8.534 28.158,8.068 L28.158,1.7 C28.158,1.24 27.997,0.841 27.669,0.507 C27.341,0.17 26.936,0 26.461,0 L20.093,0 C19.859,0 19.61,0.029 19.343,0.085 C19.076,0.141 18.807,0.229 18.534,0.343 C18.265,0.46 18.01,0.592 17.772,0.738 C17.535,0.882 17.339,1.04 17.186,1.207 z" fill="#FFFFFF"/>
  </g>
</svg>
