<?xml version="1.0" encoding="UTF-8"?>
<!DOCTYPE svg PUBLIC "-//W3C//DTD SVG 1.1//EN" "http://www.w3.org/Graphics/SVG/1.1/DTD/svg11.dtd">
<svg version="1.1" xmlns="http://www.w3.org/2000/svg" xmlns:xlink="http://www.w3.org/1999/xlink" x="0" y="0" width="114" height="98" viewBox="0, 0, 114, 98">
  <g id="Layer_1">
    <path d="M107.983,31.907 L107.983,87.733 C107.983,90.532 106.994,92.956 105.044,94.962 C103.079,96.996 100.698,98 97.896,98 L49.149,98 C46.348,98 43.939,97.011 41.905,94.99 C39.884,93.012 38.882,90.588 38.882,87.733 L38.882,31.907 C44.342,32.631 49.776,33.09 55.155,33.314 C60.531,33.523 65.95,33.635 71.425,33.635 L73.558,33.635 C79.299,33.551 85.024,33.411 90.764,33.243 C96.489,33.064 102.23,32.631 107.983,31.907 z M74.826,41.173 L72.22,41.173 C71.509,41.173 70.91,41.436 70.451,41.953 C69.99,42.453 69.755,43.08 69.753,43.791 L69.753,84.737 C69.755,85.447 69.977,86.032 70.423,86.506 C70.869,86.966 71.453,87.203 72.22,87.203 L74.826,87.203 C75.522,87.203 76.136,86.966 76.666,86.534 C77.181,86.088 77.418,85.489 77.418,84.737 L77.418,43.791 C77.418,43.08 77.181,42.453 76.666,41.953 C76.136,41.436 75.522,41.173 74.826,41.173 z M94.371,41.173 L91.766,41.173 C91.057,41.173 90.443,41.436 89.941,41.951 C89.426,42.453 89.161,43.08 89.161,43.791 L89.161,84.737 C89.161,85.447 89.413,86.032 89.9,86.506 C90.387,86.966 91.014,87.203 91.766,87.203 L94.371,87.203 C95.082,87.203 95.696,86.966 96.196,86.534 C96.713,86.088 96.976,85.489 96.976,84.737 L96.976,43.791 C96.976,43.08 96.713,42.453 96.196,41.951 C95.696,41.436 95.082,41.173 94.371,41.173 z M55.28,41.173 L52.688,41.173 C51.964,41.173 51.378,41.436 50.918,41.953 C50.444,42.453 50.207,43.08 50.207,43.791 L50.207,84.737 C50.207,85.447 50.444,86.032 50.918,86.506 C51.378,86.966 51.964,87.203 52.688,87.203 L55.28,87.203 C55.989,87.203 56.603,86.966 57.118,86.534 C57.62,86.088 57.885,85.489 57.885,84.737 L57.885,43.791 C57.885,43.08 57.62,42.453 57.118,41.953 C56.603,41.436 55.989,41.173 55.28,41.173 z" fill="#6C89A6"/>
    <path d="M5.618,46.009 C6.844,43.885 8.106,41.814 9.438,39.785 C10.771,37.755 12.249,36.114 13.861,34.825 C15.503,33.569 17.313,32.86 19.308,32.694 C21.296,32.537 23.597,33.207 26.215,34.719 L27.601,35.519 C28.072,35.792 28.527,36.118 28.986,36.463 C29.701,35.396 30.686,33.938 31.903,32.082 C33.138,30.221 34.45,28.34 35.848,26.446 C37.242,24.563 38.651,22.818 40.05,21.23 C41.465,19.618 42.736,18.502 43.805,17.849 L51.962,22.557 C51.912,24.427 51.161,27.146 49.741,30.749 C48.314,34.334 46.614,38.115 44.641,42.092 C42.698,46.068 40.69,49.881 38.625,53.514 C36.57,57.155 34.93,60.053 33.683,62.212 C32.457,64.336 30.768,67.206 28.62,70.839 C26.48,74.493 24.175,78.151 21.695,81.835 C19.245,85.52 16.836,88.859 14.488,91.863 C12.124,94.873 10.146,96.851 8.515,97.809 C7.85,97.538 7.165,97.191 6.441,96.773 L2.375,94.425 C1.688,94.028 1.009,93.588 0.358,93.1 C0.389,91.846 0.714,90.201 1.375,88.217 C2.03,86.246 2.815,84.19 3.743,82.055 C4.67,79.92 5.643,77.843 6.645,75.831 C7.664,73.814 8.427,72.243 8.974,71.127 C5.643,69.623 3.314,67.973 1.961,66.195 C0.638,64.416 -0.034,62.516 0.001,60.477 C0.016,58.445 0.543,56.222 1.593,53.82 C2.653,51.424 3.989,48.832 5.618,46.009 z M14.619,51.206 C13.798,52.63 12.986,54.091 12.165,55.597 C11.346,57.101 10.741,58.65 10.353,60.212 L11.209,60.706 C11.596,60.93 12.038,61.169 12.523,61.386 C13.014,61.621 13.484,61.811 13.949,61.983 C17.067,56.384 20.294,50.797 23.651,45.176 C23.194,44.911 22.768,44.616 22.371,44.275 C21.966,43.945 21.544,43.7 21.115,43.551 L20.258,43.056 C19.092,44.184 18.047,45.494 17.145,46.97 C16.239,48.457 15.393,49.866 14.619,51.206 z" fill="#6C89A6"/>
    <g>
      <path d="M93.121,0.056 C92.238,0.164 91.32,0.413 90.358,0.804 C89.401,1.188 88.642,1.704 88.087,2.332 L69.922,22.611 C69.304,23.257 68.999,24.031 68.987,24.926 C68.975,25.826 69.287,26.586 69.922,27.22 L80.703,38 L75.337,38 L64.661,27.328 C64.033,26.694 63.716,25.923 63.716,25.023 C63.716,24.122 64.033,23.336 64.661,22.661 L82.826,2.39 C83.404,1.722 84.248,1.161 85.357,0.719 C86.474,0.278 87.486,0.056 88.404,0.056 L93.121,0.056 z" fill="#6C89A6"/>
      <path d="M110.721,-0 C111.639,-0 112.421,0.328 113.055,0.98 C113.689,1.625 114,2.396 114,3.285 L114,15.589 C114,16.49 113.768,17.481 113.31,18.54 C112.85,19.61 112.307,20.493 111.668,21.201 L96.581,38 L85.468,38 L74.64,27.22 C74.012,26.586 73.699,25.826 73.717,24.937 C73.74,24.055 74.045,23.28 74.64,22.611 L92.799,2.332 C93.095,2.01 93.474,1.704 93.932,1.426 C94.392,1.144 94.884,0.889 95.404,0.663 C95.932,0.442 96.451,0.272 96.967,0.164 C97.483,0.056 97.964,-0 98.416,-0 L110.721,-0 z M105.517,5.289 C104.669,5.289 103.927,5.6 103.297,6.224 C102.664,6.846 102.347,7.605 102.347,8.488 C102.347,9.333 102.664,10.073 103.297,10.714 C103.927,11.342 104.669,11.659 105.517,11.659 C106.406,11.659 107.154,11.342 107.782,10.714 C108.406,10.073 108.717,9.333 108.717,8.488 C108.717,7.605 108.406,6.846 107.782,6.224 C107.154,5.6 106.406,5.289 105.517,5.289 z" fill="#6C89A6"/>
    </g>
  </g>
</svg>
