<?xml version="1.0" encoding="UTF-8"?>
<!DOCTYPE svg PUBLIC "-//W3C//DTD SVG 1.1//EN" "http://www.w3.org/Graphics/SVG/1.1/DTD/svg11.dtd">
<svg version="1.1" xmlns="http://www.w3.org/2000/svg" xmlns:xlink="http://www.w3.org/1999/xlink" x="0" y="0" width="20" height="20" viewBox="0, 0, 20, 20">
  <g id="Layer_1">
    <path d="M10.862,14.268 C11.108,14.116 11.31,13.908 11.468,13.652 C11.622,13.391 11.702,13.111 11.702,12.815 C11.702,12.346 11.537,11.943 11.206,11.602 C10.873,11.261 10.473,11.093 10.007,11.093 C9.537,11.093 9.14,11.261 8.807,11.602 C8.474,11.943 8.308,12.346 8.308,12.815 C8.308,13.111 8.383,13.391 8.538,13.652 C8.692,13.908 8.89,14.106 9.14,14.244 L8.308,17.907 L11.702,17.907 z M14,7.006 C14,6.446 13.896,5.921 13.688,5.436 C13.478,4.953 13.19,4.532 12.825,4.175 C12.462,3.818 12.033,3.535 11.545,3.327 C11.054,3.117 10.543,3.013 10.007,3.013 C9.444,3.013 8.924,3.117 8.45,3.327 C7.973,3.535 7.549,3.818 7.178,4.175 C6.808,4.532 6.52,4.956 6.312,5.444 C6.104,5.932 6,6.454 6,7.006 L6,8.998 L14,8.998 z M17.013,9.102 C17.309,9.203 17.549,9.381 17.725,9.637 C17.909,9.891 17.997,10.187 17.997,10.517 L17.997,18.507 C17.997,18.907 17.847,19.256 17.554,19.552 C17.261,19.851 16.914,20 16.514,20 L3.496,20 C3.097,20 2.747,19.851 2.451,19.552 C2.15,19.256 2.003,18.907 2.003,18.507 L2.003,10.517 C2.003,10.187 2.094,9.891 2.275,9.637 C2.462,9.381 2.699,9.203 3.001,9.102 L3.001,7.006 C3.001,6.046 3.182,5.14 3.547,4.29 C3.915,3.436 4.413,2.693 5.045,2.055 C5.682,1.418 6.426,0.917 7.279,0.549 C8.135,0.184 9.044,0 10.007,0 C10.966,0 11.873,0.184 12.723,0.549 C13.576,0.917 14.32,1.418 14.957,2.055 C15.595,2.693 16.098,3.439 16.466,4.298 C16.829,5.151 17.013,6.054 17.013,7.006 z" fill="#5C7A99"/>
  </g>
</svg>
