<?xml version="1.0" encoding="UTF-8"?>
<!DOCTYPE svg PUBLIC "-//W3C//DTD SVG 1.1//EN" "http://www.w3.org/Graphics/SVG/1.1/DTD/svg11.dtd">
<svg version="1.1" xmlns="http://www.w3.org/2000/svg" xmlns:xlink="http://www.w3.org/1999/xlink" x="0" y="0" width="127.988" height="150" viewBox="0, 0, 127.988, 150">
  <g id="Layer_1">
    <g>
      <path d="M94.943,45.588 C113.193,45.588 127.988,60.383 127.988,78.632 C127.988,96.883 113.193,111.678 94.943,111.678 C76.692,111.678 61.897,96.883 61.897,78.632 C61.897,60.383 76.692,45.588 94.943,45.588 z" fill="#FFFFFF"/>
      <path d="M49.509,0.005 C73.011,0.433 92.214,16.745 97.028,39.655 C96.334,39.609 95.638,39.601 94.943,39.596 C73.384,39.596 55.907,57.074 55.907,78.632 C55.882,84.877 57.435,91.044 60.276,96.592 C56.571,97.491 52.764,97.886 48.956,97.91 C21.918,97.91 -0,75.993 -0,48.955 C0.074,21.817 21.879,0.172 48.956,0 L49.509,0.005 z" fill="#FFFFFF"/>
    </g>
    <g>
      <path d="M37.122,141.75 L38.534,141.75 Q38.288,139.754 36.998,138.767 Q35.709,137.78 33.849,137.78 Q32.526,137.78 31.506,138.274 Q30.486,138.767 29.791,139.597 Q29.096,140.426 28.737,141.537 Q28.378,142.646 28.378,143.902 Q28.378,145.157 28.737,146.267 Q29.096,147.377 29.791,148.207 Q30.486,149.036 31.506,149.518 Q32.526,150 33.849,150 Q35.822,150 37.077,148.823 Q38.333,147.646 38.625,145.538 L37.212,145.538 Q37.144,146.255 36.854,146.861 Q36.562,147.467 36.113,147.904 Q35.665,148.341 35.082,148.588 Q34.499,148.835 33.849,148.835 Q32.84,148.835 32.077,148.408 Q31.315,147.982 30.811,147.287 Q30.306,146.592 30.048,145.706 Q29.791,144.821 29.791,143.902 Q29.791,142.982 30.048,142.097 Q30.306,141.211 30.811,140.516 Q31.315,139.821 32.077,139.395 Q32.84,138.969 33.849,138.969 Q35.261,138.969 36.046,139.709 Q36.83,140.449 37.122,141.75 z" fill="#FFFFFF"/>
      <path d="M45.485,138.969 Q46.494,138.969 47.256,139.395 Q48.019,139.821 48.523,140.516 Q49.028,141.211 49.285,142.097 Q49.543,142.982 49.543,143.902 Q49.543,144.821 49.285,145.706 Q49.028,146.592 48.523,147.287 Q48.019,147.982 47.256,148.408 Q46.494,148.835 45.485,148.835 Q44.476,148.835 43.714,148.408 Q42.952,147.982 42.447,147.287 Q41.943,146.592 41.685,145.706 Q41.426,144.821 41.426,143.902 Q41.426,142.982 41.685,142.097 Q41.943,141.211 42.447,140.516 Q42.952,139.821 43.714,139.395 Q44.476,138.969 45.485,138.969 z M45.485,137.78 Q44.162,137.78 43.142,138.274 Q42.122,138.767 41.426,139.597 Q40.732,140.426 40.373,141.537 Q40.014,142.646 40.014,143.902 Q40.014,145.157 40.373,146.267 Q40.732,147.377 41.426,148.207 Q42.122,149.036 43.142,149.518 Q44.162,150 45.485,150 Q46.808,150 47.828,149.518 Q48.848,149.036 49.543,148.207 Q50.238,147.377 50.597,146.267 Q50.955,145.157 50.955,143.902 Q50.955,142.646 50.597,141.537 Q50.238,140.426 49.543,139.597 Q48.848,138.767 47.828,138.274 Q46.808,137.78 45.485,137.78 z" fill="#FFFFFF"/>
      <path d="M53.041,138.117 L53.041,149.686 L54.453,149.686 L54.453,142.937 Q54.476,142.086 54.734,141.357 Q54.992,140.628 55.452,140.101 Q55.911,139.575 56.573,139.272 Q57.234,138.969 58.086,138.969 Q58.938,138.969 59.509,139.238 Q60.081,139.507 60.417,139.978 Q60.754,140.449 60.888,141.087 Q61.023,141.727 61.023,142.467 L61.023,149.686 L62.436,149.686 L62.436,142.242 Q62.436,141.211 62.233,140.382 Q62.032,139.551 61.538,138.98 Q61.045,138.408 60.227,138.094 Q59.408,137.78 58.198,137.78 Q56.964,137.78 55.933,138.42 Q54.902,139.059 54.498,140.112 L54.453,140.112 L54.453,138.117 z" fill="#FFFFFF"/>
      <path d="M67.346,138.117 L67.346,134.642 L65.933,134.642 L65.933,138.117 L63.915,138.117 L63.915,139.306 L65.933,139.306 L65.933,147.22 Q65.911,148.699 66.471,149.249 Q67.032,149.798 68.444,149.798 Q68.758,149.798 69.072,149.776 Q69.386,149.753 69.7,149.753 L69.7,148.565 Q69.095,148.632 68.489,148.632 Q67.727,148.588 67.537,148.195 Q67.346,147.803 67.346,147.108 L67.346,139.306 L69.7,139.306 L69.7,138.117 z" fill="#FFFFFF"/>
      <path d="M71.606,141.659 L73.018,141.659 Q73.063,140.247 73.915,139.608 Q74.767,138.969 76.113,138.969 Q76.74,138.969 77.289,139.07 Q77.838,139.17 78.253,139.44 Q78.669,139.709 78.904,140.169 Q79.139,140.628 79.139,141.346 Q79.139,141.817 79.016,142.108 Q78.892,142.4 78.669,142.567 Q78.444,142.735 78.108,142.803 Q77.771,142.87 77.323,142.915 Q76.18,143.049 75.07,143.195 Q73.959,143.341 73.074,143.7 Q72.188,144.058 71.651,144.743 Q71.112,145.426 71.112,146.637 Q71.112,147.511 71.415,148.15 Q71.718,148.79 72.245,149.204 Q72.772,149.619 73.478,149.81 Q74.184,150 74.991,150 Q75.844,150 76.46,149.844 Q77.076,149.686 77.558,149.395 Q78.041,149.103 78.433,148.666 Q78.825,148.229 79.206,147.668 L79.251,147.668 Q79.251,148.117 79.307,148.487 Q79.364,148.857 79.543,149.126 Q79.722,149.395 80.047,149.54 Q80.373,149.686 80.91,149.686 Q81.202,149.686 81.393,149.664 Q81.583,149.641 81.83,149.597 L81.83,148.408 Q81.628,148.498 81.381,148.498 Q80.552,148.498 80.552,147.646 L80.552,141.503 Q80.552,140.337 80.171,139.608 Q79.789,138.88 79.184,138.475 Q78.579,138.072 77.816,137.926 Q77.054,137.78 76.292,137.78 Q75.283,137.78 74.453,138.005 Q73.623,138.229 73.007,138.7 Q72.39,139.17 72.032,139.91 Q71.673,140.651 71.606,141.659 z M79.139,143.363 L79.139,145.202 Q79.139,146.054 78.814,146.727 Q78.489,147.4 77.939,147.87 Q77.39,148.341 76.65,148.588 Q75.911,148.835 75.104,148.835 Q74.61,148.835 74.139,148.677 Q73.669,148.521 73.31,148.217 Q72.951,147.915 72.738,147.5 Q72.525,147.086 72.525,146.547 Q72.525,145.695 73.029,145.236 Q73.534,144.776 74.318,144.53 Q75.104,144.283 76.056,144.159 Q77.009,144.036 77.906,143.88 Q78.197,143.835 78.579,143.722 Q78.96,143.61 79.094,143.363 z" fill="#FFFFFF"/>
      <path d="M91.538,141.75 L92.95,141.75 Q92.703,139.754 91.414,138.767 Q90.125,137.78 88.265,137.78 Q86.942,137.78 85.922,138.274 Q84.901,138.767 84.206,139.597 Q83.511,140.426 83.152,141.537 Q82.793,142.646 82.793,143.902 Q82.793,145.157 83.152,146.267 Q83.511,147.377 84.206,148.207 Q84.901,149.036 85.922,149.518 Q86.942,150 88.265,150 Q90.237,150 91.493,148.823 Q92.749,147.646 93.04,145.538 L91.627,145.538 Q91.56,146.255 91.269,146.861 Q90.978,147.467 90.529,147.904 Q90.081,148.341 89.497,148.588 Q88.915,148.835 88.265,148.835 Q87.256,148.835 86.493,148.408 Q85.731,147.982 85.227,147.287 Q84.722,146.592 84.465,145.706 Q84.206,144.821 84.206,143.902 Q84.206,142.982 84.465,142.097 Q84.722,141.211 85.227,140.516 Q85.731,139.821 86.493,139.395 Q87.256,138.969 88.265,138.969 Q89.677,138.969 90.462,139.709 Q91.246,140.449 91.538,141.75 z" fill="#FFFFFF"/>
      <path d="M97.255,138.117 L97.255,134.642 L95.843,134.642 L95.843,138.117 L93.825,138.117 L93.825,139.306 L95.843,139.306 L95.843,147.22 Q95.82,148.699 96.381,149.249 Q96.941,149.798 98.354,149.798 Q98.668,149.798 98.982,149.776 Q99.296,149.753 99.61,149.753 L99.61,148.565 Q99.004,148.632 98.399,148.632 Q97.636,148.588 97.446,148.195 Q97.255,147.803 97.255,147.108 L97.255,139.306 L99.61,139.306 L99.61,138.117 z" fill="#FFFFFF"/>
    </g>
  </g>
</svg>
